<?xml version="1.0" encoding="utf-8"?>
<!-- Generator: Adobe Illustrator 16.0.4, SVG Export Plug-In . SVG Version: 6.00 Build 0)  -->
<!DOCTYPE svg PUBLIC "-//W3C//DTD SVG 1.1//EN" "http://www.w3.org/Graphics/SVG/1.1/DTD/svg11.dtd">
<svg version="1.1" id="Layer_1" xmlns="http://www.w3.org/2000/svg" xmlns:xlink="http://www.w3.org/1999/xlink" x="0px" y="0px"
	 width="128px" height="128px" viewBox="0 0 128 128" enable-background="new 0 0 128 128" xml:space="preserve">
<path fill="#010101" d="M114.659,91.052c-3.881-29.764-38.722-34.045-38.722-34.045c24.687-14.533,26.877-27.573,26.877-30.759
	C103.411,4.149,82.906,1.562,82.906,1.562c-5.377-1.692-69.782-0.598-69.782-0.598c6.271,3.484,6.172,10.054,6.172,10.054
	c0.398,2.688,1.194,104.521,1.194,104.521c-1.194,9.954-7.167,11.846-7.167,11.846c1.792,0,69.68-0.398,69.68-0.398
	C119.537,125.294,114.659,91.052,114.659,91.052z M68.869,120.615c0,0-20.605,3.385-21.402-7.963
	c-0.796-11.349-0.199-59.428-0.199-59.428L46.87,15c-0.199-8.362,10.95-8.063,10.95-8.063c23.194,0,21.004,23.393,21.004,23.393
	c0,12.742-19.511,28.47-19.511,28.47h-0.1h0.1c1.792,0.398,26.677,6.172,28.47,37.429C87.783,96.228,90.57,118.027,68.869,120.615z"
	/>
<g>
</g>
<g>
</g>
<g>
</g>
<g>
</g>
<g>
</g>
<g>
</g>
</svg>
