<svg version="1.1" xmlns="http://www.w3.org/2000/svg" x="0" y="0" viewBox="0 0 128 128" xml:space="preserve"><path fill="#010101" d="M114.659 91.052c-3.881-29.764-38.722-34.045-38.722-34.045 24.687-14.533 26.877-27.573 26.877-30.759.597-22.099-19.908-24.686-19.908-24.686C77.529-.13 13.124.964 13.124.964c6.271 3.484 6.172 10.054 6.172 10.054.398 2.688 1.194 104.521 1.194 104.521-1.194 9.954-7.167 11.846-7.167 11.846 1.792 0 69.68-.398 69.68-.398 36.534-1.693 31.656-35.935 31.656-35.935zm-45.79 29.563S48.264 124 47.467 112.652c-.796-11.349-.199-59.428-.199-59.428L46.87 15c-.199-8.362 10.95-8.063 10.95-8.063 23.194 0 21.004 23.393 21.004 23.393 0 12.742-19.511 28.47-19.511 28.47h-.1.1c1.792.398 26.677 6.172 28.47 37.429 0-.001 2.787 21.798-18.914 24.386z"/><g/><g/><g/><g/><g/><g/></svg>
