<svg xmlns="http://www.w3.org/2000/svg" width="2021" height="1598" viewBox="0 0 2021 1598">
  <defs>
    <style>
      .cls-1 {
        fill-rule: evenodd;
      }
    </style>
  </defs>
  <path id="U" class="cls-1" d="M802.292,6.66c0-11.044,0-11.044-40.494-11.044-15.952,0-29.45,1.227-60.127,1.227-35.585,0-79.76-1.227-100.62-1.227-40.494,0-41.721,0-41.721,11.044s22.087,20.86,61.354,20.86c30.677,0,49.083,8.59,49.083,414.753,0,171.792-14.725,206.15-89.577,249.1-46.629,27-92.031,28.223-141.114,28.223-188.971,0-217.194-115.346-217.194-212.285V72.922c0-36.812,1.228-47.856,42.948-47.856s46.629-2.454,46.629-14.725S304.1-6.838,293.053-6.838c-24.541,0-110.437,1.227-161.975,1.227-57.672,0-79.76-1.227-106.756-1.227-18.406,0-27,3.681-27,14.725,0,14.725,4.908,17.179,61.354,17.179,34.358,0,40.494,35.585,40.494,74.852v385.3c0,211.058,119.027,271.185,301.862,271.185,93.258,0,155.84-12.271,204.923-41.721C677.13,671.738,706.58,623.881,706.58,443.5c0-155.839,1.227-244.189,1.227-306.77,0-106.756,17.179-109.21,57.672-109.21C802.292,27.52,802.292,17.7,802.292,6.66Z"/>
  <path id="C" class="cls-1" d="M1419.77,1059.47c0-6.13-14.73-28.22-23.32-46.63-6.13-12.27-7.36-25.767-11.04-25.767-8.59,0-15.95,25.767-19.63,41.717-6.14,30.68-89.58,117.8-236.83,117.8-200.013,0-319.04-138.66-319.04-336.216,0-222.1,119.027-369.352,332.54-369.352,130.07,0,215.97,41.721,223.33,80.987,2.45,9.817,4.91,22.088,13.5,22.088,4.9,0,12.27-3.681,12.27-9.817,0-52.764,7.36-79.76,7.36-95.712,0-6.136-12.27-13.5-15.95-13.5-18.41,0-76.08-18.406-174.25-18.406-343.581,0-523.962,171.791-523.962,417.207,0,246.639,154.612,357.079,375.482,357.079C1306.88,1180.95,1419.77,1070.51,1419.77,1059.47Z"/>
  <path id="B" class="cls-1" d="M2022.08,1398.3c0-115.34-74.85-146.02-132.53-175.47-24.54-12.27-46.63-17.18-46.63-20.86s17.18-9.82,42.95-27c29.45-19.63,100.62-63.81,100.62-165.66,0-72.393-46.63-169.333-206.15-169.333-110.43,0-229.46,7.362-255.23,7.362-42.95,0-80.99-1.227-119.03-1.227-20.86,0-24.54,2.454-24.54,14.725s3.68,14.725,60.13,14.725c34.36,0,53.99,11.044,53.99,107.984V1541.87c0,18.41-2.46,20.86-57.67,20.86-27,0-34.36,1.23-34.36,17.18,0,12.27,8.59,13.5,20.86,13.5,39.26,0,66.26-4.91,117.8-4.91,53.99,0,165.65,12.27,217.19,12.27C1911.64,1600.77,2022.08,1535.74,2022.08,1398.3Zm-158.29-349.72c0,104.3-31.91,122.71-67.49,149.71,0,0-51.54-13.5-132.53-13.5-36.81,0-45.4-1.23-45.4-17.18V906.239c0-24.541,1.22-35.585,82.21-35.585C1817.16,870.654,1863.79,987.227,1863.79,1048.58Zm20.86,359.54c0,106.76-51.54,164.43-161.98,164.43-34.36,0-76.08-4.91-89.58-19.63-11.04-12.28-14.72-77.31-14.72-88.36V1244.92c0-27,15.95-31.91,44.17-31.91C1796.3,1213.01,1884.65,1295.23,1884.65,1408.12Z"/>
</svg>
