<?xml version="1.0" encoding="utf-8"?>
<!-- Generator: Adobe Illustrator 16.0.4, SVG Export Plug-In . SVG Version: 6.00 Build 0)  -->
<!DOCTYPE svg PUBLIC "-//W3C//DTD SVG 1.1//EN" "http://www.w3.org/Graphics/SVG/1.1/DTD/svg11.dtd">
<svg version="1.1" id="Layer_1" xmlns="http://www.w3.org/2000/svg" xmlns:xlink="http://www.w3.org/1999/xlink" x="0px" y="0px"
	 width="512px" height="512px" viewBox="0 0 512 512" enable-background="new 0 0 512 512" xml:space="preserve">
<path id="disc-13-icon" d="M185.916,328.613c-4.396,5.825-7.916,12.242-10.458,19.209c-28.729-15.062-51.104-40.53-61.771-71.613
	l21.875-2.74C145.02,297.541,163.188,316.781,185.916,328.613z M92.021,278.907l-21.333,2.676
	c14.479,50.636,51.75,91.396,99.979,110.969v-19.218c0-1.28,0.313-2.47,0.375-3.73C133.542,351.844,104.5,319.041,92.021,278.907z
	 M398.646,187.771c-16.127-56.51-60.562-100.958-117.083-117.094l-2.667,21.343c46.835,14.552,83.855,51.584,98.417,98.417
	L398.646,187.771z M276.188,113.688l-2.729,21.875c27.582,10.833,49.478,32.728,60.312,60.323l21.875-2.74
	C342.854,155.895,313.438,126.469,276.188,113.688z M234.667,298.666c-35.355,0-64-28.656-64-64c0-35.344,28.645-64,64-64
	c35.354,0,64,28.656,64,64C298.666,270.01,270.021,298.666,234.667,298.666z M234.667,277.334c23.521,0,42.667-19.135,42.667-42.667
	c0-23.53-19.146-42.667-42.667-42.667C211.145,192,192,211.136,192,234.667C192,258.199,211.146,277.334,234.667,277.334z
	 M403.875,401.02H390.25v51.408h17c14.5,0,21.646-10.073,21.646-24.449C428.896,408.822,420.229,401.02,403.875,401.02z
	 M512,373.334V480c0,17.677-14.334,32-32,32H245.333c-17.666,0-32-14.323-32-32V373.334c0-17.679,14.334-32,32-32H480
	C497.666,341.334,512,355.655,512,373.334z M358.146,436.094h-18.46c-1.457,10.906-7.938,18.281-19.706,18.281
	c-15.729,0-23.564-11.844-23.564-27.302c0-15.928,7.563-27.988,23.564-27.988c10.124,0,17.771,6.821,18.978,14.27h18.46
	C355.146,394.364,338.874,384,319.979,384c-26.397,0-42.646,18.469-42.646,43.073c0,24.53,16.647,42.26,42.646,42.26
	C342.417,469.333,356.396,455.593,358.146,436.094z M448,426.26c0-25.853-15.791-40.311-39.396-40.311h-37.438v81.562h37.438
	C433.625,467.51,448,451.344,448,426.26z M42.667,234.667c0-105.865,86.125-192,192-192c105.875,0,192,86.135,192,192
	c0,22.469-4.083,43.947-11.207,64h44.812c5.771-20.374,9.063-41.781,9.063-64C469.334,105.062,364.271,0,234.667,0
	C105.062,0,0,105.062,0,234.667c0,107.386,72.208,197.72,170.667,225.604v-44.802C96.208,389.021,42.667,318.063,42.667,234.667z"/>
</svg>
