<svg version="1.1" xmlns="http://www.w3.org/2000/svg" x="0" y="0" viewBox="0 0 512 512" xml:space="preserve"><path d="M185.916 328.613a73.739 73.739 0 00-10.458 19.209c-28.729-15.062-51.104-40.53-61.771-71.613l21.875-2.74c9.458 24.072 27.626 43.312 50.354 55.144zm-93.895-49.706l-21.333 2.676c14.479 50.636 51.75 91.396 99.979 110.969v-19.218c0-1.28.313-2.47.375-3.73-37.5-17.76-66.542-50.563-79.021-90.697zm306.625-91.136c-16.127-56.51-60.562-100.958-117.083-117.094l-2.667 21.343c46.835 14.552 83.855 51.584 98.417 98.417l21.333-2.666zm-122.458-74.083l-2.729 21.875c27.582 10.833 49.478 32.728 60.312 60.323l21.875-2.74c-12.792-37.251-42.208-66.677-79.458-79.458zm-41.521 184.978c-35.355 0-64-28.656-64-64s28.645-64 64-64c35.354 0 64 28.656 64 64-.001 35.344-28.646 64-64 64zm0-21.332c23.521 0 42.667-19.135 42.667-42.667 0-23.53-19.146-42.667-42.667-42.667C211.145 192 192 211.136 192 234.667c0 23.532 19.146 42.667 42.667 42.667zM403.875 401.02H390.25v51.408h17c14.5 0 21.646-10.073 21.646-24.449 0-19.157-8.667-26.959-25.021-26.959zM512 373.334V480c0 17.677-14.334 32-32 32H245.333c-17.666 0-32-14.323-32-32V373.334c0-17.679 14.334-32 32-32H480c17.666 0 32 14.321 32 32zm-153.854 62.76h-18.46c-1.457 10.906-7.938 18.281-19.706 18.281-15.729 0-23.564-11.844-23.564-27.302 0-15.928 7.563-27.988 23.564-27.988 10.124 0 17.771 6.821 18.978 14.27h18.46C355.146 394.364 338.874 384 319.979 384c-26.397 0-42.646 18.469-42.646 43.073 0 24.53 16.647 42.26 42.646 42.26 22.438 0 36.417-13.74 38.167-33.239zM448 426.26c0-25.853-15.791-40.311-39.396-40.311h-37.438v81.562h37.438C433.625 467.51 448 451.344 448 426.26zM42.667 234.667c0-105.865 86.125-192 192-192s192 86.135 192 192c0 22.469-4.083 43.947-11.207 64h44.812c5.771-20.374 9.063-41.781 9.063-64C469.334 105.062 364.271 0 234.667 0 105.062 0 0 105.062 0 234.667c0 107.386 72.208 197.72 170.667 225.604v-44.802c-74.459-26.448-128-97.406-128-180.802z"/></svg>
