<?xml version="1.0" standalone="no"?>
<!DOCTYPE svg PUBLIC "-//W3C//DTD SVG 20010904//EN"
 "http://www.w3.org/TR/2001/REC-SVG-20010904/DTD/svg10.dtd">
<svg version="1.0" xmlns="http://www.w3.org/2000/svg"
 width="556.000000pt" height="680.000000pt" viewBox="0 0 556.000000 680.000000"
 preserveAspectRatio="xMidYMid meet">
<metadata>
Created by potrace 1.15, written by Peter Selinger 2001-2017
</metadata>
<g transform="translate(0.000000,680.000000) scale(0.100000,-0.100000)"
fill="#000000" stroke="none">
<path d="M1970 6599 c-553 -16 -1329 -67 -1622 -105 l-48 -7 0 -1763 c0 -1894
-2 -1827 51 -2108 122 -655 439 -1224 903 -1624 263 -227 554 -402 892 -535
263 -104 588 -186 683 -172 25 4 117 25 203 46 811 203 1443 642 1825 1266
201 329 330 695 406 1158 21 129 22 143 24 1933 3 1719 3 1802 -14 1802 -10 0
-88 7 -173 15 -898 86 -2144 123 -3130 94z m475 -320 c90 -12 188 -41 263 -76
l52 -24 0 -751 c0 -596 -3 -749 -12 -745 -235 99 -398 130 -553 107 -44 -6
-172 -31 -285 -55 -267 -57 -387 -75 -510 -75 l-100 0 0 765 0 765 58 -7 c31
-5 143 -8 247 -8 l190 1 110 37 c206 70 370 90 540 66z m1110 -29 c221 -69
472 -99 683 -83 l112 8 0 -762 0 -763 -63 0 c-116 0 -308 28 -682 100 -256 49
-312 54 -421 41 -143 -17 -201 -36 -347 -109 -4 -2 -6 333 -5 744 l3 748 90
32 c249 90 439 103 630 44z m-2646 -357 c103 -77 94 -231 -17 -284 -126 -61
-254 44 -228 186 9 45 58 102 100 115 45 13 114 5 145 -17z m3660 -73 c21 0
60 7 87 15 63 19 105 19 151 0 58 -25 87 -58 107 -123 7 -20 5 -21 -19 -12
-50 19 -88 10 -231 -55 -139 -63 -226 -91 -245 -80 -5 4 -9 71 -9 150 l0 143
61 -19 c33 -10 78 -19 98 -19z m-3339 -85 l0 -96 -92 3 -93 3 -3 93 -3 92 96
0 95 0 0 -95z m-335 -485 c115 -56 114 -235 -3 -291 -79 -39 -182 -6 -218 69
-40 84 -10 182 69 221 53 26 99 27 152 1z m3640 -17 c50 -2 122 -1 160 4 39 4
83 7 98 5 37 -4 101 -69 117 -117 14 -43 10 -51 -19 -35 -43 23 -106 15 -173
-23 -82 -45 -195 -85 -264 -93 l-54 -7 0 143 0 142 23 -7 c12 -4 63 -10 112
-12z m-3305 -143 l0 -90 -95 0 -95 0 0 90 0 90 95 0 95 0 0 -90z m1703 -641
c83 -35 154 -47 185 -30 19 10 22 9 22 -10 0 -12 -8 -31 -17 -42 -18 -20 -17
-20 21 -14 23 4 51 18 68 33 l28 28 0 -38 c0 -46 -31 -79 -88 -97 l-40 -12 29
-24 c19 -16 29 -34 29 -53 0 -37 35 -80 66 -80 30 0 31 -14 3 -34 -16 -11 -28
-12 -47 -5 -33 13 -35 9 -17 -34 8 -20 15 -47 15 -59 0 -44 22 -102 50 -129
47 -48 10 -56 -43 -9 l-34 30 15 -43 c14 -40 14 -50 -1 -113 -10 -37 -22 -73
-27 -78 -7 -7 -23 4 -50 34 -40 46 -53 49 -24 5 38 -58 60 -225 30 -225 -8 0
-25 18 -37 40 -28 50 -41 51 -27 3 14 -53 25 -71 76 -128 25 -27 58 -78 74
-113 l30 -62 -15 -115 c-8 -64 -17 -118 -20 -121 -11 -11 -27 7 -52 57 -14 27
-28 49 -31 49 -19 0 31 -126 66 -165 9 -11 22 -35 29 -54 14 -42 15 -131 1
-131 -5 0 -21 18 -36 41 -14 22 -27 39 -29 37 -3 -2 5 -35 17 -73 32 -102 31
-239 -2 -320 l-24 -60 -30 123 c-17 68 -35 121 -41 119 -5 -2 -36 -41 -68 -86
-33 -45 -61 -80 -64 -78 -2 3 -9 38 -14 78 -19 136 -86 359 -108 359 -13 0
-154 -399 -168 -475 -16 -88 -11 -194 11 -270 8 -25 12 -45 10 -45 -10 0 -56
106 -73 170 -45 160 -34 330 24 390 28 30 33 76 10 106 -11 14 -14 15 -15 4 0
-21 -18 -82 -29 -99 -13 -20 -47 2 -60 40 -14 41 0 103 38 166 38 63 44 85 28
108 -13 17 -15 15 -33 -21 -26 -54 -48 -55 -63 -3 -35 118 3 272 96 387 19 23
33 47 31 52 -2 5 -23 -4 -47 -21 -54 -36 -64 -27 -55 46 14 110 84 207 161
221 38 7 39 10 16 36 -9 10 -14 19 -12 21 2 1 35 10 72 20 84 21 122 46 137
92 17 52 5 57 -40 14 -28 -27 -50 -39 -70 -39 -37 0 -48 18 -21 36 25 18 27
56 4 79 -12 13 -28 16 -62 12 -40 -4 -101 12 -101 27 0 3 -3 12 -7 21 -5 14
-2 16 15 11 14 -5 46 4 93 25 67 29 75 30 113 19 22 -7 55 -27 74 -46 19 -19
36 -34 38 -34 8 0 4 50 -7 73 -11 25 -75 67 -102 67 -8 0 -25 16 -38 36 -28
46 -74 74 -121 74 -31 0 -39 5 -57 35 -27 47 -60 61 -97 44 -16 -8 -33 -24
-39 -37 -13 -28 -19 -28 -44 4 -42 53 -16 141 53 183 18 12 36 21 40 21 4 0
16 -21 27 -46 19 -43 42 -64 56 -50 3 3 -2 24 -12 45 -10 22 -15 47 -12 55 8
19 48 21 66 4 10 -11 18 -6 39 20 56 68 139 75 265 21z m-1032 -82 c19 -12 45
-43 59 -67 22 -40 25 -57 26 -152 1 -122 6 -133 70 -149 l44 -11 -18 -30 c-29
-50 -53 -55 -162 -34 -21 4 -33 -4 -72 -49 -54 -62 -60 -92 -28 -140 21 -32
27 -90 10 -100 -16 -10 -12 -62 6 -79 20 -21 53 -20 144 4 97 25 117 25 165
-5 22 -13 50 -25 63 -25 18 0 22 5 22 33 0 39 -11 54 -67 90 -46 29 -59 59
-49 109 8 40 56 148 67 148 4 0 13 -16 19 -36 17 -50 59 -95 150 -158 118 -83
148 -159 115 -291 -17 -69 -18 -76 -2 -115 15 -39 15 -43 -3 -73 -55 -93 -63
-269 -16 -352 22 -40 24 -52 19 -123 -6 -82 5 -121 48 -168 18 -19 18 -26 7
-73 -9 -41 -9 -68 0 -123 7 -39 10 -73 8 -76 -3 -2 -27 43 -54 101 -30 62 -67
124 -92 151 -54 59 -146 104 -227 112 l-63 7 0 -28 c0 -18 15 -48 40 -81 23
-28 45 -67 50 -85 13 -43 13 -159 1 -159 -15 0 -117 103 -133 135 -9 17 -19
45 -23 64 l-7 33 -40 -38 c-61 -61 -91 -132 -92 -219 -1 -41 -4 -71 -7 -67 -3
4 -21 44 -38 89 l-33 82 90 115 c82 105 179 265 197 326 l8 25 -23 -20 c-23
-20 -156 -194 -245 -319 l-49 -68 -37 73 -37 74 33 40 c17 22 46 61 64 87 35
52 126 247 118 254 -2 3 -57 -76 -122 -175 l-117 -181 -30 25 c-16 14 -33 25
-38 25 -10 0 -30 -79 -30 -120 0 -36 -43 -90 -137 -172 -66 -58 -71 -55 -72
47 l-1 60 80 90 c77 86 181 238 230 335 l22 45 -32 -30 c-18 -16 -93 -106
-168 -200 -74 -93 -137 -172 -139 -175 -3 -3 -9 3 -15 13 -5 10 -23 33 -39 52
l-29 33 72 104 c75 107 173 297 166 320 -3 7 -66 -80 -142 -194 -98 -148 -141
-206 -151 -201 -20 7 -19 28 5 159 11 60 20 120 20 134 -1 79 -64 -110 -76
-227 l-7 -61 -51 -14 c-59 -16 -62 -30 -15 -77 l30 -30 -3 -144 c-3 -142 -3
-144 24 -183 35 -50 35 -54 1 -54 -16 0 -41 -7 -57 -15 -16 -9 -30 -14 -31
-13 -2 2 -11 48 -21 103 -27 141 -27 546 -1 724 10 67 16 126 13 129 -7 7 -32
-49 -196 -448 -165 -401 -160 -390 -176 -390 -18 0 -24 24 -24 100 0 190 162
603 317 809 35 46 40 61 22 61 -6 0 -73 -60 -149 -134 -154 -148 -228 -196
-307 -196 -23 0 -43 4 -43 9 0 6 100 105 222 220 205 194 285 277 276 286 -1
2 -46 -18 -98 -44 -108 -53 -175 -71 -260 -71 -64 0 -120 9 -120 19 0 4 59 39
130 79 148 82 275 163 339 218 52 45 101 110 101 135 0 15 -13 11 -92 -26
-111 -52 -201 -77 -283 -79 -65 -1 -135 10 -135 22 0 4 26 23 58 41 105 63
425 262 588 367 133 86 168 104 200 104 22 0 46 5 54 10 11 7 0 10 -38 10 -88
0 -119 29 -101 94 l10 37 30 -32 c29 -31 31 -32 97 -26 37 3 112 22 167 41
124 43 196 47 246 13z m2200 -1 c46 -14 107 -34 134 -46 28 -12 74 -23 102
-23 33 -1 53 -6 53 -14 0 -17 -40 -43 -67 -43 -33 0 -38 -19 -6 -25 66 -15
172 -59 222 -93 59 -40 72 -58 45 -64 -12 -2 45 -66 194 -215 157 -158 206
-213 190 -213 -41 0 -165 85 -310 213 -38 32 -68 54 -68 47 0 -12 37 -53 212
-238 59 -62 137 -150 173 -197 63 -80 135 -191 135 -206 0 -26 -214 71 -278
126 -24 21 -91 110 -153 204 -100 151 -142 202 -156 187 -3 -3 63 -119 147
-258 182 -303 222 -384 256 -514 24 -90 26 -117 27 -299 0 -240 -21 -375 -59
-375 -14 0 -26 44 -128 460 -102 414 -171 610 -251 705 l-25 30 26 -70 c116
-304 183 -554 199 -735 l7 -75 -58 -20 c-32 -11 -84 -36 -116 -57 l-58 -38 0
54 c0 152 -37 374 -91 544 -32 97 -54 123 -45 50 16 -123 47 -347 52 -376 3
-22 2 -32 -5 -28 -5 4 -57 64 -114 134 -114 139 -177 204 -177 182 0 -21 86
-169 140 -242 27 -36 74 -86 105 -112 l55 -48 0 -66 c0 -78 -16 -145 -33 -139
-7 2 -87 93 -179 202 -186 221 -241 280 -246 266 -4 -11 33 -86 90 -185 29
-49 82 -109 186 -212 l145 -142 -32 -50 c-52 -82 -51 -82 -137 -18 -41 32 -77
63 -78 69 -2 7 -8 30 -12 52 -9 39 -10 40 -50 40 -39 0 -46 5 -135 98 -97 100
-127 120 -108 70 20 -52 79 -141 118 -176 l40 -36 -29 -53 c-16 -29 -30 -61
-30 -70 0 -32 -22 -19 -106 62 -102 98 -122 105 -85 32 19 -37 87 -107 144
-148 l28 -20 -22 -59 c-13 -37 -36 -73 -58 -94 -70 -66 -213 -182 -218 -177
-3 2 10 34 27 70 37 76 112 155 170 181 46 21 51 44 19 76 -19 19 -30 21 -100
17 l-79 -5 0 31 c0 17 -7 67 -15 111 -8 44 -18 102 -22 128 l-8 48 -47 -30
c-61 -39 -75 -63 -87 -144 -5 -37 -17 -82 -27 -99 -10 -18 -32 -61 -50 -96
l-32 -63 -11 32 c-6 18 -11 62 -11 99 0 57 -4 73 -31 116 -43 67 -56 101 -68
174 -9 56 -8 65 11 90 29 40 34 108 13 185 -16 60 -16 74 -2 202 21 184 14
221 -63 313 l-37 45 10 62 11 62 50 -2 51 -2 30 61 c17 33 49 78 73 101 46 44
49 56 27 110 -8 20 -14 38 -12 40 2 1 23 -7 47 -20 66 -35 75 -66 45 -152 -26
-75 -23 -85 25 -85 74 0 164 56 176 109 18 81 27 100 64 141 50 56 51 88 2
110 -29 13 -32 19 -30 47 l4 32 -47 -44 c-59 -55 -85 -62 -148 -39 -42 15 -56
16 -88 6 -20 -6 -39 -9 -42 -7 -12 13 21 52 55 64 55 19 102 49 120 77 13 19
14 29 3 57 -18 50 -6 78 60 148 l59 62 51 -5 c34 -3 57 0 71 9 67 47 161 54
281 19z m-1801 -185 c0 -11 11 -33 24 -48 l24 -28 144 -1 c157 -1 190 -10 223
-60 17 -26 17 -27 -1 -19 -38 17 -122 17 -229 0 -132 -22 -177 -16 -217 27
-33 36 -36 70 -8 116 22 36 40 42 40 13z m542 -1533 c24 -79 30 -212 14 -319
-5 -31 -5 -83 -1 -115 l8 -59 13 59 c8 32 28 84 45 116 34 65 104 139 117 125
18 -21 52 -176 52 -237 0 -81 -14 -120 -80 -231 -45 -74 -53 -97 -61 -163 -6
-42 -8 -81 -6 -88 2 -6 16 26 31 71 17 50 49 115 82 164 56 85 74 131 99 263
9 49 25 97 42 125 31 49 53 63 53 34 0 -10 6 -28 14 -39 41 -58 24 -166 -49
-301 -50 -93 -50 -93 -31 -93 36 0 97 74 116 140 8 25 8 24 24 -12 29 -68 22
-92 -46 -142 -20 -15 -46 -47 -57 -70 -20 -41 -29 -117 -13 -115 13 1 104 119
135 176 21 40 32 76 37 128 6 59 14 84 48 141 36 61 57 123 78 230 2 11 16 34
31 50 l27 29 13 -75 c22 -120 19 -198 -7 -249 l-22 -44 34 21 c69 43 94 52
143 52 l50 -1 -61 -29 c-71 -35 -99 -69 -149 -188 -53 -127 -64 -143 -136
-213 -71 -68 -83 -89 -51 -89 45 0 142 62 214 138 41 43 112 106 159 139 113
82 153 141 199 290 21 70 73 163 90 163 29 0 23 -145 -11 -271 -21 -76 -33
-99 -98 -179 l-34 -41 39 16 c53 22 179 91 234 128 84 57 153 132 225 242 79
121 115 157 216 210 93 49 107 46 64 -11 -19 -25 -37 -55 -39 -67 -21 -110
-32 -147 -62 -203 -19 -35 -30 -64 -24 -64 5 0 28 9 50 21 22 12 47 19 55 15
11 -4 -14 -35 -87 -110 -146 -148 -174 -160 -508 -215 -163 -26 -254 -65 -423
-178 -136 -92 -206 -130 -309 -168 -27 -9 -48 -20 -48 -24 0 -5 33 -23 73 -42
61 -29 83 -34 145 -34 71 0 74 1 247 89 96 50 177 88 179 85 3 -3 -43 -55
-102 -117 -117 -121 -153 -144 -298 -184 -69 -19 -104 -22 -279 -23 -182 0
-203 -2 -234 -20 -52 -31 -51 -45 4 -45 52 0 75 -10 124 -53 86 -74 176 -85
235 -28 41 40 94 61 153 61 49 0 119 -28 147 -59 16 -17 15 -19 -12 -24 -16
-3 -43 -21 -59 -39 -17 -18 -51 -56 -77 -85 -61 -67 -111 -87 -204 -81 -65 3
-74 7 -185 76 -166 105 -202 112 -228 45 -12 -33 3 -67 66 -143 91 -111 96
-151 31 -216 -50 -51 -91 -57 -154 -25 -36 18 -138 118 -130 126 2 3 20 0 39
-5 47 -14 112 -13 127 2 21 21 13 54 -33 142 -25 48 -45 100 -45 116 0 17 -5
30 -11 30 -6 0 -39 -26 -73 -57 -81 -76 -171 -141 -224 -164 -49 -21 -132 -25
-165 -7 -12 6 -71 58 -132 116 -118 113 -200 179 -267 217 l-43 25 110 0 c183
0 245 -25 355 -141 66 -69 79 -79 110 -79 19 0 49 9 66 19 34 20 141 138 162
177 12 22 10 24 -25 39 -113 48 -285 63 -370 32 -24 -8 -43 -11 -43 -6 0 17
111 119 153 141 93 48 196 22 288 -75 57 -58 66 -43 21 38 -65 118 -222 174
-369 130 -28 -8 -102 -40 -165 -70 -135 -66 -171 -69 -258 -26 -118 59 -259
177 -320 269 -39 58 -38 69 3 43 188 -124 354 -151 502 -80 124 59 262 51 456
-26 48 -19 90 -35 94 -35 3 0 -20 22 -52 50 -68 58 -156 103 -231 119 -110 23
-300 7 -394 -33 -68 -29 -114 -21 -208 34 -47 28 -92 50 -100 50 -20 1 21 34
83 66 61 32 119 39 191 24 32 -6 60 -10 63 -7 2 3 -17 18 -43 33 -37 22 -74
32 -173 46 -241 34 -476 89 -635 148 -58 22 -58 22 -39 42 35 34 109 42 188
21 12 -4 -2 16 -36 49 -64 61 -101 125 -102 177 0 20 3 75 8 122 6 72 5 92 -9
119 -9 18 -14 35 -12 37 11 12 84 -14 108 -37 32 -33 44 -73 58 -210 12 -108
33 -172 67 -202 19 -17 19 -16 19 36 -1 39 4 60 18 75 25 28 29 27 45 -11 19
-43 85 -106 134 -129 54 -24 64 -24 77 2 9 16 7 29 -8 63 -41 87 -59 209 -47
320 5 56 9 65 21 55 23 -19 60 -108 93 -224 26 -89 42 -125 87 -192 31 -45 66
-91 79 -103 l22 -21 6 23 c4 12 0 67 -8 120 -17 112 -11 158 29 219 31 46 41
49 50 14 4 -14 33 -52 66 -84 66 -65 65 -63 60 -209 -1 -51 2 -69 21 -96 28
-41 130 -112 279 -194 142 -79 197 -119 255 -185 48 -55 57 -48 26 19 -20 44
-73 88 -225 188 -117 78 -199 159 -234 233 -25 55 -27 69 -33 243 -3 102 -7
186 -7 188 -1 1 -21 23 -43 47 -39 42 -40 45 -18 45 13 0 42 -9 65 -19 119
-54 236 -228 298 -445 32 -108 37 -118 101 -186 29 -30 69 -77 90 -105 21 -27
35 -41 31 -30 -4 11 -19 70 -34 130 -36 153 -37 368 -3 495 23 86 87 230 102
230 5 0 18 -33 31 -72z m-1242 -256 c0 -38 7 -91 15 -117 8 -27 12 -51 10 -54
-13 -12 -125 118 -125 146 0 14 78 93 93 93 4 0 7 -31 7 -68z m2593 -95 c65
-58 65 -65 12 -110 -33 -27 -33 -27 -70 -10 -40 19 -38 6 -19 133 3 22 9 40
12 40 4 0 33 -24 65 -53z m372 -314 c-30 -97 -105 -251 -136 -279 -14 -13 -22
-15 -31 -6 -17 17 -22 105 -8 176 12 64 13 66 64 95 28 16 69 47 90 70 22 22
42 39 44 36 3 -2 -8 -44 -23 -92z m-3303 -12 c26 -77 8 -231 -27 -231 -21 0
-69 116 -130 316 -2 6 30 -3 71 -20 65 -26 75 -34 86 -65z"/>
<path d="M2110 6051 c-41 -22 -80 -89 -80 -140 0 -69 65 -131 139 -133 27 -1
106 44 96 54 -3 3 -25 3 -48 1 -36 -4 -48 -1 -75 22 -18 15 -32 33 -32 40 0 8
27 37 60 66 l60 52 -27 29 c-31 33 -46 34 -93 9z"/>
<path d="M2348 6007 c-51 -39 -61 -79 -28 -114 11 -12 20 -25 20 -28 0 -3 -16
-19 -35 -36 -19 -17 -35 -35 -35 -39 0 -18 89 -42 127 -35 53 9 122 52 134 82
11 29 -7 65 -41 83 -19 10 -18 12 15 42 l35 31 -32 23 c-48 36 -105 33 -160
-9z"/>
<path d="M1802 6007 c-26 -27 -28 -37 -7 -37 26 0 37 -39 33 -124 l-3 -81 28
-3 27 -3 0 99 c0 111 12 138 45 102 10 -11 23 -20 29 -20 12 1 61 39 55 43 -2
1 -16 12 -30 25 -26 23 -28 23 -58 8 -28 -15 -34 -15 -61 -1 -36 19 -32 19
-58 -8z"/>
<path d="M1695 6004 c-9 -13 -17 -14 -57 -4 -68 17 -112 6 -158 -40 -69 -69
-66 -160 9 -217 46 -36 85 -41 154 -22 32 9 42 8 56 -5 24 -22 34 -20 21 3 -5
11 -10 45 -10 75 0 31 -4 56 -10 56 -5 0 -10 -12 -10 -27 -1 -44 -52 -93 -97
-93 -35 0 -83 49 -90 92 -14 91 26 158 94 158 56 -1 93 -38 93 -94 0 -14 5
-26 10 -26 6 0 10 33 10 80 0 44 -1 80 -3 80 -1 0 -7 -7 -12 -16z"/>
<path d="M2270 5713 c0 -9 -19 -13 -61 -13 -56 0 -64 -3 -95 -34 -19 -19 -34
-43 -34 -54 0 -26 35 -54 97 -77 66 -25 85 -43 81 -79 -4 -40 -45 -53 -103
-34 -31 10 -45 22 -60 53 l-20 40 -3 -54 c-4 -69 2 -88 23 -71 10 8 41 12 83
11 60 -2 70 1 91 23 15 15 25 42 28 70 5 38 2 48 -20 69 -15 16 -41 28 -71 32
-26 4 -56 15 -68 25 l-21 17 21 21 c31 31 82 29 121 -4 l31 -26 0 34 c0 18 -5
40 -10 48 -6 10 -10 11 -10 3z"/>
<path d="M1952 5669 c-12 -21 -36 -49 -52 -61 -25 -18 -27 -23 -14 -32 11 -8
16 -34 17 -95 2 -74 5 -85 26 -102 32 -26 44 -24 69 11 21 28 22 30 4 30 -30
0 -40 20 -44 85 -3 58 -2 60 22 63 47 5 70 12 70 22 0 6 -16 8 -39 4 -33 -5
-39 -3 -44 15 -3 12 -1 38 5 57 13 49 7 50 -20 3z"/>
<path d="M1497 5621 c-57 -37 -87 -91 -87 -159 0 -42 5 -52 34 -81 22 -22 46
-34 72 -38 35 -4 41 -2 56 26 17 31 17 31 -8 31 -33 0 -79 24 -98 52 -28 39
-15 129 20 142 7 3 26 -6 42 -19 l29 -24 23 24 c22 23 22 24 4 49 -24 32 -30
32 -87 -3z"/>
<path d="M1709 5607 c-50 -33 -67 -68 -52 -108 11 -28 10 -35 -7 -57 -26 -33
-25 -55 4 -88 l23 -28 28 22 c36 29 49 28 64 -5 l12 -26 35 34 c32 31 33 34
14 41 -18 7 -20 16 -20 94 0 71 -4 91 -21 115 -25 35 -36 36 -80 6z"/>
<path d="M2386 5577 c-24 -23 -47 -54 -51 -70 -12 -45 3 -93 36 -121 42 -36
69 -33 97 9 26 40 28 53 7 35 -36 -30 -105 33 -105 95 0 28 38 50 69 40 10 -3
26 2 37 10 19 15 19 15 0 30 -30 23 -42 19 -90 -28z"/>
<path d="M2542 5544 c-20 -19 -30 -34 -22 -31 8 2 23 0 33 -5 14 -7 17 -22 17
-82 0 -60 3 -76 20 -91 20 -18 21 -18 51 11 l30 29 -23 5 c-21 5 -23 12 -28
90 -7 123 -17 132 -78 74z"/>
<path d="M2075 5280 c-4 -11 -22 -40 -40 -64 -29 -38 -32 -46 -19 -57 9 -8 14
-32 14 -78 0 -103 42 -144 86 -83 36 49 39 55 17 44 -34 -18 -53 3 -53 59 0
47 1 50 30 56 39 7 39 23 -1 23 l-32 0 7 60 c7 60 3 78 -9 40z"/>
<path d="M1551 5220 c-80 -59 -106 -132 -72 -204 23 -46 96 -106 109 -90 33
39 63 86 58 91 -4 4 -12 1 -18 -5 -7 -7 -22 -12 -34 -12 -28 0 -73 37 -58 47
6 5 38 30 71 57 l60 49 -31 48 c-17 26 -34 48 -37 48 -3 1 -25 -13 -48 -29z"/>
<path d="M2475 5231 c-54 -33 -68 -56 -61 -99 4 -26 1 -45 -9 -58 -19 -25 -19
-84 1 -112 l15 -22 43 25 c52 31 59 31 97 3 l29 -22 33 33 c22 23 26 32 13 27
-34 -12 -46 11 -46 93 0 74 -1 78 -36 114 -20 20 -39 37 -43 37 -3 0 -19 -8
-36 -19z"/>
<path d="M1730 5205 c-23 -25 -23 -26 -7 -54 13 -22 17 -52 17 -120 0 -90 0
-91 25 -91 25 0 25 0 25 98 0 82 3 102 18 115 14 13 20 13 35 3 14 -11 17 -30
17 -114 0 -56 4 -104 10 -107 5 -3 26 7 45 22 22 17 30 29 22 31 -10 2 -16 30
-21 99 -7 96 -17 133 -38 133 -6 0 -26 -12 -45 -26 l-33 -25 -18 30 c-9 17
-20 31 -23 31 -3 0 -16 -11 -29 -25z"/>
<path d="M2221 5196 l-32 -33 30 -6 c29 -6 30 -7 37 -87 8 -96 26 -116 65 -74
22 24 23 26 6 35 -13 8 -17 24 -17 75 0 66 -21 124 -45 124 -6 0 -26 -15 -44
-34z"/>
<path d="M3255 6100 c-3 -5 1 -10 9 -10 8 0 20 -9 27 -21 8 -17 5 -38 -15
-105 -15 -46 -29 -84 -32 -84 -8 0 -64 127 -64 144 0 8 9 18 20 21 11 3 20 10
20 15 0 10 -44 18 -145 24 -69 5 -75 4 -47 -6 22 -7 43 -26 59 -52 28 -44 123
-259 123 -279 0 -27 22 25 71 171 46 137 55 156 83 173 l31 19 -67 0 c-37 0
-70 -4 -73 -10z"/>
<path d="M3717 6061 c-17 -30 -66 -75 -89 -84 -10 -3 -8 -8 5 -18 13 -11 20
-38 27 -107 10 -97 30 -152 55 -152 8 0 26 17 40 38 l25 37 -22 5 c-20 5 -24
15 -32 84 -10 87 -6 95 49 96 39 0 75 10 75 21 0 4 -26 9 -57 11 l-58 3 2 48
c1 26 0 47 -1 47 -1 0 -9 -13 -19 -29z"/>
<path d="M3412 5995 c-31 -29 -34 -35 -17 -35 44 -1 55 -23 55 -102 0 -61 4
-80 21 -102 26 -33 58 -33 85 1 l21 27 -31 21 c-30 20 -31 24 -34 100 -2 65
-7 84 -24 102 -12 13 -25 23 -30 23 -5 0 -25 -16 -46 -35z"/>
<path d="M3941 5934 c-46 -38 -58 -64 -37 -80 15 -11 15 -15 -5 -48 -24 -41
-22 -87 6 -130 17 -26 17 -26 44 -7 46 33 69 35 91 9 l20 -23 25 28 c29 33 30
40 10 57 -11 9 -15 34 -15 96 l0 84 -32 20 c-44 27 -70 25 -107 -6z"/>
<path d="M3184 5659 c-159 -15 -245 -95 -224 -208 4 -23 16 -51 26 -63 44 -49
137 -70 227 -49 21 5 39 5 43 0 14 -23 24 -4 24 46 0 61 -10 70 -27 25 -26
-70 -132 -73 -192 -5 -34 39 -39 62 -17 71 15 6 185 -12 219 -22 14 -4 17 1
17 29 0 18 -2 36 -5 39 -3 3 -29 -1 -57 -9 -29 -7 -83 -13 -120 -13 l-68 0 0
29 c0 36 40 77 91 92 53 16 108 -4 129 -48 8 -18 18 -33 23 -33 4 0 7 29 7 65
0 36 -3 64 -7 64 -5 -1 -45 -5 -89 -10z"/>
<path d="M3515 5620 c-28 -29 -29 -30 -49 -11 -37 32 -44 32 -93 -5 -52 -39
-73 -70 -28 -40 38 25 70 10 86 -43 14 -47 -1 -115 -34 -158 l-20 -26 21 12
c12 6 33 27 47 46 l27 34 35 -35 35 -36 39 38 38 37 -38 19 c-62 30 -85 62
-82 111 1 14 5 16 20 7 28 -15 87 -12 100 4 10 12 8 17 -11 27 -13 6 -32 20
-44 30 -20 19 -21 19 -49 -11z"/>
<path d="M3737 5555 c-57 -44 -67 -61 -67 -118 0 -33 7 -54 30 -85 54 -76 90
-78 154 -13 l40 41 -32 -9 c-97 -28 -183 77 -123 150 18 23 20 23 38 6 21 -18
78 -23 88 -7 6 10 -53 69 -71 70 -6 0 -32 -16 -57 -35z"/>
<path d="M3999 5538 c-70 -54 -99 -140 -68 -201 22 -42 62 -77 89 -77 29 0 88
55 114 107 30 60 13 140 -39 181 -37 29 -46 28 -96 -10z m48 -45 c48 -32 62
-106 31 -165 -13 -26 -30 -22 -66 15 -43 44 -56 89 -37 133 16 38 33 42 72 17z"/>
<path d="M2978 5143 c3 -185 5 -199 34 -214 18 -10 25 -7 55 25 30 32 32 36
14 36 -33 0 -41 32 -41 174 l0 136 -32 0 -33 0 3 -157z"/>
<path d="M3508 5270 c-7 -11 -30 -32 -51 -47 -34 -24 -36 -28 -22 -43 11 -12
15 -40 15 -104 0 -79 2 -89 25 -111 31 -32 45 -31 78 3 34 35 34 38 0 37 -32
0 -41 22 -42 108 -1 57 -1 57 29 57 37 0 39 17 4 26 -24 6 -26 10 -21 50 5 49
3 53 -15 24z"/>
<path d="M3220 5204 c-46 -41 -54 -62 -41 -97 8 -19 6 -28 -4 -37 -8 -7 -20
-29 -26 -50 -9 -30 -8 -42 5 -68 19 -36 28 -39 47 -15 8 9 27 24 44 34 29 18
30 18 53 -4 l24 -22 36 40 c33 36 35 40 17 43 -40 8 -47 23 -44 93 3 60 1 71
-20 93 -32 34 -43 33 -91 -10z"/>
<path d="M3637 5169 l-28 -21 27 -25 c25 -23 26 -28 20 -88 -6 -57 -4 -66 17
-91 l24 -27 56 26 c31 14 57 22 57 16 0 -5 9 -18 20 -29 19 -19 22 -19 46 -4
17 12 22 20 15 27 -6 6 -11 50 -11 97 0 83 -1 87 -30 115 l-30 29 -33 -32
c-28 -28 -29 -32 -11 -32 32 0 44 -20 44 -77 0 -62 -19 -79 -72 -65 l-33 8 -3
79 c-2 56 -8 85 -19 97 -20 22 -22 22 -56 -3z"/>
<path d="M3970 5123 l-32 -26 31 -13 31 -13 0 -101 0 -101 33 3 32 3 3 95 c2
52 7 99 12 104 6 6 21 -1 40 -19 l30 -29 30 29 29 28 -37 27 -37 28 -33 -20
-33 -20 -20 26 c-26 33 -40 33 -79 -1z"/>
<path d="M2779 4381 c-69 -22 -97 -58 -35 -48 31 5 33 3 33 -21 0 -15 3 -35 7
-45 7 -15 5 -16 -19 -7 -15 6 -30 9 -32 6 -9 -8 56 -36 84 -36 26 0 173 68
173 80 0 9 -123 67 -155 73 -16 3 -42 2 -56 -2z"/>
</g>
</svg>
