<?xml version="1.0" encoding="utf-8"?>
<!-- Generator: Adobe Illustrator 16.0.4, SVG Export Plug-In . SVG Version: 6.00 Build 0)  -->
<!DOCTYPE svg PUBLIC "-//W3C//DTD SVG 1.1 Tiny//EN" "http://www.w3.org/Graphics/SVG/1.1/DTD/svg11-tiny.dtd">
<svg version="1.1" baseProfile="tiny" id="Layer_1" xmlns="http://www.w3.org/2000/svg" xmlns:xlink="http://www.w3.org/1999/xlink"
	 x="0px" y="0px" width="64px" height="64px" viewBox="0 0 64 64" xml:space="preserve">
<path fill="#0959A7" d="M63.78,30.89c-0.679-3.939-3.86-6.681-7.756-6.996c-6.96-0.561-12.967,3.162-19.719,4.356
	c-0.54,0.094-1.267-1.056-1.92-1.712c3.13-2.36,2.704-6.986-0.923-8.984c-0.25-0.286-0.159-2.951-0.016-3.072
	c0.298-0.246,2.608,0.2,2.938-0.088c0.329-0.282,0.262-3.057,0.052-3.323c-0.21-0.267-2.815,0.019-2.964-0.159
	c-0.146-0.182,0.072-2.676-0.173-2.873C33.125,7.898,32.402,7.883,32,7.887c-0.403-0.003-1.127,0.011-1.302,0.152
	c-0.246,0.198-0.027,2.691-0.174,2.873c-0.147,0.178-2.752-0.108-2.963,0.159c-0.209,0.267-0.275,3.041,0.052,3.326
	c0.33,0.286,2.641-0.158,2.937,0.088c0.142,0.121,0.234,2.784-0.017,3.071c-3.626,1.999-4.051,6.623-0.919,8.984
	c-0.657,0.657-1.383,1.805-1.924,1.712c-6.749-1.191-12.757-4.917-19.716-4.356c-3.895,0.313-7.078,3.057-7.756,6.996
	c-1.218,7.093,3.878,12.545,6.351,18.566c0.784,1.901,1.471,4.454,1.346,6.653c0,0,20.209,0,23.809,0.002c0,0,0.097,0,0.275,0
	c0.179,0,0.274,0,0.274,0c3.6-0.002,23.807-0.002,23.807-0.002c-0.124-2.199,0.564-4.752,1.35-6.653
	C59.901,43.437,64.999,37.984,63.78,30.89 M29.121,46.597c-0.627,3.562-2.606,5.823-4.251,5.836
	c-1.079,0.006-1.947-0.404-2.732-1.095c-1.085-0.946-1.97-2.509-1.686-3.429c0.24-0.312,3.16,0.134,3.368-0.158
	c0.208-0.286-0.356-2.564-0.687-2.86c-0.329-0.288-2.966,0.104-3.32-0.187c-0.35-0.289-0.679-3.108-1.04-3.281
	c0,0-2.789-0.416-2.99-0.021c-0.205,0.401,0.94,2.755,0.744,3.156c-0.196,0.4-3.888-0.353-3.953,0.062
	c-0.064,0.417,0.212,2.486,0.567,2.794c0.353,0.308,3.801,0.33,3.801,0.33c0.715,0.544,0.904,1.655,0.907,2.792
	c0.005,1.445-1.117,2.188-2.906,1.688c-3.337-0.937-7.474-8.174-9.93-13.184c-1.805-3.685-2.893-9.712,1.844-11.519
	c2.886-1.101,5.916-0.478,9.023,0.444c3.255,0.968,7.547,2.275,10.077,3.847c0.621,0.384-0.739,0.078,1.505,5.051
	C28.51,39.179,29.556,44.111,29.121,46.597 M49.056,52.225c-1.79,0.5-2.911-0.243-2.908-1.688c0.005-1.137,0.192-2.248,0.909-2.792
	c0,0,3.448-0.022,3.801-0.33c0.352-0.308,0.63-2.377,0.566-2.795c-0.064-0.414-3.759,0.339-3.953-0.062
	c-0.195-0.401,0.949-2.755,0.747-3.156c-0.207-0.395-2.992,0.021-2.992,0.021c-0.361,0.173-0.689,2.992-1.042,3.281
	c-0.353,0.288-2.989-0.104-3.32,0.187c-0.33,0.296-0.892,2.574-0.685,2.86c0.206,0.292,3.127-0.153,3.369,0.158
	c0.283,0.92-0.602,2.482-1.688,3.429c-0.785,0.69-1.65,1.101-2.731,1.095c-1.646-0.013-3.623-2.274-4.249-5.836
	c-0.438-2.485,0.609-7.418,1.652-9.733c2.247-4.973,0.886-4.667,1.505-5.051c2.531-1.572,6.825-2.879,10.078-3.847
	c3.108-0.921,6.136-1.547,9.025-0.444c4.735,1.807,3.646,7.834,1.842,11.519C56.528,44.051,52.39,51.288,49.056,52.225"/>
</svg>
