<svg version="1.1" baseProfile="tiny" xmlns="http://www.w3.org/2000/svg" x="0" y="0" viewBox="0 0 64 64" xml:space="preserve"><path fill="#0959A7" d="M63.78 30.89c-.679-3.939-3.86-6.681-7.756-6.996-6.96-.561-12.967 3.162-19.719 4.356-.54.094-1.267-1.056-1.92-1.712 3.13-2.36 2.704-6.986-.923-8.984-.25-.286-.159-2.951-.016-3.072.298-.246 2.608.2 2.938-.088.329-.282.262-3.057.052-3.323-.21-.267-2.815.019-2.964-.159-.146-.182.072-2.676-.173-2.873-.174-.141-.897-.156-1.299-.152-.403-.003-1.127.011-1.302.152-.246.198-.027 2.691-.174 2.873-.147.178-2.752-.108-2.963.159-.209.267-.275 3.041.052 3.326.33.286 2.641-.158 2.937.088.142.121.234 2.784-.017 3.071-3.626 1.999-4.051 6.623-.919 8.984-.657.657-1.383 1.805-1.924 1.712-6.749-1.191-12.757-4.917-19.716-4.356-3.895.313-7.078 3.057-7.756 6.996C-1 37.985 4.096 43.437 6.569 49.458c.784 1.901 1.471 4.454 1.346 6.653 0 0 20.209 0 23.809.002h.549c3.6-.002 23.807-.002 23.807-.002-.124-2.199.564-4.752 1.35-6.653 2.471-6.021 7.569-11.474 6.35-18.568M29.121 46.597c-.627 3.562-2.606 5.823-4.251 5.836-1.079.006-1.947-.404-2.732-1.095-1.085-.946-1.97-2.509-1.686-3.429.24-.312 3.16.134 3.368-.158.208-.286-.356-2.564-.687-2.86-.329-.288-2.966.104-3.32-.187-.35-.289-.679-3.108-1.04-3.281 0 0-2.789-.416-2.99-.021-.205.401.94 2.755.744 3.156-.196.4-3.888-.353-3.953.062-.064.417.212 2.486.567 2.794.353.308 3.801.33 3.801.33.715.544.904 1.655.907 2.792.005 1.445-1.117 2.188-2.906 1.688-3.337-.937-7.474-8.174-9.93-13.184-1.805-3.685-2.893-9.712 1.844-11.519 2.886-1.101 5.916-.478 9.023.444 3.255.968 7.547 2.275 10.077 3.847.621.384-.739.078 1.505 5.051 1.048 2.316 2.094 7.248 1.659 9.734m19.935 5.628c-1.79.5-2.911-.243-2.908-1.688.005-1.137.192-2.248.909-2.792 0 0 3.448-.022 3.801-.33.352-.308.63-2.377.566-2.795-.064-.414-3.759.339-3.953-.062-.195-.401.949-2.755.747-3.156-.207-.395-2.992.021-2.992.021-.361.173-.689 2.992-1.042 3.281-.353.288-2.989-.104-3.32.187-.33.296-.892 2.574-.685 2.86.206.292 3.127-.153 3.369.158.283.92-.602 2.482-1.688 3.429-.785.69-1.65 1.101-2.731 1.095-1.646-.013-3.623-2.274-4.249-5.836-.438-2.485.609-7.418 1.652-9.733 2.247-4.973.886-4.667 1.505-5.051 2.531-1.572 6.825-2.879 10.078-3.847 3.108-.921 6.136-1.547 9.025-.444 4.735 1.807 3.646 7.834 1.842 11.519-2.454 5.01-6.592 12.247-9.926 13.184"/></svg>
