<?xml version="1.0" encoding="utf-8"?>
<!-- Generator: Adobe Illustrator 22.0.1, SVG Export Plug-In . SVG Version: 6.00 Build 0)  -->
<svg version="1.1" id="Layer_2" xmlns="http://www.w3.org/2000/svg" xmlns:xlink="http://www.w3.org/1999/xlink" x="0px" y="0px"
	 viewBox="0 0 358.6 358.7" style="enable-background:new 0 0 358.6 358.7;" xml:space="preserve">
<style type="text/css">
	.st0{fill:#B31B1B;}
</style>
<g>
	<path class="st0" d="M179.3,0C80.5,0,0.4,80.2,0.4,178.9s80.1,179.8,178.9,179.8c98.6,0,178.9-81.2,178.9-179.8
		C358.2,80.1,278.1,0,179.3,0z M179.3,338.4c-88,0-159.4-71.4-159.4-159.4S91.4,19.6,179.3,19.6S338.6,90.8,338.7,179
		C338.7,267,267.3,338.4,179.3,338.4z"/>
	<path class="st0" d="M70.9,209.1c0,81.2,101.5,125.2,105.5,127.1l2.9,1l3.1-1.9c4.9-1.8,105.5-46.9,105.5-124.1V64.6h-217V209.1z
		 M86.5,209.2v-43.9h87.8v11.3c-2.2-0.5-7-1.6-12.4-0.8c-2.9,0-5.9,1-8.8,1c-5,0-8.8,1-12.8,1c-7.8,0-12.6,0-16.6,0h-5.9v98.8h5.9
		c0,0,5.9,0,13.6,0s12.7-1,17.6-1c4.7-1,8.7-1,14.6-1c1,0,1.9,0.9,2.9,1.9c0.4,0.5,1,1.3,1.9,2.1v40.1
		C150.2,306.2,86.5,267.8,86.5,209.2z M174.3,264.5c-1.4-0.4-3.1-0.7-4.8-0.7c-6.8,0-10.7,0-15.4,1c-4.8,0-9.7,1-16.6,1
		c-2,0-5,0-6.9,0v-76.1c3,0,5.9,0,10.8,0c3.7,0,8.7,0,13.6-1c2.9,0,5.9-1,8.8-1c5-1,9.9,0,9.9,0c0.2,0.1,0.4,0.2,0.6,0.3
		L174.3,264.5L174.3,264.5z M186,188.2c0.3-0.2,0.8-0.5,1.3-0.5c0,0,5-1,9.9,0c2.9,0,5.9,1,8.8,1c4.8,0,9.7,1,13.6,1
		c3.9,0,7.9,0,10.8,0v76.1c-2,0-4,0-6.9,0c-6.7,0-11.7-1-16.6-1c-5-1-9.9-1-15.8-1c-1.9,0-3.6,0.3-5.1,0.8V188.2z M186,188.1v-0.5
		l0.4,0.1C186.2,187.9,186.1,188,186,188.1z M186,318.7v-40.5c0.8-0.5,1.6-1.1,2.5-1.7c1-1.9,1-1.9,2.9-1.9c5.8,0,9.7,1,14.6,1
		c4.8,0,9.8,1,17.6,1c7.7,0,13.6,0,13.6,0h5.8v-98.8h-5.9c-3.9,0-8.9,0-16.6,0c-4,0-7.9,0-12.8-1c-2.9,0-5.9-1-8.8-1
		c-5.4,0-11,0.7-12.9,0.9v-11.4h88.1v46.8C274.1,267.2,209.5,306.2,186,318.7z M274.1,152.5H86.5V80.1h187.6V152.5z"/>
	<path class="st0" d="M113,136.8c6.8,4.9,18.6,11.8,18.6,11.8l1.9,1l2.9-1c0.9,0,11.7-6.9,19.5-11.8c5.9-4,8.8-7.9,8.8-12.8
		c0-0.9,0-12.6,0-36.1V83h-61.6v4.9c0,23.3,0,35.1,0,36.1C104.2,128,107.1,132.8,113,136.8z M149.1,128.9c-4.8,3-12.6,8-16.6,9.9
		c-4-2.1-10.9-7-15.8-9.9c-3-1.9-4.9-4.9-4.9-5.9s0-6,0-12.5H154c0,7,0,12.4,0,13.5C154,126,151,127.9,149.1,128.9z M111.9,91.8v1
		H154c0,2.9,0,5.9,0,8.9h-42.2C111.8,98.4,111.8,95,111.9,91.8L111.9,91.8z"/>
	<path class="st0" d="M208.6,136.8c6.8,4.9,18.6,11.8,18.6,11.8l1.9,1l2.9-1c0.9,0,11.7-6.9,19.5-11.8c5.9-4,8.8-7.9,8.8-12.8
		c0-0.9,0-12.6,0-36.1V83h-61.6v4.9c0,23.3,0,35.1,0,36.1C199.8,128,202.7,132.8,208.6,136.8z M245,128.9c-4.9,3-12.6,8-16.6,9.9
		c-4.1-2.1-10.9-7-15.8-9.9c-3-1.9-4.9-4.9-4.9-5.9c0-0.3,0-0.9,0-1.8l20.5-14.6l21.7,14.1c0,1.7,0,2.9,0,3.3
		C249.9,126,246.9,127.9,245,128.9z M207.9,91.8v1h42c0,5.9,0,12.3,0,17.7l-21.7-14.7l-20.5,14.4c0-5.7,0-12.4,0-18.4H207.9z"/>
	<rect x="137.2" y="200.3" class="st0" width="25.4" height="8.8"/>
	<rect x="137.2" y="220.8" class="st0" width="25.4" height="8.8"/>
	<rect x="137.2" y="241.5" class="st0" width="25.4" height="8.8"/>
	<rect x="193.9" y="200.3" class="st0" width="25.4" height="8.8"/>
	<rect x="193.9" y="220.8" class="st0" width="25.4" height="8.8"/>
	<rect x="193.9" y="241.5" class="st0" width="25.4" height="8.8"/>
</g>
</svg>
