<svg version="1.1" xmlns="http://www.w3.org/2000/svg" x="0" y="0" viewBox="0 0 512 512" xml:space="preserve"><path d="M170.666 234.666c0 35.344 28.646 64 64 64s64-28.656 64-64c0-35.343-28.646-64-64-64s-64 28.657-64 64zm106.666 0c0 23.533-19.146 42.668-42.666 42.668-23.521 0-42.666-19.135-42.666-42.668C192 211.135 211.146 192 234.666 192s42.666 19.135 42.666 42.666zm-1.145-120.978c37.25 12.782 66.667 42.208 79.458 79.458l-21.875 2.74c-10.834-27.595-32.729-49.49-60.312-60.323l2.729-21.875zm122.459 74.083l-21.334 2.667c-14.562-46.833-51.582-83.865-98.416-98.417l2.668-21.343c56.518 16.134 100.957 60.583 117.082 117.093zm-227.98 272.5C72.208 432.386 0 342.052 0 234.666 0 105.062 105.062 0 234.666 0 364.27 0 469.334 105.062 469.334 234.666c0 22.219-3.293 43.625-9.063 64h-44.812c7.123-20.052 11.207-41.53 11.207-64 0-105.864-86.125-192-192-192-105.874 0-192 86.136-192 192 0 83.397 53.542 154.354 128 180.803v44.802zm15.25-131.657a73.707 73.707 0 00-10.458 19.209c-28.729-15.063-51.104-40.532-61.771-71.614l21.875-2.74c9.458 24.072 27.626 43.312 50.354 55.145zm-93.895-49.706c12.479 40.133 41.521 72.936 79.021 90.696-.062 1.26-.375 2.449-.375 3.729v19.218c-48.229-19.572-85.5-60.333-99.979-110.968l21.333-2.675zm366.52 149.082c0 14.592-6.188 25.561-19.542 25.561h-15.354V399.78h12.291c16.48.001 22.605 10.376 22.605 28.21zm-150.417 0c0 14.676-6.229 25.561-19.52 25.561h-15.376V399.78h12.312c16.501.001 22.584 10.376 22.584 28.21zM480 341.334H245.334c-17.667 0-32 14.321-32 32V480c0 17.677 14.333 32 32 32H480c17.666 0 32-14.323 32-32V373.334c0-17.679-14.334-32-32-32zM289.813 469.332H256V384h33.813c21.166 0 35.541 14.98 35.541 42.187 0 25.584-12.374 43.145-35.541 43.145zm83.916 0h-19.416L328.959 384h17.687l17.459 60h.166l17.709-60h17.729l-25.98 85.332zm66.48 0h-33.793V384h33.793c21.187 0 35.541 14.98 35.541 42.187 0 25.584-12.375 43.145-35.541 43.145z"/></svg>
