<?xml version="1.0" encoding="utf-8"?>
<!-- Generator: Adobe Illustrator 16.0.4, SVG Export Plug-In . SVG Version: 6.00 Build 0)  -->
<!DOCTYPE svg PUBLIC "-//W3C//DTD SVG 1.1//EN" "http://www.w3.org/Graphics/SVG/1.1/DTD/svg11.dtd">
<svg version="1.1" id="Layer_1" xmlns="http://www.w3.org/2000/svg" xmlns:xlink="http://www.w3.org/1999/xlink" x="0px" y="0px"
	 width="512px" height="512px" viewBox="0 0 512 512" enable-background="new 0 0 512 512" xml:space="preserve">
<path id="disc-14-icon" d="M170.666,234.666c0,35.344,28.646,64,64,64c35.354,0,64-28.656,64-64c0-35.343-28.646-64-64-64
	C199.312,170.666,170.666,199.323,170.666,234.666z M277.332,234.666c0,23.533-19.146,42.668-42.666,42.668
	c-23.521,0-42.666-19.135-42.666-42.668C192,211.135,211.146,192,234.666,192S277.332,211.135,277.332,234.666z M276.187,113.688
	c37.25,12.782,66.667,42.208,79.458,79.458l-21.875,2.74c-10.834-27.595-32.729-49.49-60.312-60.323L276.187,113.688z
	 M398.646,187.771l-21.334,2.667c-14.562-46.833-51.582-83.865-98.416-98.417l2.668-21.343
	C338.082,86.812,382.521,131.261,398.646,187.771z M170.666,460.271C72.208,432.386,0,342.052,0,234.666
	C0,105.062,105.062,0,234.666,0c129.604,0,234.668,105.062,234.668,234.666c0,22.219-3.293,43.625-9.063,64h-44.812
	c7.123-20.052,11.207-41.53,11.207-64c0-105.864-86.125-192-192-192c-105.874,0-192,86.136-192,192
	c0,83.397,53.542,154.354,128,180.803V460.271L170.666,460.271z M185.916,328.614c-4.396,5.824-7.916,12.241-10.458,19.209
	c-28.729-15.063-51.104-40.532-61.771-71.614l21.875-2.74C145.02,297.541,163.188,316.781,185.916,328.614z M92.021,278.908
	c12.479,40.133,41.521,72.936,79.021,90.696c-0.062,1.26-0.375,2.449-0.375,3.729v19.218c-48.229-19.572-85.5-60.333-99.979-110.968
	L92.021,278.908z M458.541,427.99c0,14.592-6.188,25.561-19.542,25.561h-15.354V399.78h12.291
	C452.416,399.781,458.541,410.156,458.541,427.99z M308.124,427.99c0,14.676-6.229,25.561-19.52,25.561h-15.376V399.78h12.312
	C302.041,399.781,308.124,410.156,308.124,427.99z M480,341.334H245.334c-17.667,0-32,14.321-32,32V480c0,17.677,14.333,32,32,32
	H480c17.666,0,32-14.323,32-32V373.334C512,355.655,497.666,341.334,480,341.334z M289.813,469.332H256V384h33.813
	c21.166,0,35.541,14.98,35.541,42.187C325.354,451.771,312.98,469.332,289.813,469.332z M373.729,469.332h-19.416L328.959,384
	h17.687l17.459,60h0.166l17.709-60h17.729L373.729,469.332z M440.209,469.332h-33.793V384h33.793
	c21.187,0,35.541,14.98,35.541,42.187C475.75,451.771,463.375,469.332,440.209,469.332z"/>
</svg>
