<?xml version="1.0" encoding="UTF-8" standalone="no"?>
<!-- Generator: Adobe Illustrator 18.0.0, SVG Export Plug-In . SVG Version: 6.00 Build 0)  -->

<svg
   xmlns:dc="http://purl.org/dc/elements/1.1/"
   xmlns:cc="http://creativecommons.org/ns#"
   xmlns:rdf="http://www.w3.org/1999/02/22-rdf-syntax-ns#"
   xmlns:svg="http://www.w3.org/2000/svg"
   xmlns="http://www.w3.org/2000/svg"
   xmlns:sodipodi="http://sodipodi.sourceforge.net/DTD/sodipodi-0.dtd"
   xmlns:inkscape="http://www.inkscape.org/namespaces/inkscape"
   version="1.1"
   id="Layer_1"
   x="0px"
   y="0px"
   viewBox="0 0 250 250"
   xml:space="preserve"
   inkscape:version="0.48.5 r10040"
   width="100%"
   height="100%"
   sodipodi:docname="iowa.svg"><metadata
     id="metadata23"><rdf:RDF><cc:Work
         rdf:about=""><dc:format>image/svg+xml</dc:format><dc:type
           rdf:resource="http://purl.org/dc/dcmitype/StillImage" /></cc:Work></rdf:RDF></metadata><defs
     id="defs21" /><sodipodi:namedview
     pagecolor="#ffffff"
     bordercolor="#666666"
     borderopacity="1"
     objecttolerance="10"
     gridtolerance="10"
     guidetolerance="10"
     inkscape:pageopacity="0"
     inkscape:pageshadow="2"
     inkscape:window-width="1070"
     inkscape:window-height="767"
     id="namedview19"
     showgrid="false"
     inkscape:zoom="1.979798"
     inkscape:cx="62.166076"
     inkscape:cy="135.67554"
     inkscape:window-x="107"
     inkscape:window-y="4"
     inkscape:window-maximized="0"
     inkscape:current-layer="Layer_1" /><g
     id="g3"
     transform="matrix(0.35106393,0,0,0.35106393,17.575385,-19.74364)"><path
       d="m 315.579,154.161 c 0,9.675 -0.857,25.597 3.925,28.787 13.461,8.978 36.191,15.19 43.404,23.887 1.956,2.36 -0.428,17.741 -5.702,16.584 -36.323,-8.008 -37.936,-7.544 -64.593,-7.256 -2.181,0.024 -7.836,-11.213 -8.116,-18.653 -0.171,-4.666 6.481,-9.456 8.989,-17.098 4.137,-12.666 0.92,-71.151 2.244,-110.703 0.288,-8.908 1.2,-12.257 9.838,-12.257 7.946,0 9.106,5.491 8.997,12.202 -0.466,28.09 1.014,56.877 1.014,84.507 z"
       id="path5"
       inkscape:connector-curvature="0" /><path
       style="fill:none"
       d="m 294.407,66.199 c 0,-8.292 11.045,-13.815 15.19,-8.292"
       id="path7"
       inkscape:connector-curvature="0" /><path
       style="fill:none"
       d="m 359.342,205.741 c 5.523,5.53 0,19.346 -11.061,15.201 -19.335,-6.909 -37.297,-4.148 -56.639,-6.909 -5.531,-1.382 -6.909,-11.053 -6.909,-16.576"
       id="path9"
       inkscape:connector-curvature="0" /><path
       style="fill:none"
       d="m 313.741,96.595 c 0,26.251 -1.371,51.12 1.386,77.367 0,2.766 2.758,6.909 4.144,8.292"
       id="path11"
       inkscape:connector-curvature="0" /><path
       d="m 461.231,455.814 c 2.726,-0.678 21.391,-1.64 30.396,0 2.43,0.444 4.175,2.266 4.829,3.108 2.711,3.463 2.306,17.352 2.095,21.539 -0.443,9.04 -5.188,14.104 -5.11,21.99 0.631,63.292 2.158,137.984 -1.293,151.281 -5.819,22.383 -5.009,26.274 -13.858,27.062 -2.555,0.226 -5.312,-0.467 -6.917,-8.063 -1.153,-5.53 -1.698,-14.559 -1.854,-25.904 -0.343,-26.081 0.187,-93.477 -0.951,-119.678 -1.028,-23.833 -7.244,-25.391 -8.974,-26.601 -2.336,-1.628 -5.359,-2.415 -6.045,-6.388 -1.433,-8.254 1.293,-27.116 3.88,-33.854 0.5,-1.291 1.762,-3.982 3.802,-4.492 z"
       id="path13"
       inkscape:connector-curvature="0" /><path
       style="fill:#ffdd00"
       d="M 508.554,422.657"
       id="path15"
       inkscape:connector-curvature="0" /><path
       d="m 509.263,737.175 c -21.531,0 -54.248,1.184 -60.464,-2.797 -4.237,-2.703 -3.801,-8.943 -4.113,-20.833 -2.135,-80.121 0.794,-160.036 -0.577,-240.176 0,-6.906 -2.251,-18.046 -11.918,-18.046 -12.432,0 -36.012,-1.004 -38.31,0.838 -1.823,0.912 -3.171,2.041 -4.145,4.145 -3.459,7.427 -5.687,25.608 -4.845,33.85 0.296,2.824 2.041,5.776 6.216,6.707 11.747,2.621 17.62,9.185 17.995,26.855 0.95,60.417 1.792,178.778 -6.123,198.405 -3.973,9.846 -22.232,16.355 -27.031,6.072 -3.63,-7.77 -3.116,-185.469 -3.116,-258.708 0,-12.775 -4.144,-18.275 -18.306,-18.275 -17.846,0 -34.103,-0.234 -52.27,0 -1.339,0.019 -4.401,0.923 -5.896,4.603 -4.074,10.018 -6.208,33.741 -4.152,37.305 0.669,1.153 1.496,3.093 6.091,3.583 23.727,2.547 34.789,13.601 35.365,38.096 0.881,37.651 6.302,178.867 -10.142,193.89 -6.668,6.1 -31.86,5.068 -37.64,3.062 -4.152,-1.441 -6.598,-4.729 -7.027,-8.818 -4.487,-42.944 2.322,-253.901 -2.539,-264.811 -1.839,-4.144 -3.771,-4.95 -7.712,-6.103 -6.668,-1.956 -38.216,0.346 -44.035,-1.959 -1.255,-0.495 -3.779,-1.009 -3.996,-3.806 -0.608,-7.708 0.093,-15.887 2.96,-21.986 1.417,-3.026 5.889,-3.218 7.712,-3.218 92.682,-0.117 224.866,0.686 274.945,-0.81 2.758,-0.078 8.179,-0.802 9.753,-5.442 2.025,-5.931 4.067,-20.46 2.797,-24.495 -0.724,-2.446 -1.729,-3.337 -4.946,-4.144 -5.531,-0.689 -207.846,-0.374 -311.472,-1.76 -5.531,0 -15.275,0.666 -16.584,-4.14 -1.378,-5.068 -1.106,-15.287 1.386,-20.266 10.127,-20.265 19.335,-15.657 25.785,-45.134 3.894,-17.799 -2.306,-32.238 6.45,-46.516 11.653,-19.007 20.486,-25.2 28.556,-39.143 5.064,-8.748 -5.53,-21.644 -15.205,-18.882 -6.902,2.762 -49.27,30.859 -71.837,69.079 -17.948,30.404 -24.444,63.159 -37.305,95.335 -3.225,8.062 -7.86,10.049 -20.752,11.432 -8.016,0.853 -11.256,29.153 -5.99,32.67 1.044,0.685 3.148,1.363 3.926,1.531 11.653,2.52 15.875,16.717 16.109,30.703 0,0 2.821,239.764 -4.035,265.185 -4.83,17.959 -9.426,15.611 -13.928,17.585 -0.42,0.187 -2.244,0.865 -2.976,2.82 -1.885,4.982 -4.066,17.13 -2.555,23.389 0.577,2.348 1.387,3.672 4.495,3.672 157.937,0 345.435,0.086 411.523,0.086 3.451,0 5.032,-0.694 6.302,-5.761 1.776,-6.228 3.186,-15.128 2.531,-20.148 -1.033,-4.721 -5.683,-4.721 -8.955,-4.721 z m -351.737,-7.731 c -7.369,8.221 -14.411,11.217 -14.582,1.429 -1.114,-66.329 -0.219,-205.275 0.701,-209.317 1.729,-7.599 12.089,-11.396 17.262,0.693 6.278,14.633 8.677,193.73 -3.381,207.195 z m 72.631,-0.41 c -7.502,8.635 -23.837,11.739 -27.405,2.181 -5.687,-15.221 -2.648,-220.137 -1.838,-224.278 1.542,-7.961 15.945,-7.08 21.188,-3.329 12.012,8.596 13.928,15.416 15.136,34.762 3.451,55.198 4.324,177.535 -7.081,190.664 z"
       id="path17"
       inkscape:connector-curvature="0" /></g></svg>