<svg id="Layer_1" data-name="Layer 1" xmlns="http://www.w3.org/2000/svg" viewBox="0 0 205.81 283.29"><defs><style>.cls-1{fill:#f37021;}</style></defs><title>L&amp;amp;C_Shield_4c</title><path class="cls-1" d="M308.8,538.25c32.36-8.85,66.41-34.34,84-74.8-12.51,21.37-36.32,36.64-69.13,20.41s-51.59-3.6-57.29,1.9C272.82,502.89,285,520.24,308.8,538.25Z" transform="translate(-199.24 -255.52)"/><path class="cls-1" d="M259.68,449.82c4.54-32.79,34.81-46.52,73.55-28,36.83,17.63,68.17-5.85,71.82-20.36,0-.71,0-1.42,0-2.13V255.52H259.2v166C259.31,431.07,259.19,440.47,259.68,449.82Z" transform="translate(-199.24 -255.52)"/><path d="M257.45,482.66c-6.45-20.92-5.51-41.28-5.78-61.07V255.52h-52.4V399.35c-1.44,79.23,50.81,127.5,98.44,139.46C274.81,520,263.17,501.24,257.45,482.66Z" transform="translate(-199.24 -255.52)"/><path class="cls-1" d="M327,446.55c-31-11.13-53.74-7.1-66.51,13.76a110.74,110.74,0,0,0,4.13,20.31q.51,1.66,1.1,3.32c6.28-19,24.14-38.87,63-24.29,23,8.54,63.06,11.37,72.72-23.1A158.06,158.06,0,0,0,405,408.06C395.6,447.92,359.84,458.31,327,446.55Z" transform="translate(-199.24 -255.52)"/></svg>