<?xml version="1.0" encoding="UTF-8" standalone="no"?>
<!-- Created with Inkscape (http://www.inkscape.org/) -->
<svg id="svg3038" xmlns:rdf="http://www.w3.org/1999/02/22-rdf-syntax-ns#" xmlns="http://www.w3.org/2000/svg" viewBox="0 0 882 1107" version="1.1" xmlns:cc="http://creativecommons.org/ns#" xmlns:dc="http://purl.org/dc/elements/1.1/">
 <metadata id="metadata3044">
  <rdf:RDF>
   <cc:Work rdf:about="">
    <dc:format>image/svg+xml</dc:format>
    <dc:type rdf:resource="http://purl.org/dc/dcmitype/StillImage"/>
    <dc:title/>
   </cc:Work>
  </rdf:RDF>
 </metadata>
 <g id="g3048">
  <path id="path3050" fill="#646464" d="m424.77,1106.6c-8.8476-0.4303-11.185-0.7725-8-1.171l4.5-0.5631-5.5299-0.1747c-15.246-0.4817-49.797-6.3319-69.373-11.746-19.909-5.5068-41.27-13.406-59.718-22.083-8.613-4.0513-9.9744-5.0359-10.707-7.7435-0.4619-1.7061-2.3331-8.8309-4.1583-15.833-2.4242-9.3001-3.7865-12.879-5.0552-13.282-0.9551-0.3031-9.2928,0.8068-18.528,2.4664l-16.792,3.0176-8.5696-6.1857c-61.13-44.08-114.11-106.92-151.32-179.43l-4.2022-8.1884,5.7137-14.027c3.1425-7.715,5.4491-14.717,5.1258-15.559-0.3569-0.92989-6.1471-3.292-14.732-6.0098l-14.144-4.47-2.865-7.27c-24.94-63.32-40.689-137.14-44.258-207.45l-0.6689-13.18,10.396-11.15c5.7177-6.1289,10.548-11.568,10.734-12.087,0.186-0.51865-4.4869-6.1166-10.384-12.44l-10.723-11.49,0.7008-13.74c3.6489-71.52,18.297-139.45,45.172-209.47l1.8183-4.7373,14.18-4.507c8.3541-2.6553,14.415-5.1205,14.753-6.0003,0.3151-0.82129-1.9939-7.8386-5.1313-15.594l-5.7042-14.101,4.9904-9.6273c37.042-71.47,88.702-132.78,148.7-176.51l10.478-7.6361,17.18,3.0728c9.4489,1.69,17.76,2.85,18.47,2.5778,0.7095-0.27224,2.7976-6.2783,4.6402-13.347,1.8427-7.0686,3.7284-14.249,4.1906-15.956,0.742-2.7412,2.0969-3.6891,11.584-8.1046,39.223-18.256,85.274-30.497,124.24-33.026,9.6867-0.62872,10.712-0.84136,6.5-1.3485-2.75-0.33116,6.925-0.6021,21.5-0.6021s24.25,0.30861,21.5,0.68579l-5,0.68579,6.2117,0.1571c9.3279,0.23592,35.512,3.7887,49.16,6.6704,26.365,5.5667,52.089,14.081,78.254,25.901l12.626,5.7037,4.2887,16.036c2.4408,9.1266,4.8681,16.258,5.6336,16.552,0.7397,0.28386,8.878-0.84308,18.085-2.5043l16.74-3.0204,5.5,3.5658c23.144,15.005,59.678,48.242,84.165,76.57,19.322,22.353,37.464,47.489,53.542,74.183,7.335,12.179,21.293,37.975,21.293,39.351,0,0.54935-2.505,7.155-5.5666,14.679-3.0616,7.5242-5.335,14.284-5.052,15.021,0.2829,0.73739,6.7254,3.3197,14.316,5.7386l13.802,4.3978,2.1383,4.406c1.1761,2.4233,4.4832,10.856,7.3491,18.739,21.749,59.825,34.846,125.29,38.588,192.87l0.6758,12.203-10.626,11.288c-5.8442,6.2084-10.626,11.794-10.626,12.413,0,0.6185,4.7819,6.1502,10.626,12.293l10.626,11.168-0.6765,12.216c-4.0904,73.867-18.109,139.68-44.494,208.87-1.1868,3.1124-2.7033,6.0843-3.37,6.6042-0.6667,0.51992-7.1968,2.8317-14.511,5.1372-7.3145,2.3056-13.526,4.7838-13.804,5.5073-0.2776,0.72343,2.0723,7.7559,5.2221,15.628l5.7268,14.312-5.3236,10.076c-19.062,36.08-40.117,67.756-64.857,97.576-12.032,14.503-39.283,42.295-53.666,54.731-10.685,9.2389-34.957,27.929-39.004,30.033-1.4899,0.7747-6.3286,0.2826-18.876-1.9199-9.2802-1.629-17.408-2.7565-18.062-2.5056-1.1109,0.4262-2.001,3.2861-7.5631,24.299l-2.1541,8.1381-10.671,4.9664c-38.603,17.967-84.676,30.309-123.17,32.994-8.7293,0.6088-9.7412,0.8362-6,1.3479,3.1376,0.4292,1.2878,0.661-6.1105,0.7657-5.8357,0.083-12.586,0.3058-15,0.496-2.4142,0.1902-10.014,0.072-16.89-0.2623zm59.5-45.912c32.829-5.1292,59.304-12.956,88.729-26.231,6.1988-2.7966,11.975-5.722,12.836-6.501,0.8611-0.7789,2.8403-6.484,4.3982-12.678,1.5579-6.1941,3.1183-11.592,3.4675-11.995,0.3492-0.4033,6.6827,0.344,14.074,1.6605,15.792,2.8128,13.418,3.5238,30.494-9.1308,53.34-39.528,102.6-99.064,133.54-161.4l5.2615-10.599-4.8257-12.145c-2.6541-6.6796-4.6354-12.311-4.4029-12.514,0.2325-0.20329,5.5032-2.0492,11.713-4.102,7.7145-2.5504,11.736-4.4146,12.698-5.8865,2.2206-3.3957,11.145-27.619,16.635-45.154,15.484-49.454,25.709-107.38,27.569-156.2l0.6172-16.202-8.2108-8.6742-8.2109-8.6742,2.2791-2.6242c1.2534-1.4433,4.9502-5.4085,8.215-8.8114l5.936-6.1872-0.6214-16.313c-1.8403-48.311-11.481-103.62-26.789-153.68-5.4172-17.717-15.072-44.205-17.418-47.786-1.0444-1.5939-4.7063-3.2358-12.972-5.8161-6.3342-1.9774-11.517-4.0275-11.517-4.5557,0-0.52829,2.0966-6.2,4.6593-12.604l4.6593-11.643-5.2755-10.612c-23.77-47.813-62.109-99.021-99.895-133.42-18.445-16.793-43.62-36.448-49.446-38.603-1.1952-0.44211-7.5432,0.21338-15.099,1.5591-7.1701,1.2771-13.322,1.992-13.672,1.5888-0.3492-0.40322-1.9096-5.801-3.4675-11.995s-3.5371-11.896-4.3982-12.672c-1.9689-1.773-25.774-12.295-37.066-16.382-21.401-7.7476-43.472-13.259-67.5-16.854-17.178-2.5705-65.823-2.5705-83,0-16.386,2.4521-33.436,6.1235-47.736,10.279-19.238,5.5906-54.643,20.074-57.406,23.483-0.6278,0.77462-2.4951,6.5007-4.1494,12.725-1.6544,6.2239-3.1998,11.508-3.4341,11.742-0.2344,0.23439-6.2899-0.61674-13.457-1.8914-8.48-1.5082-13.833-2.0207-15.329-1.4674-3.2029,1.1848-21.611,14.694-32.989,24.21-45.314,37.898-82.08,83.932-113.03,141.52-4.3837,8.1574-7.9704,15.557-7.9704,16.444,0,0.88688,2.0798,6.8099,4.6219,13.162,2.5421,6.3524,4.4546,11.693,4.25,11.869-0.2046,0.17534-5.3828,1.9752-11.507,3.9997-6.1243,2.0245-11.812,4.4484-12.639,5.3865-4.3258,4.9054-20.679,55.071-28.216,86.557-9.1691,38.304-15.83,86.849-16.708,121.78l-0.2421,9.6268,8.1475,8.9245,8.1474,8.9245-8.1467,8.8475-8.1467,8.8474,0.2507,9.6012c1.3427,51.432,12.459,114.74,29.259,166.62,6.8227,21.072,14.642,41.677,16.188,42.658,0.6828,0.43331,6.1915,2.4314,12.242,4.4402,6.05,2.0088,11.16,3.789,11.357,3.9561,0.1963,0.16704-1.7162,5.5794-4.25,12.027-2.5338,6.448-4.6068,12.382-4.6068,13.186,0,2.0422,10.625,21.868,21.282,39.71,31.993,53.564,70.746,97.172,117.04,131.7,17.058,12.723,14.833,12.052,30.648,9.2356,7.3761-1.3137,13.597-2.2032,13.823-1.9766,0.2266,0.2265,1.7636,5.5042,3.4155,11.728,1.652,6.2238,3.6774,12.077,4.5009,13.007,2.1869,2.4694,29.118,14.09,44.785,19.324,22.077,7.3759,47.121,12.849,70.51,15.409,14.927,1.6339,60.616,0.5739,75.5-1.7516zm-78.5-22.704c-29.332-3.6705-58.304-11.501-83.74-22.633-8.9642-3.9232-9.2715-4.1672-10.312-8.1894-0.59-2.2801-1.7855-6.7562-2.6566-9.9468l-1.5839-5.8012,5.6626-8.1989c3.1144-4.5094,12.523-17.874,20.907-29.699,13.448-18.966,15.833-21.821,20.234-24.227l4.9889-2.7266h80.5,80.5l4.9546,2.7266c4.406,2.4247,6.8684,5.4395,22.238,27.227,9.5061,13.475,18.896,26.83,20.867,29.677l3.5832,5.1772-2.5997,9.7676c-1.4299,5.3722-2.7696,9.9374-2.9772,10.145-1.3681,1.3681-21.655,9.3378-35.066,13.776-16.238,5.3736-32.904,9.3267-51,12.097-14.424,2.2084-59.467,2.7087-74.5,0.8275zm-148.71-59.67c-33.686-23.597-70.375-62.191-98.304-103.41-11.932-17.608-28.984-46.783-28.984-49.588,0-0.96754,1.6222-5.8123,3.6049-10.766l3.605-9.0069h52.544,52.544l6.1013,3.1221,6.1013,3.1221,33,46.816,33,46.816,0.2858,8.9388,0.2859,8.9388-18.598,26.374c-10.229,14.505-19.357,27.116-20.286,28.024-0.9841,0.9621-5.3572,2.2557-10.485,3.1014l-8.7964,1.4508-5.6186-3.9358zm349.99,2.2937c-5.071-0.91699-9.388-1.8682-9.5932-2.1139-0.2052-0.24567-9.1004-12.822-19.767-27.947l-19.394-27.5-0.3589-7.5323-0.3588-7.5323,5.846-8.5337c3.2153-4.6935,18.446-26.372,33.846-48.174,27.694-39.208,28.064-39.674,33.89-42.684l5.8905-3.0433h52.691,52.691l3.6688,9.2695c2.0178,5.0982,3.6688,9.8376,3.6688,10.532,0,1.7594-12.591,24.071-21.678,38.414-26.427,41.715-63.08,82.285-98.822,109.38-12.989,9.8479-11.598,9.3812-22.22,7.4605zm-252.1-79.86c-5.1445-2.5919-6.3614-4.1631-38.256-49.39-18.118-25.692-33.39-47.889-33.936-49.327-1.35-3.5508-1.2566-13.116,0.1543-15.8,0.6315-1.2013,15.896-23.11,33.92-48.687,32.466-46.068,32.824-46.528,38.374-49.25l5.6021-2.7475,79.228,0.0472,79.228,0.0472,5.2666,2.7281c5.0521,2.617,6.6312,4.6609,38.75,50.156l33.483,47.428v8.5464,8.5464l-33.465,47.467c-32.151,45.604-33.672,47.575-38.747,50.203l-5.2817,2.7357-79.5-0.0137-79.5-0.0137-5.3135-2.6771zm-235.33-121.81-13.65-4.42-4.65-12.7c-18.596-50.78-31.854-115.65-34.088-166.77l-0.568-13,7.9955-8.25,7.9956-8.25h80.034,80.034l5.6309,2.75c5.5935,2.7317,5.8532,3.0652,39.058,50.135l33.427,47.385-0.2857,8.8977-0.2857,8.8977-33,46.849-33,46.849-6.1013,3.1179-6.1013,3.1179-54.399-0.10035-54.399-0.10036-13.649-4.416zm511.59,1.5268c-5.894-3.0646-6.1801-3.4262-34.943-44.149-42.872-60.7-38.5-53.64-38.5-62.169v-7.2526l33.439-47.42c30.677-43.503,33.877-47.688,38.75-50.666l5.3113-3.2459,80.522-0.004,80.522-0.004,8.2279,8.2709c9.6449,9.6952,9.1766,7.1958,6.6938,35.729-2.8791,33.088-8.4899,66.335-16.623,98.5-4.1074,16.244-17.394,57.798-20.242,63.305-1.3853,2.6789-3.0958,3.5273-15.331,7.6051l-13.772,4.5896h-54.056-54.056l-5.9426-3.09zm-276.93-120.69c-4.619-2.5261-7.4504-6.2187-38.5-50.21l-33.514-47.483v-8.0332-8.0332l33.514-47.483c31.05-43.991,33.881-47.684,38.5-50.21l4.9856-2.7266h80.5,80.5l4.9402,2.7266c4.5416,2.5066,7.6229,6.5195,38.183,49.727l33.243,47,0.011,9,0.011,9-33.259,47c-30.547,43.167-33.661,47.222-38.194,49.727l-4.9354,2.7266h-80.5-80.5l-4.9856-2.7266zm-279.91-125.83-7.898-8.54,0.674-12.68c2.835-53.27,15.144-113.51,33.655-164.72l5.0769-14.044,14.232-4.7061,14.232-4.7061h53.742,53.742l5.9066,2.9816c3.2486,1.6399,7.0257,4.4524,8.3935,6.25s16.458,23.068,33.535,47.268l31.048,44,0.03,8.7154,0.03,8.7154-33.437,47.285c-31.2,44.121-33.776,47.469-38.501,50.035l-5.0633,2.75-80.75-0.0324-80.75-0.0324-7.8986-8.5393zm555.81,5.6648c-4.6912-2.6907-7.7408-6.6749-38.75-50.626l-33.658-47.705v-7.2872c0-8.5696-4.3824-1.489,38.49-62.189l28.99-41.045,6.1113-3.1044,6.1113-3.1044h53.898,53.898l13.772,4.5898c12.114,4.0372,13.955,4.9441,15.293,7.532,2.8779,5.5653,15.324,44.402,19.83,61.878,8.4288,32.69,14.113,65.984,17.073,100,2.4908,28.625,2.9618,26.124-6.7367,35.772l-8.2709,8.2279-80.479-0.009-80.479-0.009-5.0919-2.9205zm-275.69-120.33c-5.6151-3.1326-6.6943-4.5249-38.93-50.222l-33.154-47-0.434-6.2047c-0.2386-3.4126,0.031-7.5376,0.5987-9.1666,0.5678-1.629,15.906-24.049,34.085-49.823,32.648-46.288,33.12-46.894,38.603-49.583l5.5508-2.7224h79.088,79.088l5.64,3.0478c5.4872,2.9652,6.5406,4.3264,38.89,50.25l33.25,47.202,0.0002,8.5803,0.0003,8.5803-33.439,47.372c-32.174,45.58-33.64,47.476-38.75,50.123l-5.3114,2.7508-79.5,0.0191-79.5,0.0191-5.7752-3.2219zm-221.12-125.73c-1.9827-4.9538-3.6049-9.7658-3.6049-10.693,0-2.4571,13.763-26.556,24.606-43.083,27.754-42.306,59.979-77.534,95.74-104.66,7.9853-6.058,12.098-8.5525,14.098-8.5525,5.4891,0,16.078,2.3282,17.754,3.9038,0.9342,0.87792,10.063,13.487,20.285,28.021l18.587,26.425-0.2852,8.8877-0.2852,8.8877-33,46.845-33,46.845-6,3.0931-6,3.0931-52.645-0.00038-52.645-0.00039-3.605-9.0069zm497.4,5.9549c-5.2519-2.8634-6.7632-4.7878-33.5-42.657-15.4-21.812-30.631-43.499-33.846-48.192l-5.846-8.5337,0.3655-7.5323,0.3656-7.5323,19.409-27.5c10.675-15.125,19.526-27.659,19.668-27.854,0.45-0.61574,14.754-3.1433,17.796-3.1445,5.7958-0.002,33.113,22.546,57.089,47.122,21.343,21.877,39.439,44.859,56.54,71.801,8.3294,13.123,20.96,35.566,20.96,37.244,0,0.67778-1.6215,5.4172-3.6034,10.532l-3.6033,9.2996-53.147-0.0266-53.147-0.0266-5.5-2.9987zm-275.1-120.2c-6.2944-3.1938-6.6686-3.6218-21.639-24.75-8.3785-11.825-17.782-25.19-20.896-29.699l-5.6626-8.1989,1.5839-5.8011c0.8711-3.1906,2.0666-7.6667,2.6566-9.9468,1.0439-4.0346,1.3285-4.2579,10.616-8.3311,21.452-9.4081,49.572-17.328,76.436-21.529,14.339-2.2421,51.294-3.0962,67.606-1.5625,23.494,2.2089,47.62,7.4093,69.606,15.004,10.091,3.4856,29.346,11.268,30.288,12.242,0.1715,0.17723,1.5185,4.761,2.9933,10.186l2.6816,9.8639-3.5618,5.1361c-1.959,2.8249-11.337,16.161-20.84,29.636-17.156,24.327-17.323,24.523-23.681,27.75l-6.4035,3.25h-77.69-77.69l-6.4052-3.25zm-355.67,400.25c0-1.925,0.2058-2.7125,0.4573-1.75s0.2515,2.5375,0,3.5-0.4573,0.175-0.4573-1.75zm878.85-1.5833c0.048-1.165,0.2849-1.4019,0.6042-0.60417,0.2888,0.72187,0.2533,1.5844-0.079,1.9167-0.3323,0.33229-0.5687-0.25834-0.5253-1.3125zm-878.85-49.42c0-1.925,0.2058-2.7125,0.4573-1.75s0.2515,2.5375,0,3.5-0.4573,0.175-0.4573-1.75zm878.85,1.4167c0.048-1.165,0.2849-1.4019,0.6042-0.60417,0.2888,0.72187,0.2533,1.5844-0.079,1.9167-0.3323,0.33229-0.5687-0.25834-0.5253-1.3125z"/>
 </g>
</svg>
