<?xml version="1.0" encoding="utf-8"?>
<!-- Generator: Adobe Illustrator 16.0.4, SVG Export Plug-In . SVG Version: 6.00 Build 0)  -->
<!DOCTYPE svg PUBLIC "-//W3C//DTD SVG 1.1//EN" "http://www.w3.org/Graphics/SVG/1.1/DTD/svg11.dtd">
<svg version="1.1" id="Layer_1" xmlns="http://www.w3.org/2000/svg" xmlns:xlink="http://www.w3.org/1999/xlink" x="0px" y="0px"
	 width="64px" height="64px" viewBox="0 0 64 64" enable-background="new 0 0 64 64" xml:space="preserve">
<g>
	<title>Layer 1</title>
	<g id="Layer_x0020_1">
		<path id="path10" d="M11.019,23.935h5.22l0.803,28.176h-6.725L11.019,23.935L11.019,23.935z M6.098,53.124h51.804v3.628h3.104
			v3.622h3.01V64H-0.016v-3.624h3.01v-3.624h3.104V53.124L6.098,53.124z M60.603,16.068L31.998,2.515L3.395,16.068v2.216h57.208
			V16.068L60.603,16.068z M8.909,19.296H55.09v3.625H8.909V19.296L8.909,19.296z M47.659,23.935h5.222l0.803,28.176h-6.727
			L47.659,23.935z M35.445,23.935h5.221l0.803,28.176h-6.726L35.445,23.935L35.445,23.935z M23.232,23.935h5.221l0.803,28.178H22.53
			L23.232,23.935z"/>
	</g>
</g>
</svg>
