<?xml version="1.0" encoding="UTF-8" standalone="no"?>
<svg
   xmlns:dc="http://purl.org/dc/elements/1.1/"
   xmlns:cc="http://creativecommons.org/ns#"
   xmlns:rdf="http://www.w3.org/1999/02/22-rdf-syntax-ns#"
   xmlns:svg="http://www.w3.org/2000/svg"
   xmlns="http://www.w3.org/2000/svg"
   viewBox="0 0 154.41251 178.78751"
   height="178.78751"
   width="154.41251"
   xml:space="preserve"
   version="1.1"
   id="svg2"><metadata
     id="metadata8"><rdf:RDF><cc:Work
         rdf:about=""><dc:format>image/svg+xml</dc:format><dc:type
           rdf:resource="http://purl.org/dc/dcmitype/StillImage" /></cc:Work></rdf:RDF></metadata><defs
     id="defs6" /><g
     transform="matrix(1.25,0,0,-1.25,0,178.7875)"
     id="g10"><g
       transform="scale(0.1,0.1)"
       id="g12"><path
         id="path14"
         style="fill:#204037;fill-opacity:1;fill-rule:nonzero;stroke:none"
         d="m 1158.42,1331.85 c 0,0 -74.25,-159.37 -111.99,-238.61 -184.887,85.09 -427.328,97.22 -631.039,-23.48 C 279.563,986.715 170.039,839.148 158.723,680.68 154.934,575.027 200.82,459.402 185.723,353.738 181.953,297.172 168.926,240.648 142.5,191.648 108.563,135.031 67.9102,85.9609 0,82.1797 15.1055,101.039 119.934,152.75 78.7109,390.199 62.3633,484.344 -67.0313,717.82 58.0273,1010.54 172.234,1277.8 666.301,1594.45 1158.42,1331.85" /><path
         id="path16"
         style="fill:#204037;fill-opacity:1;fill-rule:nonzero;stroke:none"
         d="m 592.336,863.191 c 63.98,23.067 135.652,23.485 203.609,8.446 128.254,-22.645 224.265,-100.059 271.075,-215 48.98,-120.274 84.13,-217.313 168.25,-320.125 2.41,-2.953 -131.36,19.648 -130.87,23.347 32.72,238.352 -192.584,248.196 -254.712,158.918 46.75,-51.418 127.011,-77.824 189.292,-67.773 C 1025.78,214.289 1091.79,-0.5 1088.07,0 1034.38,7.42969 788.418,152.141 716.504,214.98 610.84,196.148 528.086,157.109 405.703,140.199 c -3.762,-0.519 22.461,90.281 18.692,135.551 0,124.488 -95.411,241.191 -27.903,394.121 40.473,91.719 101.516,159.375 195.844,193.32" /><path
         id="path18"
         style="fill:#204037;fill-opacity:1;fill-rule:nonzero;stroke:none"
         d="m 680.852,934.996 c 7.168,-0.105 18.043,-1.766 18.25,-1.004 2.019,8.223 8.718,67.248 59.023,110.298 55.945,47.89 129.492,43.14 128.738,43.59 -73.269,22.4 -148.789,23.98 -200.933,19.37 l -5.078,-172.254" /><path
         id="path20"
         style="fill:#204037;fill-opacity:1;fill-rule:nonzero;stroke:none"
         d="m 214.773,720.203 c -11.14,-70.937 -11.902,-136.758 -5.945,-171.738 0.137,-0.461 10.559,60.078 44.981,94.16 30,29.727 68.222,35.527 81.777,35.059 0,0.183 6.809,23.203 5.84,23.261 l -126.653,19.258" /><path
         id="path22"
         style="fill:#204037;fill-opacity:1;fill-rule:nonzero;stroke:none"
         d="m 356.621,733.375 c 3.692,9.465 8.184,17.785 13.672,28.547 L 240.105,812.41 c -8.093,-16.222 -14.187,-40.539 -17.214,-53.711 l 133.73,-25.324" /><path
         id="path24"
         style="fill:#204037;fill-opacity:1;fill-rule:nonzero;stroke:none"
         d="m 388.035,783.016 c 0.363,0.41 20.91,26.601 21.281,26.347 L 290.02,899.039 c -12.415,-15.711 -22.547,-32.937 -30.665,-51.172 l 128.68,-64.851" /><path
         id="path26"
         style="fill:#204037;fill-opacity:1;fill-rule:nonzero;stroke:none"
         d="m 432.449,831.852 c 0.656,0.675 26.516,24.113 26.516,24.113 L 355.613,973.492 c -23.308,-20.242 -30.386,-29.363 -44.59,-46.609 l 121.426,-95.031" /><path
         id="path28"
         style="fill:#204037;fill-opacity:1;fill-rule:nonzero;stroke:none"
         d="m 486.121,872.625 c 0.207,-1.445 29.699,16.504 30.356,17.82 l -76.77,139.795 C 410.332,1016.06 391.57,1000.85 382.98,994.773 L 486.121,872.625" /><path
         id="path30"
         style="fill:#204037;fill-opacity:1;fill-rule:nonzero;stroke:none"
         d="m 543.059,903.582 c 36.636,12.449 36.484,12.832 36.484,12.156 L 535.969,1072.8 c -24.309,-7.1 -57.129,-21.15 -64.856,-26.35 l 71.946,-142.868" /><path
         id="path32"
         style="fill:#204037;fill-opacity:1;fill-rule:nonzero;stroke:none"
         d="m 607.91,924.871 c 1.32,-0.664 33.035,7.07 33.438,7.09 l 4.043,170.239 c -1.321,-1.33 -39.512,-7.11 -71.934,-16.24 L 607.91,924.871" /></g></g></svg>