<?xml version="1.0" encoding="utf-8"?>
<!-- Generator: Adobe Illustrator 16.0.4, SVG Export Plug-In . SVG Version: 6.00 Build 0)  -->
<!DOCTYPE svg PUBLIC "-//W3C//DTD SVG 1.1 Tiny//EN" "http://www.w3.org/Graphics/SVG/1.1/DTD/svg11-tiny.dtd">
<svg version="1.1" baseProfile="tiny" id="Layer_1" xmlns="http://www.w3.org/2000/svg" xmlns:xlink="http://www.w3.org/1999/xlink"
	 x="0px" y="0px" width="64px" height="64px" viewBox="0 0 64 64" xml:space="preserve">
<polygon points="59.924,41.312 48.719,22.688 51.805,22.688 51.805,12.982 33.155,12.982 33.155,22.688 36.241,22.688 
	31.959,29.803 27.68,22.688 30.766,22.688 30.766,12.982 12.116,12.982 12.116,22.688 15.202,22.688 3.997,41.312 0,41.312 
	0,51.018 19.021,51.018 19.021,41.312 15.604,41.312 21.441,31.609 23.704,35.373 21.534,35.373 21.534,45.077 42.387,45.077 
	42.387,35.373 40.217,35.373 42.48,31.609 48.317,41.312 44.9,41.312 44.9,51.018 63.919,51.018 63.919,41.312 "/>
<g>
	<path fill="#FFFFFF" d="M50.559,14.226c0,1.614,0,5.606,0,7.219c-0.886,0-4.041,0-4.041,0L59.22,42.558c0,0,2.275,0,3.456,0
		c0,1.612,0,5.604,0,7.217c-2.022,0-14.514,0-16.533,0c0-1.613,0-5.604,0-7.217c1.006,0,4.373,0,4.373,0l-8.036-13.36l-4.464,7.421
		c0,0,2.673,0,3.126,0c0,1.61,0,5.603,0,7.216c-2.061,0-16.304,0-18.366,0c0-1.613,0-5.605,0-7.216c0.454,0,3.128,0,3.128,0
		l-4.464-7.421l-8.037,13.36c0,0,3.367,0,4.374,0c0,1.612,0,5.604,0,7.217c-2.02,0-14.51,0-16.533,0c0-1.613,0-5.604,0-7.217
		c1.18,0,3.455,0,3.455,0l12.703-21.113c0,0-3.156,0-4.042,0c0-1.613,0-5.605,0-7.219c2.011,0,14.149,0,16.161,0
		c0,1.614,0,5.606,0,7.219c-0.886,0-4.042,0-4.042,0l6.48,10.771l6.483-10.771c0,0-3.157,0-4.043,0c0-1.613,0-5.605,0-7.219
		C36.41,14.226,48.547,14.226,50.559,14.226z"/>
</g>
<g>
	<g>
		<path d="M49.314,15.47c0,1.35,0,3.38,0,4.73c-1.191,0-4.998,0-4.998,0l14.2,23.602c0,0,1.896,0,2.915,0c0,1.35,0,3.379,0,4.729
			c-1.954,0-12.091,0-14.045,0c0-1.35,0-3.379,0-4.729c1.273,0,5.33,0,5.33,0L42.479,26.784l-6.664,11.078c0,0,3.181,0,4.082,0
			c0,1.348,0,3.377,0,4.727c-2.006,0-13.872,0-15.877,0c0-1.35,0-3.379,0-4.727c0.902,0,4.084,0,4.084,0L21.44,26.784L11.202,43.802
			c0,0,4.056,0,5.33,0c0,1.35,0,3.379,0,4.729c-1.955,0-12.089,0-14.044,0c0-1.35,0-3.379,0-4.729c1.019,0,2.914,0,2.914,0
			L19.601,20.2c0,0-3.806,0-4.997,0c0-1.351,0-3.381,0-4.73c1.943,0,11.729,0,13.672,0c0,1.35,0,3.38,0,4.73
			c-1.192,0-4.999,0-4.999,0l8.681,14.43l8.683-14.43c0,0-3.808,0-4.999,0c0-1.351,0-3.381,0-4.73
			C37.586,15.47,47.373,15.47,49.314,15.47z"/>
	</g>
</g>
</svg>
