<?xml version="1.0" encoding="utf-8"?>
<!-- Generator: Adobe Illustrator 16.0.4, SVG Export Plug-In . SVG Version: 6.00 Build 0)  -->
<!DOCTYPE svg PUBLIC "-//W3C//DTD SVG 1.1//EN" "http://www.w3.org/Graphics/SVG/1.1/DTD/svg11.dtd">
<svg version="1.1" id="Layer_1" xmlns="http://www.w3.org/2000/svg" xmlns:xlink="http://www.w3.org/1999/xlink" x="0px" y="0px"
	 width="252.645px" height="252.645px" viewBox="0 0 252.645 252.645" enable-background="new 0 0 252.645 252.645"
	 xml:space="preserve">
<g>
	<rect x="6" y="120.822" fill="none" stroke="#000000" stroke-width="12" stroke-miterlimit="10" width="26.143" height="26.143"/>
	
		<rect x="105.68" y="120.822" fill="none" stroke="#000000" stroke-width="12" stroke-miterlimit="10" width="26.143" height="26.143"/>
</g>
<g>
	<rect x="6" y="220.502" fill="none" stroke="#000000" stroke-width="12" stroke-miterlimit="10" width="26.143" height="26.143"/>
	
		<rect x="105.68" y="220.502" fill="none" stroke="#000000" stroke-width="12" stroke-miterlimit="10" width="26.143" height="26.143"/>
</g>
<line fill="none" stroke="#000000" stroke-width="14" stroke-miterlimit="10" x1="32.143" y1="133.893" x2="105.68" y2="133.893"/>
<line fill="none" stroke="#000000" stroke-width="14" stroke-miterlimit="10" x1="32.143" y1="237.419" x2="105.68" y2="237.419"/>
<line fill="none" stroke="#000000" stroke-width="14" stroke-miterlimit="10" x1="118.751" y1="220.502" x2="118.751" y2="146.965"/>
<line fill="none" stroke="#000000" stroke-width="14" stroke-miterlimit="10" x1="19.072" y1="220.502" x2="19.072" y2="146.965"/>
<g id="icomoon-ignore">
	<line fill="none" stroke="#449FDB" x1="60.9" y1="175.721" x2="60.9" y2="175.721"/>
</g>
<path d="M232.097,20.55c13.25,13.252,20.548,30.873,20.548,49.615c0,18.74-7.298,36.363-20.548,49.617
	c-13.254,13.25-30.877,20.548-49.617,20.548c-18.742,0-36.363-7.298-49.615-20.548c-13.253-13.254-20.55-30.877-20.55-49.617
	c0-18.742,7.297-36.363,20.55-49.615C146.116,7.297,163.738,0,182.48,0C201.22,0,218.843,7.297,232.097,20.55z M225.888,113.581
	c8.646-8.642,14.389-19.408,16.762-31.116c-1.851,2.715-3.615,3.726-4.711-2.364c-1.122-9.918-10.235-3.58-15.966-7.109
	c-6.029,4.068-19.584-7.901-17.284,5.598c3.555,6.085,19.186-8.149,11.396,4.732c-4.973,8.988-18.18,28.907-16.458,39.228
	c0.214,15.045-15.366,3.14-20.738-1.85c-3.614-9.991-1.233-27.46-10.674-32.351c-10.253-0.449-19.052-1.379-23.023-12.839
	c-2.39-8.199,2.544-20.404,11.332-22.291c12.862-8.081,17.453,9.465,29.52,9.79c3.742-3.921,13.952-5.167,14.8-9.561
	c-7.918-1.394,10.038-6.653-0.762-9.643c-5.953,0.7-9.799,6.178-6.63,10.818c-11.541,2.691-11.914-16.704-23.01-10.587
	c-0.28,9.675-18.119,3.135-6.169,1.176c4.104-1.794-6.698-6.991-0.861-6.047c2.87-0.158,12.516-3.54,9.908-5.812
	c5.37-3.336,9.888,7.991,15.147-0.259c3.794-6.341-1.594-7.512-6.352-4.298c-2.683-3.004,4.736-9.494,11.285-12.295
	c2.175-0.936,4.265-1.443,5.858-1.3c3.297,3.807,9.392,4.469,9.713-0.456c-8.163-3.91-17.169-5.977-26.488-5.977
	c-13.378,0-26.102,4.249-36.63,12.113c2.828,1.298,4.438,2.91,1.711,4.972c-2.118,6.311-10.713,14.783-18.257,13.587
	c-3.917,6.753-6.499,14.198-7.6,21.999c6.319,2.092,7.775,6.229,6.42,7.614c-3.219,2.806-5.197,6.788-6.218,11.144
	c2.057,12.586,7.972,24.184,17.168,33.382c11.595,11.593,27.015,17.979,43.41,17.979c16.397,0,31.814-6.386,43.407-17.979H225.888z"
	/>
</svg>
