<?xml version="1.0" encoding="utf-8"?>
<!-- Generator: Adobe Illustrator 16.0.4, SVG Export Plug-In . SVG Version: 6.00 Build 0)  -->
<!DOCTYPE svg PUBLIC "-//W3C//DTD SVG 1.1//EN" "http://www.w3.org/Graphics/SVG/1.1/DTD/svg11.dtd">
<svg version="1.1"
	 id="svg3025" xmlns:dc="http://purl.org/dc/elements/1.1/" xmlns:cc="http://creativecommons.org/ns#" xmlns:svg="http://www.w3.org/2000/svg" xmlns:inkscape="http://www.inkscape.org/namespaces/inkscape" xmlns:sodipodi="http://sodipodi.sourceforge.net/DTD/sodipodi-0.dtd" xmlns:rdf="http://www.w3.org/1999/02/22-rdf-syntax-ns#" sodipodi:docname="map_marker_font_awesome.svg" inkscape:version="0.48.3.1 r9886"
	 xmlns="http://www.w3.org/2000/svg" xmlns:xlink="http://www.w3.org/1999/xlink" x="0px" y="0px" width="64px" height="64px"
	 viewBox="0 0 64 64" enable-background="new 0 0 64 64" xml:space="preserve">
<sodipodi:namedview  borderopacity="1" pagecolor="#ffffff" gridtolerance="10" inkscape:zoom="0.13169643" inkscape:cy="896" inkscape:cx="896" id="namedview3031" bordercolor="#666666" objecttolerance="10" guidetolerance="10" showgrid="false" inkscape:window-x="0" inkscape:pageopacity="0" inkscape:window-y="25" inkscape:window-maximized="0" inkscape:current-layer="svg3025" inkscape:window-width="640" inkscape:pageshadow="2" inkscape:window-height="480">
	</sodipodi:namedview>
<g id="g3027_1_" transform="matrix(1,0,0,-1,364.47458,1270.2373)">
	<path id="path3029_1_" inkscape:connector-curvature="0" d="M-341.428,1236.113c0,1.722-0.609,3.192-1.828,4.41
		c-1.218,1.219-2.689,1.828-4.411,1.828c-1.723,0-3.193-0.609-4.412-1.828c-1.218-1.217-1.828-2.688-1.828-4.41
		c0-1.723,0.609-3.193,1.828-4.412s2.689-1.827,4.412-1.827c1.721,0,3.192,0.608,4.411,1.827S-341.428,1234.391-341.428,1236.113z
		 M-335.189,1236.113c0-1.771-0.268-3.226-0.804-4.362l-8.871-18.863c-0.26-0.537-0.646-0.959-1.158-1.268
		c-0.511-0.309-1.059-0.463-1.644-0.463c-0.586,0-1.134,0.154-1.646,0.463c-0.512,0.309-0.889,0.73-1.133,1.268l-8.896,18.863
		c-0.536,1.137-0.804,2.591-0.804,4.362c0,3.444,1.218,6.385,3.655,8.821c2.437,2.438,5.378,3.656,8.823,3.656
		c3.443,0,6.385-1.218,8.822-3.656C-336.408,1242.498-335.189,1239.557-335.189,1236.113z"/>
</g>
<g id="g3027_2_" transform="matrix(1,0,0,-1,364.47458,1270.2373)">
	<path id="path3029_2_" inkscape:connector-curvature="0" d="M-310.428,1253.113c0,1.722-0.609,3.192-1.828,4.41
		c-1.219,1.219-2.689,1.828-4.41,1.828c-1.723,0-3.193-0.609-4.412-1.828c-1.219-1.217-1.828-2.688-1.828-4.41
		c0-1.723,0.609-3.193,1.828-4.412s2.689-1.827,4.412-1.827c1.721,0,3.191,0.608,4.41,1.827S-310.428,1251.391-310.428,1253.113z
		 M-304.189,1253.113c0-1.771-0.268-3.226-0.804-4.362l-8.871-18.863c-0.26-0.537-0.646-0.959-1.158-1.268
		c-0.511-0.309-1.06-0.463-1.644-0.463c-0.586,0-1.135,0.154-1.646,0.463s-0.889,0.73-1.133,1.268l-8.896,18.863
		c-0.536,1.137-0.804,2.591-0.804,4.362c0,3.444,1.219,6.385,3.655,8.821c2.437,2.438,5.378,3.656,8.823,3.656
		c3.443,0,6.385-1.218,8.821-3.656C-305.408,1259.498-304.189,1256.557-304.189,1253.113z"/>
</g>
</svg>
