<svg width="208px" height="223px" viewBox="0 0 208 223" version="1.1" xmlns="http://www.w3.org/2000/svg" xmlns:xlink="http://www.w3.org/1999/xlink">
    <!-- Generator: Sketch 48.2 (47327) - http://www.bohemiancoding.com/sketch -->
    <desc>Created with Sketch.</desc>
    <defs></defs>
    <g id="Page-1" stroke="none" stroke-width="1" fill="none" fill-rule="evenodd">
        <g id="Group-2" transform="translate(6.000000, 6.000000)" stroke="#000000">
            <g id="polygon" transform="translate(0.000000, 70.000000)">
                <g id="Group" stroke-width="12">
                    <rect id="Rectangle-path" x="0" y="0" width="29.253112" height="29"></rect>
                    <rect id="Rectangle-path" x="111.539191" y="0" width="29.253112" height="29"></rect>
                </g>
                <g id="Group" transform="translate(0.000000, 111.000000)" stroke-width="12">
                    <rect id="Rectangle-path" x="0" y="0.378823529" width="29.253112" height="29.4117647"></rect>
                    <rect id="Rectangle-path" x="111.539191" y="0.379411765" width="29.253112" height="29.4111765"></rect>
                </g>
                <path d="M29,15 L111,15" id="Shape" stroke-width="24"></path>
                <path d="M29,130 L111,130" id="Shape" stroke-width="24"></path>
                <path d="M126,111 L126,29" id="Shape" stroke-width="24"></path>
                <path d="M15,111 L15,29" id="Shape" stroke-width="24"></path>
            </g>
            <g id="polygon" transform="translate(55.000000, 0.000000)">
                <g id="Group" stroke-width="12">
                    <rect id="Rectangle-path" x="0" y="0" width="29.253112" height="29"></rect>
                    <rect id="Rectangle-path" x="111.539191" y="0" width="29.253112" height="29"></rect>
                </g>
                <g id="Group" transform="translate(0.000000, 111.000000)" stroke-width="12">
                    <rect id="Rectangle-path" x="0" y="0.378823529" width="29.253112" height="29.4117647"></rect>
                    <rect id="Rectangle-path" x="111.539191" y="0.379411765" width="29.253112" height="29.4111765"></rect>
                </g>
                <path d="M29,15 L111,15" id="Shape" stroke-width="24"></path>
                <path d="M29,130 L111,130" id="Shape" stroke-width="24"></path>
                <path d="M126,111 L126,29" id="Shape" stroke-width="24"></path>
                <path d="M15,111 L15,29" id="Shape" stroke-width="24"></path>
            </g>
        </g>
    </g>
</svg>
