<svg viewBox="0 0 208 223" version="1.1" xmlns="http://www.w3.org/2000/svg"><g stroke="none" stroke-width="1" fill="none" fill-rule="evenodd"><g stroke="#000000"><g><g stroke-width="12" transform="translate(6 76)"><rect x="0" y="0" width="29.253" height="29"/><rect x="111.539" y="0" width="29.253" height="29"/></g><g transform="translate(6 187)" stroke-width="12"><rect x="0" y=".379" width="29.253" height="29.412"/><rect x="111.539" y=".379" width="29.253" height="29.411"/></g><path d="M35 91h82" stroke-width="24"/><path d="M35 206h82" stroke-width="24"/><path d="M132 187v-82" stroke-width="24"/><path d="M21 187v-82" stroke-width="24"/></g><g><g stroke-width="12" transform="translate(61 6)"><rect x="0" y="0" width="29.253" height="29"/><rect x="111.539" y="0" width="29.253" height="29"/></g><g transform="translate(61 117)" stroke-width="12"><rect x="0" y=".379" width="29.253" height="29.412"/><rect x="111.539" y=".379" width="29.253" height="29.411"/></g><path d="M90 21h82" stroke-width="24"/><path d="M90 136h82" stroke-width="24"/><path d="M187 117V35" stroke-width="24"/><path d="M76 117V35" stroke-width="24"/></g></g></g></svg>
