<svg version="1.1" xmlns="http://www.w3.org/2000/svg" x="0" y="0" viewBox="0 0 64 64" xml:space="preserve"><g><path d="M23.047 34.124c0-1.722-.61-3.192-1.828-4.41-1.218-1.219-2.69-1.828-4.411-1.828-1.723 0-3.193.61-4.412 1.828-1.218 1.217-1.828 2.688-1.828 4.41 0 1.723.609 3.193 1.828 4.412s2.689 1.827 4.412 1.827c1.72 0 3.192-.608 4.41-1.827s1.829-2.69 1.829-4.412zm6.239 0c0 1.771-.268 3.226-.804 4.362L19.61 57.35c-.26.537-.646.96-1.158 1.268a3.122 3.122 0 01-1.644.463 3.129 3.129 0 01-1.646-.463 2.8 2.8 0 01-1.133-1.268L5.134 38.486c-.536-1.137-.804-2.59-.804-4.362 0-3.444 1.218-6.385 3.655-8.82 2.437-2.439 5.378-3.657 8.823-3.657 3.443 0 6.385 1.218 8.822 3.656 2.437 2.436 3.656 5.377 3.656 8.821z"/></g><g><path d="M54.047 17.124c0-1.722-.61-3.192-1.828-4.41-1.22-1.219-2.69-1.828-4.41-1.828-1.723 0-3.193.61-4.412 1.828-1.22 1.217-1.828 2.688-1.828 4.41 0 1.723.609 3.193 1.828 4.412s2.689 1.827 4.412 1.827c1.72 0 3.19-.608 4.41-1.827s1.828-2.69 1.828-4.412zm6.239 0c0 1.771-.268 3.226-.804 4.362L50.61 40.35c-.26.537-.646.96-1.158 1.268a3.125 3.125 0 01-1.644.463c-.586 0-1.135-.154-1.646-.463s-.89-.73-1.133-1.268l-8.896-18.863c-.536-1.137-.804-2.59-.804-4.362 0-3.444 1.219-6.385 3.655-8.82 2.437-2.439 5.378-3.657 8.823-3.657 3.443 0 6.385 1.218 8.82 3.656 2.439 2.436 3.658 5.377 3.658 8.821z"/></g></svg>
