<?xml version="1.0" encoding="utf-8"?>
<!-- Generator: Adobe Illustrator 16.0.4, SVG Export Plug-In . SVG Version: 6.00 Build 0)  -->
<!DOCTYPE svg PUBLIC "-//W3C//DTD SVG 1.1//EN" "http://www.w3.org/Graphics/SVG/1.1/DTD/svg11.dtd">
<svg version="1.1" id="Layer_1" xmlns="http://www.w3.org/2000/svg" xmlns:xlink="http://www.w3.org/1999/xlink" x="0px" y="0px"
	 width="64px" height="64px" viewBox="0 0 64 64" enable-background="new 0 0 64 64" xml:space="preserve">
<g>
	<path fill="#553190" d="M16.61,14.458c-3.613,3.892-5.281,17.79,10.146,17.79h0.417c-9.59-5.281-8.339-13.203-4.586-18.763
		c0.417-0.695-2.363-7.228-2.502-6.254C19.806,10.01,17.166,13.346,16.61,14.458z"/>
	<path fill="#553190" d="M29.674,31.97c-6.254-11.814,6.811-19.736,6.811-21.125c0-4.031-2.642-11.814-2.919-10.702
		c-0.973,3.613-5.977,8.895-6.95,10.006C17.722,19.878,19.946,27.661,29.674,31.97z"/>
	<path fill="#553190" d="M31.065,31.97c0.833-11.952,12.369-13.342,13.342-15.705c1.529-4.031-1.668-11.397-1.946-10.841
		c-1.112,2.918-3.474,5.56-3.474,5.56c-9.591,7.227-11.398,13.203-7.922,20.708V31.97z"/>
	<path fill="#553190" d="M32.176,32.248c18.625,1.528,17.651-19.875,17.651-19.875c-1.111,2.78-3.475,4.169-3.612,4.448
		C43.852,19.878,34.4,20.156,32.316,31.97C32.176,31.97,32.176,32.248,32.176,32.248z"/>
	<rect x="23.698" y="33.776" fill="#553190" width="12.648" height="3.753"/>
	<path fill="#553190" d="M28.98,63.381c0.139,0.555,1.39,0.973,1.806,0l3.058-24.323h-7.505L28.98,63.381z"/>
</g>
</svg>
