<?xml version="1.0" standalone="no"?>
<!DOCTYPE svg PUBLIC "-//W3C//DTD SVG 20010904//EN"
 "http://www.w3.org/TR/2001/REC-SVG-20010904/DTD/svg10.dtd">
<svg version="1.0" xmlns="http://www.w3.org/2000/svg"
 width="600.000000pt" height="786.000000pt" viewBox="0 0 600.000000 786.000000"
 preserveAspectRatio="xMidYMid meet">
<metadata>
Created by potrace 1.15, written by Peter Selinger 2001-2017
</metadata>
<g transform="translate(0.000000,786.000000) scale(0.100000,-0.100000)"
fill="#000000" stroke="none">
<path d="M732 7127 l-732 -732 0 -2460 1 -2460 727 -737 727 -736 1540 -1
1540 -1 733 733 732 732 0 2463 0 2464 -727 734 -727 734 -1541 0 -1540 0
-733 -733z m4435 -109 l703 -703 0 -2385 0 -2386 -704 -697 -704 -697 -1464 0
-1463 0 -697 697 -698 698 0 2391 0 2392 701 696 701 696 1461 0 1462 0 702
-702z"/>
<path d="M947 6872 l-647 -647 0 -2305 0 -2305 648 -648 647 -647 1405 0 1405
0 643 643 642 642 0 2315 0 2315 -643 643 -642 642 -1405 0 -1405 0 -648 -648z
m3150 -954 l263 -263 0 -1735 0 -1735 -262 -262 -263 -263 -840 0 -840 0 -257
264 -258 264 0 1739 0 1738 257 257 258 258 840 0 840 0 262 -262z"/>
<path d="M2037 5782 l-207 -207 0 -1655 0 -1655 203 -203 202 -202 765 0 765
0 198 198 197 197 0 1660 0 1660 -208 208 -207 207 -750 0 -750 0 -208 -208z
m1820 -104 l163 -163 0 -1595 0 -1595 -163 -163 -162 -162 -695 0 -695 0 -162
162 -163 163 0 1595 0 1595 162 162 163 163 695 0 695 0 162 -162z"/>
</g>
</svg>
