<svg version="1.1" viewBox="0 0 181.564 200.186" x="0" xml:space="preserve" xmlns="http://www.w3.org/2000/svg" y="0"><g><g><g fill="#000"><path d="M118.25 116.62c0-1.397 1.163-3.492 1.163-5.354 0-2.327-2.793-3.026-4.888-3.259-4.423-.698-6.052-.465-6.052-1.396 0-.699.698-1.397 1.397-2.56 1.164-1.863 4.19-2.328 5.586-2.561 2.095-.233 4.19-.466 6.983-.466 3.027 0 5.587.466 6.75.699 2.794.465 3.26 1.629 3.26 3.026v1.396c0 1.397-1.164 2.095-3.026 2.328-.466 0-1.164.233-1.397.233-1.397.233-3.259.465-3.724 2.328-1.397 3.724-3.725 6.75-5.354 6.75-.466-.466-.698-.698-.698-1.164zm3.957-61.452c-.233 0-.699-.233-.699-.932s.466-1.396 1.397-2.793c2.328-3.026 5.354-6.75 6.518-6.75.465 0 .93.465 1.63 1.63.465.697.697 2.094.697 3.258 0 3.957-1.396 6.983-3.491 10.01-1.164-.699-3.026-2.794-6.052-4.423zm-66.574 7.448c.931 0 1.862-.698 3.259-2.327 3.492-3.725 6.75-4.423 6.75-6.053 0-.698-.465-1.396-.93-2.094-3.725-5.82-5.354-8.846-7.45-13.036-.698-1.397-1.862-2.56-2.56-2.56-1.164 0-2.56 1.396-3.492 2.793-1.163 1.862-2.095 3.724-2.095 5.587 0 2.793.699 7.914 1.863 11.173 1.164 3.491 3.026 6.517 4.655 6.517zm41.201 13.269c0-2.328-2.56-5.82-7.216-5.82-4.19 0-7.216 3.026-8.147 5.587.931 1.862 1.862 3.957 5.82 5.12.465.234 1.163.234 1.163.7 0 .697-.698.93-2.095.93-4.422 0-7.216-1.862-8.38-3.491-1.163.232-2.56.698-4.19.698-1.396 0-2.094-.931-2.094-2.095 0-.698.232-1.63.698-2.56.233-.466.465-1.164.698-1.397.699-1.397 1.862-4.423 5.82-6.75.465-.233 1.629-.932 2.327-1.397 2.328-1.397 4.19-1.63 6.75-1.63h2.096c3.259 0 4.888.931 6.517 2.095 3.027 2.56 4.656 3.957 4.656 5.82 0 2.095 0 3.724-1.862 5.819-1.397 1.862-3.492 3.026-4.888 3.026-.466 0-.466-.233-.466-.466s.233-.465.698-.698c1.397-.93 1.862-2.56 2.095-3.491zm20.019 63.78c-.698.233-2.328.465-9.078.465-10.242 0-12.105-2.56-12.105-4.422 0-3.26 14.665-5.82 20.485-5.82 5.586 0 8.147 1.862 8.147 3.26s-2.56 5.12-7.45 6.517zm-59.358 30.028c10.708 8.38 22.114 15.828 33.287 22.346 0-10.01-.233-16.061 6.518-23.277 2.793-2.794 5.586-5.82 8.147-8.613 1.862-2.095 3.492-3.492 4.423-3.492.698 0 .93.233.93 1.164s.466 4.19 2.561 8.147c2.56 4.889 6.285 5.587 7.45 5.82 29.329-22.114 53.77-50.745 53.77-91.714V20.251c-7.216-2.56-36.778-13.733-83.799-13.733S14.2 17.924 6.983 20.25v59.823c0 17.924 4.656 33.753 12.57 47.487.698-8.38 6.285-12.338 6.285-20.485 0-5.586-1.63-9.31-1.63-13.966 0-8.613 11.64-26.304 17.691-33.52.233-.232.466-.698 1.164-.698.466 0 .699.233.931.698.699.931.932 1.397 1.63 1.397s.93-.466.93-.931c0-1.397-1.628-3.957-1.628-13.734 0-6.75 1.629-8.38 5.819-12.57.698-.698 3.259-3.026 5.354-3.026 2.56 0 3.724 1.397 5.354 3.026 2.56 2.56 6.284 7.45 6.983 8.147.233.233.233.466.698.466 1.164 0 2.328-.466 7.449-.466 9.544 0 23.976 1.397 31.424 3.958 3.725 1.163 4.656 2.095 5.587 2.095.466 0 .466-.233.466-.699s-.932-1.164-.932-1.862c0-.465.466-.698.699-.931 5.586-3.026 10.242-5.121 14.665-5.121 2.56 0 3.724 2.095 4.888 4.423.931 1.63 1.63 3.957 1.63 6.285 0 5.819-2.328 9.543-3.958 11.871.931.931 2.095 2.095 2.793 3.026 1.397 1.63 2.794 3.725 2.794 5.82 0 .93-.466 2.327-.699 3.491 0 .466-.465 1.63-1.396 1.63-.699 0-.931-.932-.931-1.63v-.698c0-1.63-.466-3.957-2.095-5.587-1.863-1.862-3.492-3.259-5.587-3.259h-.698c-3.492 0-4.888 1.397-5.82 2.328s-1.862 2.328-1.862 4.19c0 .931.699 2.328 1.63 4.19.465 1.164 1.862 3.724 2.793 5.121.698 1.164 1.63 1.63 2.56 1.63 2.328 0 4.423-.233 4.423-1.164 0-.233 0-.466-.465-.466h-.699c-3.026 0-4.888-3.957-6.285-7.682 1.164-1.163 2.56-2.327 4.889-2.327 3.026 0 5.12 2.095 5.12 4.888 0 1.397-.465 2.56-.698 3.026-.232.233-.232.466-.232.466 0 .465.465.465 1.396.698.233 0 .931.233 1.164.233.931.232 1.862 1.164 2.328 2.095.233.698.931 2.327.931 2.793.466 1.63 1.397 3.724 1.397 6.518s-.233 3.491-.931 6.285c-.932 3.491-1.397 4.888-1.63 6.75.233.698.466.698.466 1.164.465 1.164 1.164 3.259 1.164 5.354v1.862c0 3.492-1.397 6.285-3.027 8.38-1.163 1.63-2.793 3.957-3.957 5.12-.698.7-1.396 1.398-2.56 1.398-.466 0-.931-.233-1.63-.233-.698-.233-1.862-.466-2.327-.699-2.095-.465-2.794-1.862-3.492-3.724 0-.233-.466-1.164-.466-1.397-.465-1.163-.698-2.095-1.629-2.095-.698 0-1.164.466-1.862 1.164-2.095 3.026-3.26 4.19-6.983 5.121-1.397.233-3.958.931-5.354 1.164-2.095.466-6.052 1.63-8.38 1.63h-1.397c-3.026-.466-5.12-.699-8.845-5.121-5.121-6.053-4.656-6.984-4.889-15.364 0-.93-.232-2.095-1.396-2.095-.931 0-1.164 1.863-1.63 4.19-.465 3.026-1.163 6.053-2.56 6.053-.931 0-1.63-.233-3.259-.699-1.862-.698-6.518-2.095-9.078-3.026-3.259-1.164-6.518-2.095-7.915-4.888-.698-1.397-1.629-3.957-2.327-5.354-.466-.931-.699-1.397-1.397-1.397-.931 0-1.164 1.164-1.164 1.863 0 .93-.465 3.026-.465 4.422-.466 5.82-1.63 8.38-4.19 11.406-1.164 1.397-2.095 3.026-3.492 4.656-2.56 3.491-4.19 6.983-3.957 13.5v3.958c1.164 11.173 3.724 15.829 20.251 29.097z"/><path d="M135.475 82.868c.233.698.931 2.328.931 2.793.466 1.63 1.397 3.724 1.397 6.518s-.233 3.491-.931 6.285c-.932 3.491-1.397 4.888-1.63 6.75-.233-.465-5.354-9.31-5.587-10.01-.465-.697-.698-1.396-.698-2.327s.466-1.397 1.397-2.095c.698-.465 1.396-.931 2.095-1.164 2.56-1.396 3.259-3.026 3.259-4.655 0-.699-.233-1.397-.233-2.095zM113.36 96.6c.233.699.466 1.397.466 2.095 0 1.397-.233 1.63-.931 2.561-.466.466-.931.698-1.397 1.164-.698.465-1.397.931-1.862 1.396-.931 1.164-1.397 1.863-1.397 2.561 0 .233 0 .466.233.466-.931-.699-1.397-1.863-1.397-2.794s.233-1.396.233-2.327c0-.699-.233-1.397-.233-1.863-1.396-4.655-3.724-10.242-5.12-13.966-1.397-3.957-2.561-6.052-4.423-6.052-.932 0-1.863.465-2.794.465 1.397 0 3.492-1.164 4.889-3.026 1.629-2.095 1.862-3.724 1.862-5.82 0-.93-.466-1.629-1.164-2.56 2.095 2.095 3.491 4.889 4.888 7.915 3.259 6.983 5.82 14.199 8.147 19.785zM38.175 141.76v-3.957c0-6.518 1.397-10.01 3.957-13.501 1.164-1.63 2.328-3.26 3.492-4.656 2.56-3.259 3.724-5.586 4.19-11.406.233-1.396.465-3.491.465-4.423s.233-1.862 1.164-1.862c.699 0 .931.466 1.397 1.397.465 1.397 1.63 3.957 2.328 5.354 1.396 3.026 4.422 3.957 7.914 4.888 2.56.698 7.216 2.328 9.078 3.026 1.63.466 2.328.698 3.259.698 1.397 0 2.095-3.026 2.56-6.052.233-2.56.699-4.19 1.63-4.19s1.164 1.164 1.397 2.095c.232 8.38-.233 9.079 4.888 15.363 3.724 4.423 5.82 4.656 8.845 5.121-1.164-.232-2.56-1.629-2.56-4.422v-3.026c0-1.397.233-3.026.93-4.656.466-.698.7-2.328 1.165-3.259.698-1.63.233-1.862.233-3.026s-.466-2.327-1.164-4.888c-.466-1.397-1.164-3.492-1.63-5.121-1.862-5.121-2.56-6.518-8.845-7.216-2.095-.233-10.708-1.397-12.57-1.862-6.983-.931-12.57-1.397-15.363-6.052-3.492-5.587-3.026-12.337-6.285-12.337-1.63 0-2.328 1.629-2.328 4.19s.931 6.983.931 14.432c0 6.517-.698 8.38-4.422 13.035-.932 1.164-2.328 3.026-3.26 4.19-2.793 3.491-3.956 5.586-3.956 9.544 0 10.707 1.862 18.622 2.56 22.579zm71.462 25.14c.233-2.561 1.397-6.984 1.397-8.613 0-.931-.233-1.164-.932-1.164-.93 0-2.56 1.397-4.422 3.492-2.56 2.56-5.354 5.586-8.147 8.612-6.75 7.216-6.518 13.036-6.518 23.278a440.553 440.553 0 0019.553-12.57c-.698-4.423-1.397-7.449-.931-13.036z"/></g></g></g></svg>
