<?xml version="1.0" encoding="UTF-8" standalone="no"?>
<!-- Generator: Adobe Illustrator 18.1.1, SVG Export Plug-In . SVG Version: 6.00 Build 0)  -->
<svg enable-background="new 0 0 173.5 175.5" height="100%" id="Layer_1" version="1.1" viewBox="0 0 181.56424 200.18622" width="100%" x="0px" xml:space="preserve" xmlns="http://www.w3.org/2000/svg" xmlns:cc="http://creativecommons.org/ns#" xmlns:dc="http://purl.org/dc/elements/1.1/" xmlns:rdf="http://www.w3.org/1999/02/22-rdf-syntax-ns#" y="0px">
    <metadata id="metadata17">
        <rdf:RDF>
            <cc:Work rdf:about="">
                <dc:format>image/svg+xml</dc:format>
                <dc:type rdf:resource="http://purl.org/dc/dcmitype/StillImage"/>
                <dc:title/>
            </cc:Work>
        </rdf:RDF>
    </metadata>
    <g id="g3" transform="matrix(2.3277467,0,0,2.3277467,-111.96462,-132.91434)">
        <g id="XMLID_47_">
            <g fill="#000" id="XMLID_52_">
                <path d="m98.9,107.2c0-0.6,0.5-1.5,0.5-2.3,0-1-1.2-1.3-2.1-1.4-1.9-0.3-2.6-0.2-2.6-0.6,0-0.3,0.3-0.6,0.6-1.1,0.5-0.8,1.8-1,2.4-1.1,0.9-0.1,1.8-0.2,3-0.2,1.3,0,2.4,0.2,2.9,0.3,1.2,0.2,1.4,0.7,1.4,1.3v0.6c0,0.6-0.5,0.9-1.3,1-0.2,0-0.5,0.1-0.6,0.1-0.6,0.1-1.4,0.2-1.6,1-0.6,1.6-1.6,2.9-2.3,2.9-0.2-0.2-0.3-0.3-0.3-0.5zm1.7-26.4c-0.1,0-0.3-0.1-0.3-0.4s0.2-0.6,0.6-1.2c1-1.3,2.3-2.9,2.8-2.9,0.2,0,0.4,0.2,0.7,0.7,0.2,0.3,0.3,0.9,0.3,1.4,0,1.7-0.6,3-1.5,4.3-0.5-0.3-1.3-1.2-2.6-1.9zm-28.6,3.2c0.4,0,0.8-0.3,1.4-1,1.5-1.6,2.9-1.9,2.9-2.6,0-0.3-0.2-0.6-0.4-0.9-1.6-2.5-2.3-3.8-3.2-5.6-0.3-0.6-0.8-1.1-1.1-1.1-0.5,0-1.1,0.6-1.5,1.2-0.5,0.8-0.9,1.6-0.9,2.4,0,1.2,0.3,3.4,0.8,4.8,0.5,1.5,1.3,2.8,2,2.8zm17.7,5.7c0-1-1.1-2.5-3.1-2.5-1.8,0-3.1,1.3-3.5,2.4,0.4,0.8,0.8,1.7,2.5,2.2,0.2,0.1,0.5,0.1,0.5,0.3,0,0.3-0.3,0.4-0.9,0.4-1.9,0-3.1-0.8-3.6-1.5-0.5,0.1-1.1,0.3-1.8,0.3-0.6,0-0.9-0.4-0.9-0.9,0-0.3,0.1-0.7,0.3-1.1,0.1-0.2,0.2-0.5,0.3-0.6,0.3-0.6,0.8-1.9,2.5-2.9,0.2-0.1,0.7-0.4,1-0.6,1-0.6,1.8-0.7,2.9-0.7h0.9c1.4,0,2.1,0.4,2.8,0.9,1.3,1.1,2,1.7,2,2.5,0,0.9,0,1.6-0.8,2.5-0.6,0.8-1.5,1.3-2.1,1.3-0.2,0-0.2-0.1-0.2-0.2s0.1-0.2,0.3-0.3c0.6-0.4,0.8-1.1,0.9-1.5zm8.6,27.4c-0.3,0.1-1,0.2-3.9,0.2-4.4,0-5.2-1.1-5.2-1.9,0-1.4,6.3-2.5,8.8-2.5,2.4,0,3.5,0.8,3.5,1.4s-1.1,2.2-3.2,2.8zm-25.5,12.9c4.6,3.6,9.5,6.8,14.3,9.6,0-4.3-0.1-6.9,2.8-10,1.2-1.2,2.4-2.5,3.5-3.7,0.8-0.9,1.5-1.5,1.9-1.5,0.3,0,0.4,0.1,0.4,0.5s0.2,1.8,1.1,3.5c1.1,2.1,2.7,2.4,3.2,2.5,12.6-9.5,23.1-21.8,23.1-39.4v-25.7c-3.1-1.1-15.8-5.9-36-5.9s-32.9,4.9-36,5.9v25.7c0,7.7,2,14.5,5.4,20.4,0.3-3.6,2.7-5.3,2.7-8.8,0-2.4-0.7-4-0.7-6,0-3.7,5-11.3,7.6-14.4,0.1-0.1,0.2-0.3,0.5-0.3,0.2,0,0.3,0.1,0.4,0.3,0.3,0.4,0.4,0.6,0.7,0.6s0.4-0.2,0.4-0.4c0-0.6-0.7-1.7-0.7-5.9,0-2.9,0.7-3.6,2.5-5.4,0.3-0.3,1.4-1.3,2.3-1.3,1.1,0,1.6,0.6,2.3,1.3,1.1,1.1,2.7,3.2,3,3.5,0.1,0.1,0.1,0.2,0.3,0.2,0.5,0,1-0.2,3.2-0.2,4.1,0,10.3,0.6,13.5,1.7,1.6,0.5,2,0.9,2.4,0.9,0.2,0,0.2-0.1,0.2-0.3s-0.4-0.5-0.4-0.8c0-0.2,0.2-0.3,0.3-0.4,2.4-1.3,4.4-2.2,6.3-2.2,1.1,0,1.6,0.9,2.1,1.9,0.4,0.7,0.7,1.7,0.7,2.7,0,2.5-1,4.1-1.7,5.1,0.4,0.4,0.9,0.9,1.2,1.3,0.6,0.7,1.2,1.6,1.2,2.5,0,0.4-0.2,1-0.3,1.5,0,0.2-0.2,0.7-0.6,0.7-0.3,0-0.4-0.4-0.4-0.7v-0.3c0-0.7-0.2-1.7-0.9-2.4-0.8-0.8-1.5-1.4-2.4-1.4h-0.3c-1.5,0-2.1,0.6-2.5,1s-0.8,1-0.8,1.8c0,0.4,0.3,1,0.7,1.8,0.2,0.5,0.8,1.6,1.2,2.2,0.3,0.5,0.7,0.7,1.1,0.7,1,0,1.9-0.1,1.9-0.5,0-0.1,0-0.2-0.2-0.2h-0.3c-1.3,0-2.1-1.7-2.7-3.3,0.5-0.5,1.1-1,2.1-1,1.3,0,2.2,0.9,2.2,2.1,0,0.6-0.2,1.1-0.3,1.3-0.1,0.1-0.1,0.2-0.1,0.2,0,0.2,0.2,0.2,0.6,0.3,0.1,0,0.4,0.1,0.5,0.1,0.4,0.1,0.8,0.5,1,0.9,0.1,0.3,0.4,1,0.4,1.2,0.2,0.7,0.6,1.6,0.6,2.8s-0.1,1.5-0.4,2.7c-0.4,1.5-0.6,2.1-0.7,2.9,0.1,0.3,0.2,0.3,0.2,0.5,0.2,0.5,0.5,1.4,0.5,2.3v0.8c0,1.5-0.6,2.7-1.3,3.6-0.5,0.7-1.2,1.7-1.7,2.2-0.3,0.3-0.6,0.6-1.1,0.6-0.2,0-0.4-0.1-0.7-0.1-0.3-0.1-0.8-0.2-1-0.3-0.9-0.2-1.2-0.8-1.5-1.6,0-0.1-0.2-0.5-0.2-0.6-0.2-0.5-0.3-0.9-0.7-0.9-0.3,0-0.5,0.2-0.8,0.5-0.9,1.3-1.4,1.8-3,2.2-0.6,0.1-1.7,0.4-2.3,0.5-0.9,0.2-2.6,0.7-3.6,0.7h-0.6c-1.3-0.2-2.2-0.3-3.8-2.2-2.2-2.6-2-3-2.1-6.6,0-0.4-0.1-0.9-0.6-0.9-0.4,0-0.5,0.8-0.7,1.8-0.2,1.3-0.5,2.6-1.1,2.6-0.4,0-0.7-0.1-1.4-0.3-0.8-0.3-2.8-0.9-3.9-1.3-1.4-0.5-2.8-0.9-3.4-2.1-0.3-0.6-0.7-1.7-1-2.3-0.2-0.4-0.3-0.6-0.6-0.6-0.4,0-0.5,0.5-0.5,0.8,0,0.4-0.2,1.3-0.2,1.9-0.2,2.5-0.7,3.6-1.8,4.9-0.5,0.6-0.9,1.3-1.5,2-1.1,1.5-1.8,3-1.7,5.8v1.7c0.5,4.8,1.6,6.8,8.7,12.5z" id="XMLID_58_"/>
                <path d="m106.3,92.7,0,0c0.1,0.3,0.4,1,0.4,1.2,0.2,0.7,0.6,1.6,0.6,2.8s-0.1,1.5-0.4,2.7c-0.4,1.5-0.6,2.1-0.7,2.9-0.1-0.2-2.3-4-2.4-4.3-0.2-0.3-0.3-0.6-0.3-1s0.2-0.6,0.6-0.9c0.3-0.2,0.6-0.4,0.9-0.5,1.1-0.6,1.4-1.3,1.4-2,0-0.3-0.1-0.6-0.1-0.9zm-9.5,5.9c0.1,0.3,0.2,0.6,0.2,0.9,0,0.6-0.1,0.7-0.4,1.1-0.2,0.2-0.4,0.3-0.6,0.5-0.3,0.2-0.6,0.4-0.8,0.6-0.4,0.5-0.6,0.8-0.6,1.1,0,0.1,0,0.2,0.1,0.2-0.4-0.3-0.6-0.8-0.6-1.2s0.1-0.6,0.1-1c0-0.3-0.1-0.6-0.1-0.8-0.6-2-1.6-4.4-2.2-6-0.6-1.7-1.1-2.6-1.9-2.6-0.4,0-0.8,0.2-1.2,0.2,0.6,0,1.5-0.5,2.1-1.3,0.7-0.9,0.8-1.6,0.8-2.5,0-0.4-0.2-0.7-0.5-1.1,0.9,0.9,1.5,2.1,2.1,3.4,1.4,3,2.5,6.1,3.5,8.5zm-32.3,19.4v-1.7c0-2.8,0.6-4.3,1.7-5.8,0.5-0.7,1-1.4,1.5-2,1.1-1.4,1.6-2.4,1.8-4.9,0.1-0.6,0.2-1.5,0.2-1.9s0.1-0.8,0.5-0.8c0.3,0,0.4,0.2,0.6,0.6,0.2,0.6,0.7,1.7,1,2.3,0.6,1.3,1.9,1.7,3.4,2.1,1.1,0.3,3.1,1,3.9,1.3,0.7,0.2,1,0.3,1.4,0.3,0.6,0,0.9-1.3,1.1-2.6,0.1-1.1,0.3-1.8,0.7-1.8s0.5,0.5,0.6,0.9c0.1,3.6-0.1,3.9,2.1,6.6,1.6,1.9,2.5,2,3.8,2.2-0.5-0.1-1.1-0.7-1.1-1.9v-1.3c0-0.6,0.1-1.3,0.4-2,0.2-0.3,0.3-1,0.5-1.4,0.3-0.7,0.1-0.8,0.1-1.3s-0.2-1-0.5-2.1c-0.2-0.6-0.5-1.5-0.7-2.2-0.8-2.2-1.1-2.8-3.8-3.1-0.9-0.1-4.6-0.6-5.4-0.8-3-0.4-5.4-0.6-6.6-2.6-1.5-2.4-1.3-5.3-2.7-5.3-0.7,0-1,0.7-1,1.8s0.4,3,0.4,6.2c0,2.8-0.3,3.6-1.9,5.6-0.4,0.5-1,1.3-1.4,1.8-1.2,1.5-1.7,2.4-1.7,4.1,0,4.6,0.8,8,1.1,9.7zm30.7,10.8c0.1-1.1,0.6-3,0.6-3.7,0-0.4-0.1-0.5-0.4-0.5-0.4,0-1.1,0.6-1.9,1.5-1.1,1.1-2.3,2.4-3.5,3.7-2.9,3.1-2.8,5.6-2.8,10,3.3-2,6.2-3.9,8.4-5.4-0.3-1.9-0.6-3.2-0.4-5.6z" id="XMLID_53_"/>
            </g>
        </g>
    </g>
</svg>