<?xml version="1.0" encoding="utf-8"?>
<!-- Generator: Adobe Illustrator 16.0.4, SVG Export Plug-In . SVG Version: 6.00 Build 0)  -->
<!DOCTYPE svg PUBLIC "-//W3C//DTD SVG 1.1 Tiny//EN" "http://www.w3.org/Graphics/SVG/1.1/DTD/svg11-tiny.dtd">
<svg version="1.1" baseProfile="tiny" id="Layer_1" xmlns="http://www.w3.org/2000/svg" xmlns:xlink="http://www.w3.org/1999/xlink"
	 x="0px" y="0px" width="64px" height="64px" viewBox="0 0 64 64" xml:space="preserve">
<polygon fill="#B30838" points="11.535,10.021 11.535,32.736 19.258,40.462 37.715,40.46 37.715,48.35 28.226,48.35 28.226,43.204 
	11.552,43.204 11.552,55.622 19.307,63.438 44.74,63.438 52.465,55.725 52.465,32.741 44.596,25.141 27.655,25.141 27.655,16.68 
	37.031,16.68 37.031,22.51 52.463,22.51 52.465,10.029 43.822,1.189 20.424,1.189 "/>
<path fill="#FFFFFF" d="M12.534,10.479v21.856l7.119,7.122c0,0,17.214,0,19.06-0.001c0,1.56,0,8.39,0,9.944
	c-1.613,0-9.93,0-11.545,0.004c0-1.317,0-5.146,0-5.146H12.55v10.955l7.141,7.223h24.598l7.119-7.119V33.182l-7.283-6.99h-17.53
	c0.001-1.579,0.001-8.936,0-10.516h11.434v5.83h13.379V10.485l-8.039-8.242H20.808L12.534,10.479z"/>
<polygon fill="#B30838" points="21.229,3.346 13.569,10.991 13.569,31.985 20.084,38.502 39.748,38.502 39.746,50.506 
	26.143,50.506 26.143,45.361 13.583,45.361 13.583,54.852 20.112,61.48 43.873,61.48 50.381,54.958 50.383,33.671 43.693,27.296 
	25.571,27.296 25.57,14.721 39.062,14.721 39.062,20.551 50.381,20.551 50.383,10.991 42.951,3.346 "/>
</svg>
