<svg version="1.0" xmlns="http://www.w3.org/2000/svg" viewBox="0 0 600 786" preserveAspectRatio="xMidYMid meet"><g fill="#000000" stroke="none"><path d="M73.2 73.3L0 146.5v246l.1 246 72.7 73.7 72.7 73.6 154 .1 154 .1 73.3-73.3 73.2-73.2V146.8l-72.7-73.4L454.6 0H146.5L73.2 73.3zm443.5 10.9l70.3 70.3v477.1l-70.4 69.7-70.4 69.7H153.5l-69.7-69.7L14 631.5V153.2l70.1-69.6L154.2 14H446.5l70.2 70.2z"/><path d="M94.7 98.8L30 163.5v461l64.8 64.8 64.7 64.7h281l64.3-64.3 64.2-64.2v-463l-64.3-64.3L440.5 34h-281L94.7 98.8zm315 95.4l26.3 26.3v347l-26.2 26.2-26.3 26.3h-168l-25.7-26.4-25.8-26.4V219.5l25.7-25.7 25.8-25.8h168l26.2 26.2z"/><path d="M203.7 207.8L183 228.5v331l20.3 20.3 20.2 20.2h153l19.8-19.8 19.7-19.7v-332l-20.8-20.8-20.7-20.7h-150l-20.8 20.8zm182 10.4l16.3 16.3v319l-16.3 16.3-16.2 16.2h-139l-16.2-16.2-16.3-16.3v-319l16.2-16.2 16.3-16.3h139l16.2 16.2z"/></g></svg>
