<svg xmlns="http://www.w3.org/2000/svg" viewBox="0 0 882 1107" version="1.1"><g><path fill="#646464" d="M424.77 1106.6c-8.848-.43-11.185-.772-8-1.171l4.5-.563-5.53-.175c-15.246-.482-49.797-6.332-69.373-11.746-19.909-5.507-41.27-13.406-59.718-22.083-8.613-4.051-9.974-5.036-10.707-7.743-.462-1.706-2.333-8.831-4.158-15.833-2.424-9.3-3.787-12.88-5.055-13.282-.956-.303-9.293.806-18.528 2.466l-16.792 3.018-8.57-6.186c-61.13-44.08-114.11-106.92-151.32-179.43l-4.202-8.188 5.713-14.027c3.143-7.715 5.45-14.717 5.126-15.56-.357-.93-6.147-3.291-14.732-6.01l-14.144-4.47-2.865-7.27c-24.94-63.32-40.689-137.14-44.258-207.45l-.669-13.18 10.396-11.15c5.718-6.128 10.548-11.567 10.734-12.086.186-.519-4.487-6.117-10.384-12.44L1.511 530.55l.701-13.74c3.65-71.52 18.297-139.45 45.172-209.47l1.818-4.738 14.18-4.507c8.355-2.655 14.415-5.12 14.753-6 .316-.821-1.993-7.838-5.13-15.594l-5.705-14.1 4.99-9.628c37.042-71.47 88.702-132.78 148.7-176.51l10.478-7.636 17.18 3.073c9.45 1.69 17.76 2.85 18.47 2.577.71-.272 2.798-6.278 4.64-13.347a3178.19 3178.19 0 014.191-15.956c.742-2.74 2.097-3.689 11.584-8.104 39.223-18.256 85.274-30.497 124.24-33.026 9.687-.629 10.712-.842 6.5-1.349-2.75-.33 6.925-.602 21.5-.602s24.25.309 21.5.686l-5 .686 6.212.157c9.328.236 35.512 3.789 49.16 6.67 26.365 5.567 52.089 14.081 78.254 25.901l12.626 5.704 4.289 16.036c2.44 9.127 4.868 16.258 5.633 16.552.74.284 8.878-.843 18.085-2.504l16.74-3.02 5.5 3.565c23.144 15.005 59.678 48.242 84.165 76.57 19.322 22.353 37.464 47.49 53.542 74.183 7.335 12.18 21.293 37.975 21.293 39.351 0 .55-2.505 7.155-5.566 14.68-3.062 7.523-5.335 14.283-5.052 15.02.282.737 6.725 3.32 14.316 5.739l13.802 4.397 2.138 4.406c1.176 2.424 4.483 10.856 7.349 18.74 21.749 59.824 34.846 125.29 38.588 192.87l.676 12.202-10.626 11.288c-5.844 6.209-10.626 11.794-10.626 12.413 0 .619 4.782 6.15 10.626 12.293l10.626 11.168-.677 12.216c-4.09 73.867-18.109 139.68-44.494 208.87-1.187 3.113-2.703 6.085-3.37 6.605-.666.52-7.197 2.831-14.51 5.137-7.315 2.305-13.527 4.784-13.805 5.507-.277.724 2.073 7.756 5.222 15.628l5.727 14.312-5.323 10.076c-19.062 36.08-40.117 67.756-64.857 97.576-12.032 14.503-39.283 42.295-53.666 54.731-10.685 9.24-34.957 27.93-39.004 30.033-1.49.775-6.329.283-18.876-1.92-9.28-1.629-17.408-2.756-18.062-2.505-1.111.426-2.001 3.286-7.564 24.299l-2.154 8.138-10.67 4.966c-38.604 17.967-84.677 30.31-123.17 32.994-8.73.609-9.742.836-6 1.348 3.137.43 1.287.661-6.111.766-5.836.083-12.586.306-15 .496-2.414.19-10.014.072-16.89-.263zm59.5-45.912c32.829-5.13 59.304-12.956 88.729-26.231 6.199-2.797 11.975-5.722 12.836-6.501.861-.779 2.84-6.484 4.398-12.678 1.558-6.194 3.119-11.592 3.468-11.995.349-.403 6.682.344 14.074 1.66 15.792 2.813 13.418 3.524 30.494-9.13 53.34-39.528 102.6-99.064 133.54-161.4l5.261-10.6-4.826-12.144c-2.654-6.68-4.635-12.311-4.402-12.514.232-.204 5.503-2.05 11.713-4.102 7.714-2.55 11.736-4.415 12.698-5.887 2.22-3.396 11.145-27.619 16.635-45.154 15.484-49.454 25.709-107.38 27.569-156.2l.617-16.202-8.211-8.674-8.21-8.674 2.278-2.624c1.254-1.444 4.95-5.409 8.215-8.812l5.936-6.187-.621-16.313c-1.84-48.311-11.481-103.62-26.79-153.68-5.416-17.717-15.071-44.205-17.417-47.786-1.045-1.594-4.707-3.236-12.972-5.816-6.334-1.978-11.517-4.028-11.517-4.556 0-.528 2.096-6.2 4.66-12.604l4.658-11.643-5.275-10.612c-23.77-47.813-62.11-99.02-99.895-133.42-18.445-16.793-43.62-36.448-49.446-38.603-1.195-.442-7.543.214-15.1 1.56-7.17 1.276-13.321 1.991-13.671 1.588-.35-.403-1.91-5.8-3.468-11.995s-3.537-11.896-4.398-12.672c-1.969-1.773-25.774-12.295-37.066-16.382-21.4-7.748-43.472-13.259-67.5-16.854-17.178-2.57-65.823-2.57-83 0-16.386 2.452-33.436 6.124-47.736 10.28-19.238 5.59-54.643 20.073-57.406 23.482-.628.775-2.495 6.5-4.15 12.725-1.654 6.224-3.199 11.508-3.433 11.742-.235.234-6.29-.617-13.457-1.891-8.48-1.509-13.833-2.021-15.33-1.468-3.202 1.185-21.61 14.694-32.988 24.21-45.314 37.898-82.08 83.932-113.03 141.52-4.384 8.158-7.97 15.557-7.97 16.444 0 .887 2.08 6.81 4.621 13.162 2.542 6.353 4.455 11.693 4.25 11.87-.204.175-5.383 1.974-11.507 3.999-6.124 2.024-11.812 4.448-12.639 5.386-4.326 4.906-20.679 55.071-28.216 86.557-9.169 38.304-15.83 86.85-16.708 121.78l-.242 9.627 8.148 8.925 8.147 8.924-8.147 8.848-8.146 8.847.25 9.601c1.343 51.432 12.46 114.74 29.26 166.62 6.822 21.072 14.641 41.677 16.187 42.658.683.434 6.192 2.432 12.242 4.44 6.05 2.01 11.16 3.79 11.357 3.957.197.167-1.716 5.58-4.25 12.027-2.534 6.448-4.607 12.382-4.607 13.186 0 2.042 10.625 21.868 21.282 39.71 31.993 53.564 70.746 97.172 117.04 131.7 17.058 12.723 14.833 12.052 30.648 9.235 7.377-1.313 13.597-2.203 13.823-1.976.227.226 1.764 5.504 3.416 11.728 1.652 6.223 3.677 12.077 4.5 13.007 2.188 2.47 29.119 14.09 44.786 19.324 22.077 7.376 47.12 12.849 70.51 15.409 14.927 1.634 60.616.574 75.5-1.752zm-78.5-22.704c-29.332-3.67-58.304-11.501-83.74-22.633-8.964-3.923-9.271-4.167-10.312-8.19-.59-2.28-1.786-6.756-2.657-9.946l-1.584-5.801 5.663-8.2c3.114-4.509 12.523-17.873 20.907-29.698 13.448-18.966 15.833-21.821 20.234-24.227l4.989-2.727h161l4.955 2.727c4.406 2.424 6.868 5.44 22.238 27.227 9.506 13.475 18.896 26.83 20.867 29.677l3.583 5.177-2.6 9.767c-1.43 5.373-2.77 9.938-2.977 10.145-1.368 1.369-21.655 9.338-35.066 13.776-16.238 5.374-32.904 9.327-51 12.097-14.424 2.209-59.467 2.71-74.5.828zm-148.71-59.67c-33.686-23.597-70.375-62.191-98.304-103.41-11.932-17.608-28.984-46.783-28.984-49.588 0-.968 1.622-5.812 3.605-10.766l3.605-9.007H242.07l6.101 3.122 6.101 3.122 33 46.816 33 46.816.286 8.94.286 8.938-18.598 26.374c-10.229 14.505-19.357 27.116-20.286 28.024-.984.962-5.357 2.256-10.485 3.101l-8.796 1.451-5.619-3.936zm349.99 2.294c-5.071-.917-9.388-1.869-9.593-2.114-.205-.246-9.1-12.822-19.767-27.947l-19.394-27.5-.36-7.533-.358-7.532 5.846-8.533c3.215-4.694 18.446-26.372 33.846-48.174 27.694-39.208 28.064-39.674 33.89-42.684l5.89-3.044h105.382l3.67 9.27c2.017 5.098 3.668 9.837 3.668 10.532 0 1.76-12.59 24.07-21.678 38.414-26.427 41.715-63.08 82.285-98.822 109.38-12.989 9.848-11.598 9.38-22.22 7.46zm-252.1-79.86c-5.145-2.592-6.361-4.163-38.256-49.39-18.118-25.692-33.39-47.89-33.936-49.327-1.35-3.551-1.257-13.116.154-15.8.632-1.202 15.896-23.11 33.92-48.687 32.466-46.068 32.824-46.528 38.374-49.25l5.602-2.748 79.228.047 79.228.048 5.267 2.728c5.052 2.617 6.631 4.66 38.75 50.156l33.483 47.428v17.092l-33.465 47.467c-32.151 45.604-33.672 47.575-38.747 50.203l-5.282 2.736-79.5-.014-79.5-.013-5.313-2.677zm-235.33-121.81l-13.65-4.42-4.65-12.7c-18.596-50.78-31.854-115.65-34.088-166.77l-.568-13 7.995-8.25 7.996-8.25h160.068l5.631 2.75c5.593 2.731 5.853 3.065 39.058 50.135l33.427 47.385-.286 8.897-.285 8.898-33 46.85-33 46.848-6.102 3.118-6.101 3.118-54.399-.1-54.399-.1-13.649-4.417zm511.59 1.526c-5.894-3.064-6.18-3.426-34.943-44.149-42.872-60.7-38.5-53.64-38.5-62.169v-7.252l33.439-47.42c30.677-43.503 33.877-47.688 38.75-50.666l5.311-3.246 80.522-.004 80.522-.004 8.228 8.27c9.645 9.696 9.177 7.197 6.694 35.73a624.544 624.544 0 01-16.623 98.5c-4.107 16.244-17.394 57.798-20.242 63.305-1.385 2.679-3.096 3.527-15.331 7.605l-13.772 4.59H637.153l-5.943-3.09zm-276.93-120.69c-4.619-2.526-7.45-6.218-38.5-50.21l-33.514-47.483v-16.066l33.514-47.483c31.05-43.99 33.881-47.684 38.5-50.21l4.986-2.726h161l4.94 2.726c4.541 2.507 7.623 6.52 38.183 49.727l33.243 47 .01 9 .012 9-33.26 47c-30.546 43.167-33.66 47.222-38.193 49.727l-4.936 2.727h-161l-4.985-2.727zM74.37 533.944l-7.898-8.54.674-12.68c2.835-53.27 15.144-113.51 33.655-164.72l5.077-14.044 14.232-4.706 14.232-4.706h107.484l5.906 2.982c3.25 1.64 7.026 4.452 8.394 6.25s16.458 23.068 33.535 47.268l31.048 44 .03 8.715.03 8.716-33.437 47.285c-31.2 44.12-33.776 47.469-38.501 50.035l-5.063 2.75-80.75-.033-80.75-.032-7.899-8.54zm555.81 5.665c-4.691-2.69-7.74-6.675-38.75-50.626l-33.658-47.705v-7.287c0-8.57-4.382-1.489 38.49-62.189l28.99-41.045 6.111-3.104 6.112-3.105H745.27l13.772 4.59c12.114 4.037 13.955 4.944 15.293 7.532 2.877 5.565 15.324 44.402 19.83 61.878 8.428 32.69 14.113 65.984 17.073 100 2.49 28.625 2.961 26.124-6.737 35.772l-8.271 8.228-80.479-.009-80.479-.009-5.092-2.92zM354.49 419.28c-5.615-3.132-6.694-4.525-38.93-50.222l-33.154-47-.434-6.204c-.239-3.413.031-7.538.599-9.167.567-1.629 15.906-24.049 34.085-49.823 32.648-46.288 33.12-46.894 38.603-49.583l5.55-2.722h158.176l5.64 3.047c5.488 2.966 6.541 4.327 38.89 50.25l33.25 47.202v8.58l.001 8.581-33.439 47.372c-32.174 45.58-33.64 47.476-38.75 50.123l-5.311 2.75-79.5.02-79.5.019-5.776-3.222zM133.37 293.55c-1.983-4.954-3.605-9.766-3.605-10.693 0-2.457 13.763-26.556 24.606-43.083 27.754-42.306 59.98-77.534 95.74-104.66 7.985-6.058 12.098-8.552 14.098-8.552 5.49 0 16.078 2.328 17.754 3.904.934.878 10.063 13.487 20.285 28.02l18.587 26.426-.285 8.887-.285 8.888-33 46.845-33 46.845-6 3.093-6 3.093h-105.29l-3.605-9.007zm497.4 5.955c-5.252-2.863-6.763-4.788-33.5-42.657-15.4-21.812-30.631-43.499-33.846-48.192l-5.846-8.534.365-7.532.366-7.532 19.41-27.5a43105.286 43105.286 0 0119.667-27.854c.45-.616 14.754-3.143 17.796-3.145 5.796-.002 33.113 22.546 57.09 47.122 21.342 21.877 39.438 44.86 56.54 71.801 8.328 13.123 20.96 35.566 20.96 37.244 0 .678-1.622 5.418-3.604 10.532l-3.604 9.3-53.147-.027-53.147-.026-5.5-2.999zm-275.1-120.2c-6.294-3.194-6.669-3.622-21.639-24.75-8.379-11.825-17.782-25.19-20.896-29.699l-5.663-8.199 1.584-5.8c.871-3.191 2.067-7.668 2.657-9.948 1.044-4.034 1.328-4.258 10.616-8.33 21.452-9.409 49.572-17.329 76.436-21.53 14.339-2.242 51.294-3.096 67.606-1.562 23.494 2.209 47.62 7.41 69.606 15.004 10.09 3.485 29.346 11.268 30.288 12.242.171.177 1.518 4.76 2.993 10.186l2.682 9.864-3.562 5.136c-1.959 2.825-11.337 16.16-20.84 29.636-17.156 24.327-17.323 24.523-23.681 27.75l-6.404 3.25h-155.38l-6.405-3.25zM0 579.554c0-1.925.206-2.712.457-1.75s.252 2.538 0 3.5-.457.175-.457-1.75zm878.85-1.583c.048-1.165.285-1.402.604-.604.289.722.253 1.584-.079 1.916-.332.333-.569-.258-.525-1.312zM0 528.55c0-1.925.206-2.713.457-1.75s.252 2.537 0 3.5-.457.175-.457-1.75zm878.85 1.417c.048-1.165.285-1.402.604-.605.289.722.253 1.585-.079 1.917-.332.332-.569-.258-.525-1.312z"/></g></svg>
