<?xml version="1.0" standalone="no"?>
<!DOCTYPE svg PUBLIC "-//W3C//DTD SVG 20010904//EN"
 "http://www.w3.org/TR/2001/REC-SVG-20010904/DTD/svg10.dtd">
<svg version="1.0" xmlns="http://www.w3.org/2000/svg"
 width="1700.000000pt" height="1700.000000pt" viewBox="0 0 1700.000000 1700.000000"
 preserveAspectRatio="xMidYMid meet">

<g transform="translate(0.000000,1700.000000) scale(0.100000,-0.100000)"
fill="#000000" stroke="none">
<path d="M2140 12895 l0 -1845 410 0 410 0 0 -2550 0 -2550 -410 0 -410 0 0
-1845 0 -1845 2620 0 2620 0 0 1845 0 1845 -410 0 -410 0 1 1018 c0 959 1
1016 17 993 21 -29 576 -905 1692 -2671 266 -420 784 -1240 1363 -2155 275
-434 512 -809 526 -832 l26 -43 2202 0 2203 0 0 1845 0 1845 -410 0 -410 0 0
2550 0 2550 410 0 410 0 -2 1843 -3 1842 -2617 3 -2618 2 0 -1845 0 -1845 408
-2 407 -3 3 -1012 c1 -557 -1 -1013 -5 -1013 -5 1 -193 294 -419 653 -383 607
-800 1266 -1904 3012 -243 385 -509 806 -591 935 -81 129 -273 433 -426 675
l-279 440 -2202 3 -2202 2 0 -1845z m4736 1017 c232 -367 594 -939 804 -1272
211 -333 615 -972 898 -1420 283 -448 585 -925 670 -1060 395 -624 720 -1139
885 -1400 99 -157 183 -289 188 -295 5 -5 9 578 9 1363 l0 1372 -410 0 -410 0
0 1690 0 1690 2460 0 2460 0 -2 -1687 -3 -1688 -407 -3 -408 -2 0 -2705 0
-2705 410 0 410 0 0 -1685 0 -1685 -2078 0 -2079 0 -513 813 c-283 446 -712
1125 -954 1507 -241 382 -588 931 -771 1220 -737 1166 -1320 2089 -1470 2325
-87 138 -159 252 -161 254 -2 2 -4 -615 -4 -1372 l0 -1377 410 0 410 0 0
-1685 0 -1685 -2460 0 -2460 0 0 1685 0 1685 410 0 410 0 0 2705 0 2705 -407
2 -408 3 -3 1688 -2 1687 2077 0 2078 0 421 -668z"/>
<path d="M2550 12895 l0 -1435 410 0 410 0 0 -2960 0 -2960 -410 0 -410 0 0
-1435 0 -1435 2210 0 2210 0 0 1435 0 1435 -410 0 -410 0 0 1932 c0 1063 4
1928 8 1923 5 -6 74 -113 154 -240 79 -126 351 -556 603 -955 923 -1459 1266
-2003 1495 -2365 128 -203 252 -399 275 -435 24 -36 96 -150 162 -255 66 -104
259 -410 430 -680 170 -269 386 -611 480 -760 94 -148 279 -441 411 -650 l241
-380 1885 -3 1886 -2 0 1435 0 1435 -410 0 -410 0 0 2960 0 2960 410 0 410 0
0 1435 0 1435 -2210 0 -2210 0 0 -1435 0 -1435 408 -2 407 -3 3 -1923 c1
-1257 -1 -1923 -8 -1920 -5 1 -88 127 -183 278 -95 151 -299 473 -452 715
-499 788 -1185 1875 -1340 2120 -164 260 -1529 2418 -1994 3153 l-286 452
-1882 0 -1883 0 0 -1435z"/>
<path d="M15080 2901 c-57 -19 -129 -62 -158 -96 -145 -164 -99 -412 94 -510
52 -26 69 -30 144 -30 66 0 96 5 132 22 66 30 129 92 164 160 25 50 29 69 28
138 0 62 -5 91 -23 127 -58 120 -159 189 -284 194 -40 2 -83 0 -97 -5z m196
-79 c161 -82 197 -293 72 -422 -163 -167 -447 -50 -448 186 0 107 73 211 174
248 54 21 150 15 202 -12z"/>
<path d="M15030 2586 l0 -196 30 0 29 0 3 83 c3 78 4 82 26 82 19 0 31 -15 65
-80 38 -73 45 -80 75 -83 l33 -3 -42 84 -42 85 36 35 c32 30 37 40 37 80 0 34
-6 53 -24 74 -23 27 -29 28 -125 31 l-101 4 0 -196z m164 128 c22 -21 20 -67
-3 -88 -13 -12 -32 -16 -58 -14 -37 3 -38 4 -41 47 -2 24 -1 50 2 57 7 19 80
18 100 -2z"/>
</g>
</svg>
