<svg version="1.1" baseProfile="tiny" xmlns="http://www.w3.org/2000/svg" x="0" y="0" viewBox="0 0 64 64" xml:space="preserve"><polygon points="59.924,41.312 48.719,22.688 51.805,22.688 51.805,12.982 33.155,12.982 33.155,22.688 36.241,22.688 31.959,29.803 27.68,22.688 30.766,22.688 30.766,12.982 12.116,12.982 12.116,22.688 15.202,22.688 3.997,41.312 0,41.312 0,51.018 19.021,51.018 19.021,41.312 15.604,41.312 21.441,31.609 23.704,35.373 21.534,35.373 21.534,45.077 42.387,45.077 42.387,35.373 40.217,35.373 42.48,31.609 48.317,41.312 44.9,41.312 44.9,51.018 63.919,51.018 63.919,41.312"/><g><path fill="#FFFFFF" d="M50.559 14.226v7.219h-4.041L59.22 42.558h3.456v7.217H46.143v-7.217h4.373l-8.036-13.36-4.464 7.421h3.126v7.216H22.776v-7.216h3.128l-4.464-7.421-8.037 13.36h4.374v7.217H1.244v-7.217h3.455l12.703-21.113H13.36v-7.219h16.161v7.219h-4.042l6.48 10.771 6.483-10.771h-4.043v-7.219h16.16z"/></g><g><g><path d="M49.314 15.47v4.73h-4.998l14.2 23.602h2.915v4.729H47.386v-4.729h5.33L42.479 26.784l-6.664 11.078h4.082v4.727H24.02v-4.727h4.084L21.44 26.784 11.202 43.802h5.33v4.729H2.488v-4.729h2.914L19.601 20.2h-4.997v-4.73h13.672v4.73h-4.999l8.681 14.43 8.683-14.43h-4.999v-4.73h13.672z"/></g></g></svg>
