<svg xmlns="http://www.w3.org/2000/svg" version="1.1" viewBox="0 0 306.608 487.038"><g><g><path d="M152.552 486.871c-.319-.083-.495-.288-.392-.455.104-.168.032-.305-.16-.305-.56 0-2.947-2.297-4.811-4.632l-1.728-2.164-3.571-.924c-25.221-6.525-50.073-23.314-70.296-47.49-12.269-14.668-21.51-29.086-31.498-49.144-14.739-29.6-25.4-61.478-32.26-96.454-3.518-17.934-6.11-38.483-6.85-54.317-.132-2.807-.329-4.658-.438-4.115-.11.543-.314-3.045-.455-7.973-.264-9.198.078-27.043.483-25.276.16.697.238.293.265-1.373.167-10.12 2.773-31.55 5.488-45.12 9.113-45.557 27.422-78.503 53.22-95.772 4.721-3.16 13.102-7.286 18.198-8.958 6.595-2.165 14.671-3.643 19.977-3.656 1.392-.004 2.878-.14 3.303-.3.525-.2 1.225-1.206 2.177-3.128 3.184-6.426 9.573-10.74 19.09-12.89 1.886-.427 3.502-.848 3.591-.938.089-.089.649-1.28 1.243-2.648 1.809-4.16 4.014-7.383 7.221-10.553 4.085-4.038 7.979-6.231 12.811-7.217 1.11-.226 1.796-.486 1.526-.578-.27-.091.724-.274 2.21-.404 2.66-.235 7.54.043 7.175.407-.103.103.933.452 2.303.775 8.194 1.933 15.758 8.895 19.399 17.854.911 2.241 1.391 2.824 2.327 2.824 1.892 0 7.517 1.782 10.985 3.481 3.223 1.579 4.116 2.205 6.451 4.525 2.132 2.118 3.007 3.29 4.099 5.491.763 1.54 1.637 2.899 1.943 3.022.305.123 1.814.235 3.353.248 8.554.076 20.093 3.015 29.134 7.42 26.325 12.83 46.102 40.79 57.752 81.65 5.478 19.213 9.268 43.58 10.137 65.18.147 3.651.318 5.42.446 4.608.115-.724.208 4.98.208 12.674 0 7.695-.094 13.399-.208 12.674-.128-.808-.298.97-.442 4.61-.58 14.654-2.508 32.242-5.342 48.72-6.868 39.926-20.006 79.527-37.131 111.926-15.741 29.779-34.237 52.706-55.542 68.847-12.71 9.63-27.322 16.978-41.807 21.023-2.445.683-4.611 1.332-4.815 1.444-.203.111-1.272 1.341-2.374 2.734-1.103 1.392-2.563 2.91-3.245 3.374-.683.463-1.095.853-.918.866.416.03-.884.594-1.322.574a5.939 5.939 0 01-.91-.167zm3.129-5.647c3.718-4.115 7.458-11.607 8.652-17.333.611-2.928.793-8.22.382-11.094-.344-2.404-1.29-3.786-3.494-5.107-4.887-2.93-12.9-2.544-16.815.808-1.873 1.603-2.318 2.83-2.538 6.991-.42 7.947 1.873 15.32 7.161 23.042 2.307 3.367 2.975 3.96 4.468 3.96.789 0 1.316-.306 2.184-1.267zm-13.418-7.942c.11-.176-.32-1.842-.955-3.703-1.268-3.722-2.166-8.274-2.166-10.977 0-2.645-.326-3.186-2.349-3.906-5.475-1.948-13.911-6.256-20.134-10.281-1.773-1.148-3.42-2.086-3.66-2.086-.561 0-3.62 2.958-5.405 5.227-2.044 2.6-4.064 6.207-3.944 7.044.26 1.82 15.283 10.595 24.99 14.595 4.106 1.692 11.984 4.385 12.869 4.398.306.006.646-.135.754-.31zm26.13-.542c7.492-2.27 17.75-6.866 25.066-11.23 5.122-3.056 9.873-6.282 10.092-6.853.2-.521-1.313-3.381-3.126-5.91-1.915-2.67-5.681-6.418-6.45-6.418-.38 0-1.454.514-2.388 1.143-5.537 3.73-14.01 8.226-19.855 10.54-1.72.68-3.291 1.367-3.492 1.526-.2.16-.466 1.647-.592 3.306-.305 4.043-.944 7.235-2.154 10.758-1.56 4.545-1.6 4.5 2.898 3.138zm-65.125-21.112c1.508-2.694 3.93-5.88 6.06-7.971 1.008-.99 1.832-2.046 1.832-2.347 0-.305-1.347-1.565-3.045-2.846-7.345-5.546-18.303-16.13-24.979-24.129-9.06-10.855-18.89-25.628-25.508-38.337-1.364-2.62-2.736-5.08-3.049-5.465l-.568-.703-2.617.708c-1.439.39-4.283 1.52-6.32 2.512-3.252 1.583-3.703 1.904-3.703 2.627 0 .932 2.013 5.058 6.155 12.616 8.065 14.717 16.513 27.251 26.216 38.893 4.463 5.354 15.299 16.369 19.806 20.133 4.44 3.706 7.752 6.202 8.233 6.202.235 0 .905-.852 1.487-1.893zm106.273-1.316c18.858-15.122 35.219-35.579 49.858-62.341 3.903-7.136 5.824-11.025 5.824-11.79 0-1.147-6.61-4.545-10.97-5.638-1.311-.33-1.666-.319-2.028.058-.241.252-1.66 2.753-3.153 5.56-13.912 26.151-31.098 47.4-50.428 62.349-1.585 1.225-2.88 2.382-2.88 2.572 0 .189.95 1.352 2.112 2.584 2.496 2.645 4.309 5.045 5.774 7.64.703 1.246 1.274 1.886 1.681 1.886.34 0 2.234-1.296 4.21-2.88zm-70.26 1.481c1.07-3.732 2.711-5.72 5.906-7.154 5.33-2.39 11.168-2.395 16.273-.011 3.337 1.558 5.194 3.637 5.814 6.507.185.856.393 1.07 1.046 1.07 2.745 0 20.863-9.381 20.857-10.799 0-.307-.904-1.3-2.006-2.205-2.915-2.395-8.702-8.466-11.065-11.608-2.481-3.3-4.443-6.61-5.886-9.935-.594-1.368-1.304-2.534-1.578-2.591-.273-.057-1.926.738-3.672 1.766-3.93 2.313-10.61 5.492-11.545 5.495-.854.006-8.672-3.733-11.79-5.634-1.255-.764-2.564-1.346-2.91-1.292-.425.066-.932.815-1.574 2.323-1.34 3.15-3.28 6.367-6.078 10.08-2.505 3.327-8.388 9.433-11.296 11.725-1.716 1.354-2.174 1.974-1.848 2.502.334.54 6.788 4.248 10.843 6.229 7.16 3.497 10.223 4.527 10.508 3.532zm-20.518-13.128c7.262-6.011 13.45-13.602 16.786-20.592 1.92-4.024 1.91-4.055-2.44-7.255-13.97-10.274-29.71-28.82-42.057-49.554-1.48-2.485-2.29-3.538-2.722-3.538-.339 0-1.303.573-2.143 1.274-1.98 1.652-6.588 4.633-9.098 5.886-3.525 1.76-9.45 3.98-13.814 5.175-2.346.643-4.419 1.321-4.604 1.507-.391.39.178 1.543 4.654 9.415 12.453 21.908 26.991 39.74 42.897 52.615 4.422 3.579 9.227 7.07 9.743 7.079.199.006 1.458-.902 2.798-2.012zm75.848-.446c18.934-13.555 36.465-34.607 51.301-61.605 2.46-4.476 2.646-5.282 1.288-5.572-3.413-.73-9.753-2.742-13.282-4.215-5.078-2.12-8.257-3.91-12.186-6.86-1.642-1.233-3.156-2.24-3.366-2.239-.21 0-1.48 1.817-2.822 4.033-5.828 9.629-13.144 19.938-19.795 27.897-6.433 7.697-15.88 16.735-22.984 21.99-2.34 1.73-2.417 1.83-2.239 2.927.43 2.652 4.187 9.172 8.025 13.927 3.88 4.809 11.364 11.86 12.571 11.845.29-.006 1.86-.961 3.489-2.128zm-62.6-60.33c.083-.136 4.498-28.726 9.813-63.534 5.314-34.807 9.741-63.287 9.837-63.287.096 0 5.639 28.108 12.316 62.463 6.677 34.356 12.272 62.946 12.432 63.535l.292 1.07h2.907c1.93 0 3.018-.139 3.237-.412.181-.226 9.463-41.742 20.627-92.257 13.539-61.266 20.491-92.112 20.881-92.648 1.125-1.544 2.162-2.046 4.695-2.272l2.433-.217v-11.192h-31.932v11.192l2.354-.112c4.395-.21 6.362 1.37 6.375 5.122.01 1.806-24.053 106.554-24.387 106.173-.118-.134-6.643-31.055-14.5-68.714-10.606-50.842-14.432-68.618-14.86-69.048-.895-.901-5.251-.75-5.613.194-.08.208-4.86 30.784-10.624 67.946-5.763 37.162-10.56 67.567-10.658 67.566-.1 0-5.57-23.104-12.156-51.341-12.69-54.407-12.457-53.248-11.21-55.781.825-1.677 2.044-2.315 4.445-2.325 1.536-.007 2.228-.148 2.452-.503.424-.67.408-9.1-.019-9.897-.33-.617-.875-.637-17.736-.637-14.422 0-17.46.078-17.774.456-.257.31-.35 2.018-.287 5.335l.09 4.88 2.03.697c2.646.911 3.522 1.513 4.144 2.845.28.602 10.102 42.277 21.826 92.61 11.723 50.334 21.459 91.702 21.635 91.928.352.454 6.667.604 6.934.165zm136.587-8.148c17.227-37.573 28.442-79.988 32.5-122.914 1.341-14.176 1.485-17.72 1.477-36.251-.01-19.788-.351-26.831-1.334-27.55-.882-.645-6.957.282-10.753 1.642l-2.057.736.165 6.414c.494 19.262.08 37.204-1.173 50.854-3.91 42.553-15.546 86.577-31.832 120.428-1.726 3.587-2.265 5.013-2.032 5.382.174.275 1.35.832 2.616 1.237 2.514.804 6.666 2.702 8.225 3.761 1.758 1.194 2.06.925 4.198-3.739zm-223.893 1.992c2.059-.987 4.78-2.076 6.048-2.42 1.75-.473 2.327-.776 2.4-1.256.052-.347-.933-2.777-2.188-5.4-6.61-13.802-13.328-31.83-18.285-49.067-7.203-25.052-11.67-49.917-13.892-77.337-.685-8.449-.992-35.488-.5-43.916.267-4.561.267-6.341 0-6.664-1.116-1.345-12.09-3.566-13.021-2.636-.4.4-.672 4.41-1.124 16.543-.863 23.195.869 48.79 4.998 73.872 4.98 30.251 13.444 59.865 24.742 86.578 3.473 8.21 6.059 13.497 6.603 13.497.262 0 2.161-.807 4.22-1.794zm17.122-2.63c7.062-1.84 14.35-4.866 19.104-7.93 3.402-2.192 6.527-4.784 6.527-5.413 0-.293-.82-2.008-1.823-3.81-1.003-1.803-3.377-6.351-5.276-10.108-1.898-3.757-3.645-6.83-3.881-6.83-.237 0-.905.73-1.484 1.624-1.334 2.059-2.658 3.177-5.15 4.346-4.903 2.303-8.71 1.898-11.75-1.252-1.531-1.586-2.24-3.266-2.231-5.284.019-4.1 3.68-7.829 7.063-7.194 1.665.312 3.526 2.018 3.399 3.114-.137 1.175-1.047 1.256-2.297.204-.778-.655-1.246-.819-1.888-.66-2.838.704-3.849 4.637-1.862 7.242 3.2 4.195 11.205 1.461 12.912-4.409 1.233-4.243-.84-8.66-5.202-11.075-1.64-.909-2.003-.977-5.22-.977-3.178 0-3.615.08-5.431.985-2.441 1.217-5.401 4.088-6.548 6.352-3.167 6.25-2.694 16.496 1.334 28.875 1.845 5.669 4.184 11.411 5.13 12.591.46.576 1.063.524 4.574-.391zm189.1-2.286c1.85-3.905 4.78-12.718 5.871-17.652 1.496-6.77 1.69-13.444.52-17.792-1.138-4.225-3.94-7.687-7.734-9.556-1.967-.97-2.685-1.142-5.157-1.24-2.504-.1-3.099-.01-4.656.703-2.21 1.011-4.262 2.833-5.428 4.815-.765 1.302-.886 1.871-.882 4.143.01 2.883.37 3.865 2.22 5.972 1.31 1.493 4.563 3.08 6.312 3.08.713 0 1.93-.306 2.704-.681 3.557-1.722 3.931-6.87.618-8.493-.796-.39-1.07-.38-2.028.077-.61.29-1.107.689-1.107.885 0 .197-.334.31-.741.253-1.097-.156-1.177-1.674-.144-2.708 2.046-2.045 5.199-1.837 7.46.494 2.294 2.363 2.872 5.505 1.538 8.363-1.672 3.583-5.403 5.54-9.213 4.83-3.991-.742-7.67-3.057-9.314-5.863-.463-.79-1.049-1.436-1.302-1.436-.266 0-1.578 2.232-3.1 5.273a366.84 366.84 0 01-5.27 10.063c-1.446 2.636-2.629 5.065-2.629 5.399 0 1.354 5.77 5.495 11.687 8.388 4.086 1.998 7.943 3.418 13.003 4.787 5.333 1.443 5.05 1.53 6.772-2.104zM45.65 337.776c0-4.219.735-7.632 2.367-10.995 2.56-5.274 6.83-8.35 12.839-9.251 2.376-.356 3.29-.25 7.756.907.56.144.74.05.74-.388 0-.318-.95-3.484-2.11-7.034-7.833-23.957-12.11-48.062-12.977-73.144l-.245-7.105-1.086-1.691c-1.4-2.182-2.968-3.541-5.429-4.705-2.762-1.306-5.128-1.725-8.603-1.523-7.199.417-12.694 3.94-15.743 10.09-1.593 3.215-1.629 3.827-.73 12.608 3.281 32.04 9.846 61.396 20.156 90.125 2.386 6.65 3.065 7.117 3.065 2.106zm-6.41-29.51l-.966-2.877.704-1.447c1.096-2.258 2.576-3.707 5.048-4.943 2.937-1.47 5.41-1.97 8.702-1.758 3.883.25 4.205.475 5.58 3.91.643 1.607 1.169 3.081 1.169 3.278 0 .196-.65-.312-1.444-1.13-1.685-1.733-3.018-2.067-7.077-1.771-3.216.234-5.489.994-7.46 2.494-2.329 1.772-2.921 2.74-3.12 5.089l-.171 2.034-.966-2.878zm-4.938-20.95c-.326-1.428-.499-2.972-.383-3.43.565-2.254 4.09-5.273 7.287-6.243.725-.22 3.02-.4 5.103-.402 3.131-.002 4.013.11 5.102.655 1.217.608 1.397.883 2.366 3.621.576 1.63 1.058 3.183 1.07 3.451.012.268-.648-.277-1.467-1.212-1.303-1.49-1.721-1.75-3.374-2.094-3.066-.64-7.284-.22-9.729.968-3.454 1.677-4.832 3.296-4.832 5.68 0 .88-.123 1.602-.275 1.602-.151 0-.542-1.169-.868-2.596zm-3.92-18.2c-.115-.573-.304-2.063-.42-3.311l-.211-2.27 2.107-2.05c1.584-1.544 2.636-2.252 4.246-2.86 3.877-1.467 11.977-.995 13.453.783.365.44 1.769 6.503 1.555 6.717-.072.072-.607-.561-1.189-1.407-1.353-1.967-2.611-2.484-6.58-2.702-3.636-.2-6.128.353-8.564 1.902-2.223 1.415-3.157 2.584-3.606 4.514-.221.95-.443 1.728-.493 1.728-.05 0-.184-.47-.299-1.043zm-2.273-19.86c-.114-.724-.3-2.214-.411-3.31l-.203-1.995 1.528-1.7c2.88-3.204 7.707-4.723 12.76-4.016 3.033.424 5.277 1.16 6.012 1.973.557.616 1.94 6.915 1.514 6.902-.111-.003-.646-.704-1.19-1.556-1.455-2.286-3.094-2.845-8.394-2.866-3.948-.015-4.202.026-6.255 1.012-2.264 1.088-4.262 2.807-4.305 3.702-.014.296-.21 1.13-.436 1.854l-.412 1.317-.208-1.317zm234.81 89.87c1.104-2.577 5.56-15.873 7.58-22.616 6.812-22.75 12.137-50.855 14.18-74.842.457-5.364.347-6.212-1.201-9.308-3.455-6.904-12.488-10.95-20.625-9.237-3.941.83-7.763 3.552-9.29 6.618-.742 1.489-.85 2.12-.852 5.013-.012 11.843-2.058 30.482-4.971 45.282-2.148 10.906-6.285 26.353-9.195 34.327-1.216 3.33-1.273 4.34-.233 4.08.407-.1 1.703-.426 2.88-.723 4.655-1.172 10.675.696 14.47 4.49 3.503 3.504 5.212 8.002 5.52 14.53.205 4.366.635 4.957 1.737 2.385zm3.621-30.121v-2.108l-1.916-1.863c-2.338-2.274-4.658-3.233-8.47-3.502-4.211-.297-5.474.009-7.11 1.725-.763.802-1.44 1.406-1.502 1.344-.186-.186 1.96-5.589 2.454-6.179 1.524-1.82 9.071-1.587 12.966.4 2.01 1.025 4.245 3.237 5.077 5.026l.741 1.592-.833 2.523c-1.112 3.366-1.407 3.584-1.407 1.042zm5.149-19.821c-.111-.415-.204-1.224-.207-1.798-.01-1.285-1.101-2.65-3.218-4.008-2.86-1.835-7.28-2.489-11.337-1.676-1.483.297-1.977.605-3.3 2.057l-1.557 1.708.642-2.14c1.315-4.383 1.568-4.832 3.063-5.45 2.942-1.215 8.46-.969 11.965.533 1.785.765 4.259 3.029 5.09 4.656.633 1.242.633 1.267-.057 3.966-.38 1.493-.736 2.758-.788 2.81-.052.053-.186-.244-.297-.658zm4.228-20.401c-.13-.782-.38-1.693-.554-2.026-.57-1.084-2.36-2.502-4.536-3.593-2.063-1.034-2.264-1.069-6.09-1.048-5.486.029-6.562.51-8.404 3.762-.59 1.04-.535.044.165-3.053.49-2.167.932-3.372 1.352-3.684 2.237-1.661 9.37-1.959 13.02-.543 2.45.95 4.681 2.688 5.661 4.41.76 1.335.777 1.499.42 4.081-.203 1.48-.467 2.786-.585 2.903-.118.117-.32-.427-.45-1.209zm2.84-18.375c-.033-.09-.388-1.127-.79-2.304-.674-1.98-.881-2.243-2.778-3.514-2.595-1.74-4.805-2.228-8.978-1.982-4.47.263-6.011.88-7.423 2.976-.625.929-1.136 1.48-1.136 1.224 0-1.056 1.077-6.141 1.38-6.51.529-.647 3.762-1.725 6.216-2.074 2.996-.424 6.449.07 9.08 1.299 2.184 1.02 4.609 3.245 4.93 4.523.166.661-.322 6.856-.501 6.362zM24.592 225.957c7.566-7.371 19.733-8.402 27.242-2.308 1.948 1.58 2.375 1.319 2.377-1.459 0-3.402.596-10.841 1.345-16.843.37-2.966.552-5.498.404-5.627-.148-.13-1.899-.413-3.89-.63-9.135-1-20.97-4.303-27.776-7.752-2.349-1.19-2.916-1.121-3.231.391-.332 1.594-.342 34.524-.011 35.718.138.498.437.905.666.905.228 0 1.521-1.078 2.874-2.395zm261.123.229c.316-2.5.31-30.18-.01-33.222-.228-2.192-.28-2.302-1.063-2.26-.453.026-2.749.868-5.103 1.873-7.3 3.115-15.666 5.334-24.195 6.415l-4.444.564.037 1.477c.02.813.281 3.477.58 5.922.3 2.444.72 7.443.935 11.11.308 5.26.486 6.666.845 6.666.25 0 1.072-.501 1.827-1.113 3.167-2.57 7.163-3.919 11.569-3.906 6.066.019 11.25 2.072 15.532 6.151 1.42 1.353 2.73 2.418 2.91 2.366.182-.052.44-.971.576-2.043zm-229.18-28.778c.138-.272.713-2.89 1.276-5.82 3.408-17.72 10.157-34.21 18.616-45.485 2.969-3.956 8.125-9.311 11.443-11.884 1.222-.947 2.22-1.968 2.216-2.269-.01-.343-1.627-1.543-4.376-3.233-14.972-9.208-26.452-20.014-32.454-30.547-.924-1.622-1.68-3.067-1.68-3.21 0-.144-.289-.26-.642-.26-1.238 0-6.325 8.03-10.844 17.117-8.495 17.081-14.09 36.708-17.174 60.243-.852 6.503-1.555 15.647-1.248 16.222.394.736 4.777 2.78 10.156 4.735 9.735 3.538 23.862 6.049 24.71 4.39zm199.7.152c8.272-1.077 18.544-4.03 25.6-7.358l3.563-1.681-.222-3.375c-1.941-29.41-10.192-59.476-21.954-80.002-2.851-4.976-6.642-10.445-7.24-10.445-.398 0-1.028.826-1.948 2.551-5.549 10.414-17.074 21.483-32.314 31.036-2.753 1.726-5.058 3.297-5.123 3.493-.065.196 1.488 1.696 3.452 3.334 13.213 11.02 22.715 28.703 28.17 52.419.645 2.806 1.347 6.14 1.558 7.407.59 3.534.312 3.422 6.459 2.621zM18.564 183.5c.174-.227.636-3.449 1.027-7.16 3.54-33.645 12.949-63.046 26.786-83.705 1.063-1.587 2.018-3.107 2.122-3.378.57-1.486-8.885-9.38-11.223-9.369-1.244.005-7.098 9.635-11.845 19.481-3.573 7.413-5.655 12.62-8.598 21.501-3.755 11.33-7.137 25.657-9.197 38.956-.929 5.995-2.1 16.07-2.225 19.125l-.086 2.117 3.786.577c2.082.318 4.897.943 6.255 1.39 3.019.992 2.815.962 3.198.464zm278.921-1.848l3.786-.566.108-1.304c.217-2.614-1.805-18.308-3.603-27.968-2.835-15.227-6.75-29.235-11.651-41.68-3.527-8.956-9.657-20.834-14.38-27.862-1.185-1.764-1.793-2.387-2.334-2.387-1.93 0-11.1 7.428-11.1 8.992 0 .37.72 1.721 1.599 3.001 6.074 8.842 12.26 21.57 16.481 33.909 5.432 15.88 9.182 33.705 11.047 52.51.277 2.796.665 5.183.862 5.304.196.122 1.491-.14 2.878-.58 1.387-.442 4.225-1.057 6.307-1.369zm-77.627-53.767c13.463-8.326 24.446-18.304 30.777-27.962 1.143-1.744 2.538-4.154 3.1-5.357l1.024-2.186-1.434-1.878c-2.224-2.914-8.66-9.42-11.954-12.085-9.533-7.712-19.413-11.894-30.793-13.033-4.65-.466-8.29-.188-11.486.878-4.668 1.557-7.658 4.215-9.934 8.832-3.843 7.798-2.796 20.788 2.304 28.588 3.17 4.846 6.61 7.04 10.591 6.752 5.55-.401 9.183-7.43 9.183-17.767 0-6.971-2.024-12.268-5.591-14.628-2.55-1.688-5.998-.5-7.806 2.692-1.5 2.65-1.762 7.957-.586 11.917.68 2.288 2.607 4.356 4.061 4.356.82 0 1.187-.23 1.713-1.07.563-.9.654-1.515.572-3.868-.081-2.302-.234-2.989-.863-3.87-.904-1.267-.831-2.18.185-2.325 2.014-.287 3.573 3.583 3.282 8.152-.52 8.15-4.163 11.43-7.99 7.194-3.376-3.736-5.085-11.53-3.956-18.04.91-5.253 2.831-8.542 5.896-10.095 2.282-1.157 4.268-1.159 6.233-.007 7.753 4.543 10.197 23.293 4.558 34.957-1.568 3.242-3.178 5.136-5.223 6.143-1.511.745-1.831.77-9.792.77-5.364 0-9.09-.152-10.7-.436-9.53-1.681-16.909-5.297-21.11-10.345-2.066-2.484-4.01-6.34-4.965-9.852-.645-2.37-.746-3.54-.747-8.666 0-6.939.492-10.144 2.489-16.12 1.526-4.57 3.792-9.043 6.446-12.73 2.445-3.396 7.52-8.283 10.732-10.336 2.998-1.917 3.146-2.498.932-3.666-1.13-.597-1.967-.764-3.786-.758-2.766.009-4.901.786-8.096 2.946-4.604 3.114-10.791 10.653-12.433 15.152-.9 2.463-1.604 2.438-2.585-.093-2.305-5.951-9.606-13.85-15.597-16.873-2.112-1.066-5.762-1.462-7.67-.832-1.274.42-2.864 1.536-2.864 2.009 0 .162 1.296 1.146 2.88 2.188 3.643 2.396 8.878 7.62 11.356 11.33 7.604 11.39 10.44 27.383 6.793 38.31-1.405 4.21-2.65 6.205-5.862 9.392-3.04 3.015-5.66 4.72-9.583 6.236-6.529 2.522-12.62 3.419-22.044 3.247-5.961-.109-6.921-.202-8.23-.803-8.045-3.692-11.311-23.664-5.758-35.21 1.326-2.757 3.598-5.414 5.334-6.238 3.474-1.649 7.735.408 9.98 4.818 4.286 8.419 1.045 24.264-5.22 25.517-.902.18-1.21.038-2.322-1.074-3.371-3.371-3.841-12.973-.77-15.7 1.598-1.417 2.676.277 1.333 2.093-.644.871-.757 1.425-.759 3.718 0 3.401.641 4.835 2.173 4.835 1.473 0 2.759-1.081 3.788-3.185.783-1.6.926-2.355 1.047-5.534.218-5.69-.96-8.819-3.878-10.292-1.937-.979-3.557-.952-5.084.084-3.795 2.576-5.573 7.317-5.555 14.812.013 5.155.666 8.638 2.226 11.85 1.94 4 4.285 5.764 7.65 5.759 6.02-.01 11.724-6.949 13.8-16.791.787-3.727.796-11.1.018-14.25-1.358-5.495-4.752-10.035-9.181-12.28-2.882-1.46-5.313-1.914-10.138-1.893-13.436.06-25.904 5.267-37.56 15.69-3.994 3.571-10.174 10.6-10.172 11.57 0 .952 1.922 4.576 4.282 8.087 5.066 7.534 12.78 15.073 22.55 22.042 4.583 3.268 12.105 7.908 12.82 7.908.355 0 2.577-.95 4.938-2.113 9.268-4.563 17.257-6.334 27.173-6.025 6.442.201 9.18.658 19.365 3.234 10 2.529 10.25 2.53 19.714.099 3.945-1.014 8.728-2.131 10.63-2.483 4.58-.847 13.103-1.154 17.33-.625 6.832.857 15.023 3.49 20.952 6.735 1.492.817 2.87 1.364 3.166 1.256.288-.105 2.404-1.353 4.701-2.774zm-97.669-18.737c7.786-.954 14.543-4.246 18.159-8.847 3.535-4.498 4.808-8.502 4.818-15.148.023-16.557-9.486-32.175-23.542-38.67-7.315-3.379-15.415-4.693-25.112-4.072-18.578 1.188-36.103 10.088-50.245 25.516-3.83 4.178-7.858 9.295-7.858 9.983 0 .38.907 1.155 2.551 2.178 1.404.873 3.826 2.814 5.384 4.314 1.557 1.499 3.062 2.726 3.343 2.726.282 0 1.15-.778 1.928-1.729C62.76 71.794 75.458 63.46 89.598 60.464c4.714-.998 12.719-1.265 16.009-.533 6.516 1.45 11.503 5.508 14.608 11.89 3.646 7.49 4.094 16.312 1.282 25.227-1 3.174-2.682 6.678-4.284 8.927-1.241 1.742-1.4 2.68-.539 3.182.749.436 1.897.434 5.514-.009zm67.557.16c1.288-.345 1.218-1.275-.26-3.45-8.54-12.576-7.936-30.769 1.334-40.17 2.55-2.584 5.03-4.098 8.895-5.426 2.538-.872 12.292-.88 16.624-.012 8.77 1.755 17.304 5.676 24.927 11.451 3.426 2.596 9.443 8.427 12.69 12.3 1.368 1.629 2.688 3.01 2.936 3.07.247.06 1.641-1.013 3.098-2.383 2.218-2.086 4.925-4.093 8.077-5.987.856-.514.436-1.275-3.09-5.592-11.867-14.532-25.21-23.87-40.398-28.27-9.505-2.755-21.397-3.334-30.034-1.463-16.39 3.551-27.931 15.226-31.95 32.32-.759 3.225-.87 4.408-.874 9.292-.01 5.221.055 5.773.885 8.23.49 1.448 1.327 3.388 1.859 4.31 2.326 4.03 6.87 7.736 11.808 9.629 4.254 1.63 11.248 2.748 13.473 2.151zm-34.227-56.534c6.39-11.032 15.158-17.007 23.144-15.77 2.683.415 5.922 1.844 7.684 3.391l1.25 1.098 2.026-.572c1.114-.314 3.73-.878 5.812-1.253 2.082-.376 3.984-.869 4.227-1.096.807-.755-1.061-3.937-4.093-6.97-2.277-2.28-3.21-2.945-6.102-4.352-4.027-1.96-6.513-2.612-10.985-2.882-5.577-.336-10.392.918-14.771 3.847-3.902 2.61-7.257 6.747-9.188 11.333-.455 1.08-.96 2.008-1.124 2.062-.163.055-.558-.628-.877-1.516-.858-2.387-3.53-6.553-5.532-8.625a24.195 24.195 0 00-10.816-6.434c-3.171-.879-10.12-.796-13.656.162-3.53.957-7.486 2.963-10.104 5.122-2.28 1.88-5.066 5.676-5.403 7.36-.227 1.134-.19 1.154 3.163 1.702 1.176.192 3.718.748 5.647 1.235l3.508.886 1.39-1.255c2.61-2.358 7.031-3.732 10.773-3.349 2.522.258 5.683 1.366 8.178 2.866 3.662 2.202 8.333 7.477 11.695 13.21 1.772 3.02 2.304 2.995 4.154-.2zm-.507-18.235c2.368-4.159 5.678-7.281 10.238-9.659 2.983-1.555 3.107-2.012.883-3.258-1.255-.703-1.899-.827-4.276-.827-3.275 0-5.236.77-7.256 2.851l-1.221 1.26-1.44-1.431c-1.687-1.675-4.492-2.845-6.824-2.845-2.992 0-6.575 1.594-6.111 2.719.093.225 1.355.984 2.806 1.687 3.32 1.609 7.22 5.188 9.396 8.624 1.901 3 2.515 3.143 3.805.879zm-17.994-13.597c4.017-4.118 8.944-5.202 14.37-3.16 2.102.792 2.174.797 3.43.235 5.22-2.337 10.59-1.375 14.577 2.611l1.736 1.736 2.163-.358c1.189-.197 2.309-.505 2.487-.684.821-.82-2.74-7.696-5.677-10.964-6.502-7.232-17.95-9.278-27.01-4.828-4.896 2.405-10.098 8.47-11.756 13.706-.642 2.028-.496 2.276 1.574 2.682 2.462.483 2.75.415 4.106-.976z" fill="#010101"/></g></g></svg>
