<svg version="1.0" xmlns="http://www.w3.org/2000/svg" viewBox="0 0 556 680" preserveAspectRatio="xMidYMid meet"><g fill="#000000" stroke="none"><path d="M197 20.1c-55.3 1.6-132.9 6.7-162.2 10.5l-4.8.7v176.3c0 189.4-.2 182.7 5.1 210.8 12.2 65.5 43.9 122.4 90.3 162.4 26.3 22.7 55.4 40.2 89.2 53.5 26.3 10.4 58.8 18.6 68.3 17.2 2.5-.4 11.7-2.5 20.3-4.6 81.1-20.3 144.3-64.2 182.5-126.6 20.1-32.9 33-69.5 40.6-115.8 2.1-12.9 2.2-14.3 2.4-193.3C529 39.3 529 31 527.3 31c-1 0-8.8-.7-17.3-1.5-89.8-8.6-214.4-12.3-313-9.4zm47.5 32c9 1.2 18.8 4.1 26.3 7.6l5.2 2.4v75.1c0 59.6-.3 74.9-1.2 74.5-23.5-9.9-39.8-13-55.3-10.7-4.4.6-17.2 3.1-28.5 5.5-26.7 5.7-38.7 7.5-51 7.5h-10V61l5.8.7c3.1.5 14.3.8 24.7.8l19-.1 11-3.7c20.6-7 37-9 54-6.6zm111 2.9c22.1 6.9 47.2 9.9 68.3 8.3l11.2-.8V215h-6.3c-11.6 0-30.8-2.8-68.2-10-25.6-4.9-31.2-5.4-42.1-4.1-14.3 1.7-20.1 3.6-34.7 10.9-.4.2-.6-33.3-.5-74.4l.3-74.8 9-3.2c24.9-9 43.9-10.3 63-4.4zM90.9 90.7c10.3 7.7 9.4 23.1-1.7 28.4-12.6 6.1-25.4-4.4-22.8-18.6.9-4.5 5.8-10.2 10-11.5 4.5-1.3 11.4-.5 14.5 1.7zm366 7.3c2.1 0 6-.7 8.7-1.5 6.3-1.9 10.5-1.9 15.1 0 5.8 2.5 8.7 5.8 10.7 12.3.7 2 .5 2.1-1.9 1.2-5-1.9-8.8-1-23.1 5.5-13.9 6.3-22.6 9.1-24.5 8-.5-.4-.9-7.1-.9-15V94.2l6.1 1.9c3.3 1 7.8 1.9 9.8 1.9zM123 106.5v9.6l-9.2-.3-9.3-.3-.3-9.3-.3-9.2H123v9.5zM89.5 155c11.5 5.6 11.4 23.5-.3 29.1-7.9 3.9-18.2.6-21.8-6.9-4-8.4-1-18.2 6.9-22.1 5.3-2.6 9.9-2.7 15.2-.1zm364 1.7c5 .2 12.2.1 16-.4 3.9-.4 8.3-.7 9.8-.5 3.7.4 10.1 6.9 11.7 11.7 1.4 4.3 1 5.1-1.9 3.5-4.3-2.3-10.6-1.5-17.3 2.3-8.2 4.5-19.5 8.5-26.4 9.3l-5.4.7v-28.5l2.3.7c1.2.4 6.3 1 11.2 1.2zM123 171v9h-19v-18h19v9zm170.3 64.1c8.3 3.5 15.4 4.7 18.5 3 1.9-1 2.2-.9 2.2 1 0 1.2-.8 3.1-1.7 4.2-1.8 2-1.7 2 2.1 1.4 2.3-.4 5.1-1.8 6.8-3.3l2.8-2.8v3.8c0 4.6-3.1 7.9-8.8 9.7l-4 1.2 2.9 2.4c1.9 1.6 2.9 3.4 2.9 5.3 0 3.7 3.5 8 6.6 8 3 0 3.1 1.4.3 3.4-1.6 1.1-2.8 1.2-4.7.5-3.3-1.3-3.5-.9-1.7 3.4.8 2 1.5 4.7 1.5 5.9 0 4.4 2.2 10.2 5 12.9 4.7 4.8 1 5.6-4.3.9l-3.4-3 1.5 4.3c1.4 4 1.4 5-.1 11.3-1 3.7-2.2 7.3-2.7 7.8-.7.7-2.3-.4-5-3.4-4-4.6-5.3-4.9-2.4-.5 3.8 5.8 6 22.5 3 22.5-.8 0-2.5-1.8-3.7-4-2.8-5-4.1-5.1-2.7-.3 1.4 5.3 2.5 7.1 7.6 12.8 2.5 2.7 5.8 7.8 7.4 11.3l3 6.2-1.5 11.5c-.8 6.4-1.7 11.8-2 12.1-1.1 1.1-2.7-.7-5.2-5.7-1.4-2.7-2.8-4.9-3.1-4.9-1.9 0 3.1 12.6 6.6 16.5.9 1.1 2.2 3.5 2.9 5.4 1.4 4.2 1.5 13.1.1 13.1-.5 0-2.1-1.8-3.6-4.1-1.4-2.2-2.7-3.9-2.9-3.7-.3.2.5 3.5 1.7 7.3 3.2 10.2 3.1 23.9-.2 32l-2.4 6-3-12.3c-1.7-6.8-3.5-12.1-4.1-11.9-.5.2-3.6 4.1-6.8 8.6-3.3 4.5-6.1 8-6.4 7.8-.2-.3-.9-3.8-1.4-7.8-1.9-13.6-8.6-35.9-10.8-35.9-1.3 0-15.4 39.9-16.8 47.5-1.6 8.8-1.1 19.4 1.1 27 .8 2.5 1.2 4.5 1 4.5-1 0-5.6-10.6-7.3-17-4.5-16-3.4-33 2.4-39 2.8-3 3.3-7.6 1-10.6-1.1-1.4-1.4-1.5-1.5-.4 0 2.1-1.8 8.2-2.9 9.9-1.3 2-4.7-.2-6-4-1.4-4.1 0-10.3 3.8-16.6 3.8-6.3 4.4-8.5 2.8-10.8-1.3-1.7-1.5-1.5-3.3 2.1-2.6 5.4-4.8 5.5-6.3.3-3.5-11.8.3-27.2 9.6-38.7 1.9-2.3 3.3-4.7 3.1-5.2-.2-.5-2.3.4-4.7 2.1-5.4 3.6-6.4 2.7-5.5-4.6 1.4-11 8.4-20.7 16.1-22.1 3.8-.7 3.9-1 1.6-3.6-.9-1-1.4-1.9-1.2-2.1.2-.1 3.5-1 7.2-2 8.4-2.1 12.2-4.6 13.7-9.2 1.7-5.2.5-5.7-4-1.4-2.8 2.7-5 3.9-7 3.9-3.7 0-4.8-1.8-2.1-3.6 2.5-1.8 2.7-5.6.4-7.9-1.2-1.3-2.8-1.6-6.2-1.2-4 .4-10.1-1.2-10.1-2.7 0-.3-.3-1.2-.7-2.1-.5-1.4-.2-1.6 1.5-1.1 1.4.5 4.6-.4 9.3-2.5 6.7-2.9 7.5-3 11.3-1.9 2.2.7 5.5 2.7 7.4 4.6 1.9 1.9 3.6 3.4 3.8 3.4.8 0 .4-5-.7-7.3-1.1-2.5-7.5-6.7-10.2-6.7-.8 0-2.5-1.6-3.8-3.6-2.8-4.6-7.4-7.4-12.1-7.4-3.1 0-3.9-.5-5.7-3.5-2.7-4.7-6-6.1-9.7-4.4-1.6.8-3.3 2.4-3.9 3.7-1.3 2.8-1.9 2.8-4.4-.4-4.2-5.3-1.6-14.1 5.3-18.3 1.8-1.2 3.6-2.1 4-2.1.4 0 1.6 2.1 2.7 4.6 1.9 4.3 4.2 6.4 5.6 5 .3-.3-.2-2.4-1.2-4.5-1-2.2-1.5-4.7-1.2-5.5.8-1.9 4.8-2.1 6.6-.4 1 1.1 1.8.6 3.9-2 5.6-6.8 13.9-7.5 26.5-2.1zm-103.2 8.2c1.9 1.2 4.5 4.3 5.9 6.7 2.2 4 2.5 5.7 2.6 15.2.1 12.2.6 13.3 7 14.9l4.4 1.1-1.8 3c-2.9 5-5.3 5.5-16.2 3.4-2.1-.4-3.3.4-7.2 4.9-5.4 6.2-6 9.2-2.8 14 2.1 3.2 2.7 9 1 10-1.6 1-1.2 6.2.6 7.9 2 2.1 5.3 2 14.4-.4 9.7-2.5 11.7-2.5 16.5.5 2.2 1.3 5 2.5 6.3 2.5 1.8 0 2.2-.5 2.2-3.3 0-3.9-1.1-5.4-6.7-9-4.6-2.9-5.9-5.9-4.9-10.9.8-4 5.6-14.8 6.7-14.8.4 0 1.3 1.6 1.9 3.6 1.7 5 5.9 9.5 15 15.8 11.8 8.3 14.8 15.9 11.5 29.1-1.7 6.9-1.8 7.6-.2 11.5 1.5 3.9 1.5 4.3-.3 7.3-5.5 9.3-6.3 26.9-1.6 35.2 2.2 4 2.4 5.2 1.9 12.3-.6 8.2.5 12.1 4.8 16.8 1.8 1.9 1.8 2.6.7 7.3-.9 4.1-.9 6.8 0 12.3.7 3.9 1 7.3.8 7.6-.3.2-2.7-4.3-5.4-10.1-3-6.2-6.7-12.4-9.2-15.1-5.4-5.9-14.6-10.4-22.7-11.2l-6.3-.7v2.8c0 1.8 1.5 4.8 4 8.1 2.3 2.8 4.5 6.7 5 8.5 1.3 4.3 1.3 15.9.1 15.9-1.5 0-11.7-10.3-13.3-13.5-.9-1.7-1.9-4.5-2.3-6.4l-.7-3.3-4 3.8c-6.1 6.1-9.1 13.2-9.2 21.9-.1 4.1-.4 7.1-.7 6.7-.3-.4-2.1-4.4-3.8-8.9l-3.3-8.2 9-11.5c8.2-10.5 17.9-26.5 19.7-32.6l.8-2.5-2.3 2c-2.3 2-15.6 19.4-24.5 31.9l-4.9 6.8-3.7-7.3-3.7-7.4 3.3-4c1.7-2.2 4.6-6.1 6.4-8.7 3.5-5.2 12.6-24.7 11.8-25.4-.2-.3-5.7 7.6-12.2 17.5L168.8 415l-3-2.5c-1.6-1.4-3.3-2.5-3.8-2.5-1 0-3 7.9-3 12 0 3.6-4.3 9-13.7 17.2-6.6 5.8-7.1 5.5-7.2-4.7l-.1-6 8-9c7.7-8.6 18.1-23.8 23-33.5l2.2-4.5-3.2 3c-1.8 1.6-9.3 10.6-16.8 20-7.4 9.3-13.7 17.2-13.9 17.5-.3.3-.9-.3-1.5-1.3-.5-1-2.3-3.3-3.9-5.2l-2.9-3.3 7.2-10.4c7.5-10.7 17.3-29.7 16.6-32-.3-.7-6.6 8-14.2 19.4-9.8 14.8-14.1 20.6-15.1 20.1-2-.7-1.9-2.8.5-15.9 1.1-6 2-12 2-13.4-.1-7.9-6.4 11-7.6 22.7l-.7 6.1-5.1 1.4c-5.9 1.6-6.2 3-1.5 7.7l3 3-.3 14.4c-.3 14.2-.3 14.4 2.4 18.3 3.5 5 3.5 5.4.1 5.4-1.6 0-4.1.7-5.7 1.5-1.6.9-3 1.4-3.1 1.3-.2-.2-1.1-4.8-2.1-10.3-2.7-14.1-2.7-54.6-.1-72.4 1-6.7 1.6-12.6 1.3-12.9-.7-.7-3.2 4.9-19.6 44.8-16.5 40.1-16 39-17.6 39-1.8 0-2.4-2.4-2.4-10 0-19 16.2-60.3 31.7-80.9 3.5-4.6 4-6.1 2.2-6.1-.6 0-7.3 6-14.9 13.4C70.6 381.2 63.2 386 55.3 386c-2.3 0-4.3-.4-4.3-.9 0-.6 10-10.5 22.2-22 20.5-19.4 28.5-27.7 27.6-28.6-.1-.2-4.6 1.8-9.8 4.4-10.8 5.3-17.5 7.1-26 7.1-6.4 0-12-.9-12-1.9 0-.4 5.9-3.9 13-7.9 14.8-8.2 27.5-16.3 33.9-21.8 5.2-4.5 10.1-11 10.1-13.5 0-1.5-1.3-1.1-9.2 2.6-11.1 5.2-20.1 7.7-28.3 7.9-6.5.1-13.5-1-13.5-2.2 0-.4 2.6-2.3 5.8-4.1 10.5-6.3 42.5-26.2 58.8-36.7 13.3-8.6 16.8-10.4 20-10.4 2.2 0 4.6-.5 5.4-1 1.1-.7 0-1-3.8-1-8.8 0-11.9-2.9-10.1-9.4l1-3.7 3 3.2c2.9 3.1 3.1 3.2 9.7 2.6 3.7-.3 11.2-2.2 16.7-4.1 12.4-4.3 19.6-4.7 24.6-1.3zm220 .1c4.6 1.4 10.7 3.4 13.4 4.6 2.8 1.2 7.4 2.3 10.2 2.3 3.3.1 5.3.6 5.3 1.4 0 1.7-4 4.3-6.7 4.3-3.3 0-3.8 1.9-.6 2.5 6.6 1.5 17.2 5.9 22.2 9.3 5.9 4 7.2 5.8 4.5 6.4-1.2.2 4.5 6.6 19.4 21.5 15.7 15.8 20.6 21.3 19 21.3-4.1 0-16.5-8.5-31-21.3-3.8-3.2-6.8-5.4-6.8-4.7 0 1.2 3.7 5.3 21.2 23.8 5.9 6.2 13.7 15 17.3 19.7 6.3 8 13.5 19.1 13.5 20.6 0 2.6-21.4-7.1-27.8-12.6-2.4-2.1-9.1-11-15.3-20.4-10-15.1-14.2-20.2-15.6-18.7-.3.3 6.3 11.9 14.7 25.8 18.2 30.3 22.2 38.4 25.6 51.4 2.4 9 2.6 11.7 2.7 29.9 0 24-2.1 37.5-5.9 37.5-1.4 0-2.6-4.4-12.8-46-10.2-41.4-17.1-61-25.1-70.5l-2.5-3 2.6 7c11.6 30.4 18.3 55.4 19.9 73.5l.7 7.5-5.8 2c-3.2 1.1-8.4 3.6-11.6 5.7L449 428v-5.4c0-15.2-3.7-37.4-9.1-54.4-3.2-9.7-5.4-12.3-4.5-5 1.6 12.3 4.7 34.7 5.2 37.6.3 2.2.2 3.2-.5 2.8-.5-.4-5.7-6.4-11.4-13.4-11.4-13.9-17.7-20.4-17.7-18.2 0 2.1 8.6 16.9 14 24.2 2.7 3.6 7.4 8.6 10.5 11.2l5.5 4.8v6.6c0 7.8-1.6 14.5-3.3 13.9-.7-.2-8.7-9.3-17.9-20.2-18.6-22.1-24.1-28-24.6-26.6-.4 1.1 3.3 8.6 9 18.5 2.9 4.9 8.2 10.9 18.6 21.2l14.5 14.2-3.2 5c-5.2 8.2-5.1 8.2-13.7 1.8-4.1-3.2-7.7-6.3-7.8-6.9-.2-.7-.8-3-1.2-5.2-.9-3.9-1-4-5-4-3.9 0-4.6-.5-13.5-9.8-9.7-10-12.7-12-10.8-7 2 5.2 7.9 14.1 11.8 17.6l4 3.6-2.9 5.3c-1.6 2.9-3 6.1-3 7 0 3.2-2.2 1.9-10.6-6.2-10.2-9.8-12.2-10.5-8.5-3.2 1.9 3.7 8.7 10.7 14.4 14.8l2.8 2-2.2 5.9c-1.3 3.7-3.6 7.3-5.8 9.4-7 6.6-21.3 18.2-21.8 17.7-.3-.2 1-3.4 2.7-7 3.7-7.6 11.2-15.5 17-18.1 4.6-2.1 5.1-4.4 1.9-7.6-1.9-1.9-3-2.1-10-1.7l-7.9.5v-3.1c0-1.7-.7-6.7-1.5-11.1-.8-4.4-1.8-10.2-2.2-12.8l-.8-4.8-4.7 3c-6.1 3.9-7.5 6.3-8.7 14.4-.5 3.7-1.7 8.2-2.7 9.9-1 1.8-3.2 6.1-5 9.6l-3.2 6.3-1.1-3.2c-.6-1.8-1.1-6.2-1.1-9.9 0-5.7-.4-7.3-3.1-11.6-4.3-6.7-5.6-10.1-6.8-17.4-.9-5.6-.8-6.5 1.1-9 2.9-4 3.4-10.8 1.3-18.5-1.6-6-1.6-7.4-.2-20.2 2.1-18.4 1.4-22.1-6.3-31.3l-3.7-4.5 1-6.2 1.1-6.2 5 .2 5.1.2 3-6.1c1.7-3.3 4.9-7.8 7.3-10.1 4.6-4.4 4.9-5.6 2.7-11-.8-2-1.4-3.8-1.2-4 .2-.1 2.3.7 4.7 2 6.6 3.5 7.5 6.6 4.5 15.2-2.6 7.5-2.3 8.5 2.5 8.5 7.4 0 16.4-5.6 17.6-10.9 1.8-8.1 2.7-10 6.4-14.1 5-5.6 5.1-8.8.2-11-2.9-1.3-3.2-1.9-3-4.7l.4-3.2-4.7 4.4c-5.9 5.5-8.5 6.2-14.8 3.9-4.2-1.5-5.6-1.6-8.8-.6-2 .6-3.9.9-4.2.7-1.2-1.3 2.1-5.2 5.5-6.4 5.5-1.9 10.2-4.9 12-7.7 1.3-1.9 1.4-2.9.3-5.7-1.8-5-.6-7.8 6-14.8l5.9-6.2 5.1.5c3.4.3 5.7 0 7.1-.9 6.7-4.7 16.1-5.4 28.1-1.9zM230 261.9c0 1.1 1.1 3.3 2.4 4.8l2.4 2.8 14.4.1c15.7.1 19 1 22.3 6 1.7 2.6 1.7 2.7-.1 1.9-3.8-1.7-12.2-1.7-22.9 0-13.2 2.2-17.7 1.6-21.7-2.7-3.3-3.6-3.6-7-.8-11.6 2.2-3.6 4-4.2 4-1.3zm54.2 153.3c2.4 7.9 3 21.2 1.4 31.9-.5 3.1-.5 8.3-.1 11.5l.8 5.9 1.3-5.9c.8-3.2 2.8-8.4 4.5-11.6 3.4-6.5 10.4-13.9 11.7-12.5 1.8 2.1 5.2 17.6 5.2 23.7 0 8.1-1.4 12-8 23.1-4.5 7.4-5.3 9.7-6.1 16.3-.6 4.2-.8 8.1-.6 8.8.2.6 1.6-2.6 3.1-7.1 1.7-5 4.9-11.5 8.2-16.4 5.6-8.5 7.4-13.1 9.9-26.3.9-4.9 2.5-9.7 4.2-12.5 3.1-4.9 5.3-6.3 5.3-3.4 0 1 .6 2.8 1.4 3.9 4.1 5.8 2.4 16.6-4.9 30.1-5 9.3-5 9.3-3.1 9.3 3.6 0 9.7-7.4 11.6-14 .8-2.5.8-2.4 2.4 1.2 2.9 6.8 2.2 9.2-4.6 14.2-2 1.5-4.6 4.7-5.7 7-2 4.1-2.9 11.7-1.3 11.5 1.3-.1 10.4-11.9 13.5-17.6 2.1-4 3.2-7.6 3.7-12.8.6-5.9 1.4-8.4 4.8-14.1 3.6-6.1 5.7-12.3 7.8-23 .2-1.1 1.6-3.4 3.1-5l2.7-2.9 1.3 7.5c2.2 12 1.9 19.8-.7 24.9l-2.2 4.4 3.4-2.1c6.9-4.3 9.4-5.2 14.3-5.2l5 .1-6.1 2.9c-7.1 3.5-9.9 6.9-14.9 18.8-5.3 12.7-6.4 14.3-13.6 21.3-7.1 6.8-8.3 8.9-5.1 8.9 4.5 0 14.2-6.2 21.4-13.8 4.1-4.3 11.2-10.6 15.9-13.9 11.3-8.2 15.3-14.1 19.9-29 2.1-7 7.3-16.3 9-16.3 2.9 0 2.3 14.5-1.1 27.1-2.1 7.6-3.3 9.9-9.8 17.9l-3.4 4.1 3.9-1.6c5.3-2.2 17.9-9.1 23.4-12.8 8.4-5.7 15.3-13.2 22.5-24.2 7.9-12.1 11.5-15.7 21.6-21 9.3-4.9 10.7-4.6 6.4 1.1-1.9 2.5-3.7 5.5-3.9 6.7-2.1 11-3.2 14.7-6.2 20.3-1.9 3.5-3 6.4-2.4 6.4.5 0 2.8-.9 5-2.1 2.2-1.2 4.7-1.9 5.5-1.5 1.1.4-1.4 3.5-8.7 11-14.6 14.8-17.4 16-50.8 21.5-16.3 2.6-25.4 6.5-42.3 17.8-13.6 9.2-20.6 13-30.9 16.8-2.7.9-4.8 2-4.8 2.4 0 .5 3.3 2.3 7.3 4.2 6.1 2.9 8.3 3.4 14.5 3.4 7.1 0 7.4-.1 24.7-8.9 9.6-5 17.7-8.8 17.9-8.5.3.3-4.3 5.5-10.2 11.7-11.7 12.1-15.3 14.4-29.8 18.4-6.9 1.9-10.4 2.2-27.9 2.3-18.2 0-20.3.2-23.4 2-5.2 3.1-5.1 4.5.4 4.5 5.2 0 7.5 1 12.4 5.3 8.6 7.4 17.6 8.5 23.5 2.8 4.1-4 9.4-6.1 15.3-6.1 4.9 0 11.9 2.8 14.7 5.9 1.6 1.7 1.5 1.9-1.2 2.4-1.6.3-4.3 2.1-5.9 3.9-1.7 1.8-5.1 5.6-7.7 8.5-6.1 6.7-11.1 8.7-20.4 8.1-6.5-.3-7.4-.7-18.5-7.6-16.6-10.5-20.2-11.2-22.8-4.5-1.2 3.3.3 6.7 6.6 14.3 9.1 11.1 9.6 15.1 3.1 21.6-5 5.1-9.1 5.7-15.4 2.5-3.6-1.8-13.8-11.8-13-12.6.2-.3 2 0 3.9.5 4.7 1.4 11.2 1.3 12.7-.2 2.1-2.1 1.3-5.4-3.3-14.2-2.5-4.8-4.5-10-4.5-11.6 0-1.7-.5-3-1.1-3-.6 0-3.9 2.6-7.3 5.7-8.1 7.6-17.1 14.1-22.4 16.4-4.9 2.1-13.2 2.5-16.5.7-1.2-.6-7.1-5.8-13.2-11.6-11.8-11.3-20-17.9-26.7-21.7l-4.3-2.5h11c18.3 0 24.5 2.5 35.5 14.1 6.6 6.9 7.9 7.9 11 7.9 1.9 0 4.9-.9 6.6-1.9 3.4-2 14.1-13.8 16.2-17.7 1.2-2.2 1-2.4-2.5-3.9-11.3-4.8-28.5-6.3-37-3.2-2.4.8-4.3 1.1-4.3.6 0-1.7 11.1-11.9 15.3-14.1 9.3-4.8 19.6-2.2 28.8 7.5 5.7 5.8 6.6 4.3 2.1-3.8-6.5-11.8-22.2-17.4-36.9-13-2.8.8-10.2 4-16.5 7-13.5 6.6-17.1 6.9-25.8 2.6-11.8-5.9-25.9-17.7-32-26.9-3.9-5.8-3.8-6.9.3-4.3 18.8 12.4 35.4 15.1 50.2 8 12.4-5.9 26.2-5.1 45.6 2.6 4.8 1.9 9 3.5 9.4 3.5.3 0-2-2.2-5.2-5-6.8-5.8-15.6-10.3-23.1-11.9-11-2.3-30-.7-39.4 3.3-6.8 2.9-11.4 2.1-20.8-3.4-4.7-2.8-9.2-5-10-5-2-.1 2.1-3.4 8.3-6.6 6.1-3.2 11.9-3.9 19.1-2.4 3.2.6 6 1 6.3.7.2-.3-1.7-1.8-4.3-3.3-3.7-2.2-7.4-3.2-17.3-4.6-24.1-3.4-47.6-8.9-63.5-14.8-5.8-2.2-5.8-2.2-3.9-4.2 3.5-3.4 10.9-4.2 18.8-2.1 1.2.4-.2-1.6-3.6-4.9-6.4-6.1-10.1-12.5-10.2-17.7 0-2 .3-7.5.8-12.2.6-7.2.5-9.2-.9-11.9-.9-1.8-1.4-3.5-1.2-3.7 1.1-1.2 8.4 1.4 10.8 3.7 3.2 3.3 4.4 7.3 5.8 21 1.2 10.8 3.3 17.2 6.7 20.2 1.9 1.7 1.9 1.6 1.9-3.6-.1-3.9.4-6 1.8-7.5 2.5-2.8 2.9-2.7 4.5 1.1 1.9 4.3 8.5 10.6 13.4 12.9 5.4 2.4 6.4 2.4 7.7-.2.9-1.6.7-2.9-.8-6.3-4.1-8.7-5.9-20.9-4.7-32 .5-5.6.9-6.5 2.1-5.5 2.3 1.9 6 10.8 9.3 22.4 2.6 8.9 4.2 12.5 8.7 19.2 3.1 4.5 6.6 9.1 7.9 10.3l2.2 2.1.6-2.3c.4-1.2 0-6.7-.8-12-1.7-11.2-1.1-15.8 2.9-21.9 3.1-4.6 4.1-4.9 5-1.4.4 1.4 3.3 5.2 6.6 8.4 6.6 6.5 6.5 6.3 6 20.9-.1 5.1.2 6.9 2.1 9.6 2.8 4.1 13 11.2 27.9 19.4 14.2 7.9 19.7 11.9 25.5 18.5 4.8 5.5 5.7 4.8 2.6-1.9-2-4.4-7.3-8.8-22.5-18.8-11.7-7.8-19.9-15.9-23.4-23.3-2.5-5.5-2.7-6.9-3.3-24.3-.3-10.2-.7-18.6-.7-18.8-.1-.1-2.1-2.3-4.3-4.7-3.9-4.2-4-4.5-1.8-4.5 1.3 0 4.2.9 6.5 1.9 11.9 5.4 23.6 22.8 29.8 44.5 3.2 10.8 3.7 11.8 10.1 18.6 2.9 3 6.9 7.7 9 10.5 2.1 2.7 3.5 4.1 3.1 3-.4-1.1-1.9-7-3.4-13-3.6-15.3-3.7-36.8-.3-49.5 2.3-8.6 8.7-23 10.2-23 .5 0 1.8 3.3 3.1 7.2zM160 440.8c0 3.8.7 9.1 1.5 11.7.8 2.7 1.2 5.1 1 5.4-1.3 1.2-12.5-11.8-12.5-14.6 0-1.4 7.8-9.3 9.3-9.3.4 0 .7 3.1.7 6.8zm259.3 9.5c6.5 5.8 6.5 6.5 1.2 11-3.3 2.7-3.3 2.7-7 1-4-1.9-3.8-.6-1.9-13.3.3-2.2.9-4 1.2-4 .4 0 3.3 2.4 6.5 5.3zm37.2 31.4c-3 9.7-10.5 25.1-13.6 27.9-1.4 1.3-2.2 1.5-3.1.6-1.7-1.7-2.2-10.5-.8-17.6 1.2-6.4 1.3-6.6 6.4-9.5 2.8-1.6 6.9-4.7 9-7 2.2-2.2 4.2-3.9 4.4-3.6.3.2-.8 4.4-2.3 9.2zm-330.3 1.2c2.6 7.7.8 23.1-2.7 23.1-2.1 0-6.9-11.6-13-31.6-.2-.6 3 .3 7.1 2 6.5 2.6 7.5 3.4 8.6 6.5z"/><path d="M211 74.9c-4.1 2.2-8 8.9-8 14 0 6.9 6.5 13.1 13.9 13.3 2.7.1 10.6-4.4 9.6-5.4-.3-.3-2.5-.3-4.8-.1-3.6.4-4.8.1-7.5-2.2-1.8-1.5-3.2-3.3-3.2-4 0-.8 2.7-3.7 6-6.6l6-5.2-2.7-2.9c-3.1-3.3-4.6-3.4-9.3-.9z"/><path d="M234.8 79.3c-5.1 3.9-6.1 7.9-2.8 11.4 1.1 1.2 2 2.5 2 2.8 0 .3-1.6 1.9-3.5 3.6-1.9 1.7-3.5 3.5-3.5 3.9 0 1.8 8.9 4.2 12.7 3.5 5.3-.9 12.2-5.2 13.4-8.2 1.1-2.9-.7-6.5-4.1-8.3-1.9-1-1.8-1.2 1.5-4.2l3.5-3.1-3.2-2.3c-4.8-3.6-10.5-3.3-16 .9z"/><path d="M180.2 79.3c-2.6 2.7-2.8 3.7-.7 3.7 2.6 0 3.7 3.9 3.3 12.4l-.3 8.1 2.8.3 2.7.3v-9.9c0-11.1 1.2-13.8 4.5-10.2 1 1.1 2.3 2 2.9 2 1.2-.1 6.1-3.9 5.5-4.3-.2-.1-1.6-1.2-3-2.5-2.6-2.3-2.8-2.3-5.8-.8-2.8 1.5-3.4 1.5-6.1.1-3.6-1.9-3.2-1.9-5.8.8z"/><path d="M169.5 79.6c-.9 1.3-1.7 1.4-5.7.4-6.8-1.7-11.2-.6-15.8 4-6.9 6.9-6.6 16 .9 21.7 4.6 3.6 8.5 4.1 15.4 2.2 3.2-.9 4.2-.8 5.6.5 2.4 2.2 3.4 2 2.1-.3-.5-1.1-1-4.5-1-7.5 0-3.1-.4-5.6-1-5.6-.5 0-1 1.2-1 2.7-.1 4.4-5.2 9.3-9.7 9.3-3.5 0-8.3-4.9-9-9.2-1.4-9.1 2.6-15.8 9.4-15.8 5.6.1 9.3 3.8 9.3 9.4 0 1.4.5 2.6 1 2.6.6 0 1-3.3 1-8 0-4.4-.1-8-.3-8-.1 0-.7.7-1.2 1.6z"/><path d="M227 108.7c0 .9-1.9 1.3-6.1 1.3-5.6 0-6.4.3-9.5 3.4-1.9 1.9-3.4 4.3-3.4 5.4 0 2.6 3.5 5.4 9.7 7.7 6.6 2.5 8.5 4.3 8.1 7.9-.4 4-4.5 5.3-10.3 3.4-3.1-1-4.5-2.2-6-5.3l-2-4-.3 5.4c-.4 6.9.2 8.8 2.3 7.1 1-.8 4.1-1.2 8.3-1.1 6 .2 7-.1 9.1-2.3 1.5-1.5 2.5-4.2 2.8-7 .5-3.8.2-4.8-2-6.9-1.5-1.6-4.1-2.8-7.1-3.2-2.6-.4-5.6-1.5-6.8-2.5l-2.1-1.7 2.1-2.1c3.1-3.1 8.2-2.9 12.1.4l3.1 2.6v-3.4c0-1.8-.5-4-1-4.8-.6-1-1-1.1-1-.3z"/><path d="M195.2 113.1c-1.2 2.1-3.6 4.9-5.2 6.1-2.5 1.8-2.7 2.3-1.4 3.2 1.1.8 1.6 3.4 1.7 9.5.2 7.4.5 8.5 2.6 10.2 3.2 2.6 4.4 2.4 6.9-1.1 2.1-2.8 2.2-3 .4-3-3 0-4-2-4.4-8.5-.3-5.8-.2-6 2.2-6.3 4.7-.5 7-1.2 7-2.2 0-.6-1.6-.8-3.9-.4-3.3.5-3.9.3-4.4-1.5-.3-1.2-.1-3.8.5-5.7 1.3-4.9.7-5-2-.3z"/><path d="M149.7 117.9c-5.7 3.7-8.7 9.1-8.7 15.9 0 4.2.5 5.2 3.4 8.1 2.2 2.2 4.6 3.4 7.2 3.8 3.5.4 4.1.2 5.6-2.6 1.7-3.1 1.7-3.1-.8-3.1-3.3 0-7.9-2.4-9.8-5.2-2.8-3.9-1.5-12.9 2-14.2.7-.3 2.6.6 4.2 1.9l2.9 2.4 2.3-2.4c2.2-2.3 2.2-2.4.4-4.9-2.4-3.2-3-3.2-8.7.3z"/><path d="M170.9 119.3c-5 3.3-6.7 6.8-5.2 10.8 1.1 2.8 1 3.5-.7 5.7-2.6 3.3-2.5 5.5.4 8.8l2.3 2.8 2.8-2.2c3.6-2.9 4.9-2.8 6.4.5l1.2 2.6 3.5-3.4c3.2-3.1 3.3-3.4 1.4-4.1-1.8-.7-2-1.6-2-9.4 0-7.1-.4-9.1-2.1-11.5-2.5-3.5-3.6-3.6-8-.6z"/><path d="M238.6 122.3c-2.4 2.3-4.7 5.4-5.1 7-1.2 4.5.3 9.3 3.6 12.1 4.2 3.6 6.9 3.3 9.7-.9 2.6-4 2.8-5.3.7-3.5-3.6 3-10.5-3.3-10.5-9.5 0-2.8 3.8-5 6.9-4 1 .3 2.6-.2 3.7-1 1.9-1.5 1.9-1.5 0-3-3-2.3-4.2-1.9-9 2.8z"/><path d="M254.2 125.6c-2 1.9-3 3.4-2.2 3.1.8-.2 2.3 0 3.3.5 1.4.7 1.7 2.2 1.7 8.2 0 6 .3 7.6 2 9.1 2 1.8 2.1 1.8 5.1-1.1l3-2.9-2.3-.5c-2.1-.5-2.3-1.2-2.8-9-.7-12.3-1.7-13.2-7.8-7.4z"/><path d="M207.5 152c-.4 1.1-2.2 4-4 6.4-2.9 3.8-3.2 4.6-1.9 5.7.9.8 1.4 3.2 1.4 7.8 0 10.3 4.2 14.4 8.6 8.3 3.6-4.9 3.9-5.5 1.7-4.4-3.4 1.8-5.3-.3-5.3-5.9 0-4.7.1-5 3-5.6 3.9-.7 3.9-2.3-.1-2.3h-3.2l.7-6c.7-6 .3-7.8-.9-4z"/><path d="M155.1 158c-8 5.9-10.6 13.2-7.2 20.4 2.3 4.6 9.6 10.6 10.9 9 3.3-3.9 6.3-8.6 5.8-9.1-.4-.4-1.2-.1-1.8.5-.7.7-2.2 1.2-3.4 1.2-2.8 0-7.3-3.7-5.8-4.7.6-.5 3.8-3 7.1-5.7l6-4.9-3.1-4.8c-1.7-2.6-3.4-4.8-3.7-4.8-.3-.1-2.5 1.3-4.8 2.9z"/><path d="M247.5 156.9c-5.4 3.3-6.8 5.6-6.1 9.9.4 2.6.1 4.5-.9 5.8-1.9 2.5-1.9 8.4.1 11.2l1.5 2.2 4.3-2.5c5.2-3.1 5.9-3.1 9.7-.3l2.9 2.2 3.3-3.3c2.2-2.3 2.6-3.2 1.3-2.7-3.4 1.2-4.6-1.1-4.6-9.3 0-7.4-.1-7.8-3.6-11.4-2-2-3.9-3.7-4.3-3.7-.3 0-1.9.8-3.6 1.9z"/><path d="M173 159.5c-2.3 2.5-2.3 2.6-.7 5.4 1.3 2.2 1.7 5.2 1.7 12 0 9 0 9.1 2.5 9.1s2.5 0 2.5-9.8c0-8.2.3-10.2 1.8-11.5 1.4-1.3 2-1.3 3.5-.3 1.4 1.1 1.7 3 1.7 11.4 0 5.6.4 10.4 1 10.7.5.3 2.6-.7 4.5-2.2 2.2-1.7 3-2.9 2.2-3.1-1-.2-1.6-3-2.1-9.9-.7-9.6-1.7-13.3-3.8-13.3-.6 0-2.6 1.2-4.5 2.6l-3.3 2.5-1.8-3c-.9-1.7-2-3.1-2.3-3.1-.3 0-1.6 1.1-2.9 2.5z"/><path d="M222.1 160.4l-3.2 3.3 3 .6c2.9.6 3 .7 3.7 8.7.8 9.6 2.6 11.6 6.5 7.4 2.2-2.4 2.3-2.6.6-3.5-1.3-.8-1.7-2.4-1.7-7.5 0-6.6-2.1-12.4-4.5-12.4-.6 0-2.6 1.5-4.4 3.4z"/><path d="M325.5 70c-.3.5.1 1 .9 1s2 .9 2.7 2.1c.8 1.7.5 3.8-1.5 10.5-1.5 4.6-2.9 8.4-3.2 8.4-.8 0-6.4-12.7-6.4-14.4 0-.8.9-1.8 2-2.1 1.1-.3 2-1 2-1.5 0-1-4.4-1.8-14.5-2.4-6.9-.5-7.5-.4-4.7.6 2.2.7 4.3 2.6 5.9 5.2 2.8 4.4 12.3 25.9 12.3 27.9 0 2.7 2.2-2.5 7.1-17.1 4.6-13.7 5.5-15.6 8.3-17.3l3.1-1.9h-6.7c-3.7 0-7 .4-7.3 1z"/><path d="M371.7 73.9c-1.7 3-6.6 7.5-8.9 8.4-1 .3-.8.8.5 1.8 1.3 1.1 2 3.8 2.7 10.7 1 9.7 3 15.2 5.5 15.2.8 0 2.6-1.7 4-3.8l2.5-3.7-2.2-.5c-2-.5-2.4-1.5-3.2-8.4-1-8.7-.6-9.5 4.9-9.6 3.9 0 7.5-1 7.5-2.1 0-.4-2.6-.9-5.7-1.1l-5.8-.3.2-4.8c.1-2.6 0-4.7-.1-4.7s-.9 1.3-1.9 2.9z"/><path d="M341.2 80.5c-3.1 2.9-3.4 3.5-1.7 3.5 4.4.1 5.5 2.3 5.5 10.2 0 6.1.4 8 2.1 10.2 2.6 3.3 5.8 3.3 8.5-.1l2.1-2.7-3.1-2.1c-3-2-3.1-2.4-3.4-10-.2-6.5-.7-8.4-2.4-10.2-1.2-1.3-2.5-2.3-3-2.3s-2.5 1.6-4.6 3.5z"/><path d="M394.1 86.6c-4.6 3.8-5.8 6.4-3.7 8 1.5 1.1 1.5 1.5-.5 4.8-2.4 4.1-2.2 8.7.6 13 1.7 2.6 1.7 2.6 4.4.7 4.6-3.3 6.9-3.5 9.1-.9l2 2.3 2.5-2.8c2.9-3.3 3-4 1-5.7-1.1-.9-1.5-3.4-1.5-9.6V88l-3.2-2c-4.4-2.7-7-2.5-10.7.6z"/><path d="M318.4 114.1c-15.9 1.5-24.5 9.5-22.4 20.8.4 2.3 1.6 5.1 2.6 6.3 4.4 4.9 13.7 7 22.7 4.9 2.1-.5 3.9-.5 4.3 0 1.4 2.3 2.4.4 2.4-4.6 0-6.1-1-7-2.7-2.5-2.6 7-13.2 7.3-19.2.5-3.4-3.9-3.9-6.2-1.7-7.1 1.5-.6 18.5 1.2 21.9 2.2 1.4.4 1.7-.1 1.7-2.9 0-1.8-.2-3.6-.5-3.9-.3-.3-2.9.1-5.7.9-2.9.7-8.3 1.3-12 1.3H303v-2.9c0-3.6 4-7.7 9.1-9.2 5.3-1.6 10.8.4 12.9 4.8.8 1.8 1.8 3.3 2.3 3.3.4 0 .7-2.9.7-6.5s-.3-6.4-.7-6.4c-.5.1-4.5.5-8.9 1z"/><path d="M351.5 118c-2.8 2.9-2.9 3-4.9 1.1-3.7-3.2-4.4-3.2-9.3.5-5.2 3.9-7.3 7-2.8 4 3.8-2.5 7-1 8.6 4.3 1.4 4.7-.1 11.5-3.4 15.8l-2 2.6 2.1-1.2c1.2-.6 3.3-2.7 4.7-4.6l2.7-3.4 3.5 3.5 3.5 3.6 3.9-3.8 3.8-3.7-3.8-1.9c-6.2-3-8.5-6.2-8.2-11.1.1-1.4.5-1.6 2-.7 2.8 1.5 8.7 1.2 10-.4 1-1.2.8-1.7-1.1-2.7-1.3-.6-3.2-2-4.4-3-2-1.9-2.1-1.9-4.9 1.1z"/><path d="M373.7 124.5c-5.7 4.4-6.7 6.1-6.7 11.8 0 3.3.7 5.4 3 8.5 5.4 7.6 9 7.8 15.4 1.3l4-4.1-3.2.9c-9.7 2.8-18.3-7.7-12.3-15 1.8-2.3 2-2.3 3.8-.6 2.1 1.8 7.8 2.3 8.8.7.6-1-5.3-6.9-7.1-7-.6 0-3.2 1.6-5.7 3.5z"/><path d="M399.9 126.2c-7 5.4-9.9 14-6.8 20.1 2.2 4.2 6.2 7.7 8.9 7.7 2.9 0 8.8-5.5 11.4-10.7 3-6 1.3-14-3.9-18.1-3.7-2.9-4.6-2.8-9.6 1zm4.8 4.5c4.8 3.2 6.2 10.6 3.1 16.5-1.3 2.6-3 2.2-6.6-1.5-4.3-4.4-5.6-8.9-3.7-13.3 1.6-3.8 3.3-4.2 7.2-1.7z"/><path d="M297.8 165.7c.3 18.5.5 19.9 3.4 21.4 1.8 1 2.5.7 5.5-2.5s3.2-3.6 1.4-3.6c-3.3 0-4.1-3.2-4.1-17.4V150h-6.5l.3 15.7z"/><path d="M350.8 153c-.7 1.1-3 3.2-5.1 4.7-3.4 2.4-3.6 2.8-2.2 4.3 1.1 1.2 1.5 4 1.5 10.4 0 7.9.2 8.9 2.5 11.1 3.1 3.2 4.5 3.1 7.8-.3 3.4-3.5 3.4-3.8 0-3.7-3.2 0-4.1-2.2-4.2-10.8-.1-5.7-.1-5.7 2.9-5.7 3.7 0 3.9-1.7.4-2.6-2.4-.6-2.6-1-2.1-5 .5-4.9.3-5.3-1.5-2.4z"/><path d="M322 159.6c-4.6 4.1-5.4 6.2-4.1 9.7.8 1.9.6 2.8-.4 3.7-.8.7-2 2.9-2.6 5-.9 3-.8 4.2.5 6.8 1.9 3.6 2.8 3.9 4.7 1.5.8-.9 2.7-2.4 4.4-3.4 2.9-1.8 3-1.8 5.3.4l2.4 2.2 3.6-4c3.3-3.6 3.5-4 1.7-4.3-4-.8-4.7-2.3-4.4-9.3.3-6 .1-7.1-2-9.3-3.2-3.4-4.3-3.3-9.1 1z"/><path d="M363.7 163.1l-2.8 2.1 2.7 2.5c2.5 2.3 2.6 2.8 2 8.8-.6 5.7-.4 6.6 1.7 9.1l2.4 2.7 5.6-2.6c3.1-1.4 5.7-2.2 5.7-1.6 0 .5.9 1.8 2 2.9 1.9 1.9 2.2 1.9 4.6.4 1.7-1.2 2.2-2 1.5-2.7-.6-.6-1.1-5-1.1-9.7 0-8.3-.1-8.7-3-11.5l-3-2.9-3.3 3.2c-2.8 2.8-2.9 3.2-1.1 3.2 3.2 0 4.4 2 4.4 7.7 0 6.2-1.9 7.9-7.2 6.5l-3.3-.8-.3-7.9c-.2-5.6-.8-8.5-1.9-9.7-2-2.2-2.2-2.2-5.6.3z"/><path d="M397 167.7l-3.2 2.6 3.1 1.3 3.1 1.3v20.2l3.3-.3 3.2-.3.3-9.5c.2-5.2.7-9.9 1.2-10.4.6-.6 2.1.1 4 1.9l3 2.9 3-2.9 2.9-2.8-3.7-2.7-3.7-2.8-3.3 2-3.3 2-2-2.6c-2.6-3.3-4-3.3-7.9.1z"/><path d="M277.9 241.9c-6.9 2.2-9.7 5.8-3.5 4.8 3.1-.5 3.3-.3 3.3 2.1 0 1.5.3 3.5.7 4.5.7 1.5.5 1.6-1.9.7-1.5-.6-3-.9-3.2-.6-.9.8 5.6 3.6 8.4 3.6 2.6 0 17.3-6.8 17.3-8 0-.9-12.3-6.7-15.5-7.3-1.6-.3-4.2-.2-5.6.2z"/></g></svg>
