<?xml version="1.0" encoding="UTF-8" standalone="no"?>
<svg width="106px" height="107px" viewBox="0 0 106 107" version="1.1" xmlns="http://www.w3.org/2000/svg" xmlns:xlink="http://www.w3.org/1999/xlink" xmlns:sketch="http://www.bohemiancoding.com/sketch/ns">
    <!-- Generator: Sketch 3.2.1 (9977) - http://www.bohemiancoding.com/sketch -->
    <title>rotunda 2</title>
    <desc>Created with Sketch.</desc>
    <defs></defs>
    <g id="Page-1" stroke="none" stroke-width="1" fill="none" fill-rule="evenodd" sketch:type="MSPage">
        <g id="rotunda" sketch:type="MSLayerGroup" fill="#000000">
            <g id="layer1" transform="translate(0.960360, 0.203750)" sketch:type="MSShapeGroup">
                <g id="g2554" transform="translate(0.094255, 0.409454)">
                    <g id="g8" transform="translate(71.570550, 47.264828)">
                        <path d="M1.47886485,40.5689983 L1.47886485,0.240507432 L10.1013121,0.240507432 L10.1013121,40.5689983 L1.47886485,40.5689983 L1.47886485,40.5689983 Z" id="path10"></path>
                    </g>
                    <g id="g12" transform="translate(25.515935, 47.264828)">
                        <path d="M0.979939855,40.5689983 L0.979939855,0.240507432 L9.32861805,0.240507432 L9.32861805,40.5689983 L0.979939855,40.5689983 L0.979939855,40.5689983 Z" id="path14"></path>
                    </g>
                    <g id="g16" transform="translate(35.750294, 47.264828)">
                        <path d="M1.96755548,40.5689983 L1.96755548,0.240507432 L10.8663305,0.240507432 L10.8663305,40.5689983 L1.96755548,40.5689983 L1.96755548,40.5689983 Z" id="path18"></path>
                    </g>
                    <g id="g20" transform="translate(48.543243, 47.264828)">
                        <path d="M0.951795368,40.5689983 L0.951795368,0.240507432 L9.85312893,0.240507432 L9.85312893,40.5689983 L0.951795368,40.5689983 L0.951795368,40.5689983 Z" id="path22"></path>
                    </g>
                    <g id="g24" transform="translate(58.777602, 47.264828)">
                        <path d="M11.3959585,0.240507432 L11.3959585,40.5689983 L2.49206637,40.5689983 L2.49206637,0.240507432 L11.3959585,0.240507432 L11.3959585,0.240507432 Z" id="path26"></path>
                    </g>
                    <g id="g28" transform="translate(28.074525, 29.354700)">
                        <path d="M49.8950577,15.2978078 L1.93429381,15.2978078 L26.5479267,0.42472589 L49.8950577,15.2978078 L49.8950577,15.2978078 Z" id="path30"></path>
                    </g>
                    <g id="g32" transform="translate(2.488628, 29.354700)">
                        <path d="M21.9987542,15.2978078 L1.45839613,15.2978078 L1.45839613,0.271210508 L46.8708047,0.271210508 L21.9987542,15.2978078 L21.9987542,15.2978078 Z" id="path34"></path>
                    </g>
                    <g id="g36" transform="translate(58.777602, 29.354700)">
                        <path d="M0.926209471,0.271210508 L45.166784,0.271210508 L45.166784,15.2978078 L24.5036136,15.2978078 L0.926209471,0.271210508 L0.926209471,0.271210508 Z" id="path38"></path>
                    </g>
                    <g id="g40" transform="translate(10.164397, 1.210213)">
                        <path d="M87.4525959,25.5705455 L0.112577947,25.5705455 C8.66338472,10.4185773 25.0153315,0.176542689 43.7825869,0.176542689 C62.5421666,0.176542689 78.8941134,10.4185773 87.4525959,25.5705455 L87.4525959,25.5705455 Z" id="path42"></path>
                    </g>
                    <g id="g44" transform="translate(2.488628, 47.264828)">
                        <path d="M15.7046236,38.1869513 L15.2082572,39.6939606 L16.5105793,38.762634 L17.8180187,39.6939606 L17.3165351,38.1869513 L18.6239744,37.2556246 L17.0095043,37.2556246 L16.5131379,35.7537325 L16.0167715,37.2556246 L14.4074186,37.2556246 L15.7046236,38.1869513 L15.7046236,38.1869513 Z M8.58918562,28.8711262 L8.08770204,30.3781355 L9.3900242,29.4493674 L10.6974635,30.3781355 L10.2010971,28.8711262 L11.5034193,27.9397995 L9.89406637,27.9397995 L9.39258279,26.4327902 L8.89621639,27.9397995 L7.28686347,27.9397995 L8.58918562,28.8711262 L8.58918562,28.8711262 Z M3.69204494,17.5007535 L3.19056136,19.0026457 L4.49288351,18.0713191 L5.80032285,19.0026457 L5.30395645,17.5007535 L6.60627861,16.5668683 L4.99692568,16.5668683 L4.4954421,15.0649762 L3.9990757,16.5668683 L2.38972278,16.5668683 L3.69204494,17.5007535 L3.69204494,17.5007535 Z M21.1313923,40.5689983 L1.45583754,40.5689983 L1.45583754,4.55684826 L2.11339509,5.02507017 L1.61191151,6.5320795 L2.91423367,5.59819426 L4.221673,6.5320795 L3.7253066,5.02507017 L5.02762876,4.09374352 L3.41827584,4.09374352 L2.91679226,2.58673419 L2.42042586,4.09374352 L1.45839613,4.09374352 L1.45839613,0.237948842 L21.1339509,0.237948842 L21.1339509,40.5689983 L21.1313923,40.5689983 Z" id="path46"></path>
                    </g>
                    <g id="g48" transform="translate(2.488628, 88.202263)">
                        <path d="M21.1313923,2.48183201 L21.1313923,13.1844127 L1.45583754,13.1844127 L1.45583754,2.48183201 L21.1313923,2.48183201 L21.1313923,2.48183201 Z" id="path50"></path>
                    </g>
                    <g id="g52" transform="translate(84.363499, 88.202263)">
                        <path d="M0.181659869,2.48183201 L19.580887,2.48183201 L19.580887,13.1844127 L0.181659869,13.1844127 L0.181659869,2.48183201 L0.181659869,2.48183201 Z" id="path54"></path>
                    </g>
                    <g id="g56" transform="translate(25.515935, 88.202263)">
                        <path d="M41.7792112,10.1038707 L43.0866505,9.17254407 L41.4721804,9.17254407 L40.975814,7.66553474 L40.4794476,9.17254407 L38.8700947,9.17254407 L40.1724169,10.1038707 L39.6760505,11.6108801 L40.9783726,10.682112 L42.285812,11.6108801 L41.7792112,10.1038707 L41.7792112,10.1038707 Z M53.3056578,5.54190529 L54.6130971,4.61057864 L53.0037442,4.61057864 L52.5073778,3.10356931 L52.0058942,4.61057864 L50.3965413,4.61057864 L51.6988635,5.54190529 L51.2024971,7.04891462 L52.5099364,6.12014656 L53.8122586,7.04891462 L53.3056578,5.54190529 L53.3056578,5.54190529 Z M15.0803277,10.1038707 L14.5788441,11.6108801 L15.8862834,10.682112 L17.1886056,11.6108801 L16.6922392,10.1038707 L17.9945614,9.17254407 L16.3852084,9.17254407 L15.888842,7.66553474 L15.3924756,9.17254407 L13.7780055,9.17254407 L15.0803277,10.1038707 L15.0803277,10.1038707 Z M3.55643968,5.54190529 L3.0549561,7.04891462 L4.35727826,6.12014656 L5.6647176,7.04891462 L5.16835119,5.54190529 L6.47067335,4.61057864 L4.86132043,4.61057864 L4.35983685,3.10356931 L3.86347045,4.61057864 L2.25411753,4.61057864 L3.55643968,5.54190529 L3.55643968,5.54190529 Z M56.1533681,2.48183201 L56.1533681,13.1844127 L29.7563982,13.1844127 L29.3009692,11.8053329 L30.6032914,10.8765648 L28.9939385,10.8765648 L28.4975721,9.36955548 L27.9960885,10.8765648 L26.3867356,10.8765648 L27.6941749,11.8053329 L27.2336288,13.1844127 L0.979939855,13.1844127 L0.979939855,2.48183201 L56.1533681,2.48183201 L56.1533681,2.48183201 Z M29.6233515,13.1844127 L27.3641168,13.1844127 L28.4950135,12.378457 L29.6233515,13.1844127 L29.6233515,13.1844127 Z" id="path58"></path>
                    </g>
                    <g id="g60" transform="translate(84.363499, 47.264828)">
                        <path d="M5.33465952,38.1869513 L6.63698168,37.2556246 L5.02762876,37.2556246 L4.53126236,35.7537325 L4.03233737,37.2556246 L2.41786727,37.2556246 L3.7253066,38.1869513 L3.2289402,39.6939606 L4.53126236,38.762634 L5.83358452,39.6939606 L5.33465952,38.1869513 L5.33465952,38.1869513 Z M12.4526561,28.8711262 L13.7600954,27.9397995 L12.1507425,27.9397995 L11.6543761,26.4327902 L11.1528925,27.9397995 L9.54353958,27.9397995 L10.8458617,28.8711262 L10.3494953,30.3781355 L11.6569347,29.4493674 L12.9592568,30.3781355 L12.4526561,28.8711262 L12.4526561,28.8711262 Z M17.3472382,17.5007535 L18.6546775,16.5668683 L17.0453246,16.5668683 L16.5489582,15.0649762 L16.0474746,16.5668683 L14.4381217,16.5668683 L15.7378852,17.5007535 L15.2415188,19.0026457 L16.5489582,18.0713191 L17.8512803,19.0026457 L17.3472382,17.5007535 L17.3472382,17.5007535 Z M19.5834456,40.5689983 L0.184218458,40.5689983 L0.184218458,0.240507432 L19.5834456,0.240507432 L19.5834456,4.09630211 L18.6214158,4.09630211 L18.1224908,2.58929278 L17.6210073,4.09630211 L16.0116543,4.09630211 L17.3139765,5.02762876 L16.8150515,6.53463809 L18.1224908,5.60075285 L19.424813,6.53463809 L18.9233294,5.02762876 L19.580887,4.55940685 L19.580887,40.5689983 L19.5834456,40.5689983 Z" id="path62"></path>
                    </g>
                </g>
            </g>
        </g>
    </g>
</svg>