<?xml version="1.0" encoding="UTF-8" standalone="no"?>
<!-- Created with Inkscape (http://www.inkscape.org/) -->

<svg
   xmlns:dc="http://purl.org/dc/elements/1.1/"
   xmlns:cc="http://creativecommons.org/ns#"
   xmlns:rdf="http://www.w3.org/1999/02/22-rdf-syntax-ns#"
   xmlns:svg="http://www.w3.org/2000/svg"
   xmlns="http://www.w3.org/2000/svg"
   xmlns:sodipodi="http://sodipodi.sourceforge.net/DTD/sodipodi-0.dtd"
   xmlns:inkscape="http://www.inkscape.org/namespaces/inkscape"
   width="306.60831"
   height="487.0383"
   id="svg3939"
   version="1.1"
   inkscape:version="0.48.5 r10040"
   sodipodi:docname="wisconsin.svg">
  <defs
     id="defs3941" />
  <sodipodi:namedview
     id="base"
     pagecolor="#ffffff"
     bordercolor="#666666"
     borderopacity="1.0"
     inkscape:pageopacity="0.0"
     inkscape:pageshadow="2"
     inkscape:zoom="0.35"
     inkscape:cx="-167.74378"
     inkscape:cy="290.37526"
     inkscape:document-units="px"
     inkscape:current-layer="g4033"
     showgrid="false"
     fit-margin-top="0"
     fit-margin-left="0"
     fit-margin-right="0"
     fit-margin-bottom="0"
     inkscape:window-width="1471"
     inkscape:window-height="877"
     inkscape:window-x="95"
     inkscape:window-y="0"
     inkscape:window-maximized="0" />
  <metadata
     id="metadata3944">
    <rdf:RDF>
      <cc:Work
         rdf:about="">
        <dc:format>image/svg+xml</dc:format>
        <dc:type
           rdf:resource="http://purl.org/dc/dcmitype/StillImage" />
        <dc:title />
      </cc:Work>
    </rdf:RDF>
  </metadata>
  <g
     inkscape:label="Layer 1"
     inkscape:groupmode="layer"
     id="layer1"
     transform="translate(-157.02949,-547.13918)">
    <g
       id="g4033"
       transform="translate(-1288.5714,31.428571)">
      <path
         style="fill:#010101"
         d="m 1598.1532,1002.582 c -0.319,-0.083 -0.4954,-0.2882 -0.392,-0.4556 0.1034,-0.1674 0.032,-0.3043 -0.1596,-0.3043 -0.5608,0 -2.9474,-2.29792 -4.8119,-4.6329 l -1.7278,-2.16399 -3.5711,-0.92386 c -25.2214,-6.52453 -50.0728,-23.31357 -70.2959,-47.49008 -12.2687,-14.66727 -21.5099,-29.08565 -31.4977,-49.14385 -14.7389,-29.59982 -25.4011,-61.47809 -32.2607,-96.45399 -3.5172,-17.9341 -6.1087,-38.48326 -6.8498,-54.31711 -0.1314,-2.80638 -0.3284,-4.6581 -0.4378,-4.11493 -0.1095,0.54317 -0.3145,-3.04474 -0.4554,-7.97315 -0.2633,-9.19717 0.078,-27.04275 0.4831,-25.2755 0.1597,0.69703 0.2379,0.29304 0.2653,-1.37319 0.167,-10.12079 2.7734,-31.54995 5.4879,-45.11948 9.1133,-45.55698 27.4218,-78.50388 53.2207,-95.77277 4.7205,-3.15973 13.1018,-7.28561 18.1973,-8.95801 6.5951,-2.16459 14.6714,-3.64269 19.9772,-3.65617 1.3914,-0.004 2.8777,-0.1387 3.3029,-0.30037 0.5246,-0.19946 1.2245,-1.20476 2.1772,-3.12746 3.1842,-6.42592 9.5728,-10.73972 19.0902,-12.89023 1.8855,-0.42607 3.5013,-0.8477 3.5906,-0.93696 0.089,-0.0893 0.6486,-1.28097 1.2429,-2.64823 1.8089,-4.16104 4.0136,-7.38319 7.2214,-10.55367 4.0851,-4.03782 7.9784,-6.23103 12.8107,-7.21673 1.1092,-0.22627 1.7958,-0.48628 1.5257,-0.57782 -0.2702,-0.0915 0.7245,-0.27357 2.2103,-0.40453 2.6593,-0.23439 7.5394,0.043 7.1746,0.40788 -0.1027,0.10273 0.9337,0.45117 2.3032,0.77431 8.1937,1.93344 15.758,8.89527 19.3992,17.85418 0.911,2.24142 1.3912,2.82428 2.3267,2.82428 1.8927,0 7.5173,1.7823 10.9852,3.48098 3.2232,1.57881 4.1162,2.20509 6.4515,4.52513 2.1316,2.11753 3.007,3.29043 4.0983,5.49087 0.7633,1.53898 1.6376,2.89884 1.9429,3.02191 0.3054,0.12307 1.8143,0.23485 3.3533,0.24841 8.554,0.0754 20.0927,3.01416 29.1338,7.42013 26.3255,12.82905 46.1027,40.78945 57.7525,81.64862 5.4781,19.21338 9.2676,43.58049 10.1365,65.18053 0.1469,3.65161 0.3182,5.42019 0.4465,4.60873 0.1145,-0.72423 0.2081,4.97906 0.2081,12.67399 0,7.69492 -0.094,13.39822 -0.2081,12.67398 -0.1279,-0.80889 -0.2985,0.96869 -0.4424,4.60873 -0.5792,14.65451 -2.5078,32.24331 -5.3422,48.7208 -6.8678,39.92619 -20.0052,79.52697 -37.1311,111.92615 -15.7406,29.77855 -34.2368,52.70582 -55.5411,68.84716 -12.7104,9.63006 -27.3226,16.97778 -41.8077,21.02283 -2.4443,0.6826 -4.6108,1.33216 -4.8144,1.44362 -0.2036,0.11139 -1.2722,1.34158 -2.3747,2.73381 -1.1025,1.39223 -2.5628,2.91065 -3.2451,3.37425 -0.6822,0.4636 -1.095,0.8533 -0.9172,0.8661 0.4155,0.03 -0.8848,0.5939 -1.3226,0.5739 -0.1811,-0.01 -0.5902,-0.083 -0.9094,-0.1664 z m 3.1286,-5.64695 c 3.7182,-4.11556 7.4578,-11.60724 8.6524,-17.33357 0.6109,-2.92831 0.7929,-8.2199 0.3817,-11.0937 -0.3441,-2.40394 -1.2895,-3.78592 -3.494,-5.10735 -4.8869,-2.92921 -12.8991,-2.54411 -16.8154,0.80809 -1.8724,1.60274 -2.3181,2.83045 -2.5376,6.99158 -0.4192,7.94607 1.8725,15.31976 7.161,23.04124 2.3066,3.36767 2.9745,3.95967 4.4676,3.95967 0.7894,0 1.3168,-0.30571 2.1843,-1.26596 z m -13.4175,-7.94237 c 0.1088,-0.17597 -0.321,-1.84251 -0.955,-3.70342 -1.2683,-3.722 -2.1667,-8.27338 -2.1667,-10.97655 0,-2.64472 -0.3255,-3.18606 -2.3486,-3.90601 -5.4755,-1.94851 -13.9115,-6.25641 -20.1339,-10.28148 -1.7736,-1.14732 -3.4203,-2.08599 -3.6593,-2.08599 -0.5622,0 -3.6216,2.95846 -5.4059,5.22768 -2.0437,2.5989 -4.0639,6.2064 -3.9444,7.04332 0.2601,1.82116 15.2834,10.59547 24.9899,14.59544 4.1061,1.69207 11.984,4.38445 12.8695,4.39836 0.3061,0.006 0.6456,-0.13532 0.7544,-0.31135 z m 26.129,-0.54224 c 7.4921,-2.27011 17.7506,-6.86616 25.0664,-11.23029 5.1219,-3.05541 9.8732,-6.28158 10.0924,-6.8529 0.1999,-0.52084 -1.3131,-3.38086 -3.1258,-5.90872 -1.9159,-2.67187 -5.6816,-6.4193 -6.4505,-6.4193 -0.3793,0 -1.4536,0.5146 -2.3876,1.1436 -5.5372,3.72902 -14.0098,8.22613 -19.8553,10.53911 -1.7201,0.68056 -3.2913,1.36772 -3.4917,1.52702 -0.2005,0.1593 -0.4668,1.64675 -0.592,3.30549 -0.3053,4.04295 -0.9445,7.23555 -2.1539,10.75801 -1.5604,4.54466 -1.6006,4.50108 2.898,3.13798 z m -65.124,-21.11145 c 1.5077,-2.69406 3.9301,-5.88096 6.0594,-7.97168 1.0078,-0.98969 1.8323,-2.04563 1.8323,-2.34661 0,-0.305 -1.3476,-1.5648 -3.045,-2.84629 -7.3456,-5.54617 -18.3029,-16.13043 -24.9787,-24.12831 -9.061,-10.85538 -18.8906,-25.62865 -25.508,-38.33715 -1.3642,-2.61983 -2.7363,-5.07946 -3.0491,-5.46576 l -0.5688,-0.70238 -2.6164,0.70801 c -1.4389,0.38942 -4.2829,1.51959 -6.3197,2.5115 -3.2522,1.58374 -3.7035,1.9039 -3.7035,2.62769 0,0.93118 2.0132,5.05764 6.1551,12.61605 8.0646,14.71696 16.5132,27.25075 26.2161,38.89221 4.4625,5.35437 15.2986,16.36906 19.8062,20.13285 4.4393,3.70684 7.7519,6.20274 8.2324,6.20274 0.2356,0 0.9051,-0.85179 1.4877,-1.89287 z m 106.2721,-1.31675 c 18.8588,-15.12191 35.2194,-35.57851 49.8582,-62.34063 3.9035,-7.13625 5.8245,-11.02457 5.8245,-11.78937 0,-1.14791 -6.6104,-4.54568 -10.9708,-5.63904 -1.3109,-0.32874 -1.6655,-0.31848 -2.0274,0.0588 -0.2412,0.25127 -1.66,2.75306 -3.153,5.55941 -13.9119,26.1514 -31.0979,47.40009 -50.4284,62.3492 -1.5842,1.22521 -2.8804,2.38242 -2.8804,2.57175 0,0.18929 0.9508,1.35201 2.1129,2.58392 2.4959,2.64574 4.3088,5.04488 5.7736,7.64043 0.7032,1.24589 1.274,1.88622 1.6816,1.88622 0.3392,0 2.2334,-1.29619 4.2092,-2.88041 z m -70.2601,1.48133 c 1.07,-3.73232 2.712,-5.72081 5.9069,-7.15382 5.33,-2.39069 11.1674,-2.39476 16.2722,-0.0114 3.3376,1.55832 5.1949,3.63681 5.8143,6.50678 0.185,0.85695 0.3933,1.06986 1.0464,1.06986 2.7443,0 20.8627,-9.38035 20.8567,-10.798 0,-0.30758 -0.904,-1.29991 -2.0059,-2.20519 -2.9152,-2.39476 -8.7021,-8.46578 -11.0653,-11.60849 -2.4811,-3.29962 -4.4424,-6.60996 -5.8858,-9.93421 -0.5942,-1.36868 -1.3041,-2.53488 -1.5776,-2.5916 -0.2735,-0.057 -1.9262,0.73782 -3.6727,1.7657 -3.9302,2.31304 -10.6104,5.49274 -11.5451,5.49544 -0.8535,0.006 -8.6713,-3.73333 -11.7902,-5.634 -1.2544,-0.76444 -2.5633,-1.34595 -2.9085,-1.29235 -0.4255,0.0661 -0.9331,0.81486 -1.5751,2.32353 -1.3401,3.14919 -3.2803,6.36726 -6.0775,10.08051 -2.5054,3.326 -8.3882,9.43204 -11.2958,11.72469 -1.7166,1.35344 -2.1748,1.97375 -1.8484,2.50196 0.3338,0.5399 6.7883,4.24734 10.8431,6.22816 7.159,3.4973 10.223,4.52728 10.5083,3.53237 z m -20.5172,-13.12789 c 7.2621,-6.01124 13.4497,-13.6019 16.786,-20.59229 1.9207,-4.02424 1.9103,-4.05524 -2.4396,-7.25455 -13.9699,-10.27465 -29.7104,-28.8207 -42.0574,-49.55376 -1.4799,-2.48505 -2.2907,-3.53884 -2.7227,-3.53884 -0.3385,0 -1.3026,0.57336 -2.1424,1.27419 -1.9798,1.6519 -6.5877,4.63303 -9.0986,5.88647 -3.5248,1.75959 -9.4492,3.97885 -13.8134,5.17462 -2.3466,0.64296 -4.4187,1.32107 -4.6045,1.50687 -0.3907,0.39061 0.1788,1.54279 4.654,9.4156 12.4531,21.90766 26.9918,39.73946 42.8976,52.61433 4.4216,3.57902 9.2272,7.07078 9.7429,7.07912 0.1984,0.006 1.4576,-0.9021 2.7981,-2.01176 z m 75.8478,-0.44589 c 18.9339,-13.55472 36.4652,-34.60711 51.3012,-61.60515 2.4596,-4.47589 2.6459,-5.28206 1.2876,-5.57243 -3.4124,-0.72966 -9.7525,-2.7416 -13.2814,-4.21484 -5.0789,-2.12016 -8.2572,-3.90936 -12.1869,-6.86022 -1.6411,-1.23251 -3.1559,-2.23971 -3.3659,-2.23821 -0.21,0 -1.4796,1.81624 -2.8213,4.03263 -5.8287,9.62875 -13.1441,19.93782 -19.7954,27.89654 -6.4327,7.69709 -15.8797,16.73556 -22.9836,21.98975 -2.3394,1.73026 -2.4169,1.83159 -2.239,2.92776 0.4304,2.65234 4.187,9.17237 8.0245,13.92747 3.8805,4.80835 11.3646,11.85958 12.5716,11.84435 0.2892,-0.006 1.8591,-0.96109 3.4886,-2.12765 z m -62.6001,-60.33037 c 0.083,-0.1358 4.4985,-28.72585 9.8129,-63.53349 5.3145,-34.80761 9.7415,-63.28706 9.8376,-63.28766 0.096,-4.8e-4 5.6382,28.10802 12.3153,62.46359 6.6773,34.35555 12.2718,62.94614 12.4323,63.53455 l 0.2919,1.06991 2.9069,0 c 1.9302,0 3.0178,-0.13826 3.2368,-0.41153 0.1814,-0.22628 9.4635,-41.74187 20.6269,-92.25676 13.5393,-61.26639 20.4916,-92.11252 20.8816,-92.64794 1.1245,-1.54421 2.1614,-2.046 4.6948,-2.27213 l 2.4329,-0.21717 0,-5.5963 0,-5.59632 -15.966,0 -15.9659,0 0,5.59632 0,5.5963 2.3536,-0.11233 c 4.395,-0.20976 6.3621,1.37041 6.3759,5.12198 0.01,1.80621 -24.0537,106.55454 -24.3877,106.17361 -0.1181,-0.13457 -6.6425,-31.05588 -14.4988,-68.71401 -10.6068,-50.84221 -14.4325,-68.61845 -14.8604,-69.04856 -0.896,-0.90102 -5.2518,-0.75058 -5.6136,0.19389 -0.08,0.20848 -4.8605,30.78429 -10.6235,67.94624 -5.7631,37.16195 -10.5596,67.56674 -10.6587,67.5662 -0.099,-4.8e-4 -5.5692,-23.10425 -12.1555,-51.34157 -12.6903,-54.40649 -12.4574,-53.24761 -11.2108,-55.78068 0.8252,-1.67668 2.0448,-2.31448 4.4455,-2.32478 1.5362,-0.007 2.2279,-0.14849 2.4521,-0.50297 0.4238,-0.67003 0.408,-9.10063 -0.019,-9.89748 -0.3303,-0.6172 -0.8747,-0.63675 -17.7362,-0.63675 -14.4218,0 -17.4601,0.078 -17.7739,0.45608 -0.2574,0.31013 -0.3493,2.01767 -0.2872,5.3352 l 0.091,4.87909 2.0286,0.69814 c 2.6465,0.91078 3.523,1.51245 4.1444,2.8445 0.2809,0.602 10.1025,42.27678 21.8259,92.61063 11.7234,50.33386 21.4591,91.70129 21.635,91.92757 0.3525,0.45374 6.6672,0.60363 6.9344,0.16463 z m 136.587,-8.14759 c 17.2267,-37.57355 28.4419,-79.9878 32.5009,-122.91382 1.3404,-14.17611 1.4846,-17.71982 1.4757,-36.25175 -0.01,-19.78762 -0.3505,-26.83093 -1.3333,-27.54951 -0.8823,-0.6452 -6.9569,0.28215 -10.7533,1.64161 l -2.0565,0.73643 0.1646,6.41334 c 0.4944,19.26253 0.08,37.20471 -1.1735,50.8546 -3.909,42.55283 -15.5457,86.5772 -31.8318,120.4279 -1.726,3.58741 -2.2644,5.0134 -2.0321,5.38177 0.1739,0.27555 1.3511,0.83213 2.6161,1.23671 2.5144,0.80419 6.6665,2.70299 8.2255,3.76157 1.7578,1.19349 2.0595,0.92482 4.1977,-3.73885 z m -223.8932,1.99138 c 2.0591,-0.98688 4.7809,-2.07532 6.0483,-2.41874 1.7493,-0.47396 2.3272,-0.77661 2.3995,-1.2565 0.052,-0.34775 -0.9323,-2.77758 -2.188,-5.39969 -6.6102,-13.8024 -13.328,-31.83001 -18.2845,-49.06811 -7.2033,-25.05199 -11.6697,-49.91655 -13.8919,-77.33673 -0.6848,-8.44845 -0.9923,-35.48825 -0.4995,-43.91617 0.2666,-4.56087 0.2662,-6.3411 0,-6.66404 -1.1163,-1.345 -12.0911,-3.56604 -13.0218,-2.6353 -0.3997,0.39971 -0.6721,4.4101 -1.1236,16.54305 -0.8632,23.19494 0.8684,48.78995 4.9978,73.87145 4.9805,30.25143 13.4435,59.86557 24.742,86.57816 3.4727,8.21013 6.059,13.49698 6.6028,13.49698 0.2622,0 2.1616,-0.80743 4.2207,-1.79436 z m 17.1226,-2.62967 c 7.0615,-1.84023 14.3505,-4.8656 19.1041,-7.92941 3.4013,-2.19217 6.5268,-4.78437 6.5268,-5.41324 0,-0.29343 -0.8207,-2.00817 -1.8237,-3.8105 -1.003,-1.8024 -3.3768,-6.35083 -5.2752,-10.1078 -1.8984,-3.75695 -3.6452,-6.83078 -3.8818,-6.83078 -0.2366,0 -0.9042,0.73129 -1.4833,1.62517 -1.3339,2.05841 -2.6583,3.17629 -5.1493,4.34608 -4.9042,2.30297 -8.7114,1.89731 -11.7513,-1.25235 -1.531,-1.58626 -2.2402,-3.26604 -2.2309,-5.2844 0.019,-4.10033 3.6794,-7.82845 7.0633,-7.19363 1.6647,0.31231 3.5263,2.01823 3.3985,3.11441 -0.1368,1.17465 -1.0461,1.25506 -2.2963,0.20307 -0.7782,-0.6549 -1.2462,-0.81822 -1.8879,-0.65904 -2.838,0.70389 -3.8492,4.63646 -1.8621,7.24166 3.1995,4.1947 11.205,1.46083 12.9115,-4.40916 1.2337,-4.2435 -0.8405,-8.65968 -5.2016,-11.07528 -1.6404,-0.90859 -2.0033,-0.97649 -5.2195,-0.97649 -3.1786,0 -3.6154,0.0792 -5.4318,0.98455 -2.4412,1.2169 -5.4009,4.08787 -6.5482,6.35217 -3.167,6.24956 -2.6934,16.49639 1.3345,28.87466 1.8446,5.66907 4.184,11.41165 5.1293,12.59171 0.4608,0.57521 1.0634,0.52365 4.5749,-0.3914 z m 189.0994,-2.28576 c 1.85,-3.90517 4.7811,-12.71797 5.8713,-17.65223 1.4958,-6.7704 1.6908,-13.44374 0.52,-17.79174 -1.1377,-4.22492 -3.9397,-7.68719 -7.734,-9.55626 -1.9671,-0.969 -2.685,-1.14163 -5.1566,-1.2401 -2.5046,-0.0998 -3.0994,-0.01 -4.6566,0.70288 -2.2091,1.01139 -4.2621,2.83281 -5.4277,4.81568 -0.7653,1.3017 -0.8865,1.87056 -0.8826,4.14247 0.01,2.8834 0.3699,3.8647 2.2207,5.97257 1.3107,1.49278 4.5628,3.07964 6.3122,3.08 0.7123,1.8e-4 1.9289,-0.3065 2.7034,-0.68146 3.5571,-1.72193 3.9316,-6.86958 0.6179,-8.49294 -0.796,-0.38995 -1.0706,-0.37952 -2.0279,0.077 -0.6089,0.29042 -1.1072,0.68883 -1.1072,0.88543 0,0.19653 -0.3333,0.31003 -0.7407,0.25223 -1.0966,-0.15577 -1.1772,-1.67373 -0.1438,-2.70725 2.0456,-2.04552 5.1988,-1.83711 7.4602,0.49308 2.2939,2.36382 2.8718,5.50563 1.538,8.36361 -1.672,3.58297 -5.4031,5.53921 -9.2134,4.83059 -3.9913,-0.74231 -7.6697,-3.05787 -9.3137,-5.86333 -0.463,-0.78986 -1.0491,-1.43619 -1.3024,-1.43619 -0.2655,0 -1.5783,2.23222 -3.1006,5.27229 -1.452,2.89971 -3.823,7.42842 -5.2689,10.06373 -1.446,2.6353 -2.6291,5.06465 -2.6291,5.39854 0,1.35381 5.7695,5.49497 11.6864,8.38814 4.086,1.99785 7.9438,3.41815 13.0032,4.78713 5.3329,1.44289 5.0502,1.53067 6.7719,-2.10386 z m -205.2763,-29.04116 c 0,-4.21856 0.735,-7.63251 2.367,-10.99466 2.5601,-5.27441 6.8292,-8.35078 12.8386,-9.25161 2.3755,-0.35611 3.2894,-0.24925 7.7558,0.90677 0.5601,0.14497 0.7406,0.0505 0.7406,-0.38739 0,-0.3185 -0.9496,-3.4837 -2.1103,-7.03376 -7.8327,-23.957 -12.1093,-48.06208 -12.9769,-73.14392 l -0.2457,-7.10503 -1.0857,-1.69182 c -1.3999,-2.1816 -2.9682,-3.54058 -5.4284,-4.70412 -2.7621,-1.30626 -5.1282,-1.72533 -8.6034,-1.52374 -7.199,0.41759 -12.6942,3.93973 -15.743,10.09036 -1.5934,3.21465 -1.6288,3.82677 -0.7298,12.60765 3.2808,32.04081 9.8458,61.39626 20.1554,90.12484 2.3867,6.65067 3.0658,7.11731 3.0658,2.10643 z m -6.411,-29.50909 -0.9651,-2.87767 0.7033,-1.4476 c 1.0967,-2.25742 2.5767,-3.70656 5.0479,-4.94287 2.9371,-1.4694 5.4103,-1.96892 8.7027,-1.75772 3.8829,0.24907 4.2045,0.47455 5.5798,3.91074 0.6428,1.60581 1.1687,3.08036 1.1687,3.27679 0,0.19642 -0.6499,-0.31148 -1.4441,-1.12869 -1.6851,-1.73385 -3.0178,-2.06755 -7.0769,-1.77206 -3.2158,0.23411 -5.4886,0.99409 -7.46,2.49449 -2.3284,1.77215 -2.9211,2.73898 -3.1194,5.08848 l -0.1717,2.03378 -0.9652,-2.87767 z m -4.9375,-20.95105 c -0.3261,-1.42762 -0.4985,-2.97141 -0.3833,-3.43066 0.5656,-2.25349 4.0905,-5.27267 7.2877,-6.24225 0.7243,-0.21963 3.0204,-0.40068 5.1025,-0.40236 3.1316,-0.002 4.0134,0.11074 5.1026,0.65534 1.2169,0.60847 1.3962,0.88303 2.3652,3.62114 0.5767,1.62952 1.0581,3.18242 1.0699,3.45088 0.012,0.26849 -0.648,-0.27711 -1.4662,-1.21243 -1.3031,-1.48955 -1.7217,-1.74937 -3.3742,-2.09375 -3.0662,-0.63898 -7.2845,-0.21934 -9.729,0.96784 -3.4546,1.67774 -4.8317,3.29674 -4.8317,5.68034 0,0.88087 -0.1239,1.60159 -0.2753,1.60159 -0.1515,0 -0.5421,-1.16806 -0.8682,-2.59568 z m -3.9207,-18.19899 c -0.1147,-0.57364 -0.3035,-2.0641 -0.4195,-3.31212 l -0.2109,-2.26915 2.1067,-2.05117 c 1.5849,-1.54322 2.6365,-2.25153 4.2463,-2.86027 3.8774,-1.46617 11.9773,-0.99433 13.4529,0.78366 0.3656,0.44058 1.7691,6.50317 1.5551,6.71726 -0.072,0.0719 -0.6068,-0.5611 -1.1885,-1.40665 -1.3538,-1.96765 -2.6114,-2.48425 -6.5798,-2.70292 -3.6367,-0.20039 -6.1281,0.35319 -8.5642,1.90291 -2.2231,1.41419 -3.1573,2.58331 -3.6062,4.51317 -0.2212,0.95055 -0.4428,1.72827 -0.4927,1.72827 -0.05,0 -0.1845,-0.46934 -0.2992,-1.04299 z m -2.2721,-19.86086 c -0.1143,-0.72424 -0.2993,-2.21413 -0.4111,-3.31088 l -0.2032,-1.99409 1.5278,-1.69929 c 2.8811,-3.20444 7.707,-4.72358 12.7598,-4.01669 3.0333,0.42434 5.2771,1.16071 6.0123,1.97302 0.5575,0.61603 1.9395,6.91484 1.5144,6.9021 -0.1112,-0.003 -0.6465,-0.70382 -1.1897,-1.55663 -1.4557,-2.28547 -3.0947,-2.84495 -8.3945,-2.86549 -3.9477,-0.0153 -4.2018,0.0258 -6.2546,1.01212 -2.264,1.08773 -4.2626,2.80655 -4.3049,3.70202 -0.014,0.29536 -0.2104,1.12957 -0.4368,1.85381 l -0.4116,1.31677 -0.2079,-1.31677 z m 234.8102,89.86918 c 1.1041,-2.57583 5.5606,-15.87238 7.5798,-22.61547 6.8123,-22.75015 12.137,-50.85428 14.1797,-74.84215 0.4568,-5.36376 0.3473,-6.21197 -1.2012,-9.3072 -3.4544,-6.90482 -12.4879,-10.95067 -20.6249,-9.23717 -3.9411,0.82997 -7.7623,3.5519 -9.2901,6.61767 -0.742,1.48912 -0.8492,2.11945 -0.8519,5.01291 -0.012,11.84349 -2.0576,30.48202 -4.9712,45.28191 -2.1471,10.90637 -6.2847,26.35376 -9.1947,34.32723 -1.2154,3.33042 -1.2732,4.33982 -0.2333,4.08083 0.4075,-0.10145 1.7037,-0.42699 2.8805,-0.7234 4.6553,-1.17253 10.6753,0.69568 14.4702,4.49049 3.5032,3.50323 5.2117,8.00076 5.519,14.52864 0.2055,4.36696 0.6357,4.9574 1.7381,2.38571 z m 3.6207,-30.12068 0,-2.10715 -1.916,-1.86322 c -2.3384,-2.27402 -4.658,-3.23327 -8.4694,-3.50223 -4.2116,-0.29722 -5.4748,0.009 -7.1099,1.72496 -0.7641,0.8017 -1.4405,1.4064 -1.5032,1.34378 -0.1855,-0.18556 1.9612,-5.58861 2.4548,-6.17838 1.5233,-1.82009 9.0708,-1.58754 12.9657,0.3995 2.01,1.02546 4.2445,3.23767 5.0771,5.02654 l 0.7411,1.59198 -0.8337,2.52295 c -1.1119,3.36531 -1.4065,3.58335 -1.4065,1.04127 z m 5.1488,-19.82061 c -0.111,-0.41456 -0.2039,-1.22383 -0.2064,-1.79836 -0.01,-1.28435 -1.1019,-2.64966 -3.2182,-4.00772 -2.8593,-1.83479 -7.2806,-2.48839 -11.337,-1.67595 -1.4837,0.29718 -1.977,0.60469 -3.301,2.05746 l -1.5566,1.70808 0.6421,-2.13977 c 1.3155,-4.38354 1.5681,-4.83297 3.0632,-5.45038 2.9423,-1.215 8.4609,-0.96913 11.9655,0.53311 1.7849,0.76511 4.2586,3.02833 5.0889,4.656 0.6335,1.2417 0.6332,1.26704 -0.056,3.96513 -0.3812,1.49348 -0.7359,2.75834 -0.7881,2.81079 -0.052,0.0525 -0.1858,-0.24383 -0.2969,-0.65839 z m 4.2277,-20.40094 c -0.1295,-0.78169 -0.3786,-1.69342 -0.5534,-2.02607 -0.5698,-1.08396 -2.3606,-2.50235 -4.5366,-3.59315 -2.0624,-1.03383 -2.2636,-1.06845 -6.0901,-1.04806 -5.4859,0.0292 -6.5615,0.51076 -8.4031,3.76191 -0.5894,1.04056 -0.5357,0.0444 0.1644,-3.05289 0.4898,-2.16664 0.9322,-3.37199 1.3525,-3.68411 2.2363,-1.66106 9.369,-1.95828 13.0195,-0.54251 2.45,0.95011 4.6813,2.68828 5.6613,4.40991 0.76,1.33532 0.7769,1.4986 0.4206,4.08144 -0.2041,1.47977 -0.4676,2.78595 -0.5854,2.90264 -0.1178,0.11668 -0.3201,-0.42741 -0.4497,-1.20911 z m 2.8401,-18.37477 c -0.033,-0.0905 -0.3878,-1.1275 -0.7887,-2.30437 -0.6746,-1.97991 -0.8822,-2.24243 -2.7791,-3.51395 -2.5953,-1.73974 -4.8052,-2.22766 -8.978,-1.98223 -4.4695,0.26288 -6.0113,0.88119 -7.4226,2.97682 -0.625,0.92818 -1.1364,1.4789 -1.1364,1.22385 0,-1.05605 1.0774,-6.14161 1.3793,-6.51043 0.5296,-0.64713 3.7626,-1.72532 6.2172,-2.07344 2.9954,-0.42483 6.4487,0.0688 9.08,1.29807 2.1836,1.02006 4.6086,3.24524 4.9294,4.52308 0.1661,0.66175 -0.3218,6.85674 -0.5011,6.3626 z m -254.1648,-24.45156 c 7.5666,-7.37078 19.7333,-8.40153 27.242,-2.30789 1.9482,1.58103 2.3754,1.31889 2.377,-1.45866 0,-3.40247 0.5962,-10.84154 1.3451,-16.84297 0.3701,-2.96622 0.552,-5.49854 0.404,-5.62739 -0.148,-0.12884 -1.8986,-0.41252 -3.8901,-0.6304 -9.1349,-0.99934 -20.9699,-4.30186 -27.7762,-7.75086 -2.3485,-1.19009 -2.9159,-1.12147 -3.2309,0.39079 -0.332,1.59325 -0.3422,34.52328 -0.011,35.71761 0.138,0.49791 0.4377,0.90529 0.666,0.90529 0.2283,0 1.5216,-1.07799 2.8741,-2.39552 z m 261.123,0.22916 c 0.3157,-2.49956 0.3106,-30.18005 -0.01,-33.22206 -0.2282,-2.19169 -0.2802,-2.30214 -1.0629,-2.25897 -0.4527,0.0249 -2.7488,0.86727 -5.1026,1.87179 -7.3009,3.11592 -15.6664,5.33411 -24.1957,6.41573 l -4.4441,0.56356 0.037,1.47727 c 0.021,0.8125 0.2816,3.47712 0.5806,5.92139 0.2991,2.44427 0.7196,7.44391 0.9345,11.11031 0.3085,5.26108 0.4867,6.6662 0.8454,6.6662 0.2499,0 1.0719,-0.50098 1.8266,-1.11329 3.1675,-2.56987 7.1635,-3.91878 11.569,-3.90535 6.0661,0.0185 11.2505,2.07168 15.532,6.15102 1.4201,1.35305 2.7301,2.41753 2.9111,2.36553 0.1811,-0.052 0.44,-0.97141 0.5754,-2.04313 z m -229.1806,-28.77793 c 0.1391,-0.27159 0.7137,-2.89017 1.2768,-5.81908 3.4078,-17.72164 10.1567,-34.21137 18.6162,-45.48586 2.9685,-3.95633 8.1246,-9.31118 11.4425,-11.88364 1.2221,-0.94757 2.2194,-1.96857 2.2162,-2.26889 -0.01,-0.34341 -1.6274,-1.54342 -4.3757,-3.2337 -14.9722,-9.20813 -26.4522,-20.01368 -32.454,-30.54718 -0.9242,-1.62192 -1.6803,-3.06626 -1.6803,-3.20965 0,-0.14339 -0.2887,-0.26071 -0.6417,-0.26071 -1.2378,0 -6.3251,8.03043 -10.8446,17.11812 -8.4948,17.08111 -14.0898,36.70788 -17.1736,60.24261 -0.852,6.50273 -1.5554,15.64724 -1.2477,16.22216 0.3939,0.73605 4.7764,2.77906 10.156,4.73448 9.7348,3.5385 23.8614,6.04901 24.7099,4.39134 z m 199.7017,0.15237 c 8.2706,-1.0773 18.5431,-4.03015 25.5996,-7.35867 l 3.5628,-1.68059 -0.2227,-3.37493 c -1.941,-29.41062 -10.1915,-59.47641 -21.9536,-80.00213 -2.8513,-4.97558 -6.642,-10.44476 -7.2393,-10.44476 -0.3986,0 -1.0291,0.82558 -1.9487,2.55126 -5.5486,10.41313 -17.0741,21.48273 -32.3143,31.03607 -2.7523,1.72525 -5.0575,3.29693 -5.1227,3.49261 -0.065,0.19569 1.4882,1.696 3.452,3.33404 13.2125,11.0207 22.7148,28.70273 28.1699,52.41889 0.6455,2.80639 1.3466,6.13948 1.558,7.40687 0.5895,3.53441 0.3124,3.42194 6.459,2.62134 z m -237.6727,-14.06084 c 0.174,-0.22632 0.636,-3.44831 1.0266,-7.15998 3.5404,-33.64448 12.949,-63.0452 26.7862,-83.7041 1.0634,-1.58776 2.0184,-3.10782 2.122,-3.37793 0.5702,-1.48593 -8.8851,-9.37948 -11.2226,-9.36892 -1.2443,0.005 -7.0988,9.63425 -11.845,19.48062 -3.5731,7.41287 -5.6557,12.62012 -8.5988,21.50104 -3.7543,11.32892 -7.1368,25.65648 -9.1969,38.9557 -0.9286,5.99548 -2.1004,16.06952 -2.2246,19.125 l -0.086,2.11762 3.7858,0.57695 c 2.0821,0.31732 4.8967,0.94227 6.2546,1.38876 3.0191,0.9927 2.8157,0.96311 3.1987,0.46524 z m 278.9211,-1.84727 3.7857,-0.56656 0.1081,-1.3032 c 0.2166,-2.6148 -1.8055,-18.30835 -3.6036,-27.96796 -2.8345,-15.2272 -6.7502,-29.23591 -11.6505,-41.67999 -3.5268,-8.95637 -9.6569,-20.83453 -14.3792,-27.86235 -1.1855,-1.76426 -1.7943,-2.38665 -2.3344,-2.38662 -1.9302,1.2e-4 -11.1003,7.42794 -11.1003,8.99137 0,0.3708 0.7195,1.72141 1.5988,3.00137 6.0743,8.84147 12.2605,21.56901 16.4813,33.90868 5.432,15.88045 9.1819,33.70544 11.0469,52.5094 0.2772,2.7963 0.6649,5.18353 0.8614,5.30497 0.1965,0.12143 1.4919,-0.13997 2.8786,-0.58088 1.3868,-0.44092 4.2251,-1.05662 6.3072,-1.36823 z m -77.6274,-53.76756 c 13.4632,-8.32511 24.4464,-18.30365 30.7768,-27.96159 1.143,-1.74385 2.5386,-4.15436 3.1012,-5.35668 l 1.0229,-2.18603 -1.4334,-1.87787 c -2.2249,-2.91454 -8.66,-9.42019 -11.9541,-12.08514 -9.5331,-7.71232 -19.4131,-11.8942 -30.7934,-13.03374 -4.6507,-0.4657 -8.2896,-0.18737 -11.486,0.87851 -4.6684,1.55672 -7.6579,4.21476 -9.9337,8.83235 -3.8433,7.79799 -2.7963,20.78713 2.3042,28.58757 3.1687,4.84598 6.6103,7.04025 10.5906,6.75234 5.5508,-0.40151 9.1833,-7.42939 9.1833,-17.7673 0,-6.97102 -2.0245,-12.26752 -5.5913,-14.62793 -2.5509,-1.68808 -5.9982,-0.49916 -7.8061,2.69215 -1.5007,2.64917 -1.7615,7.95659 -0.5855,11.91642 0.6796,2.2885 2.607,4.35589 4.0609,4.35589 0.8204,0 1.1865,-0.22868 1.7129,-1.06988 0.5629,-0.89963 0.6539,-1.51514 0.5713,-3.86803 -0.081,-2.3019 -0.2338,-2.98823 -0.8627,-3.86994 -0.9034,-1.2666 -0.8309,-2.17943 0.1848,-2.32444 2.0147,-0.28767 3.5734,3.58322 3.2824,8.15138 -0.5193,8.14981 -4.1632,11.43063 -7.9905,7.1943 -3.3753,-3.73612 -5.0841,-11.52905 -3.9557,-18.03956 0.9105,-5.25361 2.8315,-8.5428 5.8959,-10.09565 2.2821,-1.15642 4.2686,-1.15871 6.2335,-0.007 7.7526,4.54329 10.1971,23.29292 4.5578,34.95703 -1.5678,3.24267 -3.1777,5.13642 -5.2226,6.14346 -1.5117,0.7445 -1.8314,0.76961 -9.7926,0.76961 -5.3635,0 -9.0899,-0.15171 -10.6989,-0.4356 -9.5313,-1.68165 -16.9097,-5.29752 -21.1108,-10.34567 -2.0666,-2.48334 -4.01,-6.33902 -4.9652,-9.85132 -0.6447,-2.37016 -0.7456,-3.54044 -0.7474,-8.66572 0,-6.93923 0.4926,-10.14428 2.4894,-16.12123 1.5265,-4.5691 3.7919,-9.04269 6.4459,-12.72884 2.4453,-3.39622 7.5197,-8.28372 10.7321,-10.3369 2.9982,-1.9162 3.1461,-2.49792 0.9319,-3.66596 -1.1301,-0.59613 -1.9671,-0.76363 -3.7857,-0.75753 -2.7664,0.009 -4.9011,0.78617 -8.0958,2.94646 -4.6047,3.1136 -10.7914,10.65283 -12.4335,15.15142 -0.8992,2.46328 -1.604,2.4378 -2.5845,-0.0934 -2.3051,-5.9509 -9.6059,-13.84863 -15.5971,-16.87215 -2.1122,-1.06596 -5.7627,-1.46219 -7.6705,-0.83257 -1.2739,0.42043 -2.8638,1.53586 -2.8638,2.00921 0,0.16159 1.2962,1.14632 2.8805,2.18829 3.6427,2.39583 8.8772,7.61878 11.3551,11.32999 7.6042,11.38936 10.4403,27.38222 6.7936,38.31061 -1.4048,4.21002 -2.6495,6.2041 -5.8618,9.39077 -3.0395,3.01521 -5.6612,4.72117 -9.5837,6.23629 -6.5286,2.52179 -12.6191,3.41897 -22.0434,3.24716 -5.9614,-0.10869 -6.9212,-0.20233 -8.2299,-0.80287 -8.0451,-3.69203 -11.3115,-23.66445 -5.7584,-35.20992 1.3262,-2.75716 3.5985,-5.41467 5.334,-6.23821 3.4742,-1.64864 7.7352,0.40822 9.98,4.81761 4.2861,8.4188 1.0451,24.26427 -5.2192,25.51714 -0.9027,0.18053 -1.2101,0.0384 -2.3227,-1.07428 -3.3711,-3.37105 -3.8415,-12.97277 -0.7692,-15.69922 1.5967,-1.41687 2.675,0.27665 1.3324,2.09254 -0.6441,0.87119 -0.7572,1.42537 -0.7592,3.71842 0,3.40105 0.6412,4.83442 2.1726,4.83442 1.4735,0 2.7589,-1.08078 3.7885,-3.18514 0.7828,-1.59999 0.9256,-2.35421 1.0472,-5.53345 0.2178,-5.69002 -0.9611,-8.81873 -3.8782,-10.29239 -1.9371,-0.9786 -3.5573,-0.95176 -5.0839,0.0842 -3.7954,2.57564 -5.5737,7.31674 -5.5557,14.81185 0.013,5.15494 0.6667,8.63858 2.2261,11.851 1.941,3.99863 4.2857,5.76336 7.6499,5.7577 6.0213,-0.0102 11.7241,-6.94827 13.8013,-16.79089 0.7864,-3.72643 0.7951,-11.09951 0.017,-14.24923 -1.3581,-5.4958 -4.7523,-10.03552 -9.1813,-12.27988 -2.882,-1.46043 -5.3122,-1.91423 -10.1377,-1.89304 -13.4362,0.059 -25.9036,5.2667 -37.5598,15.68905 -3.9945,3.57169 -10.1741,10.60113 -10.1718,11.57064 0,0.95167 1.9213,4.57595 4.2817,8.08641 5.0659,7.53404 12.7793,15.07345 22.5508,22.04229 4.5823,3.26798 12.1039,7.90796 12.8198,7.90836 0.3544,2e-4 2.5764,-0.95087 4.9379,-2.11349 9.2675,-4.56266 17.2561,-6.33385 27.1726,-6.0245 6.4424,0.20096 9.1807,0.65824 19.3651,3.23375 10.0002,2.52898 10.2505,2.53023 19.7135,0.0987 3.9453,-1.01374 8.7286,-2.13088 10.6298,-2.48252 4.5804,-0.84726 13.1039,-1.15457 17.33,-0.62482 6.8321,0.85639 15.0237,3.4896 20.9522,6.73509 1.4923,0.8169 2.8705,1.3634 3.1663,1.25552 0.2881,-0.10508 2.4036,-1.35345 4.7012,-2.77416 z m -97.6687,-18.73658 c 7.7857,-0.95412 14.5429,-4.24618 18.1585,-8.84673 3.535,-4.49798 4.8086,-8.50276 4.8178,-15.14874 0.023,-16.55695 -9.4853,-32.17432 -23.5417,-38.6688 -7.3144,-3.37945 -15.4144,-4.69323 -25.1118,-4.07298 -18.5781,1.18826 -36.1031,10.08807 -50.2452,25.51633 -3.8301,4.17839 -7.8576,9.29528 -7.8576,9.98287 0,0.38057 0.9071,1.15498 2.5512,2.17801 1.4032,0.8731 3.8256,2.81423 5.3831,4.3136 1.5574,1.49937 3.062,2.72614 3.3436,2.72614 0.2815,0 1.149,-0.77772 1.9278,-1.72828 11.1474,-13.60574 23.8439,-21.94057 37.984,-24.93519 4.7142,-0.99837 12.7186,-1.26475 16.0088,-0.53275 6.5167,1.44982 11.5031,5.50782 14.6087,11.88867 3.6456,7.49018 4.0939,16.31245 1.282,25.22806 -1.0011,3.17425 -2.6828,6.67769 -4.2849,8.92664 -1.2406,1.74168 -1.3995,2.68089 -0.5383,3.18252 0.7483,0.43588 1.8967,0.43393 5.514,-0.009 z m 67.5563,0.16029 c 1.288,-0.34529 1.2183,-1.27494 -0.2586,-3.44973 -8.5403,-12.57617 -7.9366,-30.76909 1.3331,-40.16974 2.5492,-2.58515 5.0302,-4.09889 8.8945,-5.42673 2.538,-0.87208 12.2927,-0.87927 16.6244,-0.0122 8.7693,1.75524 17.3044,5.67625 24.9266,11.45112 3.4269,2.59636 9.4436,8.4273 12.6912,12.29939 1.3668,1.62951 2.6875,3.01142 2.9348,3.0709 0.2474,0.0595 1.6417,-1.01307 3.0984,-2.38346 2.2176,-2.0861 4.9249,-4.09266 8.077,-5.98635 0.8563,-0.51442 0.4356,-1.27596 -3.0899,-5.59294 -11.8668,-14.53134 -25.2102,-23.86884 -40.398,-28.2701 -9.5055,-2.75456 -21.3973,-3.33359 -30.0339,-1.46239 -16.3899,3.551 -27.9314,15.2262 -31.9506,32.32042 -0.7582,3.22493 -0.8694,4.40741 -0.8738,9.29151 -0.01,5.22135 0.055,5.77276 0.8856,8.22986 0.4898,1.44846 1.3262,3.38819 1.8586,4.31053 2.3263,4.02992 6.8704,7.73513 11.8082,9.62826 4.2536,1.63086 11.2482,2.74798 13.4724,2.1517 z m -34.2262,-56.53456 c 6.3894,-11.03171 15.1579,-17.00651 23.1441,-15.77036 2.683,0.41529 5.9215,1.84489 7.6833,3.39171 l 1.2501,1.09761 2.0262,-0.57156 c 1.1144,-0.31436 3.7298,-0.87849 5.812,-1.25362 2.0821,-0.37513 3.9844,-0.86805 4.2273,-1.09538 0.8066,-0.75519 -1.0617,-3.93693 -4.093,-6.97078 -2.2777,-2.27953 -3.2101,-2.94443 -6.1024,-4.35181 -4.0271,-1.95954 -6.5134,-2.61162 -10.9854,-2.88119 -5.5764,-0.33613 -10.3914,0.91791 -14.7706,3.84691 -3.9024,2.61006 -7.2565,6.74705 -9.1879,11.3324 -0.455,1.08006 -0.9607,2.00824 -1.1238,2.06261 -0.1631,0.0544 -0.558,-0.62811 -0.8775,-1.51662 -0.8582,-2.38646 -3.5301,-6.55225 -5.532,-8.62479 -2.9326,-3.03619 -6.7525,-5.30855 -10.8153,-6.43392 -3.1719,-0.87857 -10.1199,-0.79586 -13.656,0.16256 -3.5303,0.95683 -7.4869,2.96223 -10.1046,5.12138 -2.28,1.88066 -5.0662,5.67592 -5.403,7.35981 -0.2269,1.1345 -0.1907,1.15401 3.1628,1.7023 1.1768,0.19242 3.7183,0.74835 5.6478,1.23539 l 3.508,0.88554 1.3887,-1.25462 c 2.61,-2.35796 7.0323,-3.73266 10.7742,-3.34929 2.5213,0.25831 5.6828,1.36639 8.1773,2.8661 3.6624,2.20176 8.333,7.47694 11.6956,13.20965 1.7719,3.02056 2.3035,2.99497 4.1541,-0.20003 z m -0.5077,-18.2352 c 2.3686,-4.15835 5.6786,-7.28065 10.2388,-9.65836 2.983,-1.55532 3.1068,-2.01243 0.8826,-3.25779 -1.2554,-0.70293 -1.8986,-0.82739 -4.2759,-0.82739 -3.2753,0 -5.2365,0.77071 -7.2558,2.85144 l -1.2214,1.25863 -1.44,-1.43011 c -1.6865,-1.67499 -4.4924,-2.84455 -6.8243,-2.84455 -2.9914,0 -6.5748,1.594 -6.1108,2.71821 0.093,0.22502 1.3555,0.98415 2.8058,1.68696 3.3201,1.60898 7.22,5.18829 9.3965,8.62399 1.9012,3.00134 2.5148,3.1431 3.8045,0.87897 z m -17.9932,-13.59636 c 4.0169,-4.11844 8.9435,-5.20168 14.3692,-3.15944 2.1023,0.79131 2.1744,0.79623 3.4298,0.23416 5.2206,-2.33731 10.591,-1.37532 14.5775,2.61119 l 1.7363,1.73624 2.1625,-0.35834 c 1.1893,-0.19708 2.3088,-0.50472 2.4877,-0.68366 0.8206,-0.82061 -2.7399,-7.69592 -5.6778,-10.9639 -6.5018,-7.23224 -17.9498,-9.27851 -27.0105,-4.82801 -4.8955,2.40456 -10.0975,8.46976 -11.7547,13.70525 -0.6422,2.02837 -0.4966,2.27654 1.5732,2.68259 2.4626,0.48309 2.7504,0.4147 4.1068,-0.97608 z"
         id="path4035"
         inkscape:connector-curvature="0" />
    </g>
  </g>
</svg>
