<?xml version="1.0" standalone="no"?>
<!DOCTYPE svg PUBLIC "-//W3C//DTD SVG 20010904//EN"
 "http://www.w3.org/TR/2001/REC-SVG-20010904/DTD/svg10.dtd">
<svg version="1.0" xmlns="http://www.w3.org/2000/svg"
 width="651.000000pt" height="651.000000pt" viewBox="0 0 651.000000 651.000000"
 preserveAspectRatio="xMidYMid meet">
<metadata>
Created by potrace 1.14, written by Peter Selinger 2001-2017
</metadata>
<g transform="translate(0.000000,651.000000) scale(0.100000,-0.100000)"
fill="#000000" stroke="none">
<path d="M0 3255 l0 -3255 3255 0 3255 0 0 3255 0 3255 -3255 0 -3255 0 0
-3255z m2099 1170 c91 -24 163 -65 226 -129 158 -161 200 -392 106 -592 -35
-75 -138 -186 -209 -227 l-54 -30 56 -23 c287 -116 411 -470 264 -746 -56
-105 -167 -202 -287 -250 l-56 -23 -833 -3 -832 -3 2 258 3 258 123 3 122 3
-2 502 -3 502 -122 3 -123 3 0 254 0 255 783 0 c646 0 791 -3 836 -15z m1421
-745 l0 -760 120 0 120 0 0 -260 0 -260 -576 0 -576 0 6 23 c3 12 6 129 6 260
l0 237 120 0 120 0 -2 503 -3 502 -120 5 c-99 4 -120 8 -119 20 1 8 2 122 3
253 l1 237 450 0 450 0 0 -760z m1947 746 c132 -35 231 -107 305 -220 58 -89
78 -168 85 -323 l6 -133 -337 0 -336 0 0 64 c0 48 -5 70 -19 87 l-19 24 -304
3 c-297 3 -305 2 -331 -18 l-27 -21 0 -466 c0 -420 2 -468 17 -485 15 -17 39
-18 330 -18 300 0 314 1 333 20 18 18 20 33 20 160 l0 140 -90 0 -90 0 2 183
3 182 420 0 420 0 0 -390 c-1 -381 -1 -391 -24 -455 -32 -90 -67 -146 -131
-210 -63 -63 -150 -112 -235 -135 -87 -22 -1162 -22 -1248 0 -191 50 -343 206
-382 392 -12 54 -15 178 -15 614 0 301 4 568 9 595 27 140 103 258 216 336 38
25 78 49 89 52 12 3 44 12 71 20 71 21 1183 23 1262 2z m538 -1882 c29 -31 32
-71 10 -113 -16 -33 -33 -41 -81 -41 -50 0 -84 37 -84 90 0 56 34 90 90 90 31
0 47 -6 65 -26z m-5328 -516 c6 -18 33 -97 61 -175 50 -140 50 -143 28 -143
-18 0 -25 9 -37 48 l-15 47 -69 0 -69 0 -17 -45 c-11 -31 -23 -46 -38 -48 -20
-3 -20 -2 -5 40 9 24 31 88 51 143 53 151 60 165 81 165 12 0 22 -11 29 -32z
m373 17 c54 -28 82 -95 40 -95 -11 0 -20 5 -20 12 0 27 -43 58 -83 58 -74 0
-119 -80 -102 -182 10 -57 51 -98 100 -98 48 0 70 13 85 50 12 30 33 39 45 20
10 -16 -24 -70 -58 -90 -41 -25 -88 -25 -135 -1 -44 23 -55 39 -71 109 -14 56
-2 135 26 178 31 49 117 68 173 39z m305 -2 c12 -30 115 -325 115 -329 0 -2
-9 -4 -19 -4 -14 0 -24 13 -36 50 l-17 51 -71 -3 -71 -3 -15 -47 c-10 -34 -20
-48 -33 -48 -10 0 -18 3 -18 6 0 5 73 216 115 332 7 18 42 15 50 -5z m395 -11
c51 -25 75 -73 75 -152 0 -120 -54 -170 -182 -170 l-73 0 0 169 c0 153 2 170
18 175 30 8 125 -5 162 -22z m398 6 c3 -16 -6 -18 -82 -18 l-86 0 0 -55 0 -55
65 0 c58 0 65 -2 65 -20 0 -18 -7 -20 -65 -20 l-65 0 0 -65 0 -65 90 0 c73 0
90 -3 90 -15 0 -12 -19 -15 -110 -15 l-110 0 0 169 c0 126 3 171 13 175 6 2
52 4 102 3 77 -2 90 -5 93 -19z m170 10 c5 -7 31 -73 57 -145 27 -73 51 -133
54 -133 4 0 29 63 56 140 48 134 51 140 78 140 l27 0 0 -170 c0 -163 -1 -170
-20 -170 -19 0 -20 7 -20 133 l-1 132 -51 -133 c-67 -174 -73 -174 -138 -5
-25 68 -49 126 -53 130 -4 3 -7 -53 -7 -125 0 -111 -2 -132 -15 -132 -13 0
-15 25 -15 169 0 165 2 177 31 180 4 1 11 -5 17 -11z m462 -169 l0 -180 -22 3
c-23 3 -23 5 -26 168 -1 90 0 170 2 177 3 7 15 13 26 13 19 0 20 -6 20 -181z
m320 166 c28 -14 60 -60 60 -85 0 -22 -36 -8 -55 23 -17 27 -27 33 -64 35 -67
5 -111 -49 -111 -138 0 -85 44 -140 110 -140 37 0 70 25 83 63 8 21 37 23 37
2 0 -51 -65 -105 -125 -105 -42 0 -93 29 -116 67 -33 53 -37 149 -10 207 38
77 120 108 191 71z m473 -40 c10 -28 38 -105 62 -172 43 -121 43 -123 21 -123
-18 0 -25 9 -37 48 l-15 47 -70 3 -70 3 -15 -48 c-11 -36 -20 -49 -37 -51 -20
-3 -19 3 28 136 70 199 77 214 97 210 10 -2 25 -23 36 -53z m827 -126 l0 -180
-22 3 c-23 3 -23 5 -26 168 -1 90 0 170 2 177 3 7 15 13 26 13 19 0 20 -6 20
-181z m270 177 c0 -2 27 -81 60 -176 56 -160 58 -171 39 -168 -15 2 -26 17
-38 48 l-17 45 -69 0 -69 0 -17 -45 c-9 -25 -24 -46 -33 -48 -9 -2 -16 1 -16
6 0 11 107 319 116 333 5 9 44 13 44 5z m361 -143 l84 -126 3 131 c2 124 4
132 22 132 19 0 20 -8 20 -170 0 -222 -4 -223 -132 -32 l-93 137 -3 -137 c-2
-130 -4 -138 -22 -138 -19 0 -20 7 -20 169 0 153 2 170 18 173 25 6 32 -1 123
-139z m471 108 c30 -34 37 -71 13 -71 -8 0 -21 13 -29 29 -17 33 -34 41 -83
41 -73 0 -119 -94 -93 -191 16 -59 49 -89 100 -89 43 0 90 33 90 65 0 17 25
21 35 5 10 -16 -24 -70 -58 -90 -89 -55 -197 12 -213 131 -8 56 9 119 43 159
35 42 58 51 117 46 41 -3 55 -9 78 -35z m-1682 -126 l0 -155 85 0 c69 0 85 -3
85 -15 0 -12 -18 -15 -105 -15 l-105 0 0 170 c0 163 1 170 20 170 19 0 20 -7
20 -155z m292 3 l3 -153 83 -3 c64 -2 82 -6 82 -17 0 -12 -20 -15 -105 -15
l-105 0 0 170 c0 163 1 170 20 170 18 0 20 -8 22 -152z m1738 137 c0 -11 -18
-15 -82 -17 l-83 -3 -3 -52 -3 -53 65 0 c59 0 66 -2 66 -20 0 -18 -7 -20 -65
-20 l-66 0 3 -62 3 -63 93 -3 c73 -2 92 -6 92 -17 0 -12 -21 -15 -115 -15
l-115 0 0 170 0 170 105 0 c85 0 105 -3 105 -15z"/>
<path d="M590 4190 l0 -160 120 0 120 0 0 -605 0 -605 -120 0 -120 0 0 -160 0
-160 738 0 c631 0 746 2 797 15 237 62 372 299 309 540 -39 153 -183 296 -351
350 -44 14 -53 20 -53 41 0 19 12 29 75 58 239 111 341 379 229 605 -67 135
-174 211 -325 231 -41 5 -374 10 -746 10 l-673 0 0 -160z m1200 -201 c50 -18
60 -55 60 -218 0 -135 -1 -140 -26 -170 l-26 -31 -234 0 -234 0 0 209 c0 158
3 211 13 214 26 11 414 7 447 -4z m20 -670 c50 -18 60 -54 60 -222 0 -181 -4
-204 -44 -228 -28 -17 -53 -19 -263 -19 l-233 0 0 240 0 240 224 0 c140 0 235
-4 256 -11z"/>
<path d="M1430 3780 l0 -111 157 3 157 3 0 105 0 105 -157 3 -157 3 0 -111z"/>
<path d="M1430 3085 l0 -135 165 0 165 0 0 135 0 135 -165 0 -165 0 0 -135z"/>
<path d="M5891 2543 c-12 -10 -24 -35 -27 -55 -5 -30 -2 -41 19 -62 67 -67
167 8 123 92 -24 46 -76 57 -115 25z m85 -28 c4 -8 1 -21 -4 -28 -6 -7 -9 -24
-6 -38 l5 -24 -17 23 c-9 12 -20 22 -25 22 -4 0 -10 -10 -12 -22 -2 -13 -5 1
-6 30 -1 52 -1 52 29 52 18 0 33 -6 36 -15z"/>
<path d="M5920 2506 c0 -10 9 -16 21 -16 24 0 21 23 -4 28 -10 2 -17 -3 -17
-12z"/>
<path d="M616 1928 c-14 -40 -26 -76 -26 -80 0 -5 25 -8 56 -8 41 0 55 3 52
13 -3 6 -15 42 -27 80 -13 37 -24 67 -25 67 -2 0 -15 -33 -30 -72z"/>
<path d="M1301 1933 c-12 -38 -25 -74 -28 -80 -3 -10 10 -13 51 -13 31 0 56 4
56 8 0 13 -42 136 -49 145 -4 4 -17 -23 -30 -60z"/>
<path d="M1600 1880 l0 -142 55 4 c34 3 66 13 83 25 58 43 65 156 14 214 -23
26 -37 31 -90 36 l-62 6 0 -143z"/>
<path d="M3527 1990 c-3 -8 -15 -41 -26 -73 -12 -32 -21 -62 -21 -67 0 -6 25
-10 56 -10 63 0 62 -8 19 105 -14 36 -25 54 -28 45z"/>
<path d="M4619 1933 c-12 -38 -24 -74 -27 -80 -3 -10 11 -13 53 -13 42 0 56 3
53 13 -3 6 -15 42 -27 80 -13 37 -24 67 -26 67 -2 0 -13 -30 -26 -67z"/>
</g>
</svg>
