<!-- Generated by IcoMoon.io -->
<svg version="1.1" xmlns="http://www.w3.org/2000/svg" width="27" height="32" viewBox="0 0 27 32">
<title>arrow-circle-down</title>
<path fill="#6c757d" d="M22.926 16.023c0-0.309-0.114-0.594-0.32-0.8l-1.623-1.634c-0.217-0.217-0.503-0.32-0.8-0.32s-0.594 0.114-0.8 0.32l-3.383 3.371v-8.96c0-0.631-0.512-1.143-1.143-1.143v0h-2.286c-0.631 0-1.143 0.512-1.143 1.143v0 8.96l-3.371-3.36c-0.217-0.217-0.503-0.343-0.8-0.343s-0.594 0.126-0.8 0.343l-1.634 1.623c-0.217 0.217-0.32 0.503-0.32 0.8s0.114 0.594 0.32 0.8l8.091 8.103c0.206 0.206 0.503 0.32 0.8 0.32s0.594-0.114 0.8-0.32l8.091-8.091c0.198-0.202 0.32-0.479 0.32-0.784 0-0.006-0-0.011-0-0.017v0.001zM27.429 16c0 7.574-6.14 13.714-13.714 13.714s-13.714-6.14-13.714-13.714v0c0-7.574 6.14-13.714 13.714-13.714s13.714 6.14 13.714 13.714v0z"></path>
</svg>
