<!-- Generated by IcoMoon.io -->
<svg version="1.1" xmlns="http://www.w3.org/2000/svg" width="32" height="32" viewBox="0 0 32 32">
<title>baruch-cuny</title>
<path fill="#6c757d" d="M28.66 22.76c-0.97-7.44-9.68-8.5-9.68-8.5 6.18-3.64 6.72-6.9 6.72-7.7 0.15-5.52-4.97-6.16-4.97-6.16-1.35-0.43-17.45-0.16-17.45-0.16 1.57 0.87 1.55 2.52 1.55 2.52 0.1 0.67 0.3 26.13 0.3 26.13-0.3 2.48-1.8 2.96-1.8 2.96l17.42-0.1c9.13-0.42 7.92-8.99 7.92-8.99zM17.22 30.16s-5.15 0.84-5.35-2-0.050-14.85-0.050-14.85l-0.1-9.56c-0.050-2.1 2.73-2.020 2.73-2.020 5.8 0 5.25 5.85 5.25 5.85 0 3.19-4.87 7.12-4.87 7.12 0.44 0.1 6.67 1.54 7.11 9.36 0 0 0.7 5.45-4.73 6.1z"></path>
</svg>
