<!-- Generated by IcoMoon.io -->
<svg version="1.1" xmlns="http://www.w3.org/2000/svg" width="40" height="32" viewBox="0 0 40 32">
<title>berkeley</title>
<path fill="#6c757d" d="M16.070 0.13c0-0.22 0-0.22-0.82-0.22-0.31 0-0.59 0.030-1.2 0.030-0.71 0-1.6-0.030-2.010-0.030-0.82 0-0.84 0-0.84 0.22s0.44 0.42 1.23 0.42c0.61 0 0.98 0.17 0.98 8.3 0 3.45-0.3 4.13-1.8 5-0.93 0.54-1.83 0.56-2.82 0.56-3.78 0-4.35-2.31-4.35-4.25v-8.7c0-0.74 0.030-0.96 0.86-0.96s0.94-0.050 0.94-0.3-0.15-0.34-0.37-0.34l-3.25 0.040c-1.15-0.010-1.6-0.040-2.12-0.040-0.37 0-0.54 0.080-0.54 0.3 0 0.3 0.1 0.34 1.22 0.34 0.7 0 0.82 0.71 0.82 1.5v7.72c0 4.22 2.38 5.43 6.040 5.43 1.87 0 3.12-0.25 4.1-0.84 1.43-0.86 2.020-1.82 2.020-5.43 0-3.12 0.020-4.89 0.020-6.14 0-2.14 0.35-2.19 1.16-2.19 0.74 0 0.74-0.2 0.74-0.42zM28.43 21.22c0-0.13-0.3-0.57-0.47-0.94-0.12-0.24-0.14-0.51-0.22-0.51-0.17 0-0.32 0.51-0.39 0.83-0.12 0.61-1.8 2.36-4.74 2.36-4 0-6.4-2.78-6.4-6.73 0-4.45 2.4-7.4 6.67-7.4 2.6 0 4.32 0.84 4.47 1.62 0.050 0.2 0.1 0.45 0.27 0.45 0.1 0 0.24-0.080 0.24-0.2 0-1.060 0.15-1.6 0.15-1.92 0-0.12-0.24-0.27-0.32-0.27-0.37 0-1.52-0.37-3.49-0.37-6.88 0-10.49 3.44-10.49 8.36 0 4.94 3.1 7.15 7.52 7.15 4.94 0 7.2-2.21 7.2-2.43z"></path>
<path fill="#6c757d" d="M40.5 28c0-2.3-1.5-2.92-2.66-3.51-0.5-0.25-0.94-0.35-0.94-0.42s0.35-0.2 0.86-0.54c0.6-0.4 2.020-1.28 2.020-3.32 0-1.45-0.94-3.39-4.13-3.39-2.21 0-4.6 0.15-5.11 0.15-0.86 0-1.62-0.030-2.38-0.030-0.42 0-0.5 0.050-0.5 0.3s0.080 0.3 1.2 0.3c0.7 0 1.090 0.21 1.090 2.15v11.18c0 0.37-0.050 0.42-1.16 0.42-0.54 0-0.68 0.030-0.68 0.35 0 0.24 0.17 0.27 0.41 0.27 0.8 0 1.33-0.1 2.36-0.1 1.080 0 3.32 0.24 4.35 0.24 3.050 0 5.26-1.3 5.26-4.050zM37.32 21c0 2.090-0.64 2.46-1.35 3 0 0-1.030-0.27-2.65-0.27-0.74 0-0.91-0.030-0.91-0.35v-5.23c0-0.5 0.020-0.71 1.64-0.71 2.34 0 3.27 2.33 3.27 3.56zM37.74 28.2c0 2.14-1.030 3.3-3.24 3.3-0.7 0-1.53-0.1-1.8-0.4-0.22-0.25-0.3-1.55-0.3-1.77v-4.4c0-0.54 0.33-0.64 0.9-0.64 2.67 0 4.44 1.65 4.44 3.9z"></path>
</svg>
