<!-- Generated by IcoMoon.io -->
<svg version="1.1" xmlns="http://www.w3.org/2000/svg" width="30" height="32" viewBox="0 0 30 32">
<title>book</title>
<path fill="#6c757d" d="M29.257 8.537c0.457 0.64 0.571 1.486 0.331 2.309l-4.914 16.171c-0.502 1.524-1.879 2.619-3.523 2.697l-0.009 0h-16.514c-1.829 0-3.771-1.451-4.423-3.314-0.136-0.348-0.215-0.752-0.215-1.173 0-0.386 0.066-0.757 0.187-1.101l-0.007 0.023c0.034-0.366 0.103-0.72 0.114-1.143 0.023-0.286-0.137-0.526-0.103-0.743 0.069-0.423 0.457-0.731 0.731-1.211 0.537-0.891 1.143-2.343 1.337-3.269 0.091-0.343-0.080-0.731 0-1.029 0.091-0.343 0.434-0.594 0.617-0.914 0.48-0.823 1.097-2.4 1.189-3.246 0.034-0.377-0.137-0.8-0.034-1.074 0.126-0.411 0.514-0.594 0.789-0.949 0.423-0.594 1.143-2.286 1.257-3.234 0.023-0.297-0.149-0.606-0.091-0.926 0.069-0.343 0.491-0.686 0.777-1.109 0.754-1.109 0.891-3.543 3.166-2.914l-0.023 0.057c0.309-0.069 0.606-0.16 0.914-0.16h13.6c0.823 0 1.577 0.377 2.023 1.006 0.457 0.64 0.571 1.486 0.32 2.32l-4.891 16.171c-0.823 2.743-1.291 3.36-3.554 3.36h-15.52c-0.229 0-0.514 0.057-0.686 0.263-0.137 0.229-0.16 0.377-0.011 0.777 0.354 1.029 1.589 1.246 2.571 1.246h16.48c0.663 0 1.429-0.377 1.623-1.029l5.371-17.611c0.091-0.343 0.091-0.697 0.080-1.029 0.411 0.171 0.789 0.423 1.051 0.777zM10.274 8.571c-0.103 0.32 0.080 0.571 0.4 0.571h10.857c0.297 0 0.64-0.251 0.743-0.571l0.377-1.143c0.114-0.32-0.069-0.571-0.389-0.571h-10.857c-0.309 0-0.64 0.251-0.754 0.571zM8.789 13.143c-0.103 0.32 0.080 0.571 0.4 0.571h10.857c0.309 0 0.64-0.251 0.754-0.571l0.377-1.143c0.103-0.32-0.080-0.571-0.4-0.571h-10.857c-0.297 0-0.64 0.251-0.743 0.571z"></path>
</svg>
