<!-- Generated by IcoMoon.io -->
<svg version="1.1" xmlns="http://www.w3.org/2000/svg" width="32" height="32" viewBox="0 0 32 32">
<title>cd-rom</title>
<path fill="#6c757d" d="M11.62 20.54c-0.28 0.36-0.5 0.76-0.65 1.2-1.806-0.952-3.179-2.523-3.853-4.424l-0.017-0.056 1.37-0.17c0.6 1.5 1.73 2.7 3.15 3.45zM5.75 17.44l-1.33 0.16c0.9 3.16 3.23 5.71 6.25 6.93v-1.2l0.020-0.23c-2.354-1.13-4.132-3.145-4.922-5.604l-0.018-0.066zM24.91 11.74c-1-3.54-3.78-6.31-7.31-7.32l-0.17 1.33c2.94 0.94 5.21 3.21 6.132 6.084l0.018 0.066 1.33-0.16zM17.27 7.1l-0.17 1.36c1.731 0.694 3.076 2.039 3.754 3.725l0.016 0.045 1.37-0.17c-0.822-2.336-2.632-4.142-4.914-4.943l-0.056-0.017zM14.67 18.66c-2.209 0-4-1.791-4-4s1.791-4 4-4v0c2.209 0 4 1.791 4 4s-1.791 4-4 4v0zM14.67 17.32c1.475 0 2.67-1.195 2.67-2.67s-1.195-2.67-2.67-2.67v0c-1.475 0-2.67 1.195-2.67 2.67s1.195 2.67 2.67 2.67v0zM25.25 25.050h-0.85v3.22h1.060c0.9 0 1.36-0.63 1.36-1.53 0-1.2-0.55-1.69-1.57-1.69zM32 23.33v6.67c0 1.105-0.895 2-2 2v0h-14.67c-1.105 0-2-0.895-2-2v0-6.67c0-1.1 0.9-2 2-2h14.67c1.105 0 2 0.895 2 2v0zM22.38 27.26h-1.15c-0.1 0.68-0.5 1.14-1.23 1.14-0.98 0-1.47-0.74-1.47-1.7 0-1 0.47-1.76 1.47-1.76 0.63 0 1.1 0.43 1.18 0.9h1.16c-0.14-1.2-1.16-1.84-2.34-1.84-1.65 0-2.67 1.16-2.67 2.7 0 1.53 1.040 2.63 2.67 2.63 1.4 0 2.27-0.85 2.38-2.070zM28 26.64c0-1.62-0.99-2.52-2.46-2.52h-2.34v5.1h2.34c1.56 0 2.46-1.010 2.46-2.58zM2.67 14.67c-0-0.028-0-0.061-0-0.095 0-6.633 5.377-12.010 12.010-12.010s12.010 5.377 12.010 12.010c0 1.469-0.264 2.877-0.747 4.178l0.027-0.083h2.8c0.361-1.21 0.569-2.601 0.569-4.040 0-8.080-6.55-14.63-14.63-14.63-0.014 0-0.027 0-0.041 0h0.002c-8.081 0.028-14.621 6.585-14.621 14.67 0 6.66 4.438 12.283 10.517 14.074l0.104 0.026v-2.8c-4.66-1.66-8-6.1-8-11.3z"></path>
</svg>
