<!-- Generated by IcoMoon.io -->
<svg version="1.1" xmlns="http://www.w3.org/2000/svg" width="32" height="32" viewBox="0 0 32 32">
<title>citation</title>
<path fill="#6c757d" d="M29 16h-5v-4c0-2.206 1.794-4 4-4h0.5c0.831 0 1.5-0.669 1.5-1.5v-3c0-0.831-0.669-1.5-1.5-1.5h-0.5c-5.525 0-10 4.475-10 10v15c0 1.656 1.344 3 3 3h8c1.656 0 3-1.344 3-3v-8c0-1.656-1.344-3-3-3zM11 16h-5v-4c0-2.206 1.794-4 4-4h0.5c0.831 0 1.5-0.669 1.5-1.5v-3c0-0.831-0.669-1.5-1.5-1.5h-0.5c-5.525 0-10 4.475-10 10v15c0 1.656 1.344 3 3 3h8c1.656 0 3-1.344 3-3v-8c0-1.656-1.344-3-3-3z"></path>
</svg>
