<!-- Generated by IcoMoon.io -->
<svg version="1.1" xmlns="http://www.w3.org/2000/svg" width="32" height="32" viewBox="0 0 32 32">
<title>columbia</title>
<path fill="#6c757d" d="M31.89 15.45c-0.329-1.915-1.917-3.373-3.868-3.499l-0.012-0.001c-3.48-0.28-6.48 1.58-9.86 2.17-0.27 0.050-0.63-0.52-0.96-0.85 1.57-1.18 1.35-3.5-0.46-4.5-0.046-0.23-0.073-0.494-0.073-0.765s0.027-0.535 0.077-0.791l-0.004 0.026c0.14-0.12 1.3 0.1 1.46-0.040 0.17-0.14 0.13-1.53 0.030-1.66s-1.41 0-1.48-0.080c-0.080-0.1 0.030-1.34-0.1-1.44-0.080-0.070-0.44-0.080-0.64-0.080s-0.56 0-0.65 0.080c-0.12 0.1-0.020 1.34-0.090 1.44-0.070 0.080-1.37-0.060-1.48 0.080-0.1 0.13-0.14 1.52 0.030 1.66 0.16 0.14 1.32-0.080 1.46 0.040 0.080 0.060 0.12 1.4 0 1.54-1.82 1-2.030 3.31-0.46 4.49-0.33 0.33-0.7 0.9-0.97 0.86-3.37-0.6-6.37-2.46-9.85-2.18-1.963 0.127-3.551 1.585-3.876 3.475l-0.004 0.025c-0.61 3.54 1.94 6.27 3.17 9.28 0.4 0.95 0.74 2.23 0.68 3.33h24.080c-0.060-1.1 0.28-2.38 0.67-3.33 1.24-3.010 3.79-5.74 3.18-9.28zM14.56 23.3c-0.31 1.78-1.3 2.91-2.13 2.92-0.54 0-0.97-0.2-1.36-0.55-0.54-0.47-0.99-1.26-0.84-1.72 0.12-0.15 1.58 0.070 1.68-0.070 0.1-0.15-0.18-1.29-0.34-1.43-0.17-0.15-1.49 0.050-1.66-0.1-0.18-0.14-0.34-1.55-0.52-1.64 0 0-1.4-0.2-1.5 0s0.47 1.37 0.37 1.57-1.94-0.18-1.97 0.030c-0.040 0.21 0.1 1.24 0.28 1.4 0.18 0.15 1.9 0.16 1.9 0.16 0.36 0.27 0.45 0.83 0.46 1.4 0 0.72-0.56 1.1-1.46 0.84-1.67-0.47-3.73-4.080-4.96-6.59-0.9-1.84-1.45-4.86 0.92-5.76 1.44-0.55 2.96-0.24 4.51 0.22 1.63 0.49 3.77 1.14 5.040 1.93 0.3 0.19-0.37 0.040 0.75 2.52 0.53 1.16 1.050 3.63 0.83 4.87zM24.53 26.11c-0.9 0.25-1.46-0.12-1.46-0.84 0-0.57 0.1-1.13 0.46-1.4 0 0 1.72 0 1.9-0.16s0.31-1.2 0.28-1.4c-0.030-0.2-1.88 0.17-1.98-0.030s0.48-1.38 0.38-1.58c-0.1-0.2-1.5 0.010-1.5 0.010-0.18 0.090-0.34 1.5-0.52 1.64s-1.5-0.050-1.66 0.1c-0.16 0.14-0.44 1.28-0.34 1.43 0.1 0.14 1.56-0.080 1.68 0.070 0.14 0.46-0.3 1.25-0.84 1.72-0.4 0.34-0.83 0.55-1.37 0.55-0.82-0.010-1.8-1.14-2.12-2.92-0.22-1.24 0.3-3.71 0.82-4.87 1.13-2.48 0.45-2.33 0.76-2.52 1.26-0.79 3.4-1.44 5.040-1.93 1.55-0.46 3.060-0.77 4.5-0.22 2.37 0.9 1.83 3.92 0.93 5.76-1.23 2.5-3.3 6.12-4.96 6.6z"></path>
</svg>
