<!-- Generated by IcoMoon.io -->
<svg version="1.1" xmlns="http://www.w3.org/2000/svg" width="32" height="32" viewBox="0 0 32 32">
<title>cornell</title>
<path fill="#6c757d" d="M16 0c-8.82 0-15.96 7.16-15.96 15.96s7.14 16.040 15.96 16.040c8.8 0 15.96-7.24 15.96-16.040 0-8.81-7.16-15.96-15.96-15.96zM16 30.19c-7.856 0-14.225-6.369-14.225-14.225s6.369-14.225 14.225-14.225v0c7.856 0 14.225 6.369 14.225 14.225s-6.369 14.225-14.225 14.225v0z"></path>
<path fill="#6c757d" d="M6.33 18.65c0 7.25 9.050 11.17 9.4 11.34l0.27 0.1 0.27-0.18c0.44-0.16 9.42-4.18 9.42-11.070v-13.080h-19.36v12.9zM7.72 18.66v-3.91h7.83v1c-0.2-0.040-0.62-0.14-1.1-0.070-0.26 0-0.53 0.1-0.8 0.1-0.44 0-0.78 0.080-1.13 0.080h-2.020v8.82h1.73c0.69 0 1.14-0.1 1.58-0.1 0.42-0.080 0.78-0.080 1.3-0.080 0.090 0 0.17 0.080 0.26 0.17 0.040 0.040 0.090 0.11 0.17 0.18v3.58c-2.15-1.11-7.83-4.54-7.83-9.77zM15.55 23.6c-0.128-0.041-0.275-0.066-0.428-0.070l-0.002-0c-0.6 0-0.95 0-1.37 0.1-0.43 0-0.87 0.080-1.48 0.080h-0.62v-6.79h0.96c0.33 0 0.78 0 1.22-0.090 0.25 0 0.52-0.090 0.78-0.090 0.45-0.080 0.88 0 0.88 0l0.060 0.030v6.83zM16.59 16.79c0.034-0.023 0.075-0.038 0.119-0.040l0-0s0.44-0.1 0.88 0c0.26 0 0.53 0.080 0.79 0.080 0.42 0 0.86 0.1 1.21 0.1h0.96v6.78h-0.61c-0.6 0-1.050-0.090-1.48-0.090-0.45-0.090-0.89-0.090-1.41-0.090-0.17 0-0.33 0.030-0.46 0.070v-6.8zM16.59 16.79v-0.050h0.040l-0.040 0.040zM16.59 28.43v-3.61l0.23-0.15c0.080-0.17 0.080-0.17 0.25-0.17 0.52 0 0.87 0.090 1.3 0.090s0.88 0.090 1.58 0.090h1.73v-8.82h-2.010c-0.36 0-0.7 0-1.14-0.090-0.26 0-0.53-0.090-0.79-0.090-0.48 0-0.98 0.070-1.15 0.080v-1.010h7.86v4.17c0 4.92-5.76 8.4-7.86 9.51zM24.45 13.61h-16.73v-6.46h16.73v6.46z"></path>
<path fill="#6c757d" d="M10.080 12.2c0.6 0.44 1.66 1.060 1.66 1.060l0.17 0.090 0.26-0.1c0.080 0 1.040-0.6 1.74-1.050 0.52-0.35 0.78-0.7 0.78-1.14v-3.66h-5.49v3.66c0.1 0.36 0.37 0.79 0.9 1.14zM13.3 11.5c-0.43 0.27-1.12 0.71-1.48 0.88-0.36-0.18-0.97-0.62-1.41-0.88-0.27-0.17-0.44-0.44-0.44-0.53v-1.11h3.77v1.2c0 0.18-0.27 0.35-0.44 0.44zM9.98 8.19v0.090h3.76v0.8h-3.77l0.010-0.89zM18.6 12.2c0.62 0.44 1.67 1.060 1.67 1.060l0.17 0.090 0.26-0.1c0.080 0 1.040-0.6 1.74-1.050 0.52-0.35 0.78-0.7 0.78-1.14v-3.66h-5.5v3.66c0.1 0.36 0.36 0.79 0.89 1.14zM21.86 11.5c-0.44 0.27-1.13 0.71-1.48 0.88-0.37-0.18-0.98-0.62-1.41-0.88-0.27-0.17-0.44-0.44-0.44-0.53v-0.16l1.83-1.3 1.93 1.26v0.3c0 0.17-0.26 0.34-0.43 0.43zM18.55 8.19v0.090h3.74v1.58l-1.93-1.31-1.83 1.28v-1.63h0.020zM12.24 17.87h2.27v0.78h-2.27v-0.78zM12.24 19.7h2.27v0.78h-2.27v-0.78zM12.24 21.54h2.27v0.79h-2.27v-0.79zM17.3 17.87h2.26v0.78h-2.26v-0.78zM17.3 19.7h2.26v0.78h-2.26v-0.78zM17.3 21.54h2.26v0.79h-2.26v-0.79z"></path>
</svg>
