<svg version="1.1" id="Layer_2" xmlns="http://www.w3.org/2000/svg" x="0" y="0" viewBox="0 0 358.6 358.7" xml:space="preserve"><style type="text/css">.st0{fill:#b31b1b}</style><g><path class="st0" d="M179.3 0C80.5 0 .4 80.2.4 178.9s80.1 179.8 178.9 179.8c98.6 0 178.9-81.2 178.9-179.8C358.2 80.1 278.1 0 179.3 0zm0 338.4c-88 0-159.4-71.4-159.4-159.4S91.4 19.6 179.3 19.6 338.6 90.8 338.7 179c0 88-71.4 159.4-159.4 159.4z"/><path class="st0" d="M70.9 209.1c0 81.2 101.5 125.2 105.5 127.1l2.9 1 3.1-1.9c4.9-1.8 105.5-46.9 105.5-124.1V64.6h-217v144.5zm15.6.1v-43.9h87.8v11.3c-2.2-.5-7-1.6-12.4-.8-2.9 0-5.9 1-8.8 1-5 0-8.8 1-12.8 1h-22.5v98.8h19.5c7.7 0 12.7-1 17.6-1 4.7-1 8.7-1 14.6-1 1 0 1.9.9 2.9 1.9.4.5 1 1.3 1.9 2.1v40.1c-24.1-12.5-87.8-50.9-87.8-109.5zm87.8 55.3c-1.4-.4-3.1-.7-4.8-.7-6.8 0-10.7 0-15.4 1-4.8 0-9.7 1-16.6 1h-6.9v-76.1h10.8c3.7 0 8.7 0 13.6-1 2.9 0 5.9-1 8.8-1 5-1 9.9 0 9.9 0l.6.3v76.5zm11.7-76.3c.3-.2.8-.5 1.3-.5 0 0 5-1 9.9 0 2.9 0 5.9 1 8.8 1 4.8 0 9.7 1 13.6 1h10.8v76.1h-6.9c-6.7 0-11.7-1-16.6-1-5-1-9.9-1-15.8-1-1.9 0-3.6.3-5.1.8v-76.4zm0-.1v-.5l.4.1-.4.4zm0 130.6v-40.5c.8-.5 1.6-1.1 2.5-1.7 1-1.9 1-1.9 2.9-1.9 5.8 0 9.7 1 14.6 1 4.8 0 9.8 1 17.6 1H243v-98.8h-22.5c-4 0-7.9 0-12.8-1-2.9 0-5.9-1-8.8-1-5.4 0-11 .7-12.9.9v-11.4h88.1v46.8c0 55.1-64.6 94.1-88.1 106.6zm88.1-166.2H86.5V80.1h187.6v72.4z"/><path class="st0" d="M113 136.8c6.8 4.9 18.6 11.8 18.6 11.8l1.9 1 2.9-1c.9 0 11.7-6.9 19.5-11.8 5.9-4 8.8-7.9 8.8-12.8V83h-61.6v41c1.1 4 4 8.8 9.9 12.8zm36.1-7.9c-4.8 3-12.6 8-16.6 9.9-4-2.1-10.9-7-15.8-9.9-3-1.9-4.9-4.9-4.9-5.9v-12.5H154V124c0 2-3 3.9-4.9 4.9zm-37.2-37.1v1H154v8.9h-42.2c0-3.3 0-6.7.1-9.9z"/><path class="st0" d="M208.6 136.8c6.8 4.9 18.6 11.8 18.6 11.8l1.9 1 2.9-1c.9 0 11.7-6.9 19.5-11.8 5.9-4 8.8-7.9 8.8-12.8V83h-61.6v41c1.1 4 4 8.8 9.9 12.8zm36.4-7.9c-4.9 3-12.6 8-16.6 9.9-4.1-2.1-10.9-7-15.8-9.9-3-1.9-4.9-4.9-4.9-5.9v-1.8l20.5-14.6 21.7 14.1v3.3c0 2-3 3.9-4.9 4.9zm-37.1-37.1v1h42v17.7l-21.7-14.7-20.5 14.4V91.8h.2z"/><rect x="137.2" y="200.3" class="st0" width="25.4" height="8.8"/><rect x="137.2" y="220.8" class="st0" width="25.4" height="8.8"/><rect x="137.2" y="241.5" class="st0" width="25.4" height="8.8"/><rect x="193.9" y="200.3" class="st0" width="25.4" height="8.8"/><rect x="193.9" y="220.8" class="st0" width="25.4" height="8.8"/><rect x="193.9" y="241.5" class="st0" width="25.4" height="8.8"/></g></svg>
