<!-- Generated by IcoMoon.io -->
<svg version="1.1" xmlns="http://www.w3.org/2000/svg" width="32" height="32" viewBox="0 0 32 32">
<title>dvd-rom</title>
<path fill="#6c757d" d="M10.67 14.67c0 2.209 1.791 4 4 4s4-1.791 4-4v0c0-2.209-1.791-4-4-4s-4 1.791-4 4v0zM17.33 14.67c0 1.475-1.195 2.67-2.67 2.67s-2.67-1.195-2.67-2.67v0c0-1.475 1.195-2.67 2.67-2.67s2.67 1.195 2.67 2.67v0zM17.26 7.11c2.338 0.818 4.148 2.624 4.953 4.904l0.017 0.056-1.37 0.17c-0.693-1.731-2.039-3.077-3.725-3.754l-0.045-0.016 0.17-1.36zM24.91 11.74l-1.33 0.16c-0.94-2.94-3.21-5.21-6.084-6.132l-0.066-0.018 0.17-1.33c3.53 1 6.3 3.78 7.32 7.32zM10.67 28.77c-6.204-1.8-10.662-7.431-10.662-14.104 0-8.097 6.564-14.66 14.66-14.66s14.66 6.564 14.66 14.66c0 1.426-0.204 2.805-0.583 4.108l0.026-0.104h-2.8c0.432-1.188 0.682-2.56 0.682-3.99 0-6.623-5.361-11.994-11.981-12.010h-0.002c-6.62 0-12 5.38-12 12 0 5.2 3.34 9.64 8 11.3v2.8zM11.62 20.54c-0.28 0.36-0.5 0.76-0.65 1.2-1.806-0.952-3.179-2.523-3.853-4.424l-0.017-0.056 1.37-0.17c0.6 1.5 1.73 2.7 3.15 3.45zM5.75 17.44c0.812 2.52 2.588 4.531 4.884 5.636l0.056 0.024-0.020 0.23v1.2c-3.026-1.247-5.313-3.757-6.231-6.855l-0.019-0.075 1.33-0.17zM28.65 26.74c0 0.92-0.38 1.6-1.21 1.6h-0.96v-3.34h0.77c1.030 0 1.4 0.64 1.4 1.76zM19.25 26.74c0 0.93-0.38 1.6-1.21 1.6h-0.96v-3.34h0.77c1.030 0 1.4 0.64 1.4 1.76zM30 21.35h-14.67c-1.105 0-2 0.895-2 2v0 6.65c0 1.1 0.9 2 2 2h14.67c1.105 0 2-0.895 2-2v0-6.67c0-1.105-0.895-2-2-2v0zM18.11 29.35h-2.11v-5.35h2.11c1.33 0 2.22 0.94 2.22 2.64 0 1.6-0.77 2.7-2.22 2.7zM23.36 29.35h-1.21l-1.6-5.35h1.1l1.1 3.75 1.13-3.75h1.11l-1.62 5.33zM27.51 29.35h-2.1v-5.35h2.1c1.33 0 2.22 0.94 2.22 2.64 0 1.6-0.77 2.7-2.22 2.7z"></path>
</svg>
