<!-- Generated by IcoMoon.io -->
<svg version="1.1" xmlns="http://www.w3.org/2000/svg" width="32" height="32" viewBox="0 0 32 32">
<title>email</title>
<path fill="#6c757d" d="M32 12.686v14.171c0 1.578-1.279 2.857-2.857 2.857v0h-26.286c-1.578 0-2.857-1.279-2.857-2.857v0-14.171c0.537 0.583 1.143 1.097 1.806 1.543 2.971 2.023 5.966 4.034 8.869 6.171 1.509 1.097 3.36 2.457 5.303 2.457h0.046c1.943 0 3.794-1.36 5.303-2.469 2.903-2.103 5.909-4.137 8.891-6.16 0.64-0.446 1.257-0.96 1.783-1.554zM32 7.429c0 2-1.486 3.806-3.051 4.891-2.789 1.931-5.6 3.863-8.354 5.806-1.166 0.8-3.131 2.446-4.571 2.446h-0.046c-1.44 0-3.406-1.646-4.571-2.446-2.766-1.943-5.566-3.886-8.343-5.806-1.246-0.857-3.063-2.88-3.063-4.503 0-1.749 0.949-3.246 2.857-3.246h26.286c1.554 0 2.857 1.28 2.857 2.857z"></path>
</svg>
