<!-- Generated by IcoMoon.io -->
<svg version="1.1" xmlns="http://www.w3.org/2000/svg" width="27" height="32" viewBox="0 0 27 32">
<title>globe1</title>
<path fill="#6c757d" d="M13.714 2.286c7.574 0 13.714 6.14 13.714 13.714s-6.14 13.714-13.714 13.714v0c-7.574 0-13.714-6.14-13.714-13.714s6.14-13.714 13.714-13.714v0zM18.606 11.589c-0.137 0.114-0.229 0.309-0.411 0.343 0.091-0.023 0.183-0.343 0.229-0.411 0.114-0.126 0.251-0.194 0.4-0.263 0.309-0.126 0.606-0.171 0.926-0.229 0.309-0.057 0.686-0.057 0.914 0.206-0.057-0.057 0.377-0.423 0.423-0.457 0.16-0.080 0.434-0.046 0.537-0.206 0.034-0.046 0.034-0.389 0.034-0.389-0.297 0.034-0.411-0.251-0.423-0.503 0 0.023-0.034 0.069-0.114 0.149 0.023-0.274-0.32-0.080-0.446-0.114-0.411-0.114-0.354-0.389-0.48-0.686-0.069-0.171-0.263-0.229-0.343-0.389-0.069-0.103-0.103-0.343-0.263-0.343-0.114-0.023-0.309 0.366-0.343 0.343-0.16-0.080-0.229 0.046-0.354 0.114-0.114 0.069-0.194 0.034-0.309 0.091 0.331-0.114-0.137-0.286-0.297-0.251 0.251-0.080 0.114-0.343-0.023-0.457h0.091c-0.034-0.171-0.537-0.309-0.686-0.423s-1.029-0.286-1.211-0.171c-0.206 0.114 0.057 0.48 0.057 0.651 0.023 0.229-0.217 0.274-0.217 0.457 0 0.297 0.571 0.24 0.434 0.651-0.091 0.251-0.434 0.309-0.571 0.503-0.149 0.183 0.023 0.503 0.16 0.629 0.149 0.114-0.251 0.286-0.309 0.32-0.297 0.137-0.526-0.309-0.606-0.571-0.046-0.194-0.069-0.434-0.286-0.537-0.114-0.034-0.446-0.091-0.514 0.023-0.114-0.274-0.48-0.377-0.731-0.469-0.193-0.066-0.415-0.104-0.647-0.104-0.135 0-0.267 0.013-0.395 0.038l0.013-0.002c0.114-0.023-0.046-0.571-0.343-0.48 0.080-0.183 0.046-0.377 0.080-0.56 0.050-0.159 0.128-0.296 0.23-0.413l-0.001 0.001c0.023-0.069 0.423-0.48 0.297-0.503 0.297 0.046 0.64 0.057 0.891-0.194 0.16-0.16 0.229-0.423 0.389-0.606 0.229-0.263 0.526 0.069 0.766 0.091 0.366 0.023 0.343-0.377 0.149-0.549 0.229 0.011 0.034-0.411-0.091-0.469-0.16-0.057-0.766 0.114-0.446 0.229-0.069-0.034-0.503 0.857-0.754 0.411-0.069-0.091-0.103-0.457-0.263-0.48-0.137 0-0.229 0.16-0.286 0.263 0.091-0.229-0.503-0.389-0.629-0.411 0.274-0.171 0.057-0.366-0.137-0.48-0.149-0.091-0.594-0.16-0.72-0.011-0.343 0.411 0.366 0.457 0.537 0.571 0.057 0.034 0.274 0.16 0.149 0.251-0.114 0.046-0.434 0.137-0.457 0.206-0.114 0.16 0.114 0.343-0.046 0.503-0.16-0.16-0.16-0.423-0.286-0.606 0.16 0.194-0.64 0.091-0.629 0.091-0.263 0-0.686 0.171-0.891-0.091-0.034-0.069-0.034-0.48 0.069-0.389-0.16-0.126-0.263-0.251-0.366-0.331-0.594 0.206-1.143 0.457-1.68 0.743 0.069 0.011 0.114 0.011 0.206-0.023 0.149-0.057 0.274-0.149 0.411-0.217 0.183-0.069 0.56-0.286 0.754-0.114 0.021-0.039 0.053-0.070 0.090-0.091l0.001-0.001c0.114 0.137 0.251 0.286 0.354 0.446-0.137-0.080-0.377-0.034-0.537-0.023-0.114 0.034-0.343 0.069-0.389 0.217 0.057 0.091 0.114 0.229 0.091 0.32-0.229-0.16-0.411-0.434-0.731-0.457h-0.4c-1.714 0.96-3.166 2.331-4.194 3.977 0.069 0.069 0.137 0.114 0.217 0.137 0.171 0.057 0 0.571 0.343 0.309 0.103 0.091 0.114 0.217 0.046 0.343 0.023-0.023 0.731 0.446 0.789 0.48 0.114 0.114 0.32 0.229 0.377 0.377 0.034 0.114-0.080 0.263-0.183 0.32-0.023-0.034-0.286-0.309-0.32-0.229-0.057 0.080 0 0.571 0.194 0.549-0.286 0.011-0.16 1.12-0.229 1.337 0 0.023 0.034 0.023 0.034 0.023-0.057 0.206 0.114 1.051 0.48 0.96-0.229 0.057 0.411 0.88 0.503 0.926 0.229 0.16 0.503 0.274 0.663 0.503 0.171 0.251 0.171 0.629 0.423 0.823-0.069 0.217 0.377 0.457 0.354 0.766l-0.080 0.034c0.080 0.251 0.423 0.251 0.549 0.48 0.069 0.149 0 0.491 0.229 0.411 0.034-0.389-0.229-0.789-0.423-1.109l-0.309-0.514c-0.091-0.16-0.114-0.354-0.171-0.537 0.069 0.023 0.457 0.16 0.423 0.217-0.137 0.354 0.571 0.983 0.766 1.211 0.057 0.057 0.469 0.594 0.251 0.594 0.229 0 0.56 0.343 0.663 0.537 0.16 0.263 0.126 0.606 0.229 0.891 0.114 0.343 0.606 0.514 0.891 0.674 0.251 0.114 0.469 0.309 0.72 0.389 0.377 0.149 0.457 0.023 0.789-0.034 0.457-0.069 0.514 0.457 0.891 0.651 0.229 0.114 0.731 0.297 0.983 0.194-0.114 0.034 0.377 0.766 0.411 0.823 0.16 0.206 0.457 0.32 0.64 0.537 0.057-0.046 0.114-0.091 0.114-0.171-0.069 0.206 0.274 0.571 0.457 0.537 0.194-0.034 0.251-0.423 0.251-0.571-0.366 0.183-0.686 0.034-0.88-0.32-0.034-0.091-0.32-0.583-0.069-0.583 0.343 0 0.114-0.274 0.069-0.526s-0.286-0.411-0.411-0.617c-0.114 0.206-0.457 0.16-0.571-0.023 0 0.057-0.046 0.149-0.046 0.217-0.091 0-0.183 0.011-0.274-0.023 0.034-0.217 0.057-0.48 0.114-0.709 0.080-0.32 0.674-0.949-0.091-0.914-0.274 0.023-0.377 0.114-0.457 0.354-0.103 0.217-0.069 0.411-0.309 0.526-0.171 0.069-0.697 0.034-0.857-0.057-0.343-0.194-0.571-0.823-0.571-1.177-0.023-0.48 0.229-0.914 0-1.371 0.103-0.080 0.206-0.251 0.343-0.343 0.103-0.080 0.229 0.046 0.274-0.16-0.046-0.046-0.114-0.114-0.137-0.114 0.263 0.126 0.766-0.171 0.994 0 0.149 0.114 0.309 0.149 0.4-0.034 0.011-0.057-0.126-0.263-0.057-0.411 0.057 0.309 0.251 0.354 0.514 0.16 0.114 0.114 0.4 0.080 0.594 0.183 0.194 0.114 0.229 0.32 0.457 0.057 0.149 0.206 0.171 0.206 0.229 0.423 0.046 0.194 0.149 0.686 0.331 0.789 0.377 0.229 0.286-0.4 0.251-0.606-0.023-0.023-0.023-0.606-0.034-0.606-0.571-0.126-0.366-0.571-0.034-0.88 0.046-0.034 0.457-0.183 0.64-0.32 0.16-0.149 0.354-0.389 0.263-0.629 0.091 0 0.16-0.069 0.194-0.16-0.046-0.011-0.263-0.194-0.297-0.171 0.114-0.080 0.114-0.183 0.034-0.286 0.171-0.114 0.091-0.309 0.263-0.377 0.194 0.263 0.594-0.034 0.4-0.251 0.171-0.251 0.583-0.126 0.686-0.354 0.274 0.069 0.080-0.274 0.229-0.469 0.114-0.16 0.331-0.16 0.491-0.251 0 0.023 0.457-0.251 0.309-0.263 0.297 0.034 0.914-0.286 0.446-0.56 0.069-0.16-0.16-0.229-0.32-0.263 0.114-0.034 0.286 0.034 0.389-0.034 0.229-0.16 0.069-0.229-0.114-0.286-0.263-0.080-0.571 0.091-0.777 0.206zM15.691 27.246c2.491-0.446 4.645-1.653 6.27-3.366l0.005-0.005c-0.114-0.114-0.309-0.069-0.457-0.137-0.137-0.057-0.24-0.114-0.423-0.149 0.034-0.354-0.354-0.48-0.606-0.663-0.229-0.171-0.377-0.366-0.709-0.297-0.046 0.011-0.4 0.137-0.331 0.206-0.229-0.194-0.343-0.297-0.64-0.389-0.286-0.091-0.48-0.457-0.766-0.114-0.137 0.137-0.069 0.343-0.137 0.491-0.229-0.194 0.206-0.434 0.034-0.64-0.217-0.251-0.594 0.16-0.777 0.263-0.103 0.091-0.229 0.126-0.297 0.229-0.091 0.126-0.126 0.286-0.194 0.411-0.057-0.137-0.366-0.114-0.377-0.206 0.069 0.423 0.069 0.869 0.16 1.303 0.057 0.251 0 0.663-0.217 0.857s-0.48 0.411-0.514 0.709c-0.034 0.217 0.023 0.411 0.217 0.457 0.011 0.274-0.286 0.469-0.274 0.754l0.034 0.286z"></path>
</svg>
