<!-- Generated by IcoMoon.io -->
<svg version="1.1" xmlns="http://www.w3.org/2000/svg" width="30" height="32" viewBox="0 0 30 32">
<title>home</title>
<path fill="#6c757d" d="M25.143 17.714v8.571c0 0.631-0.512 1.143-1.143 1.143v0h-6.857v-6.857h-4.571v6.857h-6.857c-0.631 0-1.143-0.512-1.143-1.143v0-8.571l0.023-0.114 10.263-8.457 10.263 8.457c0.015 0.029 0.023 0.064 0.023 0.101 0 0.005-0 0.010-0 0.014l0-0.001zM29.12 16.48l-1.097 1.326c-0.094 0.108-0.226 0.179-0.375 0.194l-0.002 0h-0.057c-0.010 0.001-0.021 0.001-0.033 0.001-0.13 0-0.25-0.043-0.346-0.116l0.001 0.001-12.354-10.32-12.354 10.309c-0.102 0.080-0.232 0.129-0.373 0.129-0.021 0-0.043-0.001-0.063-0.003l0.003 0c-0.151-0.017-0.282-0.089-0.377-0.194l-0-0.001-1.109-1.326c-0.077-0.098-0.123-0.222-0.123-0.358 0-0.176 0.078-0.334 0.202-0.441l12.824-10.698c0.37-0.294 0.844-0.472 1.36-0.472s0.99 0.178 1.364 0.476l-0.005-0.003 4.343 3.646v-3.486c0-0.32 0.263-0.571 0.571-0.571h3.429c0.331 0 0.571 0.251 0.571 0.571v7.291l3.92 3.246c0.229 0.194 0.263 0.571 0.069 0.8z"></path>
</svg>
