<!-- Generated by IcoMoon.io -->
<svg version="1.1" xmlns="http://www.w3.org/2000/svg" width="32" height="32" viewBox="0 0 32 32">
<title>leaf</title>
<path fill="#6c757d" d="M22.857 12.571c0-0.631-0.512-1.143-1.143-1.143v0c-6.32 0-10.4 2.64-14.514 7.2-0.208 0.204-0.338 0.486-0.343 0.799v0.001c-0.212 0.208-0.343 0.497-0.343 0.816 0 0.631 0.512 1.143 1.143 1.143s1.143-0.512 1.143-1.143c0-0.006-0-0.011-0-0.017v0.001c0.88-0.777 1.669-1.634 2.514-2.446 3.246-2.914 6.023-4.069 10.4-4.069 0.631 0 1.143-0.512 1.143-1.143v0zM32 9.029c0 1.143-0.114 2.309-0.354 3.451-1.143 5.554-4.72 9.166-9.68 11.623-2.274 1.196-4.964 1.91-7.818 1.943l-0.010 0c-1.714 0-3.474-0.297-5.097-0.846-0.857-0.286-2.571-1.417-3.291-1.417-0.891 0-1.966 3.646-3.52 3.646-1.12 0-1.463-0.549-1.943-1.371-0.16-0.309-0.286-0.411-0.286-0.8 0-1.851 3.543-3.291 3.543-4.331 0-0.16-0.469-1.109-0.549-1.463-0.102-0.554-0.16-1.191-0.16-1.842 0-0.003 0-0.006 0-0.010v0c0-5.68 4.526-9.737 9.6-11.417 3.657-1.211 11.44 0.194 13.92-2.16 0.983-0.914 1.463-1.749 2.971-1.749 2.011 0 2.674 5.234 2.674 6.743z"></path>
</svg>
