<!-- Generated by IcoMoon.io -->
<svg version="1.1" xmlns="http://www.w3.org/2000/svg" width="23" height="32" viewBox="0 0 23 32">
<title>lewis-clark</title>
<path fill="#6c757d" d="M12.38 31.94c3.65-1 7.5-3.88 9.48-8.45-1.4 2.41-4.1 4.14-7.8 2.3s-5.83-0.4-6.48 0.22c0.73 1.93 2.1 3.9 4.8 5.93zM6.83 21.95c0.51-3.7 3.93-5.26 8.3-3.16 4.16 1.99 7.7-0.67 8.12-2.3v-16.49h-16.48v18.75c0.010 1.080 0 2.14 0.060 3.2z"></path>
<path fill="#6c757d" d="M6.58 25.66c-0.73-2.37-0.63-4.67-0.66-6.9v-18.76h-5.92v16.25c-0.16 8.95 5.74 14.4 11.12 15.75-2.58-2.13-3.9-4.24-4.54-6.34z"></path>
<path fill="#6c757d" d="M14.43 21.58c-3.5-1.26-6.070-0.8-7.51 1.55 0.1 0.86 0.26 1.64 0.49 2.38l-0.020-0.080 0.12 0.37c0.7-2.15 2.73-4.39 7.12-2.74 2.6 0.96 7.12 1.28 8.2-2.61 0.23-0.95 0.37-2.060 0.41-3.19v-0.030c-1.060 4.5-5.1 5.68-8.81 4.35z"></path>
</svg>
