<!-- Generated by IcoMoon.io -->
<svg version="1.1" xmlns="http://www.w3.org/2000/svg" width="18" height="32" viewBox="0 0 18 32">
<title>map-marker</title>
<path fill="#6c757d" d="M13.714 11.429c0-2.525-2.047-4.571-4.571-4.571s-4.571 2.047-4.571 4.571v0c0 2.525 2.047 4.571 4.571 4.571s4.571-2.047 4.571-4.571v0zM18.286 11.429c0 1.086-0.114 2.217-0.594 3.2l-6.491 13.829c-0.377 0.766-1.2 1.257-2.057 1.257s-1.68-0.48-2.034-1.257l-6.514-13.829c-0.379-0.865-0.599-1.874-0.599-2.934 0-0.094 0.002-0.187 0.005-0.279l-0 0.013c0-5.049 4.093-9.143 9.143-9.143s9.143 4.093 9.143 9.143v0z"></path>
</svg>
