<!-- Generated by IcoMoon.io -->
<svg version="1.1" xmlns="http://www.w3.org/2000/svg" width="31" height="32" viewBox="0 0 31 32">
<title>mapview</title>
<path fill="currentColor" d="M15.5 0.5c-8.561 0-15.5 6.939-15.5 15.5s6.939 15.5 15.5 15.5 15.5-6.939 15.5-15.5-6.939-15.5-15.5-15.5zM20.643 22.85c-0.244 0.242-0.499 0.497-0.707 0.705-0.187 0.188-0.319 0.419-0.386 0.669-0.094 0.354-0.171 0.711-0.298 1.054l-1.087 2.928c-0.86 0.188-1.75 0.293-2.666 0.293v-1.711c0.106-0.789-0.477-2.266-1.414-3.203-0.375-0.375-0.586-0.884-0.586-1.414v-2.001c0-0.727-0.392-1.396-1.029-1.748-0.898-0.497-2.176-1.191-3.051-1.632-0.717-0.361-1.381-0.821-1.978-1.359l-0.050-0.045c-0.422-0.382-0.794-0.807-1.113-1.272l-0.016-0.024c-0.586-0.861-1.541-2.276-2.162-3.196 1.279-2.844 3.585-5.128 6.45-6.368l1.501 0.751c0.665 0.332 1.447-0.151 1.447-0.894v-0.706c0.499-0.081 1.008-0.132 1.524-0.151l1.769 1.769c0.391 0.391 0.391 1.024 0 1.414l-0.293 0.292-0.646 0.646c-0.195 0.195-0.195 0.512 0 0.707l0.293 0.293c0.195 0.195 0.195 0.512 0 0.707l-0.5 0.5c-0.091 0.090-0.216 0.146-0.354 0.146 0 0 0 0 0 0h-0.562c-0.13 0-0.255 0.051-0.349 0.142l-0.62 0.603c-0.093 0.091-0.151 0.218-0.151 0.359 0 0.081 0.019 0.158 0.054 0.226l-0.001-0.003 0.974 1.949c0.166 0.332-0.076 0.724-0.447 0.724h-0.352c-0.121 0-0.237-0.044-0.328-0.123l-0.58-0.504c-0.175-0.152-0.405-0.245-0.656-0.245-0.113 0-0.222 0.019-0.323 0.053l0.007-0.002-1.948 0.649c-0.299 0.102-0.511 0.381-0.511 0.709 0 0 0 0 0 0v0c0 0.283 0.16 0.541 0.413 0.668l0.693 0.346c0.588 0.294 1.237 0.447 1.894 0.447s1.412 1.706 2 2h4.172c0.531 0 1.039 0.211 1.414 0.586l0.856 0.856c0.345 0.345 0.558 0.821 0.558 1.348 0 0 0 0 0 0v0c0 0.806-0.328 1.535-0.857 2.061v0zM26.063 17.141c-0.362-0.091-0.677-0.313-0.884-0.623l-1.124-1.686c-0.158-0.234-0.252-0.522-0.252-0.832s0.094-0.598 0.256-0.837l-0.003 0.005 1.224-1.836c0.145-0.217 0.344-0.393 0.578-0.509l0.811-0.406c0.845 1.683 1.332 3.575 1.332 5.583 0 0.542-0.046 1.073-0.114 1.596l-1.824-0.456z"></path>
</svg>
