<svg version="1.1" xmlns="http://www.w3.org/2000/svg" x="0" y="0" viewBox="0 0 64 64" xml:space="preserve"><g><g><path d="M11.019 23.935h5.22l.803 28.176h-6.725l.702-28.176zM6.098 53.124h51.804v3.628h3.104v3.622h3.01V64H-.016v-3.624h3.01v-3.624h3.104v-3.628zm54.505-37.056L31.998 2.515 3.395 16.068v2.216h57.208v-2.216zM8.909 19.296H55.09v3.625H8.909v-3.625zm38.75 4.639h5.222l.803 28.176h-6.727l.702-28.176zm-12.214 0h5.221l.803 28.176h-6.726l.702-28.176zm-12.213 0h5.221l.803 28.178H22.53l.702-28.178z"/></g></g></svg>
