<!-- Generated by IcoMoon.io -->
<svg version="1.1" xmlns="http://www.w3.org/2000/svg" width="34" height="32" viewBox="0 0 34 32">
<title>massgis</title>
<path fill="#6c757d" d="M17.143 0l17.143 6.857v2.286h-2.286c0 0.629-0.549 1.143-1.234 1.143h-27.246c-0.686 0-1.234-0.514-1.234-1.143h-2.286v-2.286zM4.571 11.429h4.571v13.714h2.286v-13.714h4.571v13.714h2.286v-13.714h4.571v13.714h2.286v-13.714h4.571v13.714h1.051c0.686 0 1.234 0.514 1.234 1.143v1.143h-29.714v-1.143c0-0.629 0.549-1.143 1.234-1.143h1.051v-13.714zM33.051 28.571c0.686 0 1.234 0.514 1.234 1.143v2.286h-34.286v-2.286c0-0.629 0.549-1.143 1.234-1.143h31.817z"></path>
</svg>
