<!-- Generated by IcoMoon.io -->
<svg version="1.1" xmlns="http://www.w3.org/2000/svg" width="27" height="32" viewBox="0 0 27 32">
<title>metadata</title>
<path fill="#6c757d" d="M26.217 8.503c0.171 0.171 0.343 0.389 0.491 0.64h-8.423v-8.434c0.251 0.171 0.457 0.331 0.64 0.503zM17.714 11.429h9.714v18.857c0 0.949-0.766 1.714-1.714 1.714h-24c-0.947 0-1.714-0.767-1.714-1.714v0-28.571c0-0.949 0.766-1.714 1.714-1.714h14.286v9.714c0 0.949 0.766 1.714 1.714 1.714zM20.571 24.571v-1.143c0-0.316-0.256-0.571-0.571-0.571v0h-12.571c-0.316 0-0.571 0.256-0.571 0.571v0 1.143c0 0.32 0.251 0.571 0.571 0.571h12.571c0.316 0 0.571-0.256 0.571-0.571v0zM20.571 20v-1.143c0-0.316-0.256-0.571-0.571-0.571v0h-12.571c-0.316 0-0.571 0.256-0.571 0.571v0 1.143c0 0.32 0.251 0.571 0.571 0.571h12.571c0.316 0 0.571-0.256 0.571-0.571v0zM20.571 15.429v-1.143c0-0.316-0.256-0.571-0.571-0.571v0h-12.571c-0.316 0-0.571 0.256-0.571 0.571v0 1.143c0 0.32 0.251 0.571 0.571 0.571h12.571c0.316 0 0.571-0.256 0.571-0.571v0z"></path>
</svg>
