<svg xmlns="http://www.w3.org/2000/svg" viewBox="0 0 154.413 178.788" xml:space="preserve" version="1.1"><g><g fill="#204037" fill-opacity="1" fill-rule="nonzero" stroke="none"><path d="M144.803 12.306s-9.282 19.922-14 29.827c-23.11-10.637-53.415-12.153-78.88 2.935-16.978 10.38-30.668 28.826-32.083 48.634-.473 13.207 5.262 27.66 3.375 40.868-.47 7.071-2.1 14.136-5.402 20.261C13.57 161.91 8.489 168.042 0 168.515c1.888-2.357 14.992-8.821 9.839-38.502C7.795 118.244-8.38 89.06 7.253 52.47c14.276-33.408 76.035-72.989 137.55-40.164"/><path d="M74.042 70.889c7.997-2.884 16.956-2.936 25.451-1.056 16.032 2.83 28.033 12.507 33.885 26.875 6.122 15.034 10.516 27.164 21.03 40.015.302.37-16.42-2.456-16.358-2.918 4.09-29.794-24.073-31.024-31.839-19.865 5.844 6.428 15.876 9.728 23.662 8.472-1.65 29.59 6.6 56.438 6.136 56.376-6.711-.93-37.457-19.018-46.446-26.873-13.208 2.354-23.552 7.234-38.85 9.348-.47.065 2.807-11.285 2.336-16.944 0-15.561-11.926-30.15-3.488-49.265 5.06-11.465 12.69-19.922 24.481-24.165"/><path d="M85.106 61.913c.897.013 2.256.22 2.282.126.252-1.028 1.09-8.407 7.378-13.788 6.993-5.986 16.186-5.392 16.092-5.448-9.159-2.8-18.599-2.998-25.117-2.422l-.634 21.532"/><path d="M26.847 88.762c-1.393 8.867-1.488 17.095-.744 21.467.018.058 1.32-7.51 5.623-11.77 3.75-3.715 8.528-4.44 10.222-4.382 0-.023.851-2.9.73-2.908l-15.831-2.407"/><path d="M44.578 87.116c.461-1.184 1.023-2.224 1.709-3.569l-16.274-6.31c-1.012 2.027-1.773 5.067-2.152 6.713l16.717 3.166"/><path d="M48.504 80.91c.046-.05 2.614-3.325 2.66-3.293l-14.912-11.21c-1.551 1.964-2.818 4.118-3.833 6.397l16.085 8.106"/><path d="M54.056 74.806a921.81 921.81 0 013.315-3.014L44.45 57.1c-2.913 2.53-3.798 3.67-5.573 5.826l15.178 11.879"/><path d="M60.765 69.71c.026.18 3.712-2.064 3.795-2.228l-9.597-17.475c-3.672 1.773-6.017 3.674-7.09 4.434l12.892 15.268"/><path d="M67.882 65.84c4.58-1.556 4.56-1.604 4.56-1.52l-5.446-19.632c-3.038.887-7.141 2.643-8.107 3.293l8.993 17.859"/><path d="M75.989 63.179c.165.083 4.13-.884 4.18-.887l.505-21.28c-.165.167-4.94.89-8.992 2.03L75.99 63.18"/></g></g></svg>
