<!-- Generated by IcoMoon.io -->
<svg version="1.1" xmlns="http://www.w3.org/2000/svg" width="32" height="32" viewBox="0 0 32 32">
<title>mixed</title>
<path fill="none" stroke="#6c757d" stroke-linejoin="miter" stroke-linecap="butt" stroke-miterlimit="10" stroke-width="1.52" d="M0.76 15.3h3.31v3.31h-3.31v-3.3zM13.38 15.3h3.32v3.31h-3.32v-3.3zM0.76 27.93h3.31v3.31h-3.31v-3.31zM13.38 27.93h3.32v3.31h-3.32v-3.31z"></path>
<path fill="none" stroke="#6c757d" stroke-linejoin="miter" stroke-linecap="butt" stroke-miterlimit="10" stroke-width="1.77" d="M4.070 16.96h9.31M4.070 30.070h9.31M15.040 27.93v-9.33M2.42 27.93v-9.33"></path>
<path fill="#6c757d" d="M29.4 2.6c1.67 1.68 2.6 3.91 2.6 6.3s-0.92 4.6-2.6 6.28c-1.68 1.68-3.91 2.6-6.29 2.6s-4.6-0.92-6.28-2.6c-1.68-1.68-2.6-3.91-2.6-6.28s0.92-4.61 2.6-6.29c1.67-1.69 3.9-2.61 6.27-2.61s4.6 0.92 6.29 2.6zM28.6 14.4c1.050-1.046 1.8-2.393 2.111-3.9l0.009-0.050c-0.23 0.35-0.45 0.48-0.6-0.3-0.13-1.25-1.29-0.45-2.010-0.9-0.77 0.52-2.48-1-2.2 0.72 0.46 0.77 2.44-1.040 1.45 0.6-0.63 1.13-2.3 3.65-2.090 4.96 0.030 1.9-1.94 0.4-2.62-0.23-0.46-1.27-0.16-3.48-1.35-4.1-1.3-0.060-2.42-0.17-2.92-1.63-0.3-1.030 0.32-2.58 1.43-2.82 1.63-1.020 2.22 1.2 3.74 1.24 0.48-0.5 1.77-0.65 1.88-1.2-1-0.19 1.27-0.85-0.1-1.23-0.75 0.090-1.24 0.78-0.84 1.37-1.46 0.34-1.5-2.12-2.91-1.34-0.040 1.22-2.3 0.4-0.78 0.15 0.52-0.23-0.85-0.89-0.11-0.77 0.36-0.020 1.58-0.45 1.25-0.73 0.68-0.43 1.26 1 1.92-0.040 0.48-0.8-0.2-0.95-0.8-0.54-0.34-0.38 0.6-1.2 1.43-1.56 0.27-0.12 0.54-0.18 0.74-0.16 0.42 0.48 1.19 0.56 1.23-0.060-0.981-0.483-2.136-0.765-3.357-0.765-1.75 0-3.365 0.58-4.663 1.559l0.020-0.014c0.36 0.16 0.57 0.36 0.22 0.63-0.27 0.8-1.36 1.87-2.31 1.72-0.475 0.8-0.816 1.738-0.965 2.738l-0.005 0.042c0.8 0.27 0.99 0.8 0.82 0.97-0.41 0.35-0.66 0.86-0.79 1.4 0.614 3.708 3.797 6.5 7.632 6.5 0.014 0 0.027-0 0.041-0h-0.002c2.080 0.010 4.030-0.8 5.5-2.26z"></path>
</svg>
