<!-- Generated by IcoMoon.io -->
<svg version="1.1" xmlns="http://www.w3.org/2000/svg" width="32" height="32" viewBox="0 0 32 32">
<title>multipoint</title>
<path fill="#6c757d" d="M11.52 17.060c0-0.86-0.3-1.6-0.91-2.2s-1.35-0.92-2.2-0.92c-0.87 0-1.6 0.3-2.21 0.92s-0.92 1.34-0.92 2.2c0 0.86 0.3 1.6 0.92 2.2s1.34 0.92 2.2 0.92c0.86 0 1.6-0.3 2.21-0.91s0.91-1.35 0.91-2.2zM14.64 17.060c0 0.89-0.13 1.62-0.4 2.18l-4.43 9.43c-0.13 0.27-0.33 0.48-0.58 0.64s-0.53 0.23-0.83 0.23c-0.29 0-0.56-0.080-0.82-0.23s-0.44-0.37-0.56-0.64l-4.45-9.43c-0.27-0.57-0.4-1.3-0.4-2.18 0-1.72 0.6-3.19 1.82-4.4s2.7-1.84 4.41-1.84c1.73 0 3.2 0.61 4.41 1.83s1.83 2.69 1.83 4.41zM27.020 8.56c0-0.86-0.3-1.6-0.91-2.2s-1.35-0.92-2.2-0.92c-0.87 0-1.6 0.3-2.21 0.92s-0.92 1.34-0.92 2.2c0 0.86 0.3 1.6 0.92 2.2s1.34 0.92 2.2 0.92c0.86 0 1.6-0.3 2.2-0.91s0.92-1.35 0.92-2.2zM30.14 8.56c0 0.89-0.13 1.61-0.4 2.18l-4.43 9.43c-0.13 0.27-0.33 0.48-0.58 0.64s-0.53 0.23-0.83 0.23c-0.29 0-0.56-0.080-0.82-0.23s-0.44-0.37-0.57-0.64l-4.44-9.43c-0.27-0.57-0.4-1.3-0.4-2.18 0-1.72 0.6-3.19 1.82-4.4 1.093-1.135 2.626-1.841 4.324-1.841 0.030 0 0.060 0 0.090 0.001l-0.005-0c0.028-0 0.062-0.001 0.095-0.001 1.693 0 3.222 0.701 4.313 1.829l0.002 0.002c1.13 1.093 1.831 2.622 1.831 4.315 0 0.033-0 0.067-0.001 0.1l0-0.005z"></path>
</svg>
