<svg version="1.1" xmlns="http://www.w3.org/2000/svg" x="0" y="0" viewBox="0 0 64 64" xml:space="preserve"><g fill="#553190"><path d="M16.61 14.458c-3.613 3.892-5.281 17.79 10.146 17.79h.417c-9.59-5.281-8.339-13.203-4.586-18.763.417-.695-2.363-7.228-2.502-6.254-.279 2.779-2.919 6.115-3.475 7.227z"/><path d="M29.674 31.97c-6.254-11.814 6.811-19.736 6.811-21.125 0-4.031-2.642-11.814-2.919-10.702-.973 3.613-5.977 8.895-6.95 10.006-8.894 9.729-6.67 17.512 3.058 21.821z"/><path d="M31.065 31.97c.833-11.952 12.369-13.342 13.342-15.705 1.529-4.031-1.668-11.397-1.946-10.841-1.112 2.918-3.474 5.56-3.474 5.56-9.591 7.227-11.398 13.203-7.922 20.708v.278z"/><path d="M32.176 32.248c18.625 1.528 17.651-19.875 17.651-19.875-1.111 2.78-3.475 4.169-3.612 4.448-2.363 3.057-11.815 3.335-13.899 15.149-.14 0-.14.278-.14.278z"/><rect x="23.698" y="33.776" width="12.648" height="3.753"/><path d="M28.98 63.381c.139.555 1.39.973 1.806 0l3.058-24.323h-7.505l2.641 24.323z"/></g></svg>
