<!-- Generated by IcoMoon.io -->
<svg version="1.1" xmlns="http://www.w3.org/2000/svg" width="24" height="32" viewBox="0 0 24 32">
<title>pagelines-brands</title>
<path fill="#6c757d" d="M24 19.54c-3.44 8.55-11.7 3.38-11.7 3.38-2.53 5.11-6.7 8.4-11.53 8.42-1 0-1.040-1.53 0-1.53 4.020-0.020 7.53-2.67 9.82-6.88-2.57 1-7.4 1.75-10.1-5.13 6.82-2.81 9.95 0.7 11.15 2.84 0.59-1.435 1.061-3.111 1.334-4.852l0.016-0.128s-8.73 1.37-9.35-6.13c7.45-3 9.54 4.8 9.54 4.8 0.1-1.050 0.2-3.3 0.2-3.35 0 0-6.64-4.6-2.37-10.32 7.78 2.69 3.83 10.15 3.83 10.15 0.030 0.1 0.030 1.49 0 2.090 0 0 2.83-5.57 8.53-3.6-0.26 8.38-8.87 6.65-8.87 6.65-0.28 1.71-0.7 3.34-1.25 4.85 0 0 5.19-5.74 10.75-1.25z"></path>
</svg>
