<svg viewBox="0 0 129 129" version="1.1" xmlns="http://www.w3.org/2000/svg"><g stroke="none" stroke-width="1" fill="none" fill-rule="evenodd"><g><path d="M59.522 126.379c-9.888-4.988-21.164-12.96-28.939-20.457C13.56 89.505 3.632 70.258.526 47.652-.165 42.625.118 20.607.91 17.713l.354-1.29 3.92 1.371c7.804 2.73 18.026 3.652 25.631 2.312 10.967-1.933 21.725-7.982 29.673-16.683C62.21 1.537 63.82-.005 64.067-.005s1.055.72 1.797 1.602c2.585 3.07 8.108 8.026 11.568 10.381 10.035 6.831 21.526 9.782 33.179 8.52 4.908-.53 13.278-2.612 14.739-3.664.534-.385.988-.452 1.22-.181 1.72 2.005 2.147 24.104.646 33.496-4.383 27.443-19.477 50.367-44.605 67.747-7.234 5.003-16.741 10.252-18.57 10.252-.556 0-2.59-.796-4.52-1.77zm8.402-.868c8.34-4.24 17.825-10.663 25.098-16.994l3.658-3.185-16.33-11.764-16.329-11.765-16.265 11.713-16.265 11.713 2.775 2.59c4.65 4.34 16.653 12.754 23.125 16.208 3.365 1.797 6.324 3.267 6.573 3.267.25 0 2.032-.803 3.96-1.783zm-27.18-54.71l23.275-16.764 23.407 16.86C102.078 81.45 111.035 87.6 111.373 87.34c.917-.706 4.552-7.021 6.791-11.801 3.213-6.856 5.244-13.023 7.262-22.041l.31-1.389h-61.73c-58.506 0-61.716.04-61.445.748.158.411.46 1.709.671 2.883.658 3.658 3.734 13.15 5.693 17.566 2.865 6.462 7.284 14.26 8.08 14.26.255 0 10.937-7.545 23.739-16.766z" fill="#000000"/><path d="M15.596 85.628c-5.22-8.253-9.443-18.501-12.058-29.266l-.876-3.607.66-.175c.364-.097 28.024-.211 61.467-.254l60.805-.08-.174.633c-.096.347-.542 2.157-.992 4.021-2.145 8.898-4.81 15.863-9.084 23.742-2.111 3.892-3.768 6.43-4.197 6.43-.544 0-6.057-3.822-26.284-18.221-11.416-8.127-20.865-14.776-20.998-14.776-.133 0-10.644 7.475-23.358 16.611-12.714 9.136-23.283 16.611-23.486 16.611-.203 0-.844-.751-1.425-1.67h0z" stroke="#000000" stroke-width=".613"/><path d="M60.118 125.274c-6.026-3.108-12.415-7.222-19.495-12.553-4.193-3.157-8.73-7.027-8.745-7.457-.004-.125 7.227-5.439 16.07-11.809l16.078-11.582 16.26 11.716 16.259 11.716-1.818 1.562c-7.838 6.734-16.226 12.7-23.297 16.574-3.74 2.048-6.983 3.633-7.435 3.633-.213 0-1.957-.81-3.877-1.8h0z" stroke="#000000" stroke-width=".613"/></g></g></svg>
