<!-- Generated by IcoMoon.io -->
<svg version="1.1" xmlns="http://www.w3.org/2000/svg" width="32" height="32" viewBox="0 0 32 32">
<title>princeton</title>
<path fill="#6c757d" d="M14.77 31.35c-2.742-1.435-5.102-3.125-7.196-5.095l0.016 0.015c-3.965-3.699-6.674-8.698-7.446-14.314l-0.014-0.126c-0.17-1.25-0.1-6.7 0.1-7.43l0.080-0.32 0.98 0.34c1.93 0.68 4.47 0.9 6.35 0.58 2.941-0.582 5.468-2.063 7.35-4.139l0.010-0.011c0.43-0.47 0.83-0.85 0.9-0.85s0.25 0.18 0.44 0.4c0.64 0.76 2.010 1.99 2.87 2.57 1.937 1.363 4.346 2.178 6.945 2.178 0.453 0 0.9-0.025 1.34-0.073l-0.054 0.005c1.22-0.13 3.3-0.64 3.65-0.9 0.14-0.1 0.25-0.12 0.3-0.050 0.43 0.5 0.54 5.98 0.17 8.3-1.090 6.82-4.83 12.5-11.070 16.81-1.8 1.25-4.15 2.55-4.6 2.55-0.14 0-0.65-0.2-1.12-0.44zM16.85 31.13c2.365-1.243 4.404-2.642 6.262-4.245l-0.042 0.035 0.91-0.8-8.1-5.83-8.070 5.81 0.69 0.64c1.688 1.448 3.566 2.781 5.56 3.934l0.18 0.096c0.83 0.44 1.57 0.8 1.63 0.8s0.5-0.2 0.98-0.44zM10.1 17.56l5.77-4.16 5.8 4.19c3.64 2.61 5.86 4.14 5.95 4.070 0.23-0.17 1.13-1.74 1.68-2.92 0.8-1.7 1.3-3.23 1.8-5.47l0.080-0.34h-15.3c-14.52 0-15.31 0-15.25 0.18 0.413 1.941 0.958 3.636 1.65 5.253l-0.070-0.183c0.71 1.6 1.81 3.54 2 3.54 0.070 0 2.72-1.87 5.9-4.16z"></path>
</svg>
