<!-- Generated by IcoMoon.io -->
<svg version="1.1" xmlns="http://www.w3.org/2000/svg" width="30" height="32" viewBox="0 0 30 32">
<title>public</title>
<path fill="#6c757d" d="M29.714 10.286v4.571c0 0.631-0.512 1.143-1.143 1.143v0h-1.143c-0.631 0-1.143-0.512-1.143-1.143v0-4.571c0-2.525-2.047-4.571-4.571-4.571s-4.571 2.047-4.571 4.571v0 3.429h1.714c0.949 0 1.714 0.766 1.714 1.714v10.286c0 0.949-0.766 1.714-1.714 1.714h-17.143c-0.947 0-1.714-0.767-1.714-1.714v0-10.286c0-0.949 0.766-1.714 1.714-1.714h12v-3.429c0-4.418 3.582-8 8-8s8 3.582 8 8v0z"></path>
</svg>
