<svg xmlns="http://www.w3.org/2000/svg" version="1.1" viewBox="0 0 183.549 100.5" xml:space="preserve"><path style="text-indent:0;text-align:start;line-height:normal;text-transform:none;block-progression:tb;marker:none;-inkscape-font-specification:Sans" d="M42.906 0c-5.977 13.79-11.831 27.738-17.75 41.594h18.782l-7.376 17.312h-18.78C11.784 72.692 5.98 86.673 0 100.5h100.375c3.985-9.197 7.867-18.441 11.813-27.656 16.325-.196 33.904 1.653 48.367-7.483 12.452-7.846 19.136-22.18 22.505-36.036 2.632-10.883-3.755-22.85-14.465-26.367C156.137-1.545 142.71.45 129.748 0H42.906zm113.969 1.344c3.403-.455 17.204 4.462 8.312 1.531-2.713-.775-5.505-1.256-8.312-1.531zM44.219 2c36.512.073 73.03-.148 109.539.114 10.646.221 23.388 4.245 26.855 15.515 3.273 11.657-3.12 23.254-8.522 33.183-7.743 13.54-23.575 19.684-38.542 19.937-7.556.187-15.116.056-22.674.095-3.985 9.197-7.867 18.441-11.813 27.656h-96l16.032-37.594h18.812c3.012-7.11 6.025-14.23 9.094-21.312H28.156L44.22 2z" font-size="medium" font-style="normal" font-variant="normal" font-weight="400" font-stretch="normal" text-decoration="none" letter-spacing="normal" word-spacing="normal" direction="ltr" writing-mode="lr-tb" text-anchor="start" baseline-shift="baseline" color="#000" fill="#000" fill-opacity="1" stroke="none" stroke-width="1" visibility="visible" display="inline" overflow="visible" font-family="Sans"/><path d="M121.86 44.898H88.23c2.31-5.42 4.618-10.84 6.926-16.26 11.896.09 23.807-.182 35.693.142 9.113 1.457 3.339 13.23-2.79 14.882-1.95.843-4.078 1.238-6.198 1.236zm24.685-31.253H49.194l-6.386 14.993H61.59L42.887 72.563H24.07L17.68 87.568h71.46l6.39-15.005H76.453l5.395-12.672c17.253-.144 34.524.315 51.765-.28 11.068-.591 22.508-5.797 27.534-16.18 3.102-6.83 7.777-14.188 6.212-21.982-3.09-7.862-13.812-7.485-20.813-7.804z" fill="#000" fill-opacity="1" stroke="none" stroke-opacity="1"/></svg>
