<svg version="1.1" xmlns="http://www.w3.org/2000/svg" viewBox="0 0 32 32"><path d="M27.314 4.686C30.336 7.708 32 11.726 32 16s-1.664 8.292-4.686 11.314C24.292 30.336 20.274 32 16 32s-8.292-1.664-11.314-4.686C1.664 24.292 0 20.274 0 16S1.664 7.708 4.686 4.686C7.708 1.664 11.726 0 16 0s8.292 1.664 11.314 4.686zM25.899 25.9a13.9 13.9 0 003.821-7.096c-.421.62-.824.85-1.073-.538-.257-2.262-2.335-.817-3.641-1.621-1.375.927-4.466-1.802-3.941 1.276.81 1.388 4.375-1.858 2.598 1.079-1.134 2.05-4.145 6.592-3.753 8.946.049 3.43-3.504.715-4.729-.422-.824-2.279-.281-6.262-2.434-7.378-2.338-.102-4.344-.314-5.25-2.927-.545-1.87.58-4.653 2.584-5.083 2.933-1.843 3.98 2.158 6.731 2.232.854-.894 3.182-1.178 3.375-2.18-1.805-.318 2.29-1.517-.173-2.199-1.358.16-2.234 1.409-1.512 2.467-2.632.614-2.717-3.809-5.247-2.414-.064 2.206-4.132.715-1.407.268.936-.409-1.527-1.594-.196-1.379.654-.036 2.854-.807 2.259-1.325 1.225-.761 2.255 1.822 3.454-.059.866-1.446-.363-1.713-1.448-.98-.612-.685 1.08-2.165 2.573-2.804.497-.213.973-.329 1.336-.296.752.868 2.142 1.019 2.215-.104A13.944 13.944 0 0016.001 2a13.89 13.89 0 00-8.353 2.762c.645.296 1.012.664.39 1.134-.483 1.439-2.443 3.371-4.163 3.098a13.841 13.841 0 00-1.733 5.017c1.441.477 1.773 1.42 1.464 1.736-.734.64-1.185 1.548-1.418 2.541A13.896 13.896 0 006.103 25.9c2.644 2.644 6.16 4.1 9.899 4.1s7.255-1.456 9.899-4.1z" fill="#000000"/></svg>
