<!-- Generated by IcoMoon.io -->
<svg version="1.1" xmlns="http://www.w3.org/2000/svg" width="32" height="32" viewBox="0 0 32 32">
<title>raster</title>
<path fill="#6c757d" d="M27.31 4.69c3.030 3.010 4.69 7.040 4.69 11.31s-1.66 8.3-4.69 11.31c-3.010 3.030-7.040 4.69-11.31 4.69s-8.3-1.66-11.31-4.69c-3.030-3.010-4.69-7.040-4.69-11.31s1.66-8.3 4.69-11.31c3.010-3.030 7.040-4.69 11.31-4.69s8.3 1.66 11.31 4.69zM25.9 25.9c1.89-1.881 3.241-4.301 3.804-7.010l0.016-0.090c-0.42 0.62-0.82 0.85-1.070-0.53-0.26-2.27-2.34-0.82-3.64-1.63-1.38 0.93-4.47-1.8-3.95 1.28 0.82 1.39 4.38-1.86 2.6 1.080-1.13 2.050-4.14 6.6-3.75 8.95 0.050 3.43-3.5 0.71-4.73-0.43-0.82-2.28-0.28-6.26-2.43-7.37-2.34-0.1-4.35-0.32-5.25-2.93-0.55-1.87 0.58-4.65 2.58-5.080 2.93-1.85 3.98 2.15 6.73 2.23 0.86-0.9 3.18-1.18 3.38-2.18-1.8-0.32 2.29-1.52-0.18-2.2-1.35 0.16-2.23 1.4-1.5 2.47-2.64 0.61-2.73-3.81-5.26-2.42-0.060 2.2-4.13 0.72-1.4 0.27 0.93-0.4-1.53-1.6-0.2-1.38 0.66-0.030 2.86-0.8 2.26-1.32 1.23-0.76 2.26 1.82 3.45-0.060 0.87-1.45-0.36-1.72-1.44-0.98-0.62-0.69 1.080-2.17 2.57-2.8 0.5-0.22 0.97-0.34 1.34-0.3 0.75 0.87 2.14 1.020 2.21-0.1-1.762-0.864-3.835-1.37-6.027-1.37-0.005 0-0.009 0-0.014 0h0.001c-3.050 0-5.95 0.97-8.35 2.76 0.64 0.3 1.010 0.67 0.39 1.14-0.49 1.44-2.45 3.37-4.17 3.1-0.85 1.44-1.458 3.126-1.721 4.925l-0.009 0.075c1.44 0.48 1.77 1.42 1.47 1.74-0.708 0.66-1.213 1.529-1.415 2.509l-0.005 0.031c0.5 3.004 1.9 5.617 3.91 7.62l0 0c2.65 2.64 6.16 4.1 9.9 4.1s7.26-1.46 9.9-4.1z"></path>
</svg>
