<!-- Generated by IcoMoon.io -->
<svg version="1.1" xmlns="http://www.w3.org/2000/svg" width="21" height="32" viewBox="0 0 21 32">
<title>restricted</title>
<path fill="#6c757d" d="M5.714 13.714h9.143v-3.429c0-2.525-2.047-4.571-4.571-4.571s-4.571 2.047-4.571 4.571v0 3.429zM20.571 15.429v10.286c0 0.949-0.766 1.714-1.714 1.714h-17.143c-0.947 0-1.714-0.767-1.714-1.714v0-10.286c0-0.949 0.766-1.714 1.714-1.714h0.571v-3.429c0-4.389 3.611-8 8-8s8 3.611 8 8v3.429h0.571c0.949 0 1.714 0.766 1.714 1.714z"></path>
</svg>
