<!-- Generated by IcoMoon.io -->
<svg version="1.1" xmlns="http://www.w3.org/2000/svg" width="32" height="32" viewBox="0 0 25 32">
<title>rutgers-university-new-brunswick</title>
<path fill="#fff" d="M0 0v18.221c0.068 3.049 1.065 5.673 2.959 7.808 3.373 3.791 8.478 4.732 9.050 4.826 0.041 0.008 0.068 0.011 0.079 0.015l0.113 0.015 0.117-0.015c0.23-0.034 5.621-0.862 9.148-4.841 0.798-0.904 1.446-1.909 1.92-2.989 0.64-1.453 0.983-3.076 1.020-4.823v-18.217h-24.407z"></path>
<path fill="#6c757d" d="M15.842 1.325h-1.943l-0.215 5.346c0.056 0.011 0.117 0.023 0.173 0.034l1.984-5.38z"></path>
<path fill="#6c757d" d="M19.008 8.166l4.077-2.963v-3.629l-4.796 6.592h0.719z"></path>
<path fill="#6c757d" d="M16.738 7.932l6.103-6.607h-3.245l-3.004 6.509c0.049 0.034 0.098 0.064 0.147 0.098v0z"></path>
<path fill="#6c757d" d="M15.36 7.176l3.584-5.85h-2.353l-1.393 5.783c0.056 0.023 0.109 0.045 0.162 0.068v0z"></path>
<path fill="#6c757d" d="M23.085 8.166v-2.078l-2.251 2.078h2.251z"></path>
<path fill="#6c757d" d="M12.201 6.536c0.034 0 0.068 0 0.102 0l0.821-5.21h-1.822l0.824 5.21c0.023 0 0.045 0 0.072 0v0z"></path>
<path fill="#6c757d" d="M10.737 6.671l-0.215-5.346h-1.943l1.984 5.38c0.056-0.011 0.117-0.023 0.173-0.034v0z"></path>
<path fill="#6c757d" d="M6.136 8.166l-4.796-6.592v3.629l4.077 2.963h0.719z"></path>
<path fill="#6c757d" d="M7.834 7.834l-3.004-6.509h-3.245l6.106 6.603c0.045-0.034 0.098-0.064 0.147-0.098v0z"></path>
<path fill="#6c757d" d="M9.227 7.108l-1.389-5.783h-2.353l3.584 5.85c0.053-0.023 0.109-0.045 0.162-0.068v0z"></path>
<path fill="#6c757d" d="M1.34 6.088v2.078h2.251l-2.251-2.078z"></path>
<path fill="#6c757d" d="M0 0v18.221c0.068 3.049 1.065 5.673 2.959 7.808 3.373 3.791 8.478 4.732 9.050 4.826 0.041 0.008 0.068 0.011 0.079 0.015l0.113 0.015 0.117-0.015c0.23-0.034 5.621-0.862 9.148-4.841 0.798-0.904 1.446-1.909 1.92-2.989 0.64-1.453 0.983-3.076 1.020-4.823v-18.217h-24.407zM23.782 18.206c-0.038 1.656-0.361 3.196-0.968 4.578-0.448 1.024-1.062 1.976-1.818 2.831-3.381 3.821-8.553 4.608-8.772 4.638h-0.023s-0.023 0-0.023 0c-0.011 0-0.034-0.004-0.068-0.011-0.55-0.090-5.455-0.994-8.689-4.627-1.792-2.018-2.737-4.51-2.801-7.409v-17.585h23.16v17.585z"></path>
<path fill="#6c757d" d="M5.692 16.226v0.659h0.64v-0.659h-0.64z"></path>
<path fill="#6c757d" d="M4.476 15.767l0.011 0.041h1.845v-2.127l-0.075 0.030c-0.128 0.049-0.256 0.075-0.399 0.087-0.023 0-0.045 0-0.072 0-0.011 0-0.023 0-0.034 0-0.32 0-0.632-0.068-0.922-0.203-0.030-0.015-0.056-0.026-0.090-0.045-0.098-0.041-0.203-0.064-0.309-0.064-0.429 0-0.779 0.35-0.779 0.776 0 0.256 0.049 0.343 0.369 0.693 0.218 0.233 0.369 0.508 0.459 0.813v0z"></path>
<path fill="#6c757d" d="M8.023 16.226h0.644v0.659h-0.644v-0.659z"></path>
<path fill="#6c757d" d="M1.344 18.225c0.060 2.718 0.945 5.056 2.624 6.942 2.669 3.004 6.626 4.047 7.891 4.314v-20.616h-10.515v9.355zM4.634 20.672h-1.024v-0.079l0.2-0.023c0.132-0.015 0.132-0.041 0.132-0.369v-0.794c0-0.361-0.023-0.392-0.083-0.392-0.034 0-0.064 0.004-0.102 0.011l-0.2 0.034-0.026-0.079c0.128-0.053 0.674-0.237 0.723-0.252l0.045 0.034v1.442c0 0.324 0 0.35 0.132 0.369l0.2 0.023v0.079zM9.325 18.074h-5.478v-0.196h5.478v0.196zM3.848 17.483h5.478v0.196h-5.478v-0.196zM5.877 19.912c-0.154 0.369-0.196 0.392-0.297 0.824l-0.034 0.023c-0.136-0.060-0.226-0.117-0.305-0.222 0.034-0.211 0.407-0.617 0.666-1.035 0.139-0.226 0.173-0.339 0.196-0.448h-0.58c-0.335 0-0.309 0-0.399 0.233l-0.079-0.023c0.019-0.169 0.045-0.339 0.136-0.493h1.208l0.026 0.034c-0.083 0.309-0.222 0.452-0.546 1.107v0zM7.345 20.717c-0.361 0-0.67-0.264-0.67-0.817 0-0.817 0.535-1.171 1.024-1.171 0.143 0 0.245 0.038 0.29 0.056l-0.023 0.083c-0.053-0.011-0.087-0.023-0.192-0.023-0.41 0-0.723 0.339-0.723 1.016 0 0.429 0.124 0.742 0.38 0.742 0.2 0 0.275-0.203 0.275-0.395 0-0.29-0.166-0.546-0.395-0.546-0.026 0-0.053 0-0.079 0.008l-0.011-0.053c0.068-0.053 0.162-0.128 0.331-0.128 0.248 0 0.478 0.222 0.478 0.504 0 0.478-0.297 0.723-0.678 0.723v0zM9.005 20.717c-0.361 0-0.67-0.264-0.67-0.817 0-0.817 0.538-1.171 1.024-1.171 0.143 0 0.245 0.038 0.286 0.056l-0.023 0.083c-0.053-0.011-0.087-0.023-0.192-0.023-0.41 0-0.723 0.339-0.723 1.016 0 0.429 0.124 0.742 0.38 0.742 0.2 0 0.275-0.203 0.275-0.395 0-0.29-0.166-0.546-0.399-0.546-0.026 0-0.049 0-0.079 0.008l-0.011-0.053c0.068-0.053 0.162-0.128 0.331-0.128 0.248 0 0.478 0.222 0.478 0.504 0 0.478-0.297 0.723-0.678 0.723v0zM6.592 11.618c0.264 0 0.478 0.215 0.478 0.478s-0.215 0.478-0.478 0.478-0.478-0.215-0.478-0.478 0.215-0.478 0.478-0.478v0zM4.424 12.913c0.196 0 0.388 0.041 0.565 0.12 0.026 0.011 0.053 0.026 0.079 0.038 0.215 0.098 0.444 0.151 0.678 0.151h0.023c0.019 0 0.038 0 0.056 0 0.26-0.019 0.493-0.169 0.614-0.403h0.316c0.12 0.233 0.354 0.384 0.617 0.403 0.019 0 0.038 0 0.064 0h0.015c0.218 0 0.429-0.041 0.636-0.128 0.053-0.030 0.102-0.056 0.154-0.079 0.166-0.068 0.343-0.105 0.523-0.105 0.749 0 1.359 0.61 1.359 1.359 0 0.35-0.181 0.727-0.508 1.069-0.008 0.008-0.015 0.015-0.023 0.023-0.192 0.215-0.32 0.474-0.365 0.757-0.008 0.049-0.011 0.098-0.015 0.151v0.166c0.008 0.169 0.049 0.331 0.113 0.486v0.328h-5.478v-0.309c0.083-0.188 0.124-0.388 0.124-0.591 0-0.075-0.004-0.154-0.015-0.23-0.045-0.286-0.173-0.55-0.365-0.764-0.008-0.008-0.015-0.019-0.023-0.026-0.328-0.343-0.504-0.712-0.504-1.065 0-0.749 0.61-1.359 1.359-1.359v0z"></path>
<path fill="#6c757d" d="M4.533 16.226h0.64v0.659h-0.64v-0.659z"></path>
<path fill="#6c757d" d="M8.715 15.767c0.087-0.305 0.241-0.576 0.456-0.809 0.038-0.045 0.373-0.448 0.373-0.693 0-0.429-0.35-0.776-0.776-0.776-0.102 0-0.203 0.019-0.297 0.060-0.030 0.011-0.060 0.026-0.090 0.045l-0.072 0.034c-0.271 0.117-0.557 0.173-0.855 0.173h-0.038c-0.023 0-0.045 0-0.079 0-0.136-0.008-0.271-0.038-0.399-0.090l-0.075-0.030v2.135h1.841l0.011-0.041z"></path>
<path fill="#6c757d" d="M6.859 16.226h0.64v0.659h-0.64v-0.659z"></path>
<path fill="#6c757d" d="M15.959 16.99c0.139-0.011 0.241-0.034 0.331-0.049 0.098-0.023 0.184-0.038 0.301-0.041 0.184-0.008 0.376 0.038 0.572 0.12v-0.245c-0.196-0.072-0.388-0.109-0.576-0.105-0.143 0-0.245 0.023-0.346 0.045-0.087 0.019-0.177 0.038-0.301 0.045-0.181 0.011-0.361 0-0.542-0.038v0.233c0.184 0.034 0.373 0.049 0.557 0.034v0z"></path>
<path fill="#6c757d" d="M15.959 16.365c0.139-0.011 0.241-0.030 0.331-0.049 0.098-0.023 0.184-0.038 0.301-0.041 0.184-0.004 0.376 0.038 0.572 0.12v-0.245c-0.196-0.072-0.388-0.105-0.576-0.105-0.143 0-0.245 0.023-0.346 0.045-0.087 0.019-0.177 0.038-0.301 0.045-0.181 0.011-0.361 0-0.542-0.041v0.233c0.184 0.034 0.373 0.049 0.557 0.034v0z"></path>
<path fill="#6c757d" d="M15.959 15.744c0.139-0.011 0.241-0.030 0.331-0.049 0.098-0.023 0.184-0.038 0.301-0.041 0.188-0.008 0.376 0.038 0.572 0.12v-0.245c-0.192-0.072-0.384-0.109-0.576-0.102-0.143 0-0.245 0.023-0.346 0.045-0.087 0.019-0.177 0.038-0.301 0.045-0.181 0.015-0.361 0-0.542-0.038v0.233c0.184 0.034 0.373 0.045 0.557 0.034v0z"></path>
<path fill="#6c757d" d="M15.959 14.498c0.139-0.011 0.241-0.030 0.331-0.049 0.098-0.023 0.184-0.038 0.301-0.041 0.184-0.004 0.376 0.038 0.572 0.12v-0.245c-0.196-0.072-0.388-0.109-0.576-0.105-0.143 0-0.245 0.023-0.346 0.045-0.087 0.019-0.177 0.038-0.301 0.045-0.181 0.015-0.361 0-0.542-0.038v0.233c0.184 0.034 0.373 0.049 0.557 0.034v0z"></path>
<path fill="#6c757d" d="M15.959 15.119c0.139-0.008 0.241-0.030 0.331-0.049 0.098-0.019 0.184-0.038 0.301-0.041 0.184-0.004 0.376 0.038 0.572 0.12v-0.245c-0.192-0.072-0.384-0.109-0.576-0.105-0.143 0-0.245 0.023-0.346 0.045-0.087 0.019-0.177 0.038-0.301 0.045-0.181 0.015-0.361 0-0.538-0.041v0.233c0.184 0.034 0.373 0.045 0.557 0.034v0z"></path>
<path fill="#6c757d" d="M15.959 13.877c0.139-0.008 0.241-0.030 0.331-0.049 0.098-0.019 0.184-0.038 0.301-0.041 0.188-0.004 0.376 0.038 0.572 0.12v-0.245c-0.192-0.072-0.384-0.109-0.576-0.105-0.143 0-0.245 0.023-0.346 0.045-0.087 0.019-0.177 0.038-0.301 0.045-0.181 0.011-0.361 0-0.542-0.038v0.233c0.184 0.034 0.373 0.049 0.557 0.034v0z"></path>
<path fill="#6c757d" d="M16.023 17.841c0.584-0.109 1.088-0.045 1.498 0.184v-0.188l-0.056-0.034c-0.102-0.060-0.373-0.218-0.855-0.23-0.019 0-0.034 0-0.053 0-0.041 0-0.083 0.004-0.12 0.008-0.124 0.008-0.248 0.019-0.38 0.041-0.331 0.060-0.73 0.041-1.178-0.060l-0.075-0.019v-4.213c-0.068-0.015-0.136-0.034-0.2-0.053v4.42c0.561 0.166 1.039 0.215 1.419 0.143v0z"></path>
<path fill="#6c757d" d="M16.023 18.251c0.584-0.109 1.088-0.049 1.498 0.184v-0.184l-0.026-0.015s-0.019-0.011-0.030-0.015c-0.376-0.226-0.851-0.29-1.408-0.184-0.429 0.079-0.964 0.023-1.585-0.169l-0.068-0.023v-4.39c-0.068-0.019-0.132-0.041-0.196-0.064v4.589c0.734 0.267 1.344 0.358 1.815 0.271v0z"></path>
<path fill="#6c757d" d="M19.377 16.316c0.090 0.019 0.192 0.041 0.331 0.049 0.184 0.015 0.373 0 0.557-0.034v-0.233c-0.181 0.038-0.361 0.053-0.538 0.041-0.124-0.011-0.215-0.026-0.301-0.045-0.102-0.019-0.203-0.041-0.346-0.045-0.188 0-0.38 0.034-0.576 0.105v0.245c0.196-0.083 0.384-0.124 0.572-0.12 0.117 0 0.203 0.019 0.301 0.041v0z"></path>
<path fill="#6c757d" d="M19.64 17.841c0.38 0.072 0.858 0.023 1.419-0.143v-4.42c-0.068 0.019-0.136 0.038-0.2 0.053v4.213l-0.075 0.019c-0.452 0.102-0.847 0.12-1.182 0.060-0.132-0.026-0.256-0.038-0.38-0.041-0.041 0-0.083-0.008-0.12-0.008-0.019 0-0.034 0-0.053 0-0.482 0.011-0.753 0.169-0.855 0.23l-0.056 0.034v0.188c0.41-0.23 0.915-0.294 1.498-0.184v0z"></path>
<path fill="#6c757d" d="M19.377 15.695c0.090 0.019 0.192 0.038 0.331 0.049 0.184 0.011 0.373 0 0.557-0.034v-0.233c-0.181 0.038-0.361 0.053-0.538 0.041-0.124-0.008-0.215-0.026-0.301-0.045-0.102-0.023-0.203-0.045-0.346-0.045-0.188-0.008-0.38 0.034-0.576 0.105v0.245c0.192-0.083 0.384-0.124 0.572-0.12 0.117 0 0.203 0.019 0.301 0.041v0z"></path>
<path fill="#6c757d" d="M12.559 29.481c1.261-0.267 5.218-1.314 7.891-4.314 1.679-1.89 2.56-4.224 2.62-6.942v-9.355h-10.515v20.616zM16.297 20.149l-0.403-0.215-0.407 0.215 0.079-0.452-0.328-0.316 0.452-0.068 0.203-0.41 0.203 0.41 0.452 0.068-0.328 0.316 0.075 0.452zM20.179 20.149l-0.403-0.215-0.403 0.215 0.079-0.452-0.328-0.316 0.452-0.068 0.203-0.41 0.203 0.41 0.452 0.068-0.328 0.316 0.079 0.452zM17.946 17.171v-3.878c0.105-0.079 0.218-0.143 0.335-0.203 0.169-0.075 0.444-0.162 0.821-0.162 0.169 0 0.35 0.019 0.538 0.053 0.072 0.015 0.147 0.023 0.23 0.026 0.256 0.015 0.55-0.011 0.87-0.087l0.12-0.026v0.233c0.087-0.023 0.177-0.049 0.267-0.075l0.128-0.038v0.233c0.087-0.026 0.169-0.056 0.26-0.090l0.132-0.049v5.007l-0.064 0.023c-0.798 0.301-1.464 0.403-1.984 0.305-0.542-0.102-1.001-0.045-1.378 0.169h-0.282v-1.438zM18.033 19.866l0.452 0.068-0.328 0.32 0.079 0.452-0.403-0.215-0.403 0.215 0.079-0.452-0.328-0.32 0.452-0.068 0.203-0.407 0.2 0.407zM14.012 13.105l0.132 0.049c0.090 0.034 0.177 0.064 0.264 0.090v-0.233l0.128 0.038c0.094 0.030 0.181 0.053 0.271 0.075v-0.233l0.12 0.026c0.324 0.075 0.614 0.102 0.87 0.087 0.079-0.004 0.158-0.015 0.23-0.026 0.188-0.034 0.369-0.053 0.538-0.053 0.38 0 0.651 0.087 0.821 0.162 0.117 0.056 0.23 0.124 0.335 0.203v5.32h-0.282c-0.373-0.211-0.836-0.267-1.378-0.169-0.52 0.098-1.186-0.008-1.984-0.305l-0.064-0.026v-5.007z"></path>
<path fill="#6c757d" d="M19.64 18.251c0.471 0.087 1.080-0.004 1.815-0.271v-4.589c-0.068 0.023-0.132 0.045-0.196 0.064v4.39l-0.068 0.023c-0.621 0.192-1.156 0.248-1.585 0.166-0.557-0.102-1.028-0.041-1.408 0.184-0.011 0.008-0.023 0.011-0.030 0.015l-0.026 0.015v0.184c0.41-0.23 0.915-0.29 1.498-0.184v0z"></path>
<path fill="#6c757d" d="M19.377 16.937c0.090 0.019 0.192 0.041 0.331 0.049 0.184 0.015 0.373 0 0.557-0.034v-0.233c-0.181 0.038-0.361 0.053-0.538 0.041-0.124-0.008-0.215-0.026-0.301-0.045-0.102-0.023-0.203-0.045-0.346-0.045-0.188 0-0.38 0.034-0.576 0.105v0.245c0.196-0.079 0.384-0.124 0.572-0.12 0.117 0 0.203 0.019 0.301 0.041v0z"></path>
<path fill="#6c757d" d="M19.377 14.449c0.090 0.019 0.192 0.038 0.331 0.049 0.184 0.015 0.373 0 0.557-0.034v-0.233c-0.181 0.038-0.361 0.053-0.538 0.038-0.124-0.008-0.215-0.026-0.301-0.045-0.102-0.019-0.203-0.041-0.346-0.045-0.188-0.008-0.38 0.034-0.576 0.105v0.245c0.196-0.083 0.384-0.124 0.572-0.12 0.117 0 0.203 0.019 0.301 0.041v0z"></path>
<path fill="#6c757d" d="M19.377 13.824c0.090 0.019 0.192 0.041 0.331 0.049 0.184 0.015 0.373 0 0.557-0.034v-0.233c-0.181 0.038-0.361 0.053-0.538 0.038-0.124-0.011-0.215-0.026-0.301-0.045-0.102-0.019-0.203-0.041-0.346-0.045-0.188-0.004-0.38 0.034-0.576 0.105v0.245c0.192-0.079 0.384-0.124 0.572-0.12 0.117 0 0.203 0.019 0.301 0.041v0z"></path>
<path fill="#6c757d" d="M19.377 15.070c0.090 0.019 0.192 0.041 0.331 0.049 0.184 0.015 0.373 0 0.557-0.034v-0.233c-0.181 0.038-0.361 0.053-0.538 0.041-0.124-0.008-0.215-0.030-0.301-0.045-0.102-0.023-0.203-0.041-0.346-0.045-0.188-0.004-0.38 0.034-0.576 0.105v0.245c0.196-0.083 0.388-0.124 0.572-0.12 0.117 0 0.203 0.019 0.301 0.041v0z"></path>
</svg>
