<!-- Generated by IcoMoon.io -->
<svg version="1.1" xmlns="http://www.w3.org/2000/svg" width="14" height="32" viewBox="0 0 14 32">
<title>sms</title>
<path fill="#6c757d" d="M8.286 25.143c0-0.789-0.64-1.429-1.429-1.429s-1.429 0.64-1.429 1.429v0c0 0.789 0.64 1.429 1.429 1.429s1.429-0.64 1.429-1.429v0zM12 22.286v-12.571c0-0.309-0.263-0.571-0.571-0.571h-9.143c-0.309 0-0.571 0.263-0.571 0.571v12.571c0 0.309 0.263 0.571 0.571 0.571h9.143c0.309 0 0.571-0.263 0.571-0.571zM8.571 7.143c0-0.16-0.114-0.286-0.286-0.286h-2.857c-0.16 0-0.286 0.114-0.286 0.286s0.114 0.286 0.286 0.286h2.857c0.16 0 0.286-0.114 0.286-0.286zM13.714 6.857v18.286c0 1.257-1.029 2.286-2.286 2.286h-9.143c-1.257 0-2.286-1.029-2.286-2.286v-18.286c0-1.257 1.029-2.286 2.286-2.286h9.143c1.257 0 2.286 1.029 2.286 2.286z"></path>
</svg>
