<!-- Generated by IcoMoon.io -->
<svg version="1.1" xmlns="http://www.w3.org/2000/svg" width="32" height="32" viewBox="0 0 32 32">
<path fill="currentColor" d="M8 7.25v-2.5c0-0.552 0.448-1 1-1h22c0.552 0 1 0.448 1 1v2.5c0 0.552-0.448 1-1 1h-22c-0.552 0-1-0.448-1-1zM9 18.25h22c0.552 0 1-0.448 1-1v-2.5c0-0.552-0.448-1-1-1h-22c-0.552 0-1 0.448-1 1v2.5c0 0.552 0.448 1 1 1zM9 28.25h22c0.552 0 1-0.448 1-1v-2.5c0-0.552-0.448-1-1-1h-22c-0.552 0-1 0.448-1 1v2.5c0 0.552 0.448 1 1 1zM1 9h4c0.552 0 1-0.448 1-1v-4c0-0.552-0.448-1-1-1h-4c-0.552 0-1 0.448-1 1v4c0 0.552 0.448 1 1 1zM1 19h4c0.552 0 1-0.448 1-1v-4c0-0.552-0.448-1-1-1h-4c-0.552 0-1 0.448-1 1v4c0 0.552 0.448 1 1 1zM1 29h4c0.552 0 1-0.448 1-1v-4c0-0.552-0.448-1-1-1h-4c-0.552 0-1 0.448-1 1v4c0 0.552 0.448 1 1 1z"></path>
</svg>
