<svg version="1.1" baseProfile="tiny" xmlns="http://www.w3.org/2000/svg" x="0" y="0" viewBox="0 0 64 64" xml:space="preserve"><polygon fill="#B30838" points="11.535,10.021 11.535,32.736 19.258,40.462 37.715,40.46 37.715,48.35 28.226,48.35 28.226,43.204 11.552,43.204 11.552,55.622 19.307,63.438 44.74,63.438 52.465,55.725 52.465,32.741 44.596,25.141 27.655,25.141 27.655,16.68 37.031,16.68 37.031,22.51 52.463,22.51 52.465,10.029 43.822,1.189 20.424,1.189"/><path fill="#FFFFFF" d="M12.534 10.479v21.856l7.119 7.122 19.06-.001V49.4c-1.613 0-9.93 0-11.545.004v-5.146H12.55v10.955l7.141 7.223h24.598l7.119-7.119V33.182l-7.283-6.99h-17.53V15.676h11.434v5.83h13.379V10.485l-8.039-8.242H20.808l-8.274 8.236z"/><polygon fill="#B30838" points="21.229,3.346 13.569,10.991 13.569,31.985 20.084,38.502 39.748,38.502 39.746,50.506 26.143,50.506 26.143,45.361 13.583,45.361 13.583,54.852 20.112,61.48 43.873,61.48 50.381,54.958 50.383,33.671 43.693,27.296 25.571,27.296 25.57,14.721 39.062,14.721 39.062,20.551 50.381,20.551 50.383,10.991 42.951,3.346"/></svg>
