<!-- Generated by IcoMoon.io -->
<svg version="1.1" xmlns="http://www.w3.org/2000/svg" width="32" height="32" viewBox="0 0 32 32">
<title>stanford</title>
<path fill="#6c757d" d="M5.77 5.010l4.43-4.41h11.7l4.32 4.42v6.25h-7.72v-2.94h-4.68v4.23h8.47l3.93 3.8v11.5l-3.86 3.85h-12.71l-3.88-3.9v-6.21h8.34v2.57h4.75v-3.94h-9.23l-3.86-3.86v-11.37zM6.27 5.24v10.93l3.56 3.56h9.53v4.97h-5.78v-2.57h-7.3v5.48l3.57 3.6h12.3l3.55-3.55v-11.070l-3.64-3.5h-8.76v-5.24h5.7v2.91h6.7v-5.5l-4.030-4.13h-11.27zM10.61 1.67h10.87l3.71 3.83v4.78h-5.66v-2.92h-6.75v6.29h9.070l3.34 3.19v10.64l-3.25 3.26h-11.88l-3.27-3.31v-4.75h6.28v2.57h6.8v-6h-9.83l-3.26-3.26v-10.49z"></path>
</svg>
