<!-- Generated by IcoMoon.io -->
<svg version="1.1" xmlns="http://www.w3.org/2000/svg" width="34" height="32" viewBox="0 0 34 32">
<title>tags</title>
<path fill="#6c757d" d="M8 8c0-1.262-1.023-2.286-2.286-2.286s-2.286 1.023-2.286 2.286v0c0 1.262 1.023 2.286 2.286 2.286s2.286-1.023 2.286-2.286v0zM27.051 18.286c0 0.606-0.251 1.2-0.663 1.6l-8.766 8.8c-0.415 0.411-0.986 0.666-1.617 0.666s-1.202-0.254-1.617-0.666l0 0-12.766-12.8c-0.943-1.027-1.546-2.379-1.622-3.871l-0.001-0.015v-7.429c0-1.257 1.029-2.286 2.286-2.286h7.429c1.257 0 2.994 0.709 3.909 1.623l12.777 12.754c0.411 0.423 0.663 1.017 0.663 1.623zM33.909 18.286c0 0.606-0.251 1.2-0.663 1.6l-8.766 8.8c-0.423 0.399-0.994 0.646-1.622 0.651h-0.001c-0.926 0-1.394-0.423-2-1.051l8.389-8.389c0.411-0.415 0.666-0.986 0.666-1.617s-0.254-1.202-0.666-1.617l-12.766-12.754c-1.035-0.942-2.395-1.545-3.893-1.622l-0.015-0.001h4c1.257 0 3.006 0.709 3.909 1.623l12.777 12.754c0.411 0.423 0.663 1.017 0.663 1.623z"></path>
</svg>
