<!-- Generated by IcoMoon.io -->
<svg version="1.1" xmlns="http://www.w3.org/2000/svg" width="29" height="32" viewBox="0 0 29 32">
<title>texas</title>
<path fill="#6c757d" d="M26.32 14.13v-5.5h-4.75v-2.33h1.67v-3.8h-6.94v3.8h1.74v2.31h-6.74v-2.3h1.74v-3.81h-6.94v3.8h1.67v2.31h-4.77v5.5h3.55v-1.64h1.2v3.020c0 6.48 4.95 7.7 4.95 7.7v2.77h-1.4v3.52h6.72v-3.52h-1.4v-2.78s4.94-1.22 4.94-7.7v-3.020h1.2v1.65h3.55zM12.71 19.36s-1.4-0.82-1.4-2.34v-4.55h1.4v6.89zM18.030 17.020c0 1.52-1.4 2.34-1.4 2.34v-6.88h1.4v4.54z"></path>
</svg>
