<svg xmlns="http://www.w3.org/2000/svg" version="1.1" x="0" y="0" viewBox="0 0 250 250" xml:space="preserve"><g><path d="M128.364 34.377c0 3.396-.301 8.986 1.378 10.106 4.725 3.152 12.705 5.332 15.237 8.386.687.828-.15 6.228-2.001 5.822-12.752-2.812-13.318-2.649-22.677-2.548-.765.009-2.75-3.936-2.849-6.548-.06-1.638 2.275-3.32 3.156-6.002 1.452-4.447.323-24.979.788-38.864.1-3.128.42-4.303 3.453-4.303 2.79 0 3.197 1.927 3.159 4.283-.164 9.862.356 19.968.356 29.668z"/><path d="M120.931 3.496c0-2.91 3.878-4.85 5.333-2.91" fill="none"/><path d="M143.727 52.485c1.94 1.941 0 6.791-3.883 5.336-6.788-2.425-13.093-1.456-19.884-2.425-1.941-.486-2.425-3.88-2.425-5.82" fill="none"/><path d="M127.719 14.167c0 9.216-.482 17.947.486 27.161 0 .971.968 2.426 1.455 2.911" fill="none"/><path d="M179.497 140.276c.957-.238 7.51-.576 10.67 0 .854.156 1.467.796 1.696 1.091.952 1.216.81 6.092.736 7.562-.156 3.174-1.822 4.951-1.794 7.72.221 22.22.757 48.441-.454 53.11-2.043 7.857-1.759 9.223-4.865 9.5-.897.079-1.865-.164-2.429-2.831-.404-1.941-.596-5.111-.65-9.094-.12-9.156.065-32.816-.334-42.015-.361-8.367-2.543-8.914-3.15-9.338-.82-.572-1.882-.848-2.123-2.243-.503-2.898.454-9.52 1.362-11.885.176-.453.619-1.398 1.335-1.577z"/><path d="M196.36 239.052c-7.56 0-19.045.416-21.227-.982-1.488-.949-1.335-3.14-1.444-7.314-.75-28.127.278-56.183-.203-84.317 0-2.424-.79-6.335-4.184-6.335-4.364 0-12.642-.353-13.45.294-.64.32-1.112.717-1.454 1.455-1.215 2.608-1.997 8.99-1.701 11.884.104.991.716 2.027 2.182 2.354 4.124.92 6.186 3.225 6.317 9.428.334 21.21.63 62.763-2.15 69.653-1.394 3.457-7.804 5.742-9.489 2.132-1.274-2.728-1.094-65.112-1.094-90.823 0-4.485-1.455-6.416-6.426-6.416-6.265 0-11.973-.082-18.35 0-.47.007-1.545.324-2.07 1.616-1.43 3.517-2.18 11.845-1.458 13.096.235.405.525 1.086 2.138 1.258 8.33.894 12.214 4.775 12.416 13.374.31 13.218 2.212 62.794-3.56 68.068-2.342 2.142-11.186 1.78-13.215 1.075-1.457-.506-2.316-1.66-2.467-3.096-1.575-15.076.815-89.135-.891-92.965-.646-1.455-1.324-1.738-2.707-2.143-2.341-.686-13.417.122-15.46-.688-.44-.173-1.326-.354-1.402-1.336-.214-2.706.032-5.577 1.039-7.718.497-1.063 2.067-1.13 2.707-1.13 32.537-.041 78.943.24 96.523-.284.969-.028 2.872-.282 3.424-1.91.711-2.083 1.428-7.184.982-8.6-.254-.859-.607-1.172-1.736-1.455-1.942-.242-72.967-.131-109.347-.618-1.941 0-5.362.234-5.822-1.453-.483-1.78-.388-5.367.487-7.115 3.555-7.114 6.788-5.496 9.052-15.845 1.367-6.248-.81-11.317 2.264-16.33 4.091-6.673 7.192-8.847 10.025-13.742 1.778-3.07-1.941-7.598-5.338-6.628-2.423.97-17.296 10.833-25.219 24.25-6.3 10.675-8.581 22.174-13.096 33.47-1.133 2.83-2.76 3.527-7.286 4.013-2.814.3-3.951 10.234-2.102 11.47.366.24 1.105.478 1.378.537 4.09.884 5.573 5.868 5.655 10.778 0 0 .99 84.173-1.416 93.097-1.696 6.305-3.31 5.48-4.89 6.174-.148.065-.788.303-1.045.99-.662 1.749-1.427 6.013-.897 8.21.203.825.487 1.29 1.578 1.29 55.446 0 121.27.03 144.471.03 1.212 0 1.767-.244 2.212-2.022.624-2.187 1.119-5.311.889-7.074-.363-1.657-1.995-1.657-3.144-1.657zm-123.483-2.714c-2.587 2.886-5.06 3.938-5.12.502-.39-23.286-.076-72.065.247-73.484.607-2.668 4.244-4 6.06.243 2.204 5.137 3.046 68.012-1.187 72.739zm25.498-.144c-2.633 3.031-8.368 4.121-9.62.766-1.997-5.344-.93-77.283-.646-78.736.541-2.795 5.598-2.486 7.438-1.169 4.217 3.018 4.89 5.412 5.314 12.204 1.212 19.378 1.518 62.326-2.486 66.935z"/></g></svg>
