<!-- Generated by IcoMoon.io -->
<svg version="1.1" xmlns="http://www.w3.org/2000/svg" width="32" height="32" viewBox="0 0 32 32">
<title>uva</title>
<path fill="#6c757d" d="M22.16 26.45v-12.050h2.58v12.060h-2.58zM8.24 26.45v-12.050h2.5v12.060h-2.5zM11.6 26.45v-12.050h2.66v12.060h-2.66zM15.12 26.45v-12.050h2.66v12.060h-2.66zM21.3 14.4v12.060h-2.66v-12.060h2.66zM23.63 13.55h-14.33l7.36-4.45 6.98 4.45zM7.63 13.55h-6.13v-4.5h13.58l-7.44 4.5zM18.17 9.050h13.23v4.5h-6.18l-7.050-4.5zM29.51 8.2h-26.12c2.621-4.571 7.472-7.6 13.030-7.6 0.011 0 0.021 0 0.032 0h-0.002c5.6 0 10.5 3.070 13.060 7.6zM5.76 25.74l-0.15 0.45 0.39-0.28 0.39 0.28-0.15-0.45 0.39-0.28h-0.48l-0.15-0.45-0.15 0.45h-0.48l0.39 0.28zM3.63 22.95l-0.15 0.45 0.39-0.27 0.39 0.27-0.15-0.45 0.39-0.28h-0.48l-0.15-0.45-0.15 0.45h-0.48l0.39 0.28zM2.16 19.55l-0.15 0.45 0.4-0.28 0.38 0.28-0.14-0.45 0.39-0.28h-0.48l-0.15-0.44-0.15 0.44h-0.48l0.39 0.28zM7.38 26.45h-5.89v-10.77l0.2 0.14-0.15 0.45 0.4-0.28 0.38 0.28-0.15-0.45 0.4-0.28h-0.49l-0.15-0.45-0.15 0.45h-0.28v-1.14h5.88v12.060zM7.38 27.3v3.2h-5.89v-3.2h5.89zM25.6 27.3h5.8v3.2h-5.8v-3.2zM20.44 29.58l0.4-0.28h-0.5l-0.14-0.45-0.15 0.45h-0.48l0.4 0.28-0.16 0.45 0.4-0.27 0.38 0.27-0.15-0.45zM23.89 28.22l0.39-0.28h-0.48l-0.15-0.45-0.15 0.45h-0.48l0.39 0.28-0.15 0.45 0.4-0.28 0.38 0.28-0.15-0.45zM12.46 29.58l-0.15 0.45 0.39-0.27 0.39 0.27-0.15-0.45 0.39-0.28h-0.48l-0.15-0.45-0.15 0.45h-0.48l0.39 0.28zM9 28.22l-0.15 0.45 0.39-0.28 0.39 0.28-0.15-0.45 0.4-0.28h-0.48l-0.15-0.45-0.15 0.45h-0.48l0.39 0.28zM24.73 27.3v3.2h-7.9l-0.13-0.4 0.39-0.29h-0.48l-0.15-0.45-0.15 0.46h-0.48l0.39 0.27-0.14 0.42h-7.84v-3.2h16.5zM16.8 30.5h-0.68l0.34-0.24 0.34 0.24zM27.13 25.74l0.4-0.28h-0.49l-0.15-0.45-0.15 0.45h-0.48l0.4 0.28-0.16 0.45 0.4-0.28 0.38 0.28-0.15-0.45zM29.26 22.95l0.4-0.28h-0.49l-0.15-0.45-0.15 0.45h-0.48l0.4 0.28-0.16 0.45 0.4-0.27 0.38 0.27-0.15-0.45zM30.72 19.55l0.4-0.28h-0.49l-0.14-0.44-0.15 0.44h-0.49l0.4 0.28-0.15 0.45 0.39-0.28 0.39 0.28-0.16-0.45zM31.39 26.45h-5.8v-12.050h5.8v1.15h-0.29l-0.14-0.45-0.15 0.45h-0.49l0.4 0.28-0.16 0.45 0.4-0.28 0.39 0.28-0.15-0.45 0.2-0.14v10.77z"></path>
</svg>
