<svg viewBox="0 0 106 107" version="1.1" xmlns="http://www.w3.org/2000/svg"><g stroke="none" stroke-width="1" fill="none" fill-rule="evenodd"><g fill="#000000"><g><g><g><path d="M74.104 88.447V48.119h8.622v40.328h-8.622z"/></g><g><path d="M27.55 88.447V48.119h8.35v40.328h-8.35z"/></g><g><path d="M38.772 88.447V48.119h8.9v40.328h-8.9z"/></g><g><path d="M50.55 88.447V48.119h8.901v40.328H50.55z"/></g><g><path d="M71.228 48.119v40.328h-8.904V48.119h8.904z"/></g><g><path d="M79.024 45.266h-47.96l24.613-14.873 23.347 14.873z"/></g><g><path d="M25.542 45.266H5.002V30.239h45.412L25.542 45.266z"/></g><g><path d="M60.758 30.24H105v15.026H84.336L60.758 30.239z"/></g><g><path d="M98.672 27.394h-87.34C19.882 12.242 36.234 2 55.002 2a50.076 50.076 0 0143.67 25.394z"/></g><g><path d="M19.248 86.065l-.496 1.507 1.302-.931 1.307.931-.501-1.507 1.307-.931h-1.614l-.497-1.502-.496 1.502h-1.61l1.298.931zm-7.116-9.316l-.501 1.507 1.302-.929 1.308.93-.497-1.508 1.303-.931h-1.61l-.501-1.507-.497 1.507H10.83l1.302.931zM7.235 65.38l-.501 1.502 1.302-.932 1.308.932-.497-1.502 1.303-.934H8.54l-.501-1.502-.497 1.502H5.933l1.302.934zm17.44 23.068H4.999V52.435l.658.468-.502 1.507 1.302-.934 1.308.934-.496-1.507 1.302-.931H6.96l-.501-1.507-.496 1.507h-.962v-3.856h19.675v40.331h-.002z"/></g><g><path d="M24.675 91.297V102H4.999V91.297h19.676z"/></g><g><path d="M85.6 91.297h19.399V102h-19.4V91.297z"/></g><g><path d="M68.35 98.92l1.307-.932h-1.614l-.497-1.507-.496 1.507h-1.61l1.303.931-.496 1.507 1.302-.928 1.307.928-.506-1.507zm11.526-4.563l1.308-.931h-1.61l-.496-1.507-.502 1.507h-1.609l1.302.931-.496 1.507 1.307-.928 1.303.928-.507-1.507zM41.651 98.92l-.502 1.507 1.308-.928 1.302.928-.496-1.507 1.302-.931h-1.61l-.496-1.507-.496 1.507h-1.614l1.302.931zm-11.524-4.562l-.501 1.507 1.302-.928 1.307.928-.496-1.507 1.302-.931h-1.61l-.5-1.507-.497 1.507h-1.61l1.303.931zm52.597-3.06V102H56.327l-.455-1.38 1.302-.928h-1.61l-.496-1.507-.501 1.507h-1.61l1.308.929-.46 1.379H27.55V91.297h55.174zM56.194 102h-2.26l1.132-.806 1.128.806z"/></g><g><path d="M90.753 86.065l1.302-.931h-1.61l-.496-1.502-.499 1.502h-1.614l1.307.931-.496 1.507 1.302-.931 1.303.931-.5-1.507zm7.118-9.316l1.307-.931h-1.61l-.496-1.507-.501 1.507h-1.61l1.303.931-.496 1.507 1.307-.929 1.302.93-.506-1.508zm4.894-11.37l1.308-.934h-1.61l-.496-1.502-.501 1.502h-1.61l1.3.934-.496 1.502 1.307-.932 1.302.932-.504-1.502zm2.237 23.068h-19.4V48.119h19.4v3.855h-.962l-.5-1.507-.5 1.507h-1.61l1.302.932-.499 1.507 1.308-.934 1.302.934-.502-1.507.658-.469v36.01h.003z"/></g></g></g></g></g></svg>
